P2
2 2
255
0 100
100 255 