P2
2 2
255
0 175
100 255 