P2
8 8
255
0 0 0 0 75 75 75 75 
0 0 0 0 75 75 75 75 
0 0 0 0 75 75 75 75 
0 0 0 0 75 75 75 75 
175 175 175 175 255 255 255 255 
175 175 175 175 255 255 255 255 
175 175 175 175 255 255 255 255 
175 175 175 175 255 255 255 255 
