P2
72 49
255
60 60 60 60 60 60 60 60 60 60 157 157 60 87 194 194 194 139 185 180 106 78 157 60 60 60 60 60 60 60 118 255 60 60 60 60 60 60 60 60 60 60 60 60 60 60 60 60 60 60 60 60 60 60 60 92 60 60 60 60 60 60 60 60 60 60 60 60 60 60 60 107 60 196 60 60 60 60 60 60 60 60 60 60 60 60 60 60 60 60 60 60 60 60 147 78 60 60 60 60 255 118 60 60 60 60 60 60 60 60 60 60 60 60 60 60 60 60 60 60 60 60 60 60 60 60 60 60 60 163 60 60 60 60 60 60 60 60 60 60 60 60 60 60 60 60 176 60 60 60 60 60 60 60 60 60 60 60 60 60 60 60 60 60 60 60 60 60 60 145 94 163 255 60 60 60 60 60 60 60 60 60 60 60 60 60 60 60 60 60 60 60 60 60 60 60 60 60 60 60 60 60 95 176 60 60 60 60 60 60 60 60 60 60 60 60 60 60 60 78 60 60 60 60 60 60 60 60 60 60 60 60 60 60 60 60 60 60 60 60 60 217 83 123 87 157 60 60 60 60 60 60 60 60 60 60 60 60 60 60 60 60 60 60 60 60 60 60 60 60 60 60 60 60 60 60 150 60 60 60 60 60 60 60 60 60 60 60 60 60 60 60 60 157 60 60 60 60 60 60 60 60 60 60 60 60 60 60 60 60 60 60 255 153 60 60 60 60 60 157 105 223 60 60 60 60 60 60 60 60 60 60 60 60 60 103 60 60 60 60 60 60 60 60 60 60 60 60 60 123 60 60 60 60 60 60 60 60 60 60 60 60 60 60 60 60 60 60 60 60 60 60 60 60 60 60 60 60 60 60 60 60 255 255 190 60 60 60 60 60 60 60 60 60 87 147 60 60 60 60 60 60 60 60 60 60 60 138 60 60 60 60 60 60 60 60 60 60 60 60 60 60 102 60 60 60 60 60 60 60 60 60 60 60 60 60 60 60 60 252 255 60 60 60 60 60 60 60 60 60 60 60 60 60 131 219 60 60 60 60 60 60 60 60 60 60 60 60 133 139 60 60 60 60 60 60 60 60 60 194 60 60 60 60 60 255 194 60 60 60 60 60 60 60 60 60 132 60 60 60 60 60 60 60 60 60 60 60 60 60 60 60 241 60 60 60 60 60 60 60 60 60 60 60 60 255 115 60 60 60 60 60 60 60 60 60 60 60 60 60 60 109 93 127 60 60 60 60 60 60 60 255 60 60 60 255 60 60 60 60 60 60 60 60 60 60 60 60 60 109 126 60 60 60 60 60 60 60 60 60 60 60 60 60 102 60 60 60 60 60 60 60 60 60 60 60 255 190 80 60 60 60 60 60 60 60 60 60 60 60 60 60 60 60 60 60 87 64 60 60 60 60 60 138 60 255 177 60 60 60 60 60 60 60 60 60 60 60 60 60 60 60 102 123 60 60 60 60 60 60 60 60 60 60 60 60 60 212 60 60 60 60 60 60 60 60 60 60 217 64 60 60 60 60 60 60 60 60 60 60 60 60 60 60 60 60 157 60 60 87 123 60 60 60 60 80 138 60 60 60 60 60 60 60 60 60 60 60 60 60 60 60 60 60 60 60 92 153 60 231 60 60 60 60 60 60 60 60 60 109 60 60 60 60 60 60 60 60 60 255 235 60 60 60 60 60 60 60 60 60 60 60 60 60 60 60 60 60 60 103 60 60 60 94 60 60 60 103 60 60 60 60 60 60 60 60 60 60 60 60 60 60 60 60 60 60 60 60 60 250 96 131 60 60 60 60 60 60 60 60 60 60 112 60 60 60 60 60 60 60 255 138 60 60 60 60 60 60 60 60 60 60 60 60 60 60 60 60 60 60 60 60 60 60 60 60 64 137 255 60 60 60 60 60 60 60 60 60 60 60 60 60 60 60 60 60 60 60 60 255 103 252 60 73 60 60 60 60 60 60 60 60 60 60 73 60 60 60 60 60 60 60 96 60 60 60 60 229 60 60 60 60 60 60 60 60 60 60 60 60 60 60 60 60 60 60 60 60 60 60 60 60 60 60 60 60 60 60 60 60 60 60 60 60 60 60 60 60 235 244 180 60 60 60 60 120 60 60 60 60 60 60 60 60 60 60 60 235 60 60 60 60 60 235 60 60 60 60 60 60 169 60 60 60 60 60 60 60 60 60 60 60 60 60 60 60 60 60 60 60 60 138 60 60 60 60 60 60 60 60 60 60 60 60 60 60 60 60 255 169 217 60 60 60 60 88 60 60 60 60 60 60 60 80 217 60 60 60 60 60 60 60 60 60 255 83 60 60 60 60 60 60 60 60 217 60 60 60 60 60 60 60 60 60 60 60 60 60 60 60 60 60 255 60 60 60 60 60 60 60 60 60 60 60 60 60 60 80 255 217 138 60 60 60 60 60 189 60 60 60 60 60 60 60 60 60 60 60 177 163 60 60 60 60 60 255 94 235 126 118 138 110 96 103 138 217 244 186 217 60 60 60 60 60 60 60 60 60 60 60 60 60 60 167 60 60 60 60 60 60 60 60 60 60 60 60 60 60 138 235 60 60 60 60 60 60 239 60 60 60 60 60 60 60 60 60 60 60 60 60 60 180 60 169 211 60 60 173 83 60 60 60 60 60 60 60 60 60 60 60 60 138 255 255 60 60 60 60 60 60 60 60 60 60 60 138 60 60 60 60 60 60 60 60 60 60 60 60 60 153 217 60 60 60 60 60 73 60 60 60 60 60 60 60 60 60 60 60 60 210 153 163 60 60 60 60 210 60 103 84 60 60 60 60 190 60 60 60 60 60 60 60 60 60 60 60 60 159 108 169 204 249 255 217 60 60 255 60 60 60 60 60 60 60 60 60 60 60 60 255 217 60 60 60 60 60 234 146 60 60 60 60 60 60 60 60 60 153 167 173 60 60 60 60 60 60 60 60 210 60 103 60 60 60 60 60 60 60 60 60 60 60 60 60 60 60 60 60 60 60 60 60 60 60 60 60 110 255 255 60 60 60 60 60 60 60 60 60 60 229 103 60 60 60 77 212 147 60 60 60 60 60 60 60 60 60 60 60 60 60 60 60 60 60 60 60 60 60 60 60 60 255 217 60 60 60 127 60 60 60 60 60 60 194 60 60 60 60 60 60 60 60 60 60 60 60 60 60 60 60 153 186 60 60 60 60 60 60 60 217 202 212 255 120 60 60 60 60 60 60 60 60 60 60 60 60 60 60 80 252 60 60 60 60 60 60 60 127 60 60 60 60 60 185 60 60 60 60 94 60 116 60 60 60 60 211 60 60 60 60 60 60 60 60 60 60 60 60 60 60 60 60 60 60 255 60 212 189 240 115 103 60 60 60 60 60 60 60 60 60 60 60 60 60 60 60 60 60 255 241 182 60 60 60 60 60 60 60 60 185 60 60 60 60 73 217 60 60 60 60 108 165 60 60 60 66 60 145 60 60 60 60 60 60 60 60 60 60 60 60 60 60 60 60 60 60 60 212 207 176 150 90 69 60 60 60 60 60 60 60 60 60 60 60 60 60 231 60 60 255 83 60 60 60 60 60 60 60 60 105 60 69 212 60 60 60 235 186 60 60 60 60 60 60 60 60 60 60 60 60 60 60 60 60 60 60 60 60 60 60 60 60 60 60 60 60 60 60 95 189 204 158 94 96 69 60 60 60 60 60 60 60 60 60 60 60 60 132 60 255 212 235 60 60 202 175 60 60 60 60 60 60 60 131 60 60 60 60 83 138 64 60 60 60 83 60 60 60 60 60 60 60 60 60 60 60 60 60 60 60 60 60 60 60 60 60 60 60 60 60 60 153 137 185 96 69 112 60 60 60 60 60 60 60 60 60 60 60 123 60 229 123 60 255 103 60 60 60 60 60 60 60 60 60 60 60 250 60 88 255 235 108 60 255 60 177 60 60 60 103 255 60 133 90 60 60 60 60 60 60 60 60 60 60 60 60 60 60 139 115 120 189 60 103 102 98 83 109 189 103 163 60 60 60 60 239 60 60 60 60 60 107 255 194 112 60 60 60 60 88 60 60 60 60 60 229 60 60 255 60 60 195 60 235 60 66 162 252 60 60 60 217 255 60 60 118 60 60 60 60 60 60 60 60 60 60 60 60 60 60 60 60 83 252 60 156 115 123 147 60 252 60 60 60 176 110 88 132 180 194 118 126 131 60 60 60 60 60 60 60 112 60 60 60 60 60 229 60 60 60 250 60 250 93 255 60 60 88 252 60 60 60 60 255 60 60 60 60 60 60 60 60 60 60 60 60 60 60 60 60 60 255 60 60 60 69 60 60 243 202 60 60 115 80 132 60 60 60 60 60 255 131 186 60 60 60 171 60 138 239 189 60 203 60 60 60 60 163 60 60 60 60 255 60 255 219 169 60 60 255 60 60 76 60 99 60 60 60 64 76 60 60 60 60 60 60 60 60 83 60 60 60 60 60 169 60 231 60 239 60 240 202 60 60 60 194 169 173 138 88 217 60 60 60 60 60 60 60 126 60 60 60 60 60 231 60 60 60 138 60 60 60 60 60 96 60 254 235 235 60 60 80 202 110 60 255 60 60 80 60 60 60 60 60 60 60 60 60 60 60 60 60 60 60 137 176 60 176 239 88 60 60 240 202 60 60 147 109 219 60 60 109 132 60 185 171 78 60 60 60 60 231 60 60 60 60 60 60 60 138 60 60 60 60 60 60 202 69 223 189 60 60 255 244 60 60 60 169 60 60 171 255 80 60 158 60 60 60 137 60 60 60 60 60 60 156 189 87 73 171 189 171 66 60 230 163 60 131 132 69 175 60 60 60 252 60 60 60 60 60 60 163 60 60 189 138 60 60 60 147 131 60 60 60 60 72 202 60 131 60 217 202 60 157 60 60 60 60 255 60 60 64 194 60 60 60 189 60 212 169 60 60 60 60 60 60 60 138 110 231 60 95 95 189 60 60 221 169 189 239 69 102 255 196 73 60 109 60 60 60 154 60 60 77 73 60 245 146 60 60 60 60 60 60 60 60 60 60 212 60 103 60 204 169 60 133 60 157 60 60 202 189 60 60 118 60 60 60 222 66 126 60 60 60 60 60 60 60 217 60 127 137 60 60 189 222 60 60 240 194 109 255 147 231 239 60 110 95 60 64 60 60 60 60 60 60 69 245 157 115 132 60 60 60 60 60 60 60 203 60 60 252 100 60 196 176 203 118 60 109 157 234 60 60 203 212 138 60 60 60 66 176 60 60 164 60 60 60 60 60 60 60 210 60 60 60 212 60 115 60 245 163 252 69 60 60 212 156 60 137 60 60 255 159 60 60 60 146 221 79 64 60 92 97 226 156 60 60 60 60 60 60 107 60 90 60 138 176 194 60 169 60 255 250 60 255 60 60 60 60 244 60 60 192 60 108 60 60 60 60 60 212 60 244 60 60 252 176 255 60 156 112 240 93 195 77 115 60 176 171 239 204 60 255 171 240 60 60 180 165 60 60 115 60 60 60 109 60 60 60 60 60 60 239 60 60 204 255 88 60 185 60 145 60 83 60 68 60 60 139 127 60 60 162 123 194 109 60 95 60 60 60 239 60 60 60 60 60 60 239 147 60 60 252 108 105 210 60 60 60 60 239 252 169 189 153 245 122 60 245 230 189 95 189 109 60 60 60 109 60 60 60 60 60 60 252 64 60 159 204 83 243 99 124 60 255 127 60 76 60 255 60 147 239 60 60 84 226 60 60 60 138 60 222 255 60 60 60 60 60 194 126 204 60 60 60 60 157 147 60 60 147 60 60 60 60 60 252 123 243 94 60 212 60 60 60 60 60 171 60 239 182 60 60 60 60 255 60 60 60 60 235 108 60 247 127 69 138 109 239 255 229 229 221 177 255 255 60 185 60 60 60 60 236 64 185 60 60 110 60 60 60 60 60 60 230 255 60 94 202 88 60 60 240 60 60 87 60 243 251 133 60 60 60 60 60 60 60 60 60 254 60 147 255 60 60 60 73 60 60 60 167 163 60 90 255 60 60 80 109 185 202 252 186 126 254 60 60 60 176 204 145 69 60 60 109 126 255 60 60 60 60 60 60 60 60 76 60 60 60 158 226 194 60 243 212 60 60 94 245 176 235 60 60 60 60 60 60 60 60 60 189 202 60 60 146 60 60 255 167 60 60 60 255 60 60 204 138 167 163 138 231 60 145 176 153 108 131 76 60 171 78 137 133 229 252 132 202 60 103 60 60 60 60 60 60 60 210 60 255 60 60 60 221 60 110 86 215 190 202 235 139 60 185 60 60 60 60 60 60 60 60 164 202 60 146 115 60 157 185 60 60 60 60 255 217 153 255 190 250 64 60 60 64 60 60 147 163 234 109 87 60 243 60 115 131 60 255 60 146 60 146 60 60 60 60 60 60 60 60 252 87 60 60 60 211 145 243 76 204 60 146 230 176 60 244 133 60 60 60 60 60 60 110 251 60 60 254 60 60 60 60 60 60 60 60 217 235 250 255 219 138 60 60 60 60 110 255 180 223 255 146 60 60 60 60 60 60 255 222 60 204 138 159 99 60 230 60 60 60 60 60 60 60 60 60 60 108 60 245 64 243 240 251 76 60 60 86 243 211 167 60 60 60 210 60 60 226 185 223 146 60 60 250 202 118 110 96 60 60 60 255 60 60 60 60 60 60 60 60 255 177 206 78 192 176 123 131 115 132 169 66 60 60 176 99 109 183 255 60 60 60 115 60 60 189 60 60 243 94 60 248 211 60 245 94 60 60 60 60 60 240 244 60 60 60 75 133 120 64 60 60 250 60 60 60 60 60 60 60 60 60 150 255 173 60 60 60 60 60 60 157 255 73 145 123 163 60 60 203 60 146 115 158 60 60 60 243 210 185 107 211 204 239 150 240 60 60 163 73 245 75 180 180 219 240 157 60 96 60 60 60 60 60 202 230 202 115 60 60 60 146 60 60 251 93 60 60 60 60 60 60 60 169 60 255 163 60 60 60 60 221 60 60 157 157 147 122 105 78 60 60 60 239 60 60 215 176 88 60 154 60 203 157 60 60 94 72 255 60 176 60 248 245 133 221 69 93 60 60 115 180 60 60 60 60 157 76 247 60 60 60 60 185 60 109 211 103 60 60 60 60 60 60 126 60 60 255 173 60 60 60 183 60 118 167 157 157 139 116 94 75 103 60 60 60 60 60 64 138 60 60 60 60 134 194 60 60 106 60 185 180 163 131 240 94 255 221 206 139 115 78 180 145 185 139 105 92 176 90 60 250 60 60 60 60 252 60 244 131 167 60 60 60 60 60 60 60 60 255 196 60 60 165 60 60 123 145 147 127 116 106 78 68 105 210 60 60 60 60 60 123 60 60 60 60 60 133 252 233 60 204 204 185 163 150 115 139 83 86 60 60 83 60 60 60 60 60 73 60 122 76 145 223 254 60 60 189 60 60 174 250 103 115 186 60 66 252 210 233 223 255 173 240 233 126 94 139 185 133 123 122 194 84 68 87 133 60 60 60 60 60 60 60 60 60 60 60 69 165 255 255 196 195 196 180 163 138 110 83 245 157 78 171 186 171 115 132 145 165 60 87 60 162 229 60 240 210 165 171 113 202 171 60 138 244 60 90 167 106 60 60 60 255 103 185 255 244 60 194 87 106 105 94 167 235 196 235 244 235 235 217 204 189 60 60 60 60 60 60 203 150 163 139 190 188 180 163 157 131 108 75 90 60 146 146 255 163 60 60 211 60 118 176 183 110 212 123 60 254 90 203 243 78 146 60 163 126 255 255 217 115 233 157 203 255 151 60 255 204 110 60 60 255 196 83 145 190 235 212 204 151 138 68 162 118 94 138 229 66 60 60 60 60 223 60 180 173 163 157 131 115 90 66 90 223 133 66 255 235 153 210 60 171 88 107 60 126 176 239 120 60 255 60 115 113 60 126 