P2
8 5
55
0 5 10 15 20 25 30 35
5 10 15 20 25 30 35 40
10 15 20 25 30 35 40 45
15 20 25 30 35 40 45 50
20 25 30 35 40 45 50 55
