P2
128 96
255
0 0 0 8 0 0 8 0 8 0 8 0 8 8 0 0 0 0 8 8 8 0 0 8 8 8 0 0 8 0 0 8 0 8 0 0 0 0 0 0 0 0 0 0 0 0 0 0 0 0 0 0 0 0 0 0 0 0 0 0 0 0 0 0 0 0 0 0 0 0 0 0 0 0 0 0 0 0 0 0 0 0 0 0 0 0 0 0 0 0 0 0 0 0 0 0 0 0 0 0 0 0 0 0 0 0 0 0 0 0 0 0 0 0 0 0 0 0 0 0 0 0 0 0 0 0 0 0
0 0 0 0 8 0 0 0 8 8 0 8 8 12 8 8 8 8 0 8 8 8 8 12 12 8 0 12 8 12 8 12 12 0 8 0 8 8 8 8 8 8 8 8 8 8 8 8 8 8 8 8 8 0 8 8 8 0 8 8 8 8 0 8 8 8 0 0 0 0 8 8 8 0 8 8 8 0 8 0 8 8 8 8 0 8 0 8 0 8 0 8 0 8 0 8 0 8 0 8 8 8 8 0 8 0 8 8 8 8 8 0 0 8 8 8 8 8 8 8 8 8 8 0 0 0 8 8
0 0 8 0 8 0 8 8 12 0 8 8 0 8 8 0 8 8 8 8 8 8 8 8 8 0 0 0 8 8 8 8 8 8 8 8 8 0 8 8 0 8 8 8 8 0 8 8 8 8 8 8 8 0 0 8 8 8 8 8 8 8 8 8 8 8 8 0 8 0 8 8 8 8 0 8 8 8 8 8 8 8 8 0 0 8 8 8 0 8 8 0 8 12 0 0 0 12 0 8 8 8 8 0 8 8 8 0 8 8 8 8 8 8 8 8 10 6 10 10 10 10 8 0 12 8 8 8
0 8 0 8 0 12 8 0 8 8 0 8 0 8 0 8 8 0 8 8 0 8 8 8 8 8 8 8 8 8 8 8 8 0 8 8 8 8 8 8 0 8 0 8 12 0 8 8 0 8 8 8 0 8 8 8 0 8 8 0 8 8 0 8 8 8 8 8 8 8 8 8 8 0 0 8 0 8 8 8 0 8 0 0 8 8 0 0 8 0 8 8 0 8 8 8 8 8 8 8 8 8 8 8 8 8 8 8 8 8 10 8 12 10 19 36 71 87 93 87 89 37 19 8 0 8 8 8
0 0 8 8 8 8 8 0 8 12 8 8 8 8 8 8 0 8 8 0 8 8 8 8 8 8 8 0 8 8 8 8 8 0 0 8 8 8 8 8 8 8 8 8 8 8 8 8 8 8 8 8 8 0 0 8 8 8 0 0 0 8 8 8 8 8 0 8 0 8 8 8 8 8 8 8 8 8 8 0 8 0 8 8 8 0 0 8 0 8 8 8 0 0 8 8 0 0 8 8 12 8 8 8 8 12 8 8 10 10 10 35 68 84 82 85 90 89 90 85 71 87 93 8 6 8 8 0
0 8 0 8 0 8 8 8 8 8 8 0 8 0 8 0 8 0 8 8 0 0 8 8 0 8 8 8 8 8 8 8 0 8 8 0 8 0 0 8 8 8 0 0 8 0 8 8 8 8 8 8 8 8 8 0 8 8 0 8 8 8 8 8 8 8 8 8 8 8 8 0 8 0 8 8 8 8 8 8 8 8 8 8 8 8 8 8 8 8 0 8 8 8 8 8 8 8 8 8 8 8 6 6 8 8 8 12 10 56 87 85 96 96 104 98 102 98 101 96 93 61 89 47 12 8 8 0
0 0 8 8 0 8 0 8 8 8 8 0 8 8 12 8 8 0 0 8 0 8 8 8 8 8 8 0 8 8 8 8 8 8 0 0 8 8 8 8 0 8 8 0 8 0 8 8 8 8 0 8 8 8 8 8 0 0 8 8 8 8 8 8 8 0 8 8 0 8 8 0 0 8 8 8 8 8 8 0 8 8 8 0 8 8 8 8 8 8 0 8 8 8 8 8 8 8 8 8 8 8 8 8 12 6 37 86 91 104 103 112 112 112 112 108 112 110 101 93 96 93 79 57 8 8 8 8
0 8 0 8 0 8 8 8 8 8 0 8 8 8 8 8 8 8 0 8 8 8 0 0 0 8 0 8 8 8 0 0 8 8 8 0 8 8 8 0 8 8 8 8 8 8 8 8 8 8 0 8 8 8 8 8 8 0 8 8 8 8 0 8 8 8 0 12 8 8 0 8 8 8 8 8 0 8 8 8 8 8 12 8 0 0 0 0 8 8 8 8 8 8 8 8 8 8 8 8 8 8 10 10 60 82 95 108 119 123 120 123 112 112 120 120 123 110 103 96 87 85 79 30 8 8 12 0
0 0 8 0 8 8 8 0 0 0 8 8 8 8 0 8 8 0 8 8 8 0 0 0 8 8 8 8 8 8 8 8 0 8 8 8 8 8 0 8 8 8 8 8 0 8 0 8 12 0 8 8 8 8 8 8 8 8 8 8 8 0 8 0 8 8 8 0 0 8 8 8 0 8 8 8 8 8 8 8 0 0 8 8 8 8 8 8 8 8 8 8 0 8 8 8 8 8 8 8 8 18 71 91 103 112 120 119 108 93 68 56 47 47 56 75 112 123 112 93 90 85 79 10 12 8 12 8
0 8 0 8 0 8 0 0 0 8 8 8 8 8 8 8 0 8 8 8 12 8 0 8 8 0 8 0 0 8 8 8 8 8 0 8 8 8 8 8 8 8 8 8 0 8 8 8 8 8 0 8 8 8 8 8 0 8 8 8 8 8 0 0 8 8 8 0 8 8 8 8 8 8 8 8 0 8 8 0 8 8 8 0 8 8 8 8 8 0 8 8 8 8 8 8 8 12 10 19 71 91 112 108 120 99 68 57 61 91 118 119 119 79 52 30 71 123 104 93 87 71 76 12 8 8 8 8
0 0 8 8 0 0 0 0 0 8 0 8 0 8 0 8 8 8 8 0 8 8 8 0 0 0 0 8 8 8 0 0 0 8 8 8 0 8 8 8 8 8 8 8 8 0 8 8 8 8 8 8 8 8 0 8 0 0 0 8 8 0 8 8 0 0 8 8 8 0 0 8 8 8 0 8 8 8 8 8 0 8 8 0 0 8 0 8 0 8 8 8 8 8 8 8 8 26 71 98 107 116 120 87 56 82 126 118 126 129 133 129 129 147 112 51 59 112 98 90 79 71 26 0 0 8 0 8
0 8 0 8 8 0 8 0 12 8 8 0 0 0 0 8 0 8 8 8 8 8 8 8 8 8 0 8 8 8 8 8 8 0 8 0 8 8 8 8 0 8 8 12 8 0 0 8 8 8 8 8 8 0 8 8 8 8 8 8 8 0 8 8 8 8 8 8 0 8 8 8 0 0 8 8 0 8 0 8 8 8 8 8 8 8 8 8 8 8 8 8 8 8 8 19 76 104 120 118 103 61 87 123 138 126 134 126 123 123 126 129 129 129 147 38 60 112 93 85 79 70 8 0 0 0 8 0
0 0 8 8 8 8 8 8 0 8 0 8 0 0 8 8 8 8 8 8 8 8 8 8 8 8 8 8 8 8 8 8 8 8 8 8 8 8 8 8 0 8 8 8 8 8 8 8 8 8 0 8 8 8 8 8 8 8 0 0 8 8 12 8 8 8 0 8 8 0 8 0 8 8 0 8 8 8 8 0 0 0 8 8 0 8 8 0 8 8 8 12 10 11 71 96 120 120 103 63 103 118 123 126 120 126 126 126 123 123 126 120 126 126 129 38 75 112 90 85 71 10 8 8 8 8 8 8
0 8 0 8 0 8 8 8 8 8 8 8 8 8 0 8 8 8 8 8 8 8 8 8 8 8 8 8 8 8 8 0 0 0 8 8 0 8 8 8 8 8 8 8 0 8 8 8 8 8 0 8 8 8 8 8 8 8 0 8 8 8 8 12 0 8 8 0 8 8 8 0 8 0 8 0 8 8 8 8 0 8 8 8 8 8 8 8 8 10 8 11 63 96 116 119 91 69 124 126 120 126 126 120 118 118 116 116 116 121 123 126 126 123 123 37 99 96 82 71 37 8 0 8 0 8 8 0
0 0 8 8 8 8 8 8 8 8 0 0 8 0 8 0 8 0 8 0 8 8 8 8 8 8 8 8 0 8 8 8 0 8 12 8 8 0 0 8 8 8 0 0 8 8 0 8 8 8 8 8 8 8 8 8 8 8 8 8 8 0 8 8 0 0 8 8 8 0 8 8 8 8 8 8 8 0 8 0 8 8 8 8 8 8 8 0 8 10 52 98 108 108 87 79 134 123 123 116 116 118 118 116 116 110 116 123 112 118 121 126 126 126 82 64 103 85 79 61 8 8 8 8 8 8 8 8
0 8 0 8 0 8 8 8 8 8 8 8 8 0 8 8 8 8 8 8 8 8 8 8 8 0 8 8 0 8 8 8 8 8 8 8 8 8 8 8 8 8 8 8 8 8 8 8 0 8 8 8 8 8 0 8 8 8 8 8 8 8 8 8 8 8 8 8 0 0 8 8 0 8 8 8 0 8 8 8 8 8 8 0 0 0 8 0 34 90 104 123 95 82 123 129 121 119 116 112 110 108 108 108 107 110 110 118 123 113 121 126 123 126 37 97 90 85 68 10 8 8 8 0 8 0 0 0
0 0 8 8 8 8 8 8 0 8 8 8 8 8 8 8 0 8 8 8 8 8 8 8 0 8 8 0 0 8 8 8 8 8 8 8 8 8 8 0 8 0 8 0 8 8 8 8 0 8 8 8 8 8 8 8 8 0 8 8 8 8 12 10 8 8 12 8 8 8 8 8 8 8 8 8 8 8 0 8 8 8 8 8 0 8 8 10 99 118 93 85 126 126 126 113 110 110 102 102 102 96 102 100 102 100 108 115 116 116 123 126 133 79 71 100 77 71 19 8 8 8 8 8 8 0 0 8
0 8 0 8 8 8 8 8 0 0 8 8 8 8 8 8 0 8 8 8 8 8 8 8 8 0 8 8 8 0 8 8 8 0 8 8 8 8 0 0 8 8 8 8 8 8 8 8 8 8 8 8 12 8 8 8 8 12 8 12 19 18 26 34 38 38 37 37 34 34 19 12 10 12 8 8 8 8 8 8 8 8 8 8 8 8 8 0 84 75 120 123 120 118 110 104 102 100 97 93 89 84 92 92 89 100 104 110 118 121 124 126 123 47 99 85 77 37 8 8 0 8 0 8 8 8 8 8
0 0 8 8 8 12 8 8 8 8 8 8 8 0 8 8 8 8 0 0 8 8 0 0 0 8 0 8 8 8 8 8 0 0 8 8 8 0 8 8 8 8 8 0 8 8 8 8 8 8 8 8 8 8 8 8 10 26 38 56 61 61 61 68 71 78 79 72 66 68 68 61 61 54 37 19 10 8 8 8 8 8 8 8 8 0 8 8 63 123 118 116 110 107 96 96 77 56 45 36 51 37 52 69 97 100 101 110 112 123 123 129 61 99 90 85 59 8 0 8 0 8 8 0 8 8 8 8
0 8 0 8 8 8 8 8 8 0 8 8 0 8 8 8 0 8 8 8 8 8 8 8 8 0 8 8 8 8 8 8 8 8 0 8 8 8 8 0 0 8 8 0 0 8 8 8 8 8 0 8 8 12 26 51 54 54 70 75 87 82 84 87 91 93 91 87 87 91 90 87 86 79 78 70 56 38 19 10 0 0 8 8 8 8 0 12 18 110 110 102 96 77 52 36 36 29 34 33 37 26 37 48 96 96 104 116 118 123 123 87 87 95 82 68 10 8 8 8 8 8 8 0 8 12 8 0
0 0 8 8 0 8 8 8 0 0 0 8 8 8 8 0 8 0 8 0 0 8 0 8 0 8 8 0 8 0 8 8 8 8 0 8 8 8 8 8 0 8 8 8 8 8 8 8 8 0 8 10 34 52 60 61 68 71 85 93 96 96 96 104 100 101 100 96 100 104 104 96 96 89 85 87 79 70 54 37 19 12 8 8 0 8 8 8 10 96 93 71 45 34 29 30 28 30 26 29 34 33 33 61 93 96 110 118 120 123 120 68 98 89 71 10 8 0 8 8 0 8 8 8 0 8 8 0
0 8 0 8 8 0 8 8 8 8 8 8 8 8 12 0 8 8 8 8 0 0 0 8 8 0 8 0 8 0 8 0 8 8 0 8 0 8 8 8 8 8 8 8 8 8 8 8 8 16 34 51 60 68 78 79 82 100 102 104 108 107 108 110 110 110 110 110 118 118 113 110 110 102 100 96 85 85 76 70 70 38 19 12 8 8 8 8 8 52 36 29 33 26 26 26 26 26 26 33 29 33 37 79 93 104 116 118 123 126 51 103 90 71 10 8 8 0 0 8 8 8 12 0 0 8 0 8
0 0 8 0 0 8 8 8 8 8 0 8 0 8 8 0 8 8 8 8 0 0 0 0 8 8 8 8 0 8 8 8 8 8 0 8 8 8 8 8 8 0 8 8 8 12 8 12 28 54 61 68 71 79 87 89 104 110 110 110 113 118 115 115 118 110 118 118 120 120 120 115 115 112 110 102 100 93 89 85 75 70 59 28 12 12 8 8 8 18 26 26 26 18 18 18 18 18 26 29 33 28 45 93 96 112 116 124 126 47 101 93 71 18 8 0 8 8 8 0 0 0 0 0 0 8 8 12
0 8 0 8 8 0 8 8 8 8 0 8 8 0 0 8 8 8 8 0 8 8 8 0 0 8 8 8 0 8 8 8 8 8 8 8 8 8 8 8 8 8 0 8 8 10 19 51 59 68 71 85 87 93 101 110 110 118 120 120 120 120 120 120 119 126 127 131 133 127 127 123 123 119 115 110 102 102 96 93 87 82 66 70 37 10 8 8 8 10 18 10 8 8 8 10 16 19 26 33 29 37 78 96 110 116 121 129 69 103 93 75 18 8 8 8 8 8 8 8 8 8 0 0 0 0 8 8
0 0 8 8 8 8 8 8 8 0 8 8 8 8 0 0 8 12 8 8 8 8 0 0 0 8 8 8 8 8 8 0 8 8 8 8 8 8 0 8 8 8 8 0 8 26 59 59 71 79 89 98 101 102 118 123 120 119 127 126 127 126 126 127 133 135 135 137 133 124 133 127 127 127 119 112 110 110 105 102 96 90 87 79 64 56 18 8 8 0 0 8 0 8 8 0 10 17 26 26 33 59 100 110 113 126 126 77 103 98 71 18 8 8 0 8 8 8 8 8 0 8 0 8 8 8 8 8
0 8 0 8 8 0 8 0 8 8 8 0 8 8 8 8 0 8 8 8 8 0 8 0 8 8 0 8 8 8 8 8 8 0 8 8 8 8 8 8 8 8 12 12 34 54 70 72 87 93 101 104 110 121 120 126 127 127 135 127 128 135 127 135 145 145 141 141 143 137 135 135 133 124 119 119 119 119 112 110 102 102 93 85 82 75 56 19 8 8 8 0 8 0 8 8 16 17 28 30 51 89 104 116 118 126 95 87 98 79 33 8 0 0 8 8 8 8 8 8 8 8 0 0 8 8 0 0
0 0 8 0 8 0 8 0 8 0 8 0 8 8 8 8 8 8 8 0 8 8 8 8 8 8 8 0 8 8 8 8 8 8 8 8 12 8 8 8 8 8 8 38 59 66 79 95 101 101 112 118 126 127 131 127 131 133 135 139 135 137 141 148 149 151 145 143 143 142 143 135 133 133 127 127 127 123 119 115 115 102 100 96 100 85 82 56 11 12 8 8 8 0 8 8 18 26 33 33 84 102 118 118 126 93 87 96 82 26 8 8 8 8 0 8 0 0 8 8 0 8 8 8 8 8 0 8
0 8 0 8 8 8 0 8 8 8 8 8 0 8 8 8 8 0 0 8 8 0 8 0 0 8 8 8 8 8 0 8 8 12 8 8 8 8 0 8 8 8 51 59 78 87 89 100 102 108 126 128 130 135 130 135 139 137 137 141 137 145 151 151 151 146 146 146 151 143 143 137 133 133 129 127 124 127 123 119 115 102 105 110 107 102 92 72 47 12 0 8 8 8 8 10 26 33 33 69 100 115 118 121 104 90 93 79 29 8 12 8 8 8 0 0 8 8 0 8 8 0 0 8 8 0 8 0
0 0 8 0 0 0 8 8 0 8 8 8 8 0 8 8 8 0 8 8 8 8 8 8 0 8 0 8 8 0 8 8 8 8 8 0 8 8 8 8 12 51 70 72 85 89 100 108 115 128 127 133 135 133 139 139 133 141 141 141 151 154 159 154 151 150 143 150 150 146 143 143 135 135 135 137 129 124 127 127 112 112 115 115 112 115 105 89 71 30 8 8 8 0 8 18 26 33 66 100 108 118 123 110 89 96 82 26 8 8 8 8 8 8 8 0 8 8 8 8 8 8 8 0 8 8 8 0
0 8 0 8 8 8 8 0 8 8 8 8 8 8 0 8 8 8 8 8 8 8 8 8 8 8 8 0 0 8 0 0 8 8 8 0 8 12 12 0 38 70 76 93 99 101 112 121 128 135 131 139 133 137 141 143 148 143 143 153 159 161 161 157 153 150 153 150 153 150 146 143 141 138 142 143 141 133 127 119 123 127 124 127 124 120 105 96 85 64 28 12 8 8 16 26 34 56 93 116 118 123 103 90 104 79 19 8 0 8 8 8 8 0 0 8 8 8 8 8 8 8 0 8 8 0 8 8
0 0 8 0 0 0 8 8 8 0 8 0 0 8 8 0 8 8 0 8 8 8 0 8 0 8 12 8 8 8 8 8 8 8 8 8 12 8 6 34 66 76 87 101 101 112 126 131 135 133 139 138 141 143 145 148 148 151 157 161 166 166 157 157 157 153 157 149 149 150 150 145 146 146 143 141 137 137 127 124 129 129 133 135 133 127 112 105 96 79 52 10 8 16 18 26 52 93 112 118 126 104 87 104 82 19 8 0 8 8 8 0 8 8 0 0 8 0 0 8 8 8 8 8 8 0 8 0
0 8 0 8 8 0 8 8 8 0 8 0 8 8 8 8 8 8 0 8 8 8 8 8 0 0 8 0 8 8 0 8 8 8 8 8 8 8 26 70 76 95 101 104 124 128 135 130 138 141 137 145 141 145 151 151 154 166 173 166 166 161 157 155 155 151 151 153 157 157 150 150 150 149 142 143 142 129 129 135 135 135 142 143 133 133 115 112 102 89 71 34 10 26 33 37 99 110 118 126 96 91 103 77 8 8 0 0 0 8 8 0 8 8 8 8 0 0 8 0 0 0 8 8 8 0 0 8
0 0 8 0 8 0 0 8 8 8 8 8 8 0 0 8 0 8 0 0 8 8 8 8 8 8 8 8 8 8 8 0 8 0 0 8 8 8 54 76 91 98 110 126 128 135 138 137 137 141 141 148 151 150 148 159 166 173 173 165 161 159 159 159 163 159 157 157 155 157 153 157 153 150 146 143 133 135 135 139 142 150 149 142 133 129 127 115 105 96 79 37 26 34 37 93 116 118 128 98 90 103 77 6 8 8 0 8 8 8 0 8 8 8 8 8 8 8 8 0 8 8 8 8 8 8 8 0
0 8 0 8 8 8 8 0 8 8 8 0 8 0 8 8 8 8 8 8 8 0 0 8 8 8 8 8 8 0 8 8 8 8 8 0 8 38 76 93 108 118 121 126 135 133 138 141 145 148 148 148 143 150 159 166 169 169 161 161 163 161 159 165 159 163 159 157 151 159 157 155 150 146 143 135 135 142 145 149 157 157 150 142 139 133 127 112 107 107 71 52 37 37 93 112 118 129 96 101 104 71 10 8 0 8 10 8 8 0 0 8 8 8 8 8 8 0 8 8 8 8 0 8 0 8 8 8
0 0 8 0 0 0 8 0 8 8 8 0 8 0 8 0 8 8 0 8 0 8 8 8 8 8 8 8 0 8 0 8 0 8 8 8 34 79 95 104 113 126 128 133 131 141 138 145 148 148 143 151 154 166 173 173 169 166 161 165 165 166 169 166 159 159 159 163 163 157 159 157 154 146 135 142 149 149 151 159 159 157 150 142 138 135 129 124 115 85 59 37 37 93 110 118 123 89 101 104 69 6 8 0 0 0 8 8 8 8 0 0 8 8 8 8 8 8 0 8 8 8 8 0 0 0 8 8
0 8 0 8 8 0 0 8 8 8 8 8 8 8 8 8 8 8 8 0 8 8 8 0 8 8 8 8 8 8 8 0 8 8 8 12 66 85 101 110 120 128 131 133 133 133 141 145 148 151 151 162 166 173 171 173 166 166 166 166 166 166 169 161 163 157 163 159 159 161 159 157 150 135 142 149 158 159 163 163 163 151 157 145 143 135 129 124 100 61 51 52 96 112 121 126 82 101 96 61 8 8 8 8 8 8 8 0 8 8 8 8 8 8 8 8 8 8 8 0 8 8 8 8 8 8 8 8
0 0 8 0 0 8 8 0 0 8 8 8 8 0 8 8 8 8 8 8 8 8 8 0 8 0 8 8 8 8 8 0 8 8 12 37 86 103 112 118 127 132 128 135 141 145 148 151 148 159 166 169 169 169 169 172 170 166 170 173 169 166 163 163 163 166 163 165 159 163 161 150 145 150 155 155 159 169 170 166 159 157 157 150 142 135 135 112 68 52 48 102 118 126 126 70 105 96 52 8 8 8 8 0 0 8 8 8 0 8 8 8 8 8 8 8 0 8 8 8 8 8 0 8 8 8 0 8
0 8 0 8 8 8 8 8 0 0 0 8 0 0 8 8 0 0 8 0 8 8 8 8 8 8 8 8 8 0 8 8 8 8 8 66 85 108 110 118 127 135 139 143 147 145 148 151 166 173 173 173 172 172 173 165 166 173 170 170 170 166 163 166 169 169 166 166 161 159 150 145 151 159 158 166 172 172 172 161 163 155 157 150 145 142 112 69 60 59 102 121 121 126 65 112 93 47 8 12 8 8 8 0 8 8 0 0 0 0 8 8 0 8 12 8 0 8 0 0 0 8 8 8 8 0 0 0
0 0 8 8 0 8 8 8 0 8 8 8 8 8 8 8 8 0 8 8 8 8 8 8 8 8 8 8 8 0 0 8 8 8 19 86 86 108 123 128 132 135 139 143 146 151 159 159 173 173 173 172 181 177 173 170 172 173 170 166 170 163 170 172 166 166 166 163 157 145 149 151 158 163 166 177 172 172 169 166 163 163 150 149 142 119 75 59 61 102 118 126 138 101 108 90 29 8 0 8 8 8 0 8 8 8 8 8 8 8 8 8 8 0 0 0 8 8 0 8 8 0 8 0 8 8 8 8
0 8 0 8 0 0 8 0 8 0 8 0 8 0 8 0 8 8 8 8 8 8 8 0 8 8 0 8 8 8 8 8 8 8 66 86 110 118 126 132 132 138 141 141 148 159 171 166 173 173 173 173 177 172 172 172 172 172 166 172 170 166 170 172 173 165 163 161 149 153 155 166 169 172 179 179 172 172 169 166 163 158 151 154 105 78 48 72 99 118 126 126 110 119 87 18 8 8 8 8 8 8 8 0 8 8 8 8 8 8 8 0 8 8 8 8 8 8 8 8 8 8 8 8 0 0 8 0
0 0 8 0 0 8 0 8 8 8 0 0 0 0 0 8 8 8 0 8 0 8 8 8 0 0 0 8 8 8 8 8 8 8 79 103 119 126 128 132 136 138 145 153 159 171 173 169 166 172 181 181 184 170 173 169 172 170 166 172 169 172 172 169 172 166 159 151 158 163 166 169 172 179 181 179 172 166 175 172 170 158 157 119 84 48 72 104 120 129 129 123 123 99 30 8 0 8 0 8 8 8 8 0 0 0 8 8 8 8 8 0 8 8 0 8 8 8 8 8 0 0 0 8 8 8 0 8
0 8 0 8 0 0 8 8 8 8 0 8 0 8 8 8 8 8 0 0 8 8 8 8 8 8 8 0 8 8 8 8 8 33 85 112 119 126 126 132 143 145 153 159 162 173 166 166 173 181 170 181 177 172 172 169 173 166 170 172 175 172 172 170 165 159 151 158 166 144 172 183 183 187 183 179 175 172 166 166 163 157 105 75 45 87 113 123 129 126 123 120 101 79 51 8 8 8 0 8 12 8 8 0 0 8 8 8 8 0 8 8 0 8 8 8 8 0 8 8 0 0 8 0 8 0 8 0
0 0 8 0 0 0 8 8 0 0 8 0 8 0 8 8 0 8 0 8 8 8 0 8 0 8 0 8 8 8 8 8 8 66 95 110 120 126 132 143 149 159 159 166 166 165 163 163 181 181 169 166 172 172 170 170 172 173 172 170 172 172 169 165 157 155 161 172 172 175 183 183 185 183 183 179 177 172 172 166 163 92 77 35 93 112 124 134 129 129 120 104 99 87 51 8 12 8 8 8 8 8 8 8 8 8 8 8 8 8 8 8 8 0 0 8 8 8 8 8 8 8 8 8 8 8 0 8
0 8 0 8 0 0 8 12 8 8 8 0 0 8 8 8 0 8 8 0 0 8 8 8 8 8 8 8 0 0 8 8 10 91 103 119 126 129 143 149 156 159 159 161 157 161 169 166 169 169 169 170 172 172 172 172 177 173 173 172 177 169 159 155 163 166 169 172 179 185 191 185 187 179 183 179 177 172 169 157 115 37 48 101 118 126 132 129 126 112 116 112 103 95 51 8 0 0 8 8 8 8 8 12 8 0 0 0 8 8 8 8 8 8 8 8 8 8 8 0 0 8 0 8 8 8 0 8
0 0 8 0 8 0 8 8 8 8 8 8 8 8 8 8 8 8 8 8 8 8 8 8 0 8 8 8 8 8 8 8 10 103 110 124 129 143 149 153 153 151 159 161 157 166 166 169 169 173 166 170 170 173 177 173 185 169 172 166 173 157 155 163 169 172 172 187 189 189 191 183 189 183 179 179 177 172 146 92 61 61 104 121 129 136 132 134 113 128 121 112 108 87 51 8 8 8 8 8 8 8 8 0 0 8 8 8 8 8 8 8 0 8 8 0 8 8 8 8 8 8 8 0 8 8 8 8
0 8 0 8 8 8 8 8 8 8 8 0 8 0 8 8 8 0 0 0 8 8 8 8 8 0 0 8 8 8 8 8 26 85 119 128 136 143 145 151 154 156 157 161 166 165 165 170 166 173 172 166 173 173 169 169 169 172 169 165 158 155 166 172 175 179 191 189 191 189 187 191 185 185 175 175 172 142 115 52 72 110 121 129 136 128 129 116 127 128 124 118 108 87 51 8 8 8 8 8 0 0 8 8 0 8 8 8 8 8 8 8 8 8 8 8 8 8 0 8 8 0 8 0 8 0 8 8
0 0 8 0 8 8 8 8 8 8 8 8 8 0 8 0 8 0 0 0 8 8 0 8 8 8 8 0 8 8 10 8 37 110 118 128 135 141 145 156 151 157 161 161 159 165 166 165 170 172 170 172 179 181 181 172 173 166 165 151 159 166 172 175 187 193 195 191 191 185 189 191 183 183 175 177 127 84 48 90 116 121 135 144 129 123 126 135 135 128 129 123 104 87 72 12 0 8 8 8 8 8 8 8 8 8 8 0 8 8 8 8 8 8 8 8 0 0 8 8 8 8 8 8 8 8 8 0
0 8 0 8 8 0 8 12 8 8 0 8 8 8 0 8 8 8 8 0 0 0 8 8 8 8 0 8 0 8 8 8 66 104 118 127 141 145 145 154 154 159 161 159 157 165 166 165 166 172 172 173 181 170 172 166 166 159 156 166 169 180 175 191 195 195 191 193 187 191 193 187 179 179 170 115 78 48 101 116 126 132 140 129 120 131 137 143 132 132 132 116 103 87 51 8 8 8 8 8 8 8 0 8 8 8 8 8 8 0 8 8 0 0 8 8 0 0 0 8 8 8 8 8 8 8 8 8
0 0 8 0 0 8 0 8 0 0 0 8 8 8 8 8 8 8 0 8 0 8 8 0 0 8 8 8 8 8 8 8 76 112 118 132 141 145 151 151 154 159 166 161 165 165 166 170 166 172 172 172 169 172 166 165 155 163 166 175 175 183 193 189 195 191 189 189 191 195 185 187 179 159 92 61 52 104 118 129 135 129 129 120 141 145 145 138 139 139 129 110 105 86 38 12 12 8 8 8 8 0 8 8 0 8 0 8 8 8 8 8 0 0 8 8 8 0 8 8 8 0 8 8 0 8 0 8
0 8 0 8 0 8 8 0 8 0 8 0 8 8 8 0 8 0 8 8 8 0 8 8 0 0 8 8 8 8 8 8 86 112 126 135 138 141 148 150 151 154 154 165 165 159 169 172 172 166 170 172 170 166 157 158 166 172 172 179 185 195 195 195 189 191 193 195 185 187 189 183 142 84 48 77 112 126 134 145 136 129 127 146 145 149 143 145 143 135 121 116 103 78 28 8 8 8 8 8 8 0 8 8 8 8 8 12 8 0 0 8 8 0 8 0 0 8 8 8 8 8 8 0 0 8 8 8
0 0 8 8 0 8 8 8 0 0 0 8 8 0 8 0 0 8 0 8 0 8 8 0 8 8 8 0 8 8 8 8 79 108 123 132 135 141 145 146 154 150 157 157 165 165 170 172 166 173 166 165 163 155 161 166 172 172 179 193 195 184 184 184 193 193 189 187 195 179 181 127 84 48 87 119 124 132 151 131 126 133 146 154 151 149 147 149 139 129 123 120 96 76 11 12 8 8 8 0 8 0 8 8 8 8 8 8 0 8 8 8 8 8 8 8 8 8 8 8 8 8 8 8 8 8 8 0
0 8 0 8 8 0 0 8 8 0 8 8 0 8 8 8 8 8 8 8 8 8 8 0 8 8 0 0 8 8 8 0 72 110 120 126 132 139 146 148 146 157 157 161 165 165 165 166 173 166 159 157 157 163 166 172 180 183 195 195 195 184 185 185 184 189 191 193 185 161 105 72 52 108 121 128 136 144 136 120 143 150 154 149 151 155 149 145 132 132 123 119 85 47 10 12 8 8 0 0 8 8 8 8 8 8 8 8 0 8 8 8 0 8 8 0 8 0 8 8 8 8 8 8 8 8 8 0
0 0 8 8 8 8 8 8 8 8 0 0 0 0 8 0 8 8 0 8 8 0 8 8 8 8 8 8 8 0 6 8 66 101 119 126 132 141 146 148 150 154 161 165 165 163 165 166 161 153 151 163 166 172 172 179 193 195 195 195 184 185 185 185 185 185 184 183 151 92 45 75 104 121 129 139 144 135 127 151 151 155 155 159 155 153 149 143 135 129 120 104 93 47 12 8 8 0 8 8 8 0 8 0 8 8 8 8 8 0 8 0 8 0 8 0 8 8 8 8 8 0 8 8 8 0 8 8
0 8 0 8 0 8 8 0 8 8 0 0 0 8 8 8 8 8 8 8 0 8 8 8 8 8 0 0 8 0 8 8 51 101 119 126 135 139 145 151 154 159 159 157 166 166 157 157 151 157 166 172 172 179 183 195 195 191 193 195 184 185 185 185 185 185 185 127 78 35 87 115 126 136 151 136 129 137 154 154 159 155 161 159 159 149 141 139 134 126 120 112 103 14 8 8 8 8 0 8 8 8 8 8 0 0 8 12 0 8 8 0 8 8 0 10 8 8 0 8 8 0 8 8 0 0 8 8
0 0 8 8 8 8 8 8 8 8 0 8 8 8 8 8 8 8 0 8 0 8 8 8 8 0 0 0 8 8 8 8 38 93 112 126 132 141 141 148 148 157 157 166 157 159 149 157 163 166 172 172 179 195 195 195 195 195 189 195 184 185 185 185 184 184 115 72 57 104 118 129 136 145 136 127 150 157 161 162 159 161 165 161 153 141 143 136 132 126 112 103 79 18 8 8 8 8 8 8 8 8 8 8 8 8 8 0 8 8 8 8 8 8 8 26 0 8 8 0 0 0 0 0 0 8 8 8
0 8 0 8 8 8 8 8 8 0 8 8 0 8 8 8 8 0 0 8 8 8 8 8 0 8 8 8 10 8 8 10 71 103 108 126 135 141 145 148 150 153 155 151 150 150 157 159 163 172 179 191 191 195 185 185 184 184 191 193 184 185 185 185 144 92 48 75 108 121 128 145 147 134 127 157 159 159 166 159 159 161 166 159 145 143 139 140 132 123 112 98 76 12 8 8 8 8 0 8 0 8 8 0 8 8 8 8 8 8 0 8 8 0 8 0 8 8 0 8 0 8 8 8 8 12 8 8
0 0 8 0 8 0 8 8 0 8 8 0 8 8 8 0 8 8 8 8 8 0 8 8 8 8 8 8 8 8 10 87 108 93 112 123 128 139 141 148 148 148 143 146 153 161 166 169 170 181 181 185 185 185 185 185 185 185 185 184 184 184 184 92 65 52 101 120 121 136 155 134 126 143 156 159 161 166 166 171 162 171 155 147 145 145 138 145 129 120 112 87 38 8 8 8 8 0 8 0 8 8 8 8 0 0 8 8 8 8 0 8 8 8 0 8 0 0 0 8 8 8 0 0 8 8 8 0
0 8 0 8 8 0 8 8 8 8 8 0 0 0 8 8 0 8 8 8 0 8 8 8 8 8 8 8 8 11 87 108 65 103 119 126 132 136 143 137 137 143 150 151 161 166 166 172 181 181 185 185 184 185 185 185 185 184 184 185 185 138 70 48 69 102 118 126 136 151 132 123 153 159 159 161 169 169 169 166 166 155 153 147 145 144 138 138 123 108 98 76 10 8 8 8 8 8 8 8 8 8 0 8 8 0 8 8 8 8 8 8 8 0 8 0 8 8 0 0 8 0 8 0 8 8 8 0
0 0 8 12 0 8 8 8 0 8 0 8 0 0 0 8 8 8 8 0 8 0 8 8 8 8 8 8 29 93 112 61 126 98 103 120 126 128 130 141 145 151 157 159 166 172 185 179 185 185 184 185 185 185 184 185 184 184 185 185 75 75 47 93 110 116 129 145 138 128 127 161 159 165 166 169 165 166 169 171 159 153 153 149 144 145 138 129 120 108 93 59 8 0 8 8 8 8 8 8 8 8 0 8 8 8 0 0 8 8 0 8 8 8 8 8 8 8 8 8 8 8 8 8 8 8 8 8
0 8 0 8 12 12 8 8 0 8 8 0 0 0 0 8 8 8 8 8 0 8 8 8 0 0 8 51 99 119 72 126 113 112 108 120 126 128 138 143 150 151 157 169 173 177 185 183 181 184 184 185 185 185 185 185 184 185 127 84 52 69 104 118 126 135 149 136 119 150 161 163 169 169 166 169 165 169 171 161 156 153 151 145 144 144 129 123 120 98 68 10 8 8 8 8 8 8 8 8 8 0 0 0 8 8 8 8 8 8 0 8 0 0 8 8 8 0 8 8 8 8 8 8 8 0 8 8
0 0 8 0 8 0 8 0 8 8 8 0 8 0 8 0 8 8 8 8 0 8 0 8 0 12 61 98 112 72 123 118 112 100 110 119 126 135 141 143 153 166 173 172 181 181 185 179 179 184 184 185 171 185 185 171 146 92 72 37 87 110 121 128 141 143 129 127 157 159 165 169 166 169 169 171 171 157 159 161 155 153 155 145 144 138 129 120 112 91 37 8 0 8 8 8 8 8 0 0 8 0 8 8 0 0 8 8 8 0 8 8 8 0 8 8 0 0 8 8 8 8 8 8 8 8 8 0
0 8 0 8 8 0 8 8 0 8 8 8 8 8 0 8 8 8 8 0 0 8 8 8 8 61 98 108 79 126 118 110 97 47 54 112 126 135 145 154 161 169 169 170 181 172 175 179 185 179 184 185 181 185 170 105 82 48 68 103 116 123 136 151 132 124 141 157 159 169 166 169 173 181 169 169 166 161 159 155 155 151 144 144 136 129 123 112 98 61 10 8 8 8 8 8 8 0 8 8 8 8 0 8 8 0 0 8 0 8 8 8 0 0 0 0 8 8 8 0 8 8 8 8 8 8 0 8
0 0 8 8 8 8 0 8 8 8 8 0 8 8 0 8 8 8 0 0 0 0 8 8 68 99 103 87 126 118 112 96 52 30 19 108 134 143 151 157 157 161 165 170 173 175 173 179 179 177 173 177 170 135 92 66 47 93 112 118 126 143 144 135 123 150 159 166 166 169 173 181 169 171 166 166 171 155 156 161 161 151 147 136 134 123 120 103 86 18 8 8 8 8 0 0 8 8 8 8 0 8 8 0 8 8 0 0 8 8 8 8 8 0 8 8 8 8 8 8 0 8 0 0 8 8 8 0
0 8 0 8 8 8 8 8 0 8 8 8 8 8 8 8 8 8 8 8 8 8 8 72 101 101 90 126 113 110 92 48 33 26 10 47 124 135 141 151 154 157 161 165 163 172 173 175 169 169 177 138 89 75 35 68 104 110 120 132 151 129 127 133 161 163 159 165 169 181 169 169 171 159 159 161 165 155 161 155 151 147 136 136 134 123 108 84 37 8 8 8 8 8 8 8 8 8 0 8 8 8 8 0 8 0 8 8 8 8 8 8 0 8 8 8 0 8 8 8 8 8 8 0 8 8 0 0
0 0 8 8 0 0 8 0 0 0 8 8 8 8 8 8 0 8 0 8 8 12 76 102 95 98 126 118 113 100 52 33 26 18 0 8 105 120 135 141 146 151 157 161 165 165 169 166 166 146 105 83 48 52 95 110 113 129 136 144 128 120 151 159 165 166 166 171 173 169 181 169 166 171 165 159 155 155 151 149 143 139 138 129 124 105 84 37 8 8 0 8 0 8 8 8 8 0 8 8 0 8 8 8 8 8 8 8 8 8 8 8 8 0 8 8 0 0 0 8 0 8 0 8 8 8 8 0
0 8 0 8 0 0 8 8 0 8 8 8 8 8 8 8 8 8 8 8 12 72 101 95 89 126 118 116 96 68 34 26 18 8 0 8 28 108 127 138 146 154 154 154 157 157 161 146 105 92 42 37 78 108 112 118 129 143 132 129 124 159 159 166 166 161 173 169 169 171 166 159 165 155 161 171 161 155 149 143 144 138 129 123 112 87 61 10 8 0 8 8 8 8 8 0 8 0 8 8 8 8 8 8 8 0 0 8 0 8 8 8 0 8 8 0 8 8 0 8 8 8 8 0 0 8 0 8
0 0 8 8 8 8 8 0 0 8 8 8 8 0 8 8 0 8 8 12 76 98 100 93 123 118 110 96 75 37 26 26 10 10 8 8 8 66 115 127 135 138 146 146 151 141 70 83 59 42 56 101 110 105 126 140 140 134 120 147 157 166 166 166 171 173 173 169 173 159 159 161 165 161 161 171 161 145 143 139 138 129 123 108 89 59 10 8 8 0 8 8 8 0 8 8 0 8 0 8 8 8 8 8 8 0 0 8 8 8 8 8 8 0 8 0 8 8 0 0 8 8 8 8 0 8 8 0
0 8 0 8 8 0 8 8 8 8 8 8 8 8 8 8 8 8 8 84 96 93 83 120 116 108 100 87 42 29 26 18 8 8 8 0 8 0 84 116 127 135 139 126 97 75 60 37 48 95 110 113 107 129 144 129 126 119 148 157 166 159 161 169 173 169 171 166 162 161 155 161 171 161 161 155 145 144 136 136 129 120 103 84 61 16 8 8 8 8 8 8 8 8 8 8 8 8 8 0 8 8 0 8 0 0 8 8 0 8 8 8 0 8 8 8 0 0 8 8 8 8 8 8 8 8 8 8
0 0 8 12 8 8 8 8 0 8 8 0 8 8 12 8 6 11 66 101 110 90 126 110 104 104 93 37 33 19 26 8 8 8 0 8 8 8 8 97 101 84 75 75 59 37 37 77 104 118 112 121 136 136 134 121 141 154 159 159 161 166 166 173 171 166 159 159 155 165 161 161 155 155 149 145 143 136 129 126 120 100 85 59 10 8 8 8 8 0 8 8 0 8 8 8 8 8 0 8 0 8 0 8 0 8 8 0 0 8 8 8 8 8 8 8 8 8 8 0 8 0 8 0 8 8 0 8
0 8 0 8 0 8 0 8 8 8 8 8 0 8 0 8 12 72 95 103 72 120 118 107 100 93 52 33 34 26 16 8 8 8 8 8 8 8 8 8 59 59 42 36 37 75 101 112 120 118 129 136 129 124 127 151 159 159 159 162 166 166 166 166 159 159 161 161 161 156 155 161 151 151 147 143 136 132 126 108 100 77 59 8 8 8 0 8 8 8 8 0 0 8 8 8 8 8 8 8 8 8 8 8 8 8 0 8 0 8 8 8 0 0 0 8 8 8 8 0 8 8 8 8 0 8 8 8
0 0 8 8 8 8 0 8 8 0 8 8 8 8 8 12 66 97 104 48 123 118 110 102 100 68 37 29 26 26 26 8 0 0 0 8 0 8 10 19 19 29 37 64 95 112 121 123 121 129 132 126 118 143 149 153 159 159 162 162 166 166 159 161 155 155 161 161 159 155 151 151 145 147 144 138 129 126 112 95 75 37 8 8 0 8 0 8 8 8 0 0 0 8 8 8 8 8 8 0 0 8 8 8 0 0 0 0 8 8 0 8 0 0 8 8 8 8 8 8 8 8 8 8 0 8 0 8
0 8 0 8 8 8 8 8 0 8 0 8 8 8 12 97 93 107 47 124 120 110 110 100 93 51 34 33 26 26 18 16 10 12 10 19 26 19 29 33 29 61 95 112 118 121 126 126 126 126 118 121 147 149 156 151 155 159 165 161 161 156 156 155 155 161 161 151 159 155 144 143 144 136 132 129 116 104 85 68 26 0 0 8 8 8 0 8 0 8 8 0 8 8 8 8 8 0 8 8 0 8 8 8 8 8 8 8 8 8 0 8 8 8 8 0 8 0 8 8 8 0 0 0 8 0 8 8
0 0 8 8 8 12 8 0 0 0 8 8 0 8 72 87 99 56 119 123 110 110 104 100 59 34 34 29 29 26 26 18 18 18 19 26 26 34 29 59 95 102 110 113 126 123 126 126 121 112 134 145 144 151 155 161 161 161 161 147 151 151 151 151 151 155 151 144 144 145 145 138 138 133 123 108 93 77 54 10 8 0 8 8 8 8 0 8 0 8 8 8 8 8 0 8 8 8 8 8 0 8 0 8 8 8 8 0 8 8 0 8 8 8 8 8 8 8 0 0 12 0 8 8 8 8 8 0
0 8 0 8 8 8 8 8 8 8 0 8 8 60 85 98 61 110 123 121 110 108 96 93 48 33 34 26 33 26 26 26 26 33 34 33 37 61 93 104 113 110 118 126 89 116 123 112 119 133 133 145 144 145 144 155 151 144 151 144 144 144 144 151 155 144 138 138 132 138 129 129 123 108 95 79 60 26 8 0 8 8 0 8 8 8 8 8 8 8 8 0 8 8 8 8 8 0 8 8 8 8 8 8 8 8 8 0 8 0 0 8 8 8 8 8 0 8 0 0 8 8 8 0 8 0 8 8
0 0 8 8 8 8 8 8 8 8 8 8 59 77 93 79 99 126 118 116 110 99 96 77 45 29 33 34 33 34 29 29 34 29 52 85 97 102 118 110 121 129 104 79 119 101 72 93 110 123 126 134 138 147 132 133 138 147 147 144 155 144 144 145 144 138 138 138 123 126 123 112 101 77 59 29 8 8 8 8 8 8 0 0 8 0 8 8 0 8 8 8 8 8 8 8 8 8 8 8 8 0 8 0 8 8 8 8 8 8 8 8 8 8 8 8 0 8 8 0 8 0 8 8 8 0 0 0
0 8 0 8 8 0 0 8 0 8 8 52 79 95 99 59 124 121 118 110 110 102 100 71 52 51 33 33 33 30 37 52 68 90 100 108 112 113 113 126 120 69 108 110 92 37 8 8 19 89 110 110 123 123 133 138 123 133 147 147 129 138 138 138 134 118 126 126 123 112 93 75 54 18 8 8 8 0 8 8 8 8 8 8 8 8 8 0 0 8 8 8 8 8 8 8 8 8 8 8 8 8 8 0 8 0 8 0 8 8 8 0 8 8 8 8 8 8 8 8 8 8 8 0 8 8 0 8
0 0 8 8 8 8 8 8 8 8 26 71 87 103 47 123 118 118 110 115 102 99 96 101 59 56 47 54 52 68 90 96 99 112 116 116 105 123 120 65 110 112 100 60 10 8 8 8 8 0 0 37 87 103 110 123 123 123 123 123 123 123 123 120 112 112 110 95 86 70 26 8 8 8 8 0 8 0 8 8 0 8 8 8 8 8 8 8 8 8 8 8 8 8 8 8 0 0 8 0 8 8 8 8 8 0 0 0 8 8 0 8 8 8 0 8 0 8 8 8 8 8 8 8 0 8 8 0
0 8 0 8 8 0 8 8 8 11 68 82 98 68 103 123 126 118 116 110 104 96 93 96 99 98 98 98 96 99 102 110 112 118 110 112 124 75 98 119 101 75 18 8 8 8 8 8 8 0 12 0 8 8 10 51 72 86 99 99 99 93 93 86 76 51 26 6 8 8 8 8 0 8 0 8 0 8 8 8 8 8 0 8 8 8 0 0 0 8 0 8 8 8 8 8 8 8 8 8 8 8 8 8 8 0 8 0 8 8 8 8 8 8 8 0 8 8 8 8 8 0 8 8 0 8 0 8
0 0 8 8 8 8 8 8 10 68 79 93 87 56 123 118 126 118 118 110 110 100 104 100 96 104 102 104 112 110 118 118 118 123 123 84 87 112 103 85 26 10 8 8 8 8 8 0 8 8 8 0 8 8 8 8 8 8 8 8 8 8 8 8 0 8 12 8 8 8 0 0 0 0 8 8 8 0 8 8 0 8 8 8 0 8 8 8 8 8 8 0 8 0 12 8 8 0 0 8 0 8 8 8 8 0 8 8 8 8 8 8 8 8 8 8 0 8 0 0 8 8 8 0 8 0 8 8
0 8 0 8 0 8 8 10 68 79 85 103 45 123 126 123 118 110 110 113 107 110 110 110 110 110 118 116 118 118 118 126 124 71 90 112 110 85 45 8 8 8 8 8 0 8 8 8 8 8 8 0 8 8 8 8 8 8 8 8 8 8 8 8 8 8 8 0 0 8 8 8 8 8 8 8 8 8 8 0 0 8 0 0 8 0 0 8 8 8 8 8 8 0 8 0 0 8 8 8 8 8 8 8 8 0 8 0 0 8 8 0 8 8 12 8 8 8 8 12 8 8 0 8 8 8 0 8
0 0 8 8 8 8 8 37 68 79 93 79 47 124 126 112 108 110 110 110 116 118 118 118 118 115 118 126 121 120 120 71 85 119 108 85 59 17 8 8 0 8 8 0 8 8 8 0 8 8 0 8 8 8 8 8 8 0 8 8 8 8 0 8 8 0 8 8 8 8 8 8 8 8 8 8 8 8 8 0 8 8 8 8 8 0 8 8 0 8 8 0 8 8 8 8 8 8 8 0 8 8 8 0 8 8 0 8 8 8 8 8 8 8 8 8 12 8 8 8 0 0 8 8 8 8 8 8
0 8 0 8 8 8 10 68 79 89 101 47 95 124 123 110 118 118 110 107 99 110 113 116 118 118 121 126 120 61 87 119 108 96 69 10 8 8 8 8 8 8 0 8 8 0 0 8 8 8 8 8 8 8 8 8 0 8 0 0 0 0 8 0 8 8 8 8 0 8 8 8 8 8 8 8 0 8 8 8 8 8 8 0 8 8 8 8 8 8 0 8 8 8 8 0 8 8 8 8 0 8 8 0 8 8 0 0 8 8 8 0 8 8 0 8 0 8 8 0 0 8 12 8 8 8 0 8
0 0 0 8 0 10 72 71 85 93 95 36 119 121 126 118 118 118 113 118 116 123 121 123 123 120 112 59 90 119 110 100 71 17 8 8 12 8 8 8 0 8 8 8 8 0 8 8 8 0 8 0 0 8 8 8 8 8 0 8 8 0 8 0 8 8 8 0 0 8 8 8 8 8 0 8 8 8 8 8 8 8 8 8 8 8 8 8 8 8 8 8 8 8 8 8 0 8 8 8 8 8 8 8 0 8 0 8 0 0 0 0 8 8 8 8 8 8 0 8 8 8 8 8 0 8 8 8
0 8 0 8 8 29 68 85 87 103 79 34 112 126 121 123 121 126 121 126 124 118 126 118 77 61 103 112 108 96 78 19 8 8 0 8 8 8 8 8 8 8 0 0 8 0 8 8 8 8 8 8 8 8 8 8 8 8 0 0 8 8 8 0 8 8 8 0 0 0 8 8 8 8 0 8 8 0 8 0 8 8 8 0 8 8 8 8 8 8 8 8 0 0 8 0 8 8 8 8 8 8 8 0 8 8 0 8 8 8 8 0 0 8 8 0 0 8 8 8 8 0 8 8 0 8 12 8
0 0 8 8 8 78 78 84 93 104 79 33 52 126 123 126 126 123 126 126 118 72 52 85 112 112 108 93 75 11 8 0 8 0 8 8 0 0 8 8 0 8 8 8 8 8 8 8 8 0 8 12 8 8 8 8 8 8 8 8 8 8 8 0 8 0 8 8 0 8 8 0 8 8 8 8 8 0 8 8 8 8 0 0 8 8 8 8 0 8 0 8 8 8 8 8 8 0 8 0 8 0 0 0 8 8 0 8 0 8 8 0 8 8 8 8 0 0 0 0 8 8 0 8 8 8 8 0
0 0 8 8 36 63 77 85 101 108 98 56 37 37 72 84 87 69 57 52 79 108 120 112 108 93 75 19 8 8 8 8 8 0 8 8 8 8 8 0 0 8 8 8 0 0 0 8 8 8 8 8 0 8 0 8 8 8 8 0 8 8 0 8 8 8 0 0 8 8 8 8 8 0 8 8 8 8 8 0 8 0 0 8 8 8 0 0 8 8 0 0 8 8 0 8 8 8 8 0 0 0 8 8 8 0 8 8 8 0 8 8 0 8 8 8 8 8 8 8 8 8 8 0 0 8 8 0
0 8 0 8 78 71 79 89 98 108 119 95 75 64 56 61 76 91 108 112 112 119 100 84 71 17 8 8 8 8 8 8 8 8 8 8 8 0 8 0 8 0 8 0 8 8 0 8 0 0 8 8 0 8 8 8 8 8 8 8 8 0 0 8 0 8 0 8 8 8 8 8 8 8 8 0 8 0 8 8 0 8 8 8 0 8 8 8 8 8 8 0 8 10 86 8 8 0 0 8 8 8 8 8 8 8 8 8 8 8 8 0 8 8 0 0 8 0 8 0 0 0 0 8 0 0 8 8
0 8 0 8 84 77 85 89 98 101 104 112 119 119 120 116 112 112 110 102 96 85 64 10 10 8 8 0 8 8 8 8 8 8 0 8 8 8 8 8 0 8 8 0 8 8 8 8 8 8 8 8 8 8 8 0 8 8 8 0 8 8 8 0 0 8 8 8 0 0 8 8 8 8 8 0 8 8 8 8 8 0 8 8 8 8 0 8 8 0 8 12 8 8 8 8 8 8 8 0 8 8 8 8 0 0 8 8 8 8 8 8 8 0 0 12 0 8 8 0 8 8 8 8 8 0 0 8
0 8 0 16 79 75 85 89 97 96 103 108 108 108 108 108 101 100 87 78 37 10 8 0 8 8 0 8 8 8 0 8 0 8 0 8 0 0 8 8 8 8 8 8 8 8 8 8 8 8 0 8 8 8 8 0 8 8 8 8 8 8 8 8 8 0 8 0 8 0 8 8 8 8 8 8 8 0 8 8 0 0 0 8 8 8 0 8 8 8 0 8 0 0 8 12 8 8 0 8 8 0 8 0 8 8 0 0 12 0 8 8 0 8 8 8 8 8 8 8 8 8 8 8 0 8 0 8
0 8 0 8 85 71 85 87 93 93 96 97 93 92 93 84 83 59 17 8 8 8 8 8 8 8 8 8 8 8 8 8 8 8 8 0 8 8 0 8 8 8 8 8 8 0 0 0 0 8 8 8 8 0 8 8 8 0 8 0 8 0 0 8 8 8 0 8 8 8 0 8 0 8 0 8 8 8 8 8 8 0 8 8 8 0 8 8 0 8 8 0 0 8 8 0 8 8 0 8 8 8 0 8 8 8 8 0 8 8 8 0 8 8 8 8 8 8 8 8 8 8 0 8 8 0 8 8
0 0 0 8 60 85 75 63 85 85 77 75 75 79 66 19 8 8 8 0 0 0 8 8 8 0 8 8 8 8 0 8 8 0 8 0 8 8 0 0 8 8 8 0 8 0 8 8 8 8 8 8 8 8 8 8 8 0 8 8 0 8 8 0 8 0 0 8 8 8 8 8 0 8 8 8 0 8 8 8 8 8 8 0 8 8 8 0 8 0 0 0 8 8 0 8 0 8 8 0 0 8 0 8 8 8 8 8 12 8 8 8 8 0 12 8 8 8 8 8 8 0 8 0 8 8 0 0
0 8 8 0 8 29 69 78 75 68 52 29 6 8 0 0 8 8 8 0 0 8 8 8 8 0 8 8 8 0 8 8 8 8 8 8 8 8 8 8 8 0 0 8 0 8 0 8 8 8 8 8 8 0 8 8 8 8 0 8 8 8 8 8 8 8 8 8 8 8 8 8 8 0 0 8 8 8 8 8 8 8 8 8 8 8 8 8 8 0 0 8 8 8 8 8 8 8 12 0 8 0 8 8 8 8 8 8 8 0 8 8 8 8 8 8 8 0 8 8 8 8 8 8 0 8 8 0
0 8 8 8 8 8 8 10 8 8 8 8 8 8 8 0 8 8 8 8 8 0 8 8 8 8 8 8 0 8 0 8 8 8 8 8 8 8 8 8 8 8 0 8 0 8 8 0 8 8 8 8 8 8 8 8 8 0 8 8 0 8 8 0 8 0 8 0 8 0 8 8 8 8 8 8 8 0 0 8 0 8 8 8 8 0 8 8 8 8 0 8 8 0 8 8 0 8 8 8 8 0 8 0 8 8 0 8 0 0 8 8 0 8 8 0 0 8 0 8 8 8 8 8 8 12 8 8
0 8 0 8 8 0 0 8 0 8 8 0 0 0 8 0 0 8 0 8 8 8 0 8 8 8 8 8 12 8 0 0 8 0 12 0 8 8 12 0 8 0 8 0 8 8 8 8 8 8 8 8 0 8 8 8 8 8 8 8 8 8 8 8 8 8 8 8 8 0 8 8 8 0 8 0 8 8 8 8 8 0 8 8 8 8 8 8 0 8 8 8 8 8 8 0 8 0 8 8 8 8 8 8 0 8 8 8 0 8 0 0 8 8 0 8 0 8 8 0 0 0 0 8 8 0 0 8
0 8 8 8 0 8 8 0 8 0 8 8 0 0 8 0 8 8 0 8 0 0 8 8 0 8 8 0 0 0 8 8 8 0 8 8 0 8 8 0 0 8 8 8 8 8 8 8 8 0 8 0 8 0 8 0 8 8 0 8 0 8 0 8 8 8 0 8 8 8 0 0 8 8 8 8 8 8 8 8 8 8 8 8 8 8 8 8 8 8 8 8 0 8 8 0 8 8 8 8 0 0 0 8 8 8 8 8 8 8 0 0 8 8 0 8 8 0 8 0 8 0 8 8 0 0 8 8
0 8 0 12 8 8 8 0 8 8 8 8 8 8 0 8 8 8 8 8 8 8 8 8 8 0 8 0 8 8 8 8 8 8 0 8 8 0 0 8 8 8 0 8 0 8 8 8 0 0 0 0 0 8 0 8 8 8 8 8 8 0 8 8 8 8 8 8 0 8 8 8 8 0 8 8 8 8 8 8 8 8 8 0 8 0 8 8 8 8 8 0 8 0 8 8 8 8 8 0 8 8 0 8 8 8 8 0 0 8 8 0 0 8 8 8 0 8 8 8 8 8 8 8 8 8 8 8
