P2
4 3
55
0 10 20 30
10 20 30 40
20 30 40 50
