P2
8 5
255
0 25 50 75 100 125 150 175 
25 50 75 100 125 150 175 200 
50 75 100 125 150 175 200 225 
75 100 125 150 175 200 225 250 
100 125 150 175 200 225 250 255 
