P2
4 4
255
100 125 150 175 
125 150 175 200 
150 175 200 225 
175 200 225 250 
