P2
160 120
255
12 8 8 8 8 8 8 8 8 8 8 8 8 0 8 8 8 0 8 8 8 8 0 0 8 0 8 8 8 8 8 8 8 8 8 8 0 8 0 8 0 8 0 8 8 8 0 8 8 8 0 8 0 8 8 8 8 8 8 8 8 8 0 8 0 8 0 8 0 8 8 8 0 8 8 8 8 0 0 8 0 8 0 8 0 0 8 0 8 8 8 8 8 8 0 8 8 8 8 8 8 8 0 0 8 0 8 8 0 8 8 8 0 8 8 8 0 8 8 8 8 8 8 8 8 0 8 8 8 0 8 0 8 8 8 8 8 0 8 0 0 8 8 8 8 8 8 8 8 8 0 8 8 0 0 8 8 8 8 0 
8 12 8 0 8 0 8 8 8 8 0 8 8 8 8 8 8 0 8 8 8 0 8 8 0 8 8 8 8 0 8 0 0 8 8 8 8 8 8 0 8 8 8 0 8 8 8 0 8 8 8 0 8 0 0 0 8 0 0 0 8 8 8 8 8 0 8 0 8 0 8 0 8 8 8 8 8 8 0 8 8 0 8 0 8 8 8 8 8 8 0 8 8 0 8 0 8 8 0 8 8 8 8 8 8 8 8 8 8 8 8 8 0 8 8 0 8 8 0 8 8 8 0 8 0 8 0 8 8 8 0 8 0 8 8 8 8 0 8 0 8 8 8 8 0 8 0 8 8 8 8 0 8 8 8 0 8 8 8 8 
8 8 8 8 8 8 0 8 0 8 0 8 8 8 8 0 0 8 8 8 0 8 0 8 8 8 0 0 8 0 8 0 8 0 0 8 8 8 8 8 8 0 12 8 0 8 8 8 8 8 8 8 8 8 8 8 8 8 8 8 0 8 8 8 8 8 0 8 0 8 8 8 8 8 8 8 8 8 8 0 8 8 8 8 0 8 8 8 8 0 8 0 0 8 8 8 8 0 8 0 8 8 0 0 8 0 8 8 0 8 0 8 8 0 8 8 0 8 0 8 0 8 0 8 0 8 8 8 8 8 8 8 8 0 8 8 0 8 8 8 0 8 0 8 0 8 0 8 8 8 8 8 8 0 8 8 8 0 8 0 
0 8 8 8 8 8 0 8 8 0 8 0 8 8 8 8 0 8 8 8 8 0 8 8 8 8 0 8 0 8 8 8 0 8 0 8 0 8 0 8 8 8 0 8 8 0 8 8 8 0 8 0 8 8 8 0 8 8 0 8 0 8 8 8 8 8 0 8 8 0 8 8 8 0 8 8 8 8 8 8 0 8 8 8 8 8 0 8 8 0 8 0 0 8 8 8 0 8 0 8 0 8 0 8 0 8 0 8 8 8 8 0 8 8 8 8 8 0 8 0 8 0 8 0 8 8 8 0 8 8 8 8 0 8 0 8 8 0 8 8 8 0 8 0 8 8 8 8 8 8 8 8 0 8 8 8 0 8 0 8 
8 8 8 8 8 8 8 8 8 8 8 8 0 8 0 8 8 0 8 0 8 8 8 8 0 8 8 0 8 8 8 8 8 8 8 0 8 0 8 8 8 0 8 8 8 8 0 0 8 0 8 8 8 8 8 0 8 0 8 8 8 8 8 8 0 0 8 0 8 8 8 8 0 8 8 8 8 8 8 0 8 0 8 8 8 8 8 8 8 12 8 8 8 8 8 8 8 0 8 0 8 8 8 8 8 8 8 8 8 0 8 8 8 8 8 0 8 0 8 8 8 8 8 8 8 8 8 0 8 0 8 8 8 0 0 0 8 8 8 8 8 0 8 8 8 8 8 8 8 0 8 0 8 8 8 8 0 0 8 8 
8 8 8 8 8 8 8 8 8 8 8 8 0 0 8 8 8 8 0 8 8 8 8 0 8 0 8 8 8 0 8 0 8 8 8 8 8 8 8 0 8 0 8 8 8 8 8 0 0 8 8 8 8 8 8 12 8 12 8 8 8 8 8 0 8 0 8 8 8 8 0 8 8 0 8 8 8 8 8 8 8 8 0 8 8 0 8 8 8 8 8 8 8 8 8 0 8 8 0 8 0 8 0 8 0 8 8 8 8 8 8 8 8 8 0 8 8 8 8 8 8 8 8 8 0 8 8 0 8 0 8 0 8 0 8 0 8 0 8 8 0 8 0 8 8 8 8 8 8 0 8 0 8 0 8 8 8 0 8 0 
8 8 8 8 8 8 0 8 8 8 8 8 8 0 8 0 8 8 8 8 8 8 8 8 0 8 8 8 8 8 0 8 8 8 8 8 8 8 8 8 0 8 8 8 8 0 8 8 0 8 0 8 8 0 8 8 8 8 8 8 8 8 8 0 8 0 8 0 8 8 8 8 8 0 8 8 8 0 8 8 8 8 8 0 8 0 0 8 0 8 0 8 0 0 8 8 0 8 8 8 8 0 8 0 8 0 8 8 0 8 0 8 8 8 0 8 8 8 8 8 0 8 8 8 8 0 8 8 8 8 0 8 0 8 8 8 8 8 0 8 8 8 0 8 8 0 8 0 8 0 8 8 8 0 8 0 8 0 8 0 
6 8 8 8 8 0 8 8 8 8 0 8 8 8 0 8 0 8 8 0 0 0 8 8 8 8 0 8 8 0 8 0 8 8 8 0 8 8 8 8 8 8 0 8 0 8 8 8 8 0 8 0 0 8 0 8 8 0 8 0 8 0 8 8 8 8 8 0 0 8 8 8 8 8 0 8 8 0 8 8 8 0 8 8 0 8 8 0 8 8 8 0 8 0 8 0 8 8 8 8 8 8 0 8 8 8 8 8 8 0 0 8 8 0 8 8 8 8 0 8 8 0 8 0 8 0 8 8 8 8 8 8 8 0 8 8 0 8 8 0 8 0 8 0 0 8 0 8 0 8 8 8 8 8 0 8 8 8 8 0 
12 6 8 8 8 8 8 8 8 8 0 8 8 8 8 0 8 8 8 8 8 0 0 8 0 8 8 8 8 8 8 8 8 8 8 0 8 0 8 8 8 8 12 8 8 8 0 8 8 8 0 8 8 0 8 0 8 8 0 8 8 8 8 8 0 8 0 8 0 8 8 8 8 8 8 0 8 0 8 0 8 8 0 8 8 8 0 8 8 8 0 8 8 0 0 8 0 8 8 8 8 8 8 0 8 8 0 8 8 8 0 8 8 8 0 0 8 0 8 0 8 8 8 0 8 0 8 8 8 0 8 8 8 8 8 0 8 8 8 8 0 8 8 8 0 8 8 8 8 0 8 0 8 0 8 0 8 8 8 0 
8 8 8 8 8 8 8 8 8 8 8 8 8 8 0 8 8 0 8 8 8 8 0 8 8 8 8 0 8 8 0 8 8 0 8 8 8 8 0 8 8 8 0 8 8 0 8 0 8 8 8 0 8 8 8 8 8 8 8 0 0 8 0 8 8 8 8 8 8 0 8 0 8 0 8 0 8 8 8 8 8 0 8 8 8 8 8 8 0 8 8 0 8 8 0 8 0 8 8 8 12 8 8 8 8 0 8 8 8 8 8 0 8 8 8 8 8 8 8 0 8 8 8 8 0 8 8 0 8 8 0 8 0 8 8 0 8 8 8 0 8 8 0 8 0 8 8 8 8 8 8 8 8 8 0 8 8 0 8 0 
8 8 8 8 8 8 8 8 0 8 8 8 8 8 8 0 8 0 8 0 8 0 8 8 8 0 8 8 8 0 8 8 8 8 8 8 0 8 8 8 8 8 8 0 0 8 0 8 0 8 8 8 8 8 8 8 0 8 8 8 0 0 8 0 8 8 8 8 8 8 8 0 0 8 0 8 8 8 8 8 8 8 0 8 8 8 8 0 8 0 8 8 8 8 8 8 8 0 8 0 8 8 8 8 0 8 8 8 8 8 8 8 0 8 8 8 8 0 8 8 8 8 8 8 8 8 8 0 8 0 8 0 8 0 8 8 8 8 8 0 8 0 8 0 8 8 8 8 0 8 8 8 8 8 8 0 8 8 8 8 
8 8 8 8 8 8 8 8 8 8 0 8 0 8 0 8 8 8 0 8 0 8 8 8 8 8 0 8 8 8 8 8 8 8 0 8 8 8 8 8 8 0 8 8 0 8 8 8 8 0 8 8 0 8 8 0 8 0 8 8 8 0 8 0 8 8 8 8 8 8 8 8 0 8 8 8 8 8 8 8 8 0 8 0 8 8 8 0 8 0 0 8 8 8 8 0 8 0 8 8 0 8 8 8 8 8 8 8 8 8 8 8 0 8 0 8 8 8 0 8 8 8 0 8 8 8 0 8 0 8 8 8 8 8 0 0 8 8 8 8 0 8 8 8 8 8 8 8 8 0 8 0 8 0 8 0 8 0 8 0 
8 8 8 8 8 8 8 0 8 8 0 8 0 8 8 0 8 8 8 0 8 8 8 8 8 0 8 8 0 8 8 8 8 8 8 8 8 8 8 8 8 0 0 8 8 8 8 8 0 8 8 8 0 8 8 8 0 8 0 8 8 8 8 8 0 8 8 0 8 0 8 8 8 8 8 8 8 0 8 8 0 8 0 8 8 8 8 0 8 8 0 8 8 8 8 8 8 0 0 8 0 8 8 8 8 0 8 8 0 8 8 0 8 8 8 8 0 8 8 0 8 8 8 0 8 0 8 8 0 8 0 8 0 8 8 0 8 8 8 8 0 8 8 8 8 8 8 8 8 8 0 8 0 8 0 8 0 8 0 8 
8 8 8 8 8 8 8 8 8 8 8 8 8 8 8 8 0 8 0 8 8 8 8 8 8 8 0 8 8 0 8 8 0 8 0 8 8 8 8 8 8 8 0 8 8 8 8 8 0 8 0 8 8 0 8 8 8 8 0 8 8 0 8 8 8 0 8 0 8 0 8 8 8 8 8 8 0 8 0 8 8 8 0 8 8 8 8 0 8 0 8 8 8 8 8 8 8 8 8 8 8 0 8 8 0 8 8 0 8 8 0 8 8 0 0 0 8 8 8 0 8 8 8 0 0 8 8 0 8 0 8 8 0 8 0 8 8 8 8 0 8 0 8 8 0 8 8 0 8 0 8 0 8 8 8 0 8 0 8 0 
8 6 8 8 8 8 8 8 8 8 8 8 8 8 0 8 0 8 8 8 8 8 8 0 8 8 8 0 0 8 0 0 8 0 8 0 0 0 0 8 8 8 8 8 8 8 0 8 0 8 0 8 0 8 8 8 8 8 8 8 0 8 0 8 8 8 8 8 0 8 0 8 8 8 8 8 8 0 8 0 8 8 8 8 8 8 0 8 8 8 0 8 0 8 8 8 8 8 8 8 8 8 8 8 8 8 8 8 8 8 8 0 8 8 8 0 0 8 8 8 0 8 0 8 0 8 8 8 8 8 8 0 8 8 8 8 8 8 8 8 8 0 8 0 8 8 8 8 0 0 8 8 8 8 8 8 8 8 8 8 
8 8 8 8 0 8 8 8 8 8 0 8 8 8 8 0 8 0 8 0 8 8 0 8 8 8 8 8 8 8 8 8 0 8 8 8 8 8 0 8 8 8 12 8 8 8 8 0 8 8 8 0 8 8 0 8 8 8 8 8 0 8 8 0 8 8 8 8 8 0 8 0 0 0 8 8 8 0 8 8 0 8 0 8 0 8 8 0 8 12 8 0 8 0 8 0 8 0 0 8 8 8 8 8 8 0 8 8 0 8 8 8 0 8 8 8 8 8 0 8 8 8 8 8 0 8 8 8 8 8 8 8 8 8 8 8 0 8 8 0 8 0 8 8 8 8 8 8 8 0 8 8 8 8 0 0 8 0 0 8 
8 8 8 8 8 8 0 8 8 8 8 0 0 8 8 8 8 8 8 8 8 8 8 0 8 8 8 0 8 8 8 8 8 8 8 8 8 8 8 0 8 8 0 8 0 8 0 8 8 8 8 8 8 0 8 0 8 8 0 8 0 8 8 8 8 8 0 8 8 8 0 8 8 0 8 8 8 8 0 8 8 0 8 8 8 0 8 8 8 8 8 0 8 8 8 8 0 8 0 0 8 8 8 8 0 8 8 0 8 8 0 8 0 8 8 8 8 8 8 8 8 0 8 8 0 8 8 8 8 8 8 8 8 8 8 0 8 8 0 8 0 8 8 0 8 8 8 8 0 8 8 8 0 8 8 0 8 0 8 0 
8 6 8 8 0 8 0 8 8 8 0 8 8 0 8 8 8 8 8 8 8 8 0 8 8 8 8 8 8 8 8 8 0 8 8 8 8 0 0 8 0 8 8 0 8 8 8 8 0 8 8 8 0 8 0 8 8 0 8 0 8 0 8 0 8 8 8 8 8 8 8 0 8 8 8 8 8 8 8 8 8 8 8 8 8 8 0 8 0 8 0 8 0 8 8 8 0 0 8 0 0 8 8 8 8 8 8 8 8 8 0 8 8 0 8 8 8 8 8 0 0 8 0 8 8 0 8 0 8 8 8 8 0 8 8 8 0 8 0 8 8 0 8 0 0 8 8 8 8 8 0 8 0 8 8 8 0 8 0 8 
8 8 8 8 8 8 8 8 8 8 8 8 0 8 0 8 8 8 8 8 0 8 8 8 0 8 8 8 0 8 0 0 8 0 0 8 0 8 0 8 0 8 8 8 8 8 8 8 8 8 8 8 8 8 8 8 8 8 8 8 8 8 8 8 8 8 0 8 0 8 8 8 0 0 8 8 0 8 8 8 8 0 8 8 0 8 8 8 8 8 8 0 8 8 8 8 8 8 0 8 8 0 8 8 8 0 8 8 8 8 8 0 8 8 8 8 8 8 8 8 8 8 8 0 8 8 0 8 0 8 0 8 0 8 8 8 8 0 8 0 8 8 8 8 8 8 8 8 0 8 0 8 8 8 8 0 8 8 8 0 
8 8 8 8 8 8 8 8 8 8 8 8 8 0 8 0 8 0 8 8 8 8 0 8 8 8 8 8 8 8 8 8 8 8 8 8 8 8 8 0 8 8 8 8 8 8 8 8 0 8 8 8 0 8 8 0 8 0 8 0 8 8 8 8 0 8 0 8 8 8 8 0 8 0 0 8 8 8 8 8 8 8 8 8 8 8 0 8 8 8 8 8 0 0 8 0 8 8 8 8 0 8 8 8 8 8 8 8 8 8 8 8 0 8 8 0 8 8 8 8 8 8 8 8 8 0 8 0 8 8 8 0 0 8 8 8 8 8 8 8 8 8 0 8 8 8 8 0 8 0 8 0 8 8 8 8 0 8 8 8 
8 8 8 8 8 0 8 8 8 8 8 0 8 8 0 8 8 8 8 8 8 8 8 0 8 0 8 8 8 8 8 0 8 8 8 0 8 0 8 8 8 8 8 0 8 8 8 0 8 0 8 8 8 0 8 8 8 8 8 8 8 8 8 8 8 0 8 0 8 8 8 0 8 8 8 0 8 8 8 8 8 8 0 8 8 0 8 8 8 8 8 0 8 0 8 0 8 0 8 0 8 0 8 0 8 8 8 8 8 8 8 8 8 8 8 8 0 8 8 8 8 8 8 0 8 0 8 0 8 8 8 0 8 8 8 8 0 8 8 0 8 8 8 0 8 0 8 8 8 8 8 8 8 8 0 8 8 8 8 0 
8 8 8 8 8 8 8 8 8 8 8 8 0 8 8 8 8 0 8 8 8 8 8 8 8 8 8 0 8 0 8 8 8 8 0 8 0 8 0 8 0 8 0 8 8 8 0 8 0 8 0 8 8 8 8 8 8 8 8 8 8 0 8 8 0 8 8 8 8 0 8 8 8 8 8 8 0 8 8 8 8 8 8 8 8 8 0 8 8 8 8 8 0 8 0 8 0 0 8 0 8 8 0 8 8 8 8 8 8 8 8 0 8 8 0 8 8 8 8 8 8 8 8 0 8 0 8 8 0 8 8 8 8 8 8 0 8 0 0 8 0 0 8 0 8 0 8 0 8 8 8 8 8 0 8 8 8 8 8 0 
8 8 8 8 8 8 8 8 8 0 8 8 8 0 8 0 8 8 8 8 8 8 8 8 8 8 8 0 8 8 8 8 8 8 0 8 0 8 8 8 8 8 8 0 8 0 8 8 0 8 8 8 8 8 0 8 8 8 8 8 0 8 0 8 8 8 8 8 8 8 8 8 8 8 8 8 8 8 8 8 8 8 8 8 8 0 8 0 8 8 0 8 0 8 8 0 8 8 0 8 0 8 8 0 8 0 8 8 8 0 8 8 0 8 8 0 8 8 8 0 8 0 8 8 8 0 8 8 8 0 8 8 8 8 8 0 8 8 8 8 8 8 8 0 8 0 8 0 8 8 8 8 0 8 8 8 8 8 0 8 
8 8 0 8 8 8 8 0 8 8 8 8 8 0 8 8 0 8 8 8 8 8 8 8 8 8 8 8 8 8 8 8 8 8 8 8 8 8 8 8 8 8 8 8 0 8 8 8 0 8 8 8 8 8 0 8 0 8 8 8 8 8 8 8 8 0 8 8 8 8 0 8 0 0 8 8 0 8 0 8 0 8 0 8 8 0 8 8 8 8 8 0 8 8 8 8 8 8 8 8 0 8 0 8 0 8 8 0 8 0 8 8 8 0 8 8 0 8 0 8 0 8 0 8 8 8 8 8 0 8 8 8 8 8 8 8 8 8 8 8 8 8 8 8 8 8 0 8 0 8 8 0 8 0 8 0 8 0 8 8 
8 8 8 0 8 8 8 8 0 8 8 8 8 8 0 8 0 8 8 8 8 0 8 8 8 8 8 0 8 0 0 8 0 8 8 0 0 8 8 8 0 8 0 8 8 8 8 8 8 8 8 8 8 8 8 0 8 8 8 8 8 8 8 8 0 8 0 8 8 8 8 8 0 0 8 8 8 0 8 0 8 0 8 0 0 8 0 8 8 0 8 8 8 8 8 8 8 8 8 8 0 8 0 8 8 8 8 0 8 8 0 8 0 8 0 8 8 8 8 8 8 8 8 8 0 8 8 0 8 8 8 0 8 0 8 8 8 0 8 8 8 0 8 8 8 8 8 8 0 8 0 8 0 8 0 8 0 8 0 8 
8 8 8 8 8 8 8 0 8 8 0 8 8 0 8 8 8 8 8 8 8 8 8 8 0 8 8 8 8 8 8 0 8 0 8 8 8 8 0 8 0 8 8 0 8 0 8 0 0 0 8 0 0 8 8 12 8 8 8 0 0 8 8 8 8 8 8 0 8 8 8 8 8 8 0 0 8 8 0 8 8 8 0 8 8 8 8 0 8 0 0 8 0 8 8 10 19 16 8 8 8 8 8 8 8 8 8 8 0 8 0 8 0 8 8 8 8 8 8 8 8 0 8 8 8 0 0 8 0 8 8 8 8 8 0 8 0 0 0 8 0 8 0 8 8 0 8 0 8 8 8 0 8 0 8 8 8 8 0 8 
8 0 8 8 8 8 8 8 8 8 8 0 8 8 8 8 8 8 8 0 8 8 8 0 8 8 8 0 8 8 0 8 8 8 8 8 8 0 8 8 8 0 8 0 0 8 0 8 8 8 8 8 8 0 8 8 8 8 0 8 8 0 8 8 8 0 8 8 0 8 8 8 8 8 8 0 0 8 8 8 0 8 8 8 0 8 8 8 8 8 0 8 8 0 19 51 72 51 26 8 8 8 0 0 0 8 8 8 8 8 8 0 8 8 8 8 8 8 8 0 8 0 8 8 8 8 8 8 8 0 8 0 8 0 8 8 8 0 8 0 8 0 0 8 8 8 8 8 8 8 8 8 0 8 0 8 8 8 8 0 
8 8 8 0 8 8 8 8 8 0 8 8 0 8 8 8 8 0 8 8 8 8 8 8 8 8 8 8 0 8 8 8 8 8 8 8 0 8 8 0 8 8 8 8 8 8 8 8 8 0 0 8 0 8 0 8 8 8 8 8 0 8 8 0 8 8 0 8 8 8 8 8 8 0 8 8 0 8 8 8 8 8 0 8 8 0 8 8 8 0 8 0 0 8 34 86 86 66 28 8 8 8 8 8 8 8 8 8 8 8 8 8 8 8 8 8 8 8 8 8 8 8 8 0 0 8 8 8 8 8 8 0 8 8 0 8 8 8 0 8 0 8 8 0 8 0 0 8 0 8 0 8 0 8 8 8 8 8 8 8 
8 0 8 8 8 8 8 8 8 0 8 0 8 8 8 8 8 8 8 0 8 0 0 8 0 8 8 8 8 0 8 8 8 0 8 8 8 0 8 0 8 0 8 8 8 8 8 8 8 8 0 0 8 8 8 0 8 8 8 8 8 8 0 8 8 0 8 8 0 8 8 0 8 8 8 0 8 8 0 8 8 0 8 8 0 8 8 8 8 8 0 8 8 8 33 86 110 86 34 12 12 8 8 8 8 8 0 8 0 8 8 8 8 8 8 8 0 8 8 8 8 8 0 8 0 8 0 8 8 0 8 0 8 8 8 0 8 8 8 0 0 0 8 8 0 8 0 8 0 8 0 8 0 8 8 8 8 0 8 0 
8 8 0 8 0 8 8 0 8 8 0 8 8 0 8 8 0 8 8 8 0 8 0 8 0 8 8 0 8 8 0 8 8 8 8 8 0 8 0 8 0 8 8 8 0 0 8 8 8 8 8 8 8 8 8 8 0 8 8 8 8 0 8 8 8 8 8 8 8 8 8 8 8 8 0 8 0 8 8 8 0 8 8 0 8 8 8 8 0 8 0 8 8 0 26 66 86 86 26 16 0 0 0 0 8 8 8 8 8 8 8 8 8 8 8 8 8 0 8 0 0 8 8 8 8 8 8 8 0 8 0 8 0 8 8 0 8 8 8 0 8 0 8 8 8 0 8 0 8 8 8 8 8 8 8 8 0 8 8 8 
8 12 8 8 8 8 0 8 8 8 8 8 0 8 8 8 8 8 8 8 8 0 8 8 8 8 8 8 0 8 8 0 8 8 0 8 8 0 8 8 8 0 8 8 0 8 0 8 8 8 8 8 8 0 8 0 8 8 8 8 8 8 8 0 8 8 0 8 8 0 8 8 8 8 8 8 8 0 8 0 8 0 8 8 0 8 8 8 8 0 8 0 8 8 8 26 26 26 8 12 0 8 8 0 8 8 8 8 8 8 8 8 8 8 8 0 8 0 0 8 0 8 0 12 8 0 8 8 8 8 0 8 8 8 8 0 8 8 8 0 0 8 0 8 8 8 8 8 8 8 8 8 8 8 8 8 8 8 8 8 
8 12 0 8 8 8 8 8 8 8 8 8 8 8 8 8 8 8 8 8 0 8 8 0 8 8 8 0 8 8 0 8 8 0 8 8 8 8 8 8 0 8 8 8 8 8 8 0 8 8 8 8 0 8 8 8 8 8 8 8 8 0 8 8 8 0 8 8 8 8 0 8 0 8 8 8 8 8 8 8 8 0 8 0 8 0 8 8 0 8 0 8 0 8 0 0 8 0 0 8 8 8 8 8 8 8 0 0 0 0 8 0 8 8 8 8 8 8 8 8 8 8 8 8 0 8 0 0 8 0 8 8 8 8 8 0 8 8 8 8 0 8 8 8 0 0 8 0 8 8 0 8 8 8 8 8 0 8 8 8 
12 8 8 8 8 8 8 8 0 8 0 8 8 0 8 8 0 8 8 8 8 8 8 8 8 0 8 8 8 8 8 8 8 8 8 8 8 8 0 8 8 0 8 0 8 8 0 8 8 8 8 8 8 8 8 8 0 8 8 8 8 8 8 8 8 8 8 8 8 0 8 8 8 8 8 8 0 8 8 8 8 0 8 0 8 8 0 8 8 0 0 0 8 0 8 8 8 8 8 0 8 8 0 8 0 8 8 8 8 8 8 8 0 8 8 8 8 8 0 8 0 0 8 0 8 8 8 8 0 8 8 8 8 8 0 8 8 8 8 8 8 0 8 8 8 8 8 8 8 8 8 0 8 8 8 0 8 8 8 8 
0 12 0 8 0 8 8 8 8 0 8 8 0 8 0 8 8 8 8 0 8 0 8 8 8 8 8 8 0 8 8 8 8 8 8 8 8 8 8 0 8 0 8 8 8 8 0 8 0 8 12 8 8 0 8 8 0 8 0 8 8 8 8 0 8 8 8 8 8 8 8 8 8 8 0 8 8 8 0 0 8 0 8 0 8 8 8 8 8 8 8 0 8 8 0 8 8 0 8 8 8 0 8 0 8 0 0 8 8 8 8 8 8 8 8 8 0 8 8 0 8 8 0 8 8 0 8 0 8 8 8 8 8 0 8 8 8 8 8 8 8 8 0 8 8 0 8 8 8 8 0 8 8 8 8 8 8 8 8 8 
8 8 0 8 8 8 8 0 8 8 8 8 0 8 8 8 8 0 8 0 8 8 8 8 8 8 8 8 8 0 8 0 8 0 8 0 8 0 8 8 8 8 0 8 8 8 0 0 8 8 8 0 8 8 8 8 0 8 0 8 8 8 8 8 8 0 8 8 8 8 8 8 8 8 8 0 8 8 8 0 8 8 8 8 0 8 8 0 8 8 0 8 8 8 8 0 8 8 0 8 0 8 8 8 0 8 8 8 8 0 0 0 8 0 8 8 8 8 0 8 8 8 8 8 8 8 8 8 8 0 8 8 8 8 8 0 0 8 8 8 0 12 8 0 8 0 8 0 8 0 8 8 8 8 0 8 0 8 8 8 
8 8 8 0 8 8 8 8 8 8 0 8 8 8 8 8 0 8 0 8 0 8 8 8 8 8 8 8 8 8 8 8 8 8 8 0 0 8 8 8 8 8 8 8 8 8 8 0 0 0 8 8 8 8 8 8 8 0 8 8 8 8 8 8 8 8 0 8 8 8 0 8 8 8 8 8 0 8 8 0 8 8 8 8 8 0 8 8 8 8 8 8 8 8 8 0 8 0 8 0 8 0 8 8 8 8 8 0 8 8 0 8 0 8 0 8 8 8 8 8 0 8 8 8 8 8 0 8 0 8 8 8 8 8 8 8 8 8 8 0 8 0 0 0 0 12 0 8 0 0 8 8 8 0 8 8 8 0 8 0 
8 8 8 8 8 8 8 8 8 8 8 8 0 8 8 0 8 0 8 0 8 0 8 0 8 8 8 8 0 8 0 8 8 8 8 8 8 0 0 8 0 8 8 0 8 8 8 8 0 8 0 8 8 8 8 0 8 8 8 8 8 8 8 8 0 8 8 8 8 0 8 8 8 8 8 0 8 8 8 8 0 8 8 0 8 0 8 0 8 8 8 8 8 8 0 8 0 8 8 8 8 8 0 8 0 8 0 8 8 8 0 8 0 8 8 8 8 8 0 8 8 0 8 8 8 8 0 8 8 8 8 8 8 8 8 8 0 8 0 8 0 8 0 8 8 12 8 8 8 0 8 0 0 8 0 8 0 8 8 8 
8 8 8 8 8 0 8 8 8 8 8 8 8 0 8 0 8 8 8 0 8 8 8 0 0 8 0 8 0 8 8 0 8 0 8 8 8 8 0 0 8 0 8 8 8 8 8 8 0 8 8 12 8 8 8 8 8 8 8 8 8 8 0 8 8 0 8 8 0 8 8 8 8 8 8 8 8 8 8 8 8 8 8 8 8 0 8 0 8 0 8 8 8 0 8 8 8 8 0 8 8 8 0 8 0 8 8 0 8 0 8 8 8 8 8 8 0 8 8 0 8 8 8 0 8 0 8 8 8 8 8 8 8 8 8 8 8 12 8 8 8 8 8 0 12 0 8 8 8 8 8 0 0 0 0 0 8 8 8 8 
8 0 8 8 0 8 8 8 8 8 8 8 0 8 8 8 8 8 8 8 8 8 8 8 0 8 0 8 8 8 8 0 8 8 8 8 8 8 8 8 0 8 0 8 0 8 8 8 8 0 8 8 8 0 8 8 8 8 8 8 8 0 8 0 8 8 8 8 8 0 8 0 8 8 8 8 8 8 8 8 8 8 0 8 8 8 0 8 8 8 0 8 8 0 8 0 8 8 8 8 0 8 8 8 8 0 8 8 8 8 8 0 8 0 8 8 8 8 8 0 8 0 8 8 8 0 8 8 0 8 0 8 8 0 8 8 0 8 8 8 0 8 8 8 0 8 0 0 12 8 0 8 8 8 0 8 0 8 8 8 
0 0 8 8 8 0 8 8 8 8 8 0 8 8 8 8 8 0 8 8 0 8 0 8 8 0 8 8 8 8 8 8 8 8 8 0 0 8 8 8 8 8 8 0 8 8 0 8 0 8 0 0 8 0 8 0 8 8 0 8 0 8 8 8 12 8 12 12 8 8 8 8 8 8 8 8 8 0 8 8 8 0 8 0 8 8 8 0 8 0 8 0 8 8 8 0 8 8 8 8 0 8 8 8 8 8 8 8 8 8 0 0 0 8 0 8 8 8 0 8 0 8 8 8 8 8 8 0 8 8 8 0 8 8 8 0 8 0 8 8 0 0 0 8 0 0 0 8 0 8 0 0 8 8 8 8 0 0 0 0 
8 0 8 0 8 0 8 0 8 8 8 0 8 8 8 0 8 0 0 8 8 8 8 8 8 8 0 8 8 8 8 8 0 8 8 8 0 8 0 8 0 8 8 8 8 0 8 8 8 8 8 0 8 0 8 8 8 8 0 8 8 8 8 8 8 8 8 8 8 8 0 8 8 8 8 8 8 8 0 8 8 0 0 8 8 8 8 8 8 8 0 8 0 8 8 8 0 8 0 8 0 8 0 8 8 0 8 8 8 8 0 8 8 0 8 8 8 8 8 0 8 8 8 8 0 8 8 8 0 8 0 8 8 0 8 0 8 8 8 8 8 8 0 8 8 8 8 0 0 12 8 8 8 8 8 0 8 8 8 8 
8 8 8 8 8 0 8 8 8 8 8 8 0 8 0 8 0 8 8 0 0 8 8 8 8 8 0 8 8 0 8 8 8 8 8 8 8 8 8 0 8 0 8 8 0 8 0 8 8 8 8 8 0 8 8 8 0 8 0 8 8 8 0 8 8 0 8 0 8 0 8 0 8 8 0 8 8 0 8 8 0 8 8 8 8 8 8 8 0 8 0 8 8 0 8 8 8 8 8 0 8 8 8 8 8 8 0 8 0 8 8 8 8 8 8 8 8 0 8 8 8 0 8 0 8 0 0 8 8 0 8 8 8 8 8 8 8 8 0 8 12 8 12 0 8 12 8 8 0 0 8 8 8 8 8 8 8 8 8 8 
8 8 8 8 8 8 0 8 0 8 8 8 8 8 8 8 8 8 0 8 0 8 8 8 8 0 0 8 8 8 8 8 8 8 8 8 0 8 8 8 0 8 8 8 8 8 8 0 8 0 8 8 8 8 8 8 8 0 8 8 8 0 8 0 8 8 8 0 8 8 8 8 8 8 8 0 8 8 0 0 8 8 8 8 12 8 0 8 8 0 8 8 8 8 0 8 8 0 8 8 8 8 0 8 8 8 8 8 8 0 8 8 0 8 8 8 8 0 0 8 0 8 8 0 8 0 8 0 8 8 0 8 8 0 8 8 0 8 8 0 8 8 8 12 8 8 8 8 8 8 12 8 0 8 8 0 8 0 8 0 
8 0 8 0 8 8 8 0 8 8 8 8 8 0 0 8 0 8 8 0 8 0 8 8 8 8 8 8 8 8 8 0 8 0 8 0 8 8 0 8 8 8 8 8 0 0 8 0 8 8 8 8 8 8 8 0 8 8 8 0 8 8 8 8 8 8 0 8 0 8 0 8 0 0 8 8 8 8 8 8 8 0 8 8 0 8 8 0 8 8 0 8 0 8 8 0 8 0 8 0 8 8 0 8 0 8 8 0 8 0 8 8 8 8 8 0 8 8 0 0 8 0 8 8 0 8 8 0 8 0 8 8 8 8 0 8 8 8 0 0 0 12 8 0 8 8 8 0 0 8 8 8 8 8 8 8 8 8 8 0 
8 8 8 8 8 0 8 8 8 8 8 8 8 0 8 0 8 8 8 8 0 0 8 8 8 8 0 8 8 8 8 8 0 8 8 0 0 0 8 0 8 8 8 0 0 8 0 8 0 8 8 8 8 8 0 8 8 8 8 8 0 8 8 8 8 0 8 0 8 8 8 0 8 0 8 8 8 8 8 0 8 8 8 8 0 8 8 8 0 8 8 0 8 8 8 8 0 0 8 8 12 8 8 8 8 8 8 8 8 8 0 8 0 8 0 8 0 8 8 8 8 8 0 8 8 0 8 8 8 8 8 8 8 8 8 0 8 0 0 8 0 0 8 0 8 8 8 8 8 0 0 12 8 0 8 0 8 0 8 0 
8 8 8 0 8 8 0 8 8 8 8 8 8 8 0 8 8 8 8 8 8 8 0 8 8 8 8 8 8 8 0 8 8 0 8 8 8 0 8 0 8 8 0 8 8 0 8 0 8 8 8 8 8 0 8 8 0 8 0 8 8 8 8 8 8 8 0 8 0 0 8 8 8 8 0 8 0 8 8 8 8 8 8 8 8 0 8 8 8 0 8 0 8 0 8 0 8 0 8 8 8 8 8 8 8 8 8 0 8 8 0 0 8 8 8 0 8 8 8 8 8 8 8 0 8 0 8 0 8 8 8 8 8 8 8 0 8 0 0 8 8 0 8 8 0 8 8 8 0 8 8 0 8 0 8 0 8 0 8 0 
8 8 8 8 0 8 8 0 8 0 8 0 8 8 8 8 8 0 8 8 8 8 0 8 8 8 8 8 8 8 8 8 8 8 8 8 8 8 8 8 8 8 8 0 8 8 8 8 0 8 8 8 0 8 8 8 0 8 0 8 0 8 8 8 8 0 8 0 0 8 0 8 8 8 8 8 8 0 0 8 8 0 8 8 0 8 8 0 8 8 0 8 8 8 8 8 8 8 8 8 8 0 8 8 8 0 8 0 0 0 8 0 8 8 0 8 0 8 0 8 0 8 0 8 8 8 8 0 0 0 8 0 8 0 0 8 8 8 8 0 8 0 8 0 8 8 8 0 8 0 8 0 8 0 8 0 8 0 8 0 
8 8 0 8 8 0 8 8 0 8 0 8 8 0 8 8 8 8 0 8 0 0 8 0 8 8 0 8 8 8 8 8 0 8 8 8 8 8 0 8 8 0 8 8 8 8 0 8 8 0 8 0 8 8 8 8 0 0 8 0 8 8 8 8 0 8 0 8 0 8 0 8 8 0 8 8 0 8 8 0 8 8 8 0 8 8 8 8 8 0 8 8 8 8 8 0 8 0 8 8 8 0 8 0 8 8 0 8 0 8 8 8 8 0 8 0 8 8 8 8 8 8 8 8 8 0 8 0 8 8 0 8 8 0 8 8 8 8 8 0 8 8 8 8 0 8 8 0 8 0 0 8 0 8 0 8 0 8 0 8 
8 8 8 0 8 8 0 8 8 8 8 0 8 8 8 8 8 8 8 8 8 8 8 8 0 8 0 8 8 0 8 0 8 8 8 8 0 8 8 0 0 8 0 8 0 8 8 8 8 8 0 8 8 8 8 0 8 0 0 8 0 0 8 12 8 8 0 8 8 8 8 0 8 8 8 8 8 8 8 8 0 8 0 8 8 0 8 0 8 8 8 0 8 8 8 0 8 8 0 8 8 8 0 0 8 0 8 8 8 8 8 8 0 8 8 8 8 0 8 8 8 8 8 0 8 0 8 8 0 8 8 8 8 8 8 8 8 8 8 8 8 8 8 0 8 0 12 8 8 8 0 8 8 8 8 8 0 8 8 0 
0 8 0 8 8 8 8 8 8 8 8 8 0 8 0 8 8 8 8 0 8 8 8 8 8 0 0 8 8 8 8 8 0 8 8 0 8 8 8 8 0 8 8 8 0 8 0 8 8 8 8 8 8 8 0 8 8 8 8 8 0 8 8 8 8 8 8 0 8 8 0 8 0 8 0 8 8 8 8 8 8 0 8 0 8 0 8 8 0 8 8 8 8 8 8 8 0 0 8 8 8 8 0 8 8 8 8 8 8 8 8 8 8 8 8 8 8 0 0 8 0 8 0 8 8 8 0 8 8 8 0 8 0 8 0 8 8 8 8 0 8 0 8 8 0 12 8 8 8 8 8 8 8 0 8 0 8 0 8 8 
8 0 8 8 8 8 8 8 8 0 8 8 8 8 8 8 8 0 8 8 8 8 8 0 0 8 0 8 8 8 0 8 8 8 8 8 0 8 8 8 8 0 0 8 8 8 8 0 8 8 0 8 8 0 8 0 8 0 8 8 8 8 0 8 0 8 0 8 0 8 0 0 8 8 8 8 8 8 8 8 8 0 0 8 8 8 8 0 8 0 8 0 8 8 8 8 8 8 8 0 8 8 8 8 8 8 8 0 8 0 8 0 0 8 0 8 0 8 8 0 8 0 8 0 0 8 0 0 8 8 8 8 0 8 0 8 8 8 0 8 8 8 8 8 8 8 0 8 8 8 8 0 8 0 8 8 0 8 0 8 
8 8 0 8 8 8 0 8 8 8 0 0 8 0 0 8 0 8 8 8 0 8 0 8 0 8 0 8 0 8 8 0 8 8 0 8 8 8 0 8 8 8 8 0 8 8 0 8 8 8 8 0 8 8 0 8 0 8 0 8 8 8 8 8 8 8 0 8 0 8 8 8 0 8 8 8 8 0 0 8 0 8 0 8 0 8 8 8 0 8 0 8 0 8 0 8 8 0 8 8 8 0 8 8 8 0 8 0 8 0 8 8 0 8 8 0 8 8 8 8 8 8 8 8 8 8 8 8 8 8 8 8 8 0 8 0 8 8 8 8 0 8 0 8 8 8 8 0 8 8 8 8 0 8 8 8 8 8 8 8 
8 0 8 8 8 8 8 8 8 8 8 0 0 8 8 0 8 0 0 8 0 8 8 0 8 0 8 8 8 8 8 8 0 8 8 8 8 8 8 0 8 8 8 8 0 8 8 8 8 8 8 0 8 8 8 0 8 0 8 8 8 8 8 8 8 8 8 0 8 0 8 8 8 0 0 8 8 8 8 8 8 8 8 8 8 8 8 0 8 0 8 8 8 8 0 8 0 8 0 8 0 8 8 8 8 8 8 8 8 8 0 0 8 0 0 8 8 0 8 8 8 8 8 8 8 8 8 8 8 8 8 8 8 8 8 0 8 8 8 8 8 0 8 0 8 8 0 8 8 8 8 8 0 8 0 0 0 0 8 0 
8 8 8 8 0 8 8 8 8 8 0 8 8 8 8 8 8 8 8 8 8 0 8 8 0 8 0 8 8 8 0 8 8 8 8 8 8 8 8 8 0 8 0 0 8 8 8 8 8 8 8 8 8 8 8 8 8 8 8 8 8 8 0 8 0 8 8 8 8 8 0 8 8 0 8 8 8 8 8 8 8 8 8 0 8 0 8 8 8 8 8 8 8 8 8 8 0 8 8 8 8 0 8 8 8 8 8 8 8 8 0 8 0 8 0 8 8 8 0 8 8 8 0 8 0 8 0 8 8 8 0 8 8 8 8 0 8 8 8 0 8 8 0 8 8 0 8 8 8 8 8 0 8 0 8 8 0 8 8 8 
8 8 8 8 8 8 8 8 8 8 8 8 8 8 8 8 8 8 8 8 8 8 0 8 8 0 8 8 0 8 8 8 8 8 8 8 8 8 8 0 8 0 8 8 0 8 8 8 8 8 8 8 0 8 0 8 0 8 0 8 8 8 0 8 8 8 0 8 8 0 8 0 8 8 8 8 0 8 0 0 8 0 8 8 0 8 0 0 8 0 8 8 8 0 8 8 8 8 8 8 8 0 8 0 0 8 0 8 0 8 8 8 8 8 8 8 8 8 8 0 8 0 8 0 8 8 8 0 8 0 8 8 0 8 0 8 8 8 0 8 8 8 8 0 8 8 8 8 8 8 0 8 0 8 8 8 8 8 8 8 
8 8 8 8 8 8 8 8 0 12 8 0 8 8 0 8 0 8 0 8 8 8 8 0 8 0 0 8 8 8 0 8 8 8 8 0 8 0 8 8 8 0 8 0 8 8 8 8 8 8 8 8 8 0 8 8 8 0 8 8 8 8 8 8 0 8 8 0 8 8 0 0 8 8 8 8 0 8 0 8 0 8 0 0 8 0 8 8 0 8 8 8 0 8 8 8 8 8 8 8 8 8 0 8 8 0 8 0 8 0 8 8 8 8 8 8 8 8 8 8 8 8 8 8 8 8 8 8 0 8 8 8 8 0 8 8 8 8 0 8 8 8 8 8 8 0 8 8 8 0 8 8 8 8 8 8 8 8 8 8 
8 0 8 8 8 8 8 8 8 8 0 8 0 8 8 8 0 8 8 8 0 8 8 8 0 8 8 8 8 0 8 8 8 8 8 8 0 8 8 0 8 8 0 8 8 0 8 8 8 8 0 8 8 8 8 8 8 8 0 8 8 8 8 0 8 0 8 8 8 0 8 8 0 8 8 8 8 8 8 8 8 8 8 8 8 8 8 8 8 8 8 8 8 0 8 0 8 0 8 8 8 8 8 8 8 8 8 8 8 0 0 8 0 8 8 0 8 8 0 8 8 8 0 8 8 8 8 0 8 8 8 8 8 0 8 0 8 8 8 8 8 8 0 8 8 8 8 8 8 8 0 8 0 8 8 8 0 0 8 8 
8 0 8 8 8 8 8 8 8 8 8 8 8 8 8 8 8 0 8 0 8 8 8 8 8 8 8 8 8 8 0 8 8 8 8 0 8 0 8 8 8 8 8 8 0 8 0 8 8 0 8 8 0 0 8 0 8 8 0 0 8 8 8 8 0 8 0 8 0 8 0 8 8 0 8 8 8 8 8 8 8 8 0 0 8 8 0 8 8 8 0 8 0 8 0 8 8 8 0 8 0 8 8 8 8 8 8 0 8 0 8 8 8 8 8 8 8 8 8 0 8 0 8 0 8 0 8 8 0 8 8 8 8 8 8 8 0 8 8 8 8 8 8 0 8 8 8 8 0 8 8 8 8 0 8 8 8 8 8 8 
8 8 0 8 0 8 8 8 8 8 8 8 8 8 8 8 0 12 8 8 0 8 8 8 8 8 8 0 8 0 8 8 0 8 8 0 8 8 8 0 8 8 8 8 8 8 8 8 8 8 0 8 8 0 8 8 0 8 0 8 0 8 8 8 8 8 8 8 8 8 8 8 8 8 0 8 8 8 0 8 0 8 0 8 8 8 8 0 8 0 8 8 8 8 8 8 8 8 8 8 8 0 8 0 8 8 0 8 0 0 8 8 0 8 8 8 0 8 8 8 0 8 8 8 8 0 0 8 8 8 8 8 8 0 8 8 0 8 0 8 8 8 0 8 0 8 8 8 8 0 8 0 8 8 0 8 8 8 8 8 
8 0 8 8 8 0 8 8 0 8 0 8 0 8 0 8 8 0 8 0 8 8 0 8 8 8 8 8 8 8 0 8 8 0 8 8 0 8 8 8 0 8 0 8 0 0 8 8 8 8 8 0 8 0 8 0 8 8 8 8 8 0 0 0 8 0 8 0 8 8 8 8 0 8 8 8 0 8 8 8 8 0 8 8 8 8 8 8 8 8 8 8 8 8 8 8 8 8 8 0 8 0 8 8 0 8 8 0 8 0 8 0 8 8 0 8 8 8 8 8 0 8 0 8 8 8 0 8 0 8 0 8 8 8 8 8 8 0 8 8 8 8 8 0 8 8 0 0 8 8 0 8 0 8 0 8 8 8 8 0 
8 8 8 8 8 8 0 8 0 8 0 0 8 0 8 0 8 8 0 8 8 8 8 8 8 0 8 8 0 8 8 0 8 8 0 8 8 8 0 8 0 8 0 8 8 0 8 0 8 8 8 8 0 8 0 8 8 8 8 0 8 0 8 0 8 0 8 0 8 8 8 8 8 0 8 8 8 8 8 8 8 8 0 8 8 0 8 0 8 0 8 0 8 8 0 8 0 8 8 8 0 8 0 8 8 0 8 8 0 8 8 8 0 8 8 8 0 8 8 8 8 0 8 8 8 8 0 8 0 8 8 0 8 8 8 8 0 8 0 8 8 8 0 8 8 8 8 0 8 8 8 8 0 0 8 0 0 8 0 0 
8 8 0 8 8 0 8 8 8 0 8 8 0 8 0 8 8 8 8 8 0 8 8 0 8 8 8 0 8 8 0 8 8 0 8 8 8 0 8 8 8 8 8 0 8 8 8 8 8 0 8 8 8 8 8 0 8 0 8 8 8 8 8 8 0 8 8 8 8 8 8 0 8 8 0 8 0 8 8 8 0 8 0 8 8 8 0 8 8 0 8 0 8 8 8 8 8 0 8 0 8 8 0 8 0 8 8 0 8 0 8 8 8 8 8 8 8 0 8 8 0 8 8 8 8 0 8 8 8 0 8 8 0 8 0 8 8 0 8 8 8 8 8 8 0 8 8 8 0 8 8 0 8 0 8 8 8 8 8 8 
8 8 0 8 0 8 8 8 8 8 8 0 8 8 8 8 8 8 8 0 8 8 0 8 8 0 8 8 8 8 8 8 8 8 8 8 0 8 8 8 8 8 8 8 8 8 0 8 0 8 0 0 8 8 8 8 8 8 0 8 0 0 8 0 8 0 8 0 8 8 8 8 8 8 8 8 8 8 0 8 0 8 0 8 0 8 8 0 8 8 8 0 8 8 8 8 0 8 0 8 8 8 0 8 8 8 8 8 8 8 8 8 8 8 8 0 8 8 8 0 8 8 8 8 0 8 8 8 8 8 8 0 8 0 8 0 8 8 0 8 8 8 0 8 0 8 8 8 8 0 8 0 8 0 8 8 8 8 8 8 
8 0 8 8 8 8 8 8 0 8 0 8 0 0 8 0 8 8 8 8 0 8 8 8 8 8 8 8 8 8 8 0 8 8 0 8 0 8 0 8 8 0 8 8 0 0 8 0 8 8 8 8 0 8 8 0 8 8 8 8 8 8 8 8 8 8 8 8 8 8 8 8 0 8 8 0 8 8 8 8 8 0 8 8 8 0 8 8 0 8 8 0 8 8 8 0 8 8 8 8 8 8 0 8 8 8 8 0 8 8 8 0 8 8 8 8 8 8 8 8 0 8 8 8 8 8 0 8 8 8 8 8 8 8 0 8 8 0 8 0 8 8 0 8 8 8 8 0 8 8 0 8 0 8 0 8 8 8 8 8 
8 8 8 0 8 8 0 8 0 8 0 0 8 8 0 8 0 8 0 8 8 0 8 8 8 8 8 8 8 8 8 8 0 8 8 0 8 8 8 8 8 8 0 8 0 8 0 8 8 8 8 8 0 8 0 8 8 8 8 8 8 8 8 8 8 8 8 8 8 8 0 8 8 8 0 8 0 8 8 8 8 8 0 8 8 8 0 8 8 8 8 8 8 0 8 8 8 8 8 8 8 0 8 0 8 8 8 8 8 8 0 8 0 8 0 8 0 8 0 8 8 8 8 0 8 0 8 0 8 0 8 8 0 8 8 8 0 8 8 8 8 0 8 8 8 0 0 0 0 8 8 8 0 8 0 8 0 8 8 8 
8 8 0 8 8 0 8 8 8 8 8 8 8 8 8 8 8 0 8 0 8 8 0 8 0 8 8 0 8 8 0 8 8 0 8 8 0 8 8 0 8 8 8 8 8 0 8 8 8 8 0 8 8 8 8 8 0 8 8 8 0 8 8 0 8 8 8 8 0 8 8 0 8 8 8 8 8 8 8 8 0 8 0 8 8 0 8 8 8 8 0 8 8 0 0 0 8 8 8 0 8 8 8 8 8 8 8 8 0 8 8 8 8 8 8 0 8 8 0 0 8 8 8 0 8 8 8 8 8 8 8 0 8 8 0 8 8 0 8 0 8 8 0 8 0 8 8 8 8 8 0 8 8 8 8 8 8 0 8 0 
8 8 8 0 8 8 0 8 0 8 8 8 0 8 8 8 8 8 8 8 0 8 8 0 8 8 0 8 0 8 8 0 8 8 0 8 8 8 0 8 0 8 0 8 8 8 8 8 0 8 0 8 8 0 8 8 8 0 8 0 8 0 8 0 8 8 0 8 0 8 8 8 0 8 8 8 0 8 0 8 0 8 0 8 8 0 8 8 8 8 8 0 8 8 8 8 8 0 8 8 8 8 8 0 8 8 8 8 12 8 8 8 8 0 8 8 8 8 8 8 8 8 8 8 8 8 8 0 8 8 8 8 8 8 0 8 0 8 0 8 0 8 0 8 8 8 8 8 8 8 8 0 8 0 8 0 8 8 8 8 
0 8 8 8 0 8 8 0 8 8 8 8 8 0 8 0 8 0 8 8 8 8 8 8 8 8 8 0 8 0 8 8 8 8 0 8 8 8 8 8 8 0 8 0 8 8 8 0 8 0 8 0 8 8 0 8 0 8 8 8 0 8 0 8 0 8 8 0 8 0 8 0 8 8 8 8 8 8 8 0 8 8 8 8 8 0 8 0 8 8 8 8 8 8 8 8 8 8 8 8 8 8 8 8 8 8 8 0 8 8 8 0 8 0 8 0 0 8 0 8 0 0 8 8 8 8 0 8 8 0 8 0 8 0 8 8 8 0 8 0 8 0 8 8 0 8 0 8 8 8 8 8 0 8 0 8 0 8 8 8 
8 8 0 0 8 0 8 8 8 8 8 8 8 0 8 0 8 8 8 8 8 8 8 8 0 8 8 8 8 8 8 8 8 8 8 0 8 8 8 8 8 8 0 8 8 8 0 8 0 8 8 8 8 8 8 8 8 8 8 8 8 0 8 0 8 8 8 0 8 8 0 8 8 8 8 8 8 0 8 8 0 8 0 8 8 0 8 8 8 8 8 8 8 8 0 8 0 8 0 8 0 8 8 8 0 8 8 8 8 8 0 8 0 8 0 8 8 8 0 8 0 8 0 8 8 8 8 8 8 8 0 0 8 0 8 0 8 0 8 8 8 8 8 8 8 0 8 8 8 8 8 8 0 8 0 8 0 8 0 8 
8 8 0 8 8 8 0 8 0 8 0 8 8 8 8 8 8 8 8 0 8 8 0 8 8 8 0 8 0 8 8 8 0 8 0 8 8 8 8 8 0 8 8 0 8 8 8 8 0 8 8 8 8 0 8 8 8 0 8 8 0 8 0 8 8 8 8 0 0 8 8 8 0 8 8 0 8 8 0 8 8 0 8 8 8 8 0 8 8 8 0 8 8 8 8 0 8 8 8 0 8 8 0 8 8 8 0 8 8 8 8 8 8 8 8 8 8 8 8 8 8 8 8 0 8 8 8 0 8 0 0 0 8 8 8 0 8 0 8 0 8 8 8 0 8 8 8 8 8 8 8 8 8 8 8 8 8 0 8 0 
8 8 8 8 0 8 8 0 8 0 8 0 8 8 8 8 8 8 8 8 0 8 8 0 8 8 8 0 8 8 8 0 8 0 8 0 8 8 8 8 8 8 0 8 8 8 0 8 0 8 0 8 8 8 8 0 8 8 8 0 8 0 8 8 8 8 8 0 8 8 8 8 8 0 8 8 0 8 8 8 8 8 8 0 8 0 8 0 8 8 8 0 8 8 8 8 8 8 8 8 8 0 8 8 0 8 8 0 8 8 8 0 8 8 8 8 8 8 0 8 0 8 0 8 8 8 8 8 0 8 0 8 8 8 8 0 8 0 8 0 8 8 8 8 0 8 0 8 8 8 8 8 8 8 8 0 8 0 8 8 
8 8 0 8 8 8 8 8 8 8 0 8 8 8 8 0 0 8 0 8 8 0 8 8 0 8 8 8 8 0 8 8 8 8 8 8 8 8 8 8 8 8 8 8 0 8 8 8 8 0 8 0 8 8 0 8 8 0 8 8 0 8 0 8 8 8 0 8 0 8 8 0 8 8 0 8 8 0 8 8 8 8 8 8 8 0 8 8 0 8 0 8 8 8 8 8 8 8 8 8 8 8 0 8 8 0 8 8 8 8 8 8 0 8 0 8 0 8 0 8 0 8 0 8 0 8 0 0 8 8 8 8 8 8 0 8 0 8 0 8 0 8 0 0 8 0 8 0 8 0 8 8 8 0 8 8 8 8 0 8 
8 8 0 0 8 8 8 8 8 0 8 0 8 0 8 8 0 8 8 8 8 8 0 8 8 0 8 0 8 8 0 8 8 8 8 0 8 8 0 8 8 8 0 8 8 8 8 0 8 8 0 8 0 8 8 8 8 8 8 8 8 0 8 0 8 8 8 0 8 8 8 8 0 8 8 0 8 8 0 8 8 8 8 0 8 8 8 0 8 0 8 8 8 0 8 0 8 0 8 0 8 0 8 8 8 8 8 8 8 8 8 8 8 8 8 8 8 0 8 8 8 0 8 8 8 8 8 0 8 8 8 8 8 8 0 8 0 8 0 8 0 8 0 8 0 8 0 8 0 8 8 0 8 8 0 8 8 8 8 0 
8 8 8 0 8 8 8 8 0 8 8 8 0 8 8 8 8 0 8 8 0 8 8 0 8 8 8 0 8 0 8 0 8 0 8 0 8 0 8 8 8 8 8 8 0 8 8 8 8 0 8 0 8 8 0 8 8 8 0 8 8 0 8 8 0 8 8 8 0 8 8 0 8 8 0 8 8 8 8 0 8 8 0 8 0 8 8 8 0 8 0 8 8 8 0 8 0 8 8 0 8 8 8 8 8 8 0 8 8 0 8 0 8 8 8 0 8 8 8 8 8 8 8 8 8 0 8 8 8 0 8 0 8 0 8 0 8 0 8 0 8 8 8 0 8 0 8 0 8 0 8 8 8 8 8 0 8 0 8 0 
8 8 0 8 8 8 8 8 8 0 8 8 0 8 8 8 8 8 0 8 8 0 8 8 0 8 8 8 8 8 8 8 0 8 0 8 0 8 0 8 8 8 0 8 0 8 0 8 8 8 0 8 0 8 0 8 8 8 8 8 0 8 0 8 8 0 8 0 8 8 8 8 8 8 8 8 8 8 0 8 8 0 8 8 8 0 8 8 8 8 0 8 8 0 8 0 8 8 0 8 8 0 8 8 0 8 8 8 8 8 0 0 0 8 0 8 0 8 0 8 0 8 0 8 8 8 8 8 8 0 8 0 0 8 0 8 8 8 0 8 8 8 8 8 8 8 8 8 8 8 8 8 8 8 8 0 8 0 0 8 
8 0 8 8 0 8 0 8 0 0 0 8 0 8 0 8 0 8 8 0 8 8 8 0 8 8 8 0 8 0 8 8 8 0 8 0 8 0 8 0 8 8 8 0 8 0 8 0 8 8 8 8 0 8 8 8 0 8 8 8 8 0 8 0 8 8 8 8 8 8 8 8 8 8 8 8 8 0 0 8 0 8 0 8 8 8 8 8 8 8 8 8 8 0 0 8 8 8 8 8 0 8 0 8 8 8 0 8 0 8 8 8 8 8 8 8 8 8 8 8 8 8 8 8 8 8 8 0 8 8 8 8 8 8 8 0 8 8 8 0 8 8 8 0 8 8 8 8 8 8 0 8 0 8 8 0 0 8 0 8 
8 8 8 8 8 8 8 8 8 8 8 8 8 8 8 0 8 0 8 8 0 8 8 8 0 8 0 8 0 8 0 8 0 8 8 8 8 8 8 8 8 8 8 8 0 8 0 8 8 0 8 8 8 8 8 0 8 0 8 0 8 8 0 8 8 8 8 8 8 0 8 0 8 0 8 0 8 8 8 8 8 0 8 0 8 8 8 0 8 0 8 8 8 0 8 0 8 8 0 8 8 0 8 8 8 8 8 8 8 8 8 8 8 8 8 8 8 8 8 8 8 0 8 8 0 8 0 8 0 8 0 0 8 8 8 8 8 8 0 8 8 0 8 8 8 8 8 8 8 8 8 8 8 8 0 8 8 8 8 8 
8 8 0 8 8 0 8 8 8 8 8 8 8 0 8 8 0 8 0 8 8 8 0 8 0 8 0 8 8 0 8 0 8 0 8 8 8 0 8 0 8 8 8 8 8 0 8 8 8 8 0 8 8 0 8 0 8 0 0 0 8 0 8 8 8 0 8 8 0 8 8 0 8 0 8 0 8 0 0 8 0 8 0 8 8 8 8 8 8 8 0 8 8 8 8 8 0 0 8 0 8 8 0 8 0 8 8 8 8 8 8 0 8 8 8 0 8 8 8 0 8 8 8 8 8 0 8 8 8 8 8 8 0 8 8 8 8 8 8 8 8 8 0 8 0 8 8 8 8 8 8 8 8 8 8 8 8 8 8 8 
8 0 8 8 0 8 8 8 8 8 0 8 8 8 0 8 8 0 8 8 8 0 8 8 0 8 8 8 8 8 0 8 8 8 8 0 8 8 8 8 0 8 8 8 0 8 8 8 0 8 8 0 8 0 8 8 8 0 8 0 8 8 0 8 0 8 8 0 8 0 8 0 8 0 8 0 8 0 8 8 8 8 8 8 8 8 8 8 0 8 8 0 8 8 8 8 8 0 8 8 8 8 0 8 8 8 8 8 8 8 0 8 0 8 8 8 0 8 0 8 8 0 8 8 0 8 8 8 8 0 8 0 8 8 8 0 8 8 8 8 8 8 8 0 8 8 8 8 0 8 8 8 8 8 0 8 0 0 0 8 
8 8 8 0 8 8 0 8 0 0 8 0 8 8 8 8 8 8 8 0 8 8 8 8 8 0 8 0 8 8 8 8 8 8 8 8 8 8 8 8 8 8 8 8 0 8 0 8 8 8 8 8 8 8 8 8 8 8 8 8 8 0 8 8 8 0 8 8 8 8 0 8 8 8 8 8 8 8 8 8 8 8 0 0 8 0 8 8 8 0 8 8 0 8 8 8 8 8 8 8 0 8 0 0 0 8 8 0 8 8 8 0 8 8 8 8 8 8 8 0 8 8 0 8 8 0 8 0 8 0 8 0 8 0 0 8 0 8 0 8 0 0 8 0 8 0 8 8 8 0 0 8 0 0 8 0 8 8 8 8 
8 8 8 8 8 0 8 0 8 0 8 0 8 8 8 8 8 8 8 0 0 8 0 8 8 8 8 0 8 8 8 8 8 8 0 8 8 8 0 8 8 8 8 0 0 8 8 8 0 8 8 8 0 8 8 8 8 8 12 8 8 8 8 0 8 8 0 8 0 8 8 8 8 8 8 8 8 8 8 8 8 0 8 0 8 0 8 0 8 0 8 0 8 0 8 8 8 8 8 8 0 0 8 0 8 0 8 8 0 8 0 8 8 8 0 8 8 8 8 8 0 8 8 0 8 8 8 8 8 8 0 8 0 8 8 8 8 8 8 8 8 8 0 8 0 8 8 0 8 0 8 0 8 0 8 0 8 8 8 12 
0 8 8 0 8 8 0 8 8 8 0 8 0 8 8 8 0 8 8 8 0 8 8 8 8 0 8 8 0 8 8 8 8 8 0 8 0 8 0 8 0 0 8 0 8 0 8 8 8 8 0 8 8 0 8 0 8 8 8 8 8 8 0 8 8 8 8 0 8 8 0 8 8 8 0 8 0 0 8 8 8 8 0 8 8 8 0 8 0 8 8 8 8 0 8 8 8 8 8 8 8 0 8 0 8 8 0 8 8 0 8 0 8 0 8 0 8 0 8 0 0 8 0 8 8 0 8 8 8 8 8 8 8 0 8 0 8 8 8 0 8 8 8 0 8 0 8 8 8 8 0 8 8 8 8 8 8 0 0 8 
8 8 0 8 8 0 8 8 8 8 8 8 8 8 0 8 8 8 0 8 8 8 0 8 0 8 0 8 8 0 0 0 8 0 8 0 8 8 8 8 8 8 0 8 8 8 8 8 8 8 8 8 8 8 8 8 8 8 8 8 8 8 8 0 8 0 8 8 0 8 0 8 0 8 0 8 8 8 8 8 8 0 8 8 8 0 8 8 8 8 8 0 8 8 8 8 8 8 8 8 8 0 8 8 8 8 8 0 8 8 8 0 8 8 8 8 0 8 8 0 8 0 8 8 8 8 8 8 8 0 8 0 8 0 8 8 0 8 0 8 0 0 8 0 8 8 0 8 8 0 8 8 8 0 0 8 0 8 8 8 
0 8 8 8 8 8 8 8 8 8 0 0 8 0 8 0 8 8 8 0 8 8 8 8 8 8 8 0 8 8 8 0 8 0 8 8 8 8 8 0 8 8 8 8 8 8 0 8 8 8 8 0 8 8 0 0 8 0 8 8 8 8 8 8 0 8 0 0 8 0 8 0 8 8 8 0 0 8 8 0 8 8 8 8 0 8 8 8 8 8 8 0 0 8 8 8 8 8 8 8 8 8 0 8 0 8 0 8 8 8 8 8 0 8 0 8 8 0 8 0 8 8 8 8 8 0 8 8 0 8 8 8 0 8 0 8 8 0 8 0 8 8 8 8 0 8 0 8 0 8 8 8 8 8 8 8 8 8 0 8 
8 8 0 8 8 0 8 0 0 8 0 8 0 8 0 8 0 0 8 8 8 0 8 8 8 8 8 0 0 8 0 8 8 8 8 0 8 8 0 8 0 8 8 8 0 8 8 0 8 0 8 8 0 8 8 8 0 8 8 0 8 8 8 8 8 0 8 8 8 8 8 8 0 8 0 8 8 8 8 8 0 8 0 8 8 0 8 0 0 8 0 8 8 8 0 8 0 8 8 8 8 8 8 8 8 0 8 0 8 8 0 8 0 8 8 8 8 8 8 8 8 8 8 8 8 8 8 8 8 8 0 8 8 8 8 0 8 0 8 0 8 0 8 0 8 8 8 8 8 0 8 0 8 8 8 0 8 0 8 0 
8 0 8 0 8 0 8 8 0 8 8 0 8 8 8 8 0 8 0 8 8 8 8 8 8 8 8 8 0 8 8 0 8 8 0 8 0 8 0 8 8 8 8 8 0 0 8 8 0 8 0 0 8 0 8 8 8 8 0 8 0 8 8 8 8 8 8 0 8 8 8 0 8 8 8 8 8 8 8 0 0 0 8 0 8 8 0 8 0 0 8 8 12 8 8 0 8 0 8 0 8 8 8 0 8 8 0 8 0 8 0 8 0 8 8 8 8 8 8 0 8 8 8 8 8 8 8 8 8 0 8 8 8 8 8 0 0 8 0 8 0 8 0 8 8 8 8 8 0 8 0 8 0 8 8 8 0 8 0 8 
8 0 8 8 0 8 0 8 8 8 8 8 8 8 8 0 8 8 8 8 8 0 8 8 8 8 8 0 8 0 8 8 0 8 8 0 8 0 8 0 8 8 8 0 8 8 0 8 8 8 8 0 8 8 0 0 8 0 8 8 8 0 8 0 8 0 8 8 8 8 8 8 8 8 8 8 0 8 8 8 8 0 8 8 8 0 8 8 8 8 8 8 8 8 8 8 8 8 0 8 0 0 8 8 8 0 8 8 8 8 8 8 0 8 0 8 0 8 0 8 8 8 8 8 8 0 8 0 8 0 8 0 8 8 8 8 8 0 8 0 8 8 8 8 0 8 8 8 0 8 8 0 8 0 8 8 8 0 8 0 
0 8 8 8 8 8 8 8 8 8 8 8 0 8 8 8 8 8 8 8 0 8 8 0 8 8 8 8 8 8 8 0 8 0 8 0 8 8 8 0 8 0 8 8 8 8 8 8 8 8 8 8 8 8 8 0 8 8 8 8 8 8 0 8 0 8 0 8 0 0 0 8 8 8 8 8 0 8 8 8 8 8 0 8 8 8 0 8 8 8 8 8 0 8 8 8 8 0 8 0 8 0 8 0 0 8 0 8 8 8 8 0 8 0 8 0 8 0 8 0 8 8 8 0 0 8 8 8 8 0 0 8 0 8 8 8 8 8 0 0 0 8 8 8 8 8 8 0 8 8 8 0 8 0 8 0 8 0 8 0 
8 8 0 8 0 8 8 0 8 0 8 0 8 8 8 8 8 8 8 0 8 0 0 8 0 0 8 8 8 8 8 8 0 8 0 0 8 8 8 8 0 8 0 8 0 8 8 8 8 8 8 0 8 0 8 8 8 8 0 8 0 8 8 8 0 8 0 0 8 8 8 0 8 8 8 8 8 0 8 8 8 8 8 0 0 8 0 8 0 8 8 8 8 8 8 0 8 8 8 0 8 8 8 8 8 0 8 0 8 8 0 0 8 8 8 8 8 8 8 8 8 8 8 8 8 0 8 8 0 8 8 0 8 8 8 8 0 8 0 8 0 0 0 8 0 8 0 8 8 0 8 8 8 8 0 8 8 8 0 8 
8 8 8 0 8 0 8 0 8 0 8 8 0 8 0 0 12 0 8 8 8 8 8 8 8 8 8 8 8 8 8 8 8 0 8 0 0 8 8 8 8 8 0 8 8 0 8 8 8 8 8 8 0 8 8 8 8 8 8 0 8 8 0 8 8 0 8 0 8 8 8 0 8 8 0 8 8 8 0 8 8 8 0 8 0 0 8 0 8 8 0 12 8 8 0 8 0 8 0 8 8 8 8 0 8 8 8 8 0 8 0 8 0 8 8 8 8 8 8 0 8 8 0 8 0 8 8 8 8 8 8 8 8 8 0 8 0 8 8 0 8 0 0 8 0 8 8 0 8 8 8 8 8 8 8 0 8 0 8 0 
0 8 0 8 8 8 0 8 8 8 0 8 8 8 8 8 8 0 8 8 8 8 8 8 8 8 0 8 8 8 8 8 8 8 0 8 0 0 8 8 8 8 8 8 8 0 8 0 8 8 0 8 8 8 8 8 8 8 0 8 8 0 8 8 0 8 8 8 0 0 8 8 0 8 8 8 0 8 8 8 8 0 8 0 8 0 8 8 8 8 8 8 8 0 8 0 8 8 8 8 8 0 8 8 0 8 8 8 8 8 0 8 0 0 8 0 8 0 8 8 8 8 8 0 8 8 8 0 8 0 8 8 8 8 0 8 8 0 0 8 0 8 8 8 0 8 0 8 8 8 8 8 0 8 8 0 8 8 8 0 
8 0 8 0 8 0 8 8 0 8 8 8 8 8 8 8 8 8 8 8 0 8 0 8 8 8 8 8 8 8 8 8 8 8 8 0 8 8 0 8 0 8 0 8 0 8 8 0 8 8 8 8 8 0 0 8 0 0 8 8 0 8 0 8 8 8 8 8 8 0 0 8 8 12 8 8 8 0 8 8 8 8 0 8 8 8 0 8 8 8 8 8 0 8 8 8 0 0 8 0 8 8 0 8 8 8 0 0 8 0 8 8 8 0 8 8 8 8 8 8 8 8 0 8 0 8 0 8 0 8 0 8 8 0 8 0 8 8 0 8 8 8 8 0 8 8 8 8 8 8 8 8 8 0 8 0 8 0 8 0 
8 8 8 0 8 8 0 8 8 8 8 0 8 0 8 0 0 8 8 0 8 8 8 0 8 8 8 8 8 0 8 0 8 8 8 8 0 8 8 0 8 0 8 8 8 8 8 8 8 8 0 8 0 8 8 0 8 8 0 8 8 0 8 0 8 8 8 8 8 8 8 8 12 8 8 8 0 8 8 0 8 8 8 0 8 8 8 0 0 8 8 8 0 8 8 8 8 0 8 8 8 8 8 8 8 8 8 8 0 8 8 8 8 8 8 8 8 8 8 8 0 8 8 8 8 0 8 0 8 0 8 8 8 8 8 0 8 8 8 0 8 0 8 8 8 0 8 8 0 8 8 8 0 8 0 8 0 8 8 0 
8 8 8 8 0 8 8 8 8 8 0 8 0 8 0 8 0 0 8 8 8 8 8 8 8 8 0 0 8 0 8 8 0 8 8 8 0 8 8 8 8 8 8 8 8 8 8 0 8 8 8 8 8 0 8 8 8 8 0 0 8 0 8 8 0 8 8 8 8 8 8 8 8 8 0 8 0 8 8 8 8 8 8 8 8 8 8 8 8 0 8 8 8 8 0 0 8 8 0 8 0 0 8 8 8 0 8 0 8 8 8 8 0 8 8 8 8 8 0 8 0 8 0 8 8 8 0 8 8 8 8 0 8 0 8 8 8 8 8 8 8 8 8 8 0 8 0 0 8 0 8 8 0 8 0 8 0 8 0 8 
0 8 8 8 8 8 8 0 8 8 0 8 8 8 0 8 8 0 8 0 0 0 8 8 8 0 8 0 8 0 8 8 8 0 8 0 8 0 0 0 0 8 0 8 8 0 8 8 0 8 8 0 8 8 8 8 8 8 8 0 8 0 8 0 8 0 8 0 8 8 8 8 0 8 0 8 8 8 8 8 8 0 8 8 8 0 8 8 8 8 8 8 0 8 8 8 8 8 8 0 8 8 0 0 8 0 8 0 8 0 0 0 8 0 8 0 0 0 8 0 8 8 8 0 8 8 8 0 8 8 8 8 0 8 8 0 8 8 8 8 8 0 8 0 8 0 8 0 8 0 8 8 8 8 8 8 8 8 8 8 
8 0 8 8 0 8 0 8 0 8 8 0 8 8 8 0 8 8 8 8 8 0 8 0 8 8 0 8 8 8 0 8 8 8 8 8 8 8 8 8 0 8 8 0 8 0 8 8 8 0 8 0 8 8 8 8 0 8 8 8 0 8 8 8 8 8 8 8 8 8 8 0 8 8 8 8 8 0 8 8 0 8 8 8 8 8 8 8 8 8 8 8 0 8 8 8 8 0 8 8 0 8 8 8 8 0 8 0 8 8 8 0 8 8 8 8 8 8 0 8 8 0 8 8 0 8 0 8 8 8 8 8 8 8 0 8 8 8 8 8 8 8 8 0 8 8 8 8 8 0 8 0 8 8 0 8 8 8 8 8 
8 8 8 8 8 8 0 8 0 8 0 8 8 0 8 8 0 8 8 8 8 8 0 0 0 0 8 0 8 8 8 8 0 8 8 8 8 8 8 8 8 8 8 0 0 8 0 8 0 8 0 8 8 8 0 8 0 8 8 8 8 8 0 8 8 8 8 8 0 8 8 8 8 8 0 8 8 8 0 8 8 8 8 0 8 0 8 8 8 12 8 8 0 8 8 8 0 8 0 8 8 8 8 8 8 8 8 8 0 8 8 8 8 8 8 8 8 8 8 8 8 8 0 8 8 0 8 8 8 0 8 8 12 8 8 0 8 8 8 8 8 8 0 8 0 8 8 8 8 8 8 8 8 0 8 0 8 8 8 8 
8 8 8 0 8 0 0 8 0 8 8 0 8 0 8 0 8 0 8 8 0 8 0 8 8 0 8 8 8 0 8 8 8 8 8 8 8 8 8 8 0 8 0 8 0 8 8 8 8 8 0 0 8 8 8 8 0 8 8 8 12 0 8 8 8 0 8 0 8 8 8 12 8 8 8 0 8 8 8 8 0 8 0 8 0 8 0 8 8 8 0 8 8 8 8 0 8 0 0 8 0 8 0 8 0 0 8 0 8 0 8 8 8 0 8 0 8 8 8 8 0 8 8 8 8 0 8 8 0 8 8 8 8 8 8 0 8 8 8 8 8 8 8 0 8 8 8 8 8 8 8 8 8 8 0 8 0 8 8 8 
8 8 8 8 0 0 8 8 8 8 8 8 8 8 8 8 8 8 8 0 8 0 8 0 8 8 0 8 0 8 8 8 8 8 8 8 8 0 8 8 8 0 8 8 0 8 8 8 8 8 8 0 8 0 8 0 8 0 8 0 8 8 8 0 8 8 0 8 8 8 8 0 8 8 8 8 8 8 8 8 8 8 8 8 8 0 8 8 8 0 8 0 0 8 8 8 0 8 8 0 8 8 0 8 8 0 8 8 8 8 8 8 0 8 0 0 8 8 8 8 8 0 8 8 8 8 0 8 8 8 8 8 0 8 0 8 8 8 8 8 8 8 0 8 8 0 8 0 0 8 0 8 8 0 8 0 0 8 8 8 
8 8 8 8 8 8 0 8 8 8 8 8 8 8 8 0 8 8 8 0 8 8 8 8 0 0 8 0 8 8 8 0 8 0 8 8 0 8 8 0 8 8 8 8 8 8 8 8 12 0 8 0 8 8 8 8 8 0 8 8 8 0 8 8 0 8 8 8 0 8 8 0 8 8 8 12 8 8 8 8 8 0 8 0 8 8 8 8 8 8 8 0 8 0 8 0 8 8 8 8 0 8 8 8 0 8 8 8 8 8 8 8 8 0 0 8 8 8 8 0 8 8 0 8 8 8 0 0 8 8 8 8 0 8 8 0 8 0 8 0 8 8 8 8 8 8 0 8 0 8 8 8 0 8 0 8 0 8 8 8 
8 0 8 0 8 8 8 8 8 0 0 0 0 0 0 8 0 8 0 8 0 8 0 8 8 8 0 8 8 8 0 8 0 8 8 8 8 0 8 8 0 8 0 8 0 8 0 8 0 8 8 0 8 8 8 0 8 0 8 8 0 8 0 8 8 8 8 8 8 0 8 8 0 8 8 8 0 8 8 8 8 8 0 8 8 8 8 8 0 8 8 8 8 0 8 8 8 8 8 8 8 8 0 0 8 8 8 0 8 8 8 8 0 8 8 0 8 8 8 8 8 8 8 8 8 0 8 8 8 8 8 8 8 8 8 0 8 0 8 8 8 0 8 0 8 8 8 8 0 8 0 8 8 8 0 8 8 8 8 0 
8 8 0 8 8 8 8 0 8 0 8 0 8 0 8 0 8 8 8 8 0 8 0 0 8 8 8 8 0 8 0 8 8 8 0 8 0 8 0 8 8 0 8 8 8 0 8 8 8 0 8 8 0 8 8 8 0 8 8 8 8 8 8 0 8 0 8 0 8 0 8 8 0 8 8 0 8 8 8 8 8 0 8 8 8 8 8 8 8 8 8 8 8 8 8 8 8 8 8 8 8 8 8 0 8 0 8 8 8 0 8 8 8 0 8 8 8 8 0 8 8 8 8 8 0 8 0 8 8 8 8 0 8 0 8 8 8 8 8 8 8 8 8 8 8 8 8 8 8 8 8 8 0 8 0 8 8 8 8 0 
8 8 0 0 8 8 8 8 0 0 0 8 0 8 0 8 8 8 8 8 8 0 8 8 0 0 0 8 8 8 8 8 8 8 8 8 8 8 8 8 8 8 8 0 8 8 8 8 8 8 8 8 8 0 8 8 0 8 8 8 8 0 8 8 0 8 0 8 0 8 8 0 8 0 8 8 8 0 8 8 8 8 8 8 0 8 0 8 8 8 8 8 0 8 8 8 8 0 8 8 8 8 0 8 8 8 0 8 0 8 8 0 8 8 8 8 8 8 0 8 8 0 8 8 8 8 8 8 8 8 0 8 0 8 8 0 12 8 8 8 8 8 8 8 8 8 8 8 8 12 8 8 0 8 0 8 0 8 0 8 
8 0 8 0 8 8 8 8 8 8 0 8 0 8 8 8 8 8 0 8 8 0 8 8 8 8 8 8 8 8 8 0 8 8 8 8 8 0 8 0 8 0 8 8 8 8 8 0 8 8 8 8 0 8 8 0 8 0 8 8 8 8 8 0 8 8 0 8 8 8 8 8 0 8 8 8 0 8 8 8 8 8 0 8 0 8 8 8 0 8 0 8 0 0 8 0 8 0 8 0 8 8 8 0 8 8 8 0 8 0 8 8 0 8 8 8 8 8 8 0 0 8 0 8 8 0 8 8 8 8 8 0 8 8 0 12 0 8 8 0 8 0 0 8 8 8 12 8 8 8 8 8 8 0 8 8 8 8 0 8 
8 8 0 8 0 8 8 8 8 8 8 0 8 8 8 8 8 8 8 0 8 8 8 0 8 8 8 0 8 8 8 8 8 8 8 8 8 0 8 8 0 8 0 8 8 8 8 8 0 8 0 0 8 8 8 8 0 8 8 0 8 0 8 8 0 8 8 8 0 8 8 8 0 0 8 8 8 8 8 0 8 0 8 8 8 0 0 8 0 0 8 0 8 0 8 8 8 8 8 8 8 8 0 8 8 0 8 0 8 0 8 8 0 8 8 8 0 8 0 8 0 8 8 8 8 8 0 0 8 8 8 8 8 0 8 0 8 8 8 0 8 8 8 0 8 0 0 0 8 8 8 0 8 8 8 8 0 8 8 8 
8 0 8 8 8 8 8 8 8 8 8 8 8 8 0 8 8 0 8 8 8 0 8 8 0 8 8 0 8 0 8 8 8 8 8 8 0 8 0 8 8 8 8 8 8 8 8 8 0 8 0 8 0 8 8 8 8 0 8 8 0 8 0 8 8 8 8 8 8 0 8 8 0 8 8 8 8 8 8 8 0 8 8 0 8 0 8 0 8 0 0 8 0 8 0 8 0 8 8 8 8 8 8 8 8 8 0 8 8 8 8 0 8 0 8 0 8 0 8 0 8 8 0 8 0 8 8 0 0 0 8 8 8 8 8 8 8 8 0 8 0 8 8 8 8 8 8 8 8 8 8 8 8 8 8 8 8 0 8 8 
0 8 8 8 8 0 8 8 8 0 8 0 8 0 8 0 8 0 8 0 8 0 8 8 8 8 8 0 0 8 0 8 8 8 8 8 8 8 8 0 8 8 0 8 8 8 8 8 8 0 8 0 8 8 8 8 8 0 8 8 8 8 8 8 8 0 8 0 8 0 8 8 0 8 8 8 0 8 8 8 8 0 8 0 8 0 0 8 0 8 0 8 8 8 8 8 8 8 8 8 8 8 0 8 0 8 0 8 8 8 0 8 8 8 8 8 8 8 0 8 8 8 8 8 8 0 8 0 8 8 0 8 0 8 0 8 0 8 0 8 0 8 0 8 8 0 8 8 8 8 8 8 0 8 8 8 0 8 8 8 
8 8 8 8 8 8 0 8 8 8 0 8 8 8 0 8 8 8 0 8 8 8 8 0 8 0 8 0 0 8 8 8 8 8 8 8 8 8 8 8 8 8 8 8 0 8 8 8 8 8 8 8 0 8 8 8 0 8 8 8 8 8 8 8 0 8 0 8 0 8 8 8 8 8 8 8 0 8 8 0 8 8 0 8 8 0 8 8 8 8 0 8 8 8 8 8 8 8 8 8 8 8 8 0 8 0 8 8 8 8 8 8 0 8 8 8 8 8 8 8 8 8 8 8 8 0 8 8 8 0 8 0 8 0 8 8 8 8 8 8 8 8 8 0 0 0 0 0 0 0 0 8 0 8 8 8 0 0 0 8 
8 8 8 8 8 8 0 8 8 0 8 0 8 0 8 8 0 8 8 0 8 0 8 8 8 0 0 8 8 0 8 8 8 8 8 0 8 8 8 8 8 0 8 0 8 0 8 8 8 8 8 8 8 8 8 8 8 0 8 0 8 8 8 0 8 0 8 8 8 0 8 8 8 0 8 8 8 8 8 8 8 8 8 8 8 0 8 8 8 8 8 0 8 8 8 0 0 8 8 8 8 0 8 0 8 0 0 8 0 0 8 0 8 0 8 8 8 0 8 0 0 8 0 8 8 8 8 0 8 0 8 0 8 8 8 8 8 8 8 8 8 8 8 8 8 8 8 8 8 8 8 0 8 8 8 0 8 8 8 0 
8 0 8 0 8 0 8 0 8 8 8 8 8 8 8 8 8 0 8 8 0 8 8 8 8 0 0 8 8 8 8 8 8 0 0 8 0 8 8 0 8 8 0 8 8 8 8 8 8 8 8 8 0 8 0 8 8 8 8 8 8 8 0 8 8 8 8 8 8 8 8 8 8 8 8 8 8 0 8 0 0 8 0 0 8 8 0 8 8 8 0 8 0 8 0 8 0 8 8 8 8 0 8 8 8 8 8 8 8 8 8 8 8 8 0 8 0 8 8 8 8 0 8 0 8 8 8 0 8 0 8 8 0 8 0 8 8 8 8 8 8 0 0 8 8 8 8 8 0 8 0 8 8 8 0 8 0 8 8 8 
8 8 8 0 8 8 8 8 0 8 8 8 8 8 8 0 8 8 8 8 0 8 0 8 8 8 8 8 8 0 8 0 8 0 8 8 8 8 0 0 0 8 8 8 8 0 8 8 0 0 0 0 8 0 8 0 8 8 8 8 8 8 8 8 8 8 8 8 8 8 0 8 8 8 8 8 8 0 8 8 0 8 8 0 8 0 8 0 8 8 8 0 8 0 8 8 8 0 8 0 8 8 8 8 8 8 8 8 8 8 8 8 8 8 0 8 0 8 8 8 8 8 0 8 0 8 8 8 0 8 8 0 8 8 8 8 8 8 8 8 0 8 0 8 8 8 8 0 8 8 0 8 8 8 0 8 0 0 8 8 
8 8 8 8 8 0 8 8 8 8 0 8 0 8 0 8 8 0 8 0 8 0 8 8 8 8 8 0 8 0 0 8 8 8 8 0 8 8 8 8 8 8 0 8 0 8 0 8 8 8 8 0 8 8 8 8 0 8 0 8 8 0 0 8 0 8 8 8 0 8 0 8 0 8 0 0 8 8 0 8 8 8 8 8 8 8 0 8 8 8 8 8 8 0 8 8 8 0 0 0 8 8 0 0 8 0 0 8 0 0 8 0 8 0 8 8 8 8 8 8 0 8 8 8 0 8 0 8 8 8 0 8 8 0 8 0 0 8 0 8 0 8 8 8 0 0 8 8 0 12 0 8 8 8 8 0 8 8 8 8 
8 8 0 8 8 8 0 8 8 8 8 8 8 0 8 0 8 8 8 0 8 8 8 8 0 8 0 8 0 8 8 0 8 8 8 0 8 8 8 8 8 8 0 8 8 0 8 0 8 8 8 0 8 8 8 8 8 8 8 0 8 8 8 8 0 8 0 8 0 8 0 8 8 8 0 8 0 8 8 8 8 8 8 8 0 8 8 8 8 8 8 8 0 8 0 8 8 8 0 8 0 8 0 8 0 8 0 8 0 8 0 8 0 8 8 0 8 8 8 8 8 8 0 8 8 0 8 8 8 8 8 0 8 8 8 0 0 8 0 8 8 12 8 8 8 8 8 0 8 8 8 0 8 8 8 8 0 8 8 0 
8 8 8 8 0 8 8 0 8 0 8 8 8 8 8 8 8 8 8 0 8 8 8 8 0 0 8 0 8 0 8 0 8 0 8 8 8 8 8 0 8 8 8 8 0 8 8 8 0 8 0 8 0 8 8 0 8 8 8 8 0 8 8 8 8 0 8 8 8 8 8 8 8 8 8 8 8 8 8 8 0 8 8 0 8 8 8 8 8 0 8 0 8 0 8 8 8 8 8 8 8 8 8 8 8 8 8 8 8 8 8 8 8 8 8 8 8 0 8 8 8 8 8 8 8 8 0 8 8 8 8 8 0 8 0 8 0 8 8 8 8 0 8 0 8 8 8 8 8 8 8 0 8 0 8 8 8 8 8 0 
8 8 8 0 8 8 0 8 8 8 8 8 8 8 0 8 8 8 8 8 8 8 8 8 8 0 0 8 0 8 8 8 8 0 0 8 8 8 8 0 0 8 8 8 8 8 8 8 8 0 8 0 8 0 8 0 8 8 0 8 8 8 8 8 8 8 8 8 8 8 8 8 0 8 8 8 8 0 8 0 8 0 8 8 0 8 8 8 0 8 0 8 0 8 0 8 8 8 8 8 8 8 8 8 8 8 8 8 8 8 8 8 8 8 8 0 8 0 8 0 8 8 8 8 8 8 8 8 8 0 8 8 8 8 8 0 12 0 12 0 8 8 8 8 8 8 0 8 0 8 8 0 0 8 8 8 8 0 8 8 
8 8 8 8 8 0 8 8 8 0 8 8 8 8 8 8 8 8 8 0 0 8 8 0 8 8 8 0 0 8 8 8 8 8 8 8 0 8 8 8 8 8 0 8 0 8 8 8 8 8 8 8 8 8 8 8 0 8 8 0 8 0 8 8 0 8 0 8 0 8 0 8 0 8 0 8 8 8 8 8 8 8 0 8 8 8 8 8 8 8 8 8 8 8 8 0 0 0 8 8 8 8 0 0 8 0 0 8 0 0 8 0 8 8 8 8 0 8 0 8 8 8 8 8 8 0 8 0 8 8 0 8 8 0 8 0 8 0 8 8 8 8 8 8 8 0 8 0 12 0 8 8 0 8 0 8 8 8 8 0 
0 8 0 8 8 8 8 0 8 8 8 8 8 0 8 0 8 0 8 0 8 0 8 0 8 8 8 8 0 0 8 8 8 8 8 0 8 0 8 8 8 8 8 8 8 8 8 8 8 8 8 8 8 8 0 8 0 8 8 8 8 8 0 8 8 8 0 8 0 8 0 8 8 8 0 8 0 8 0 8 0 8 8 8 8 8 8 8 8 8 8 8 8 8 8 8 8 8 8 8 0 8 8 0 8 8 0 8 8 0 8 8 8 0 8 0 8 8 0 0 8 8 8 8 0 8 8 8 0 8 0 8 0 8 8 8 0 8 0 8 8 8 8 8 8 8 8 8 0 8 8 8 0 8 8 8 0 0 8 8 
0 8 0 8 8 8 8 0 8 8 8 8 8 0 8 0 8 8 0 8 0 8 0 8 0 8 0 8 8 8 8 0 8 8 8 8 8 8 0 8 8 8 8 8 8 8 8 0 8 0 8 8 8 0 8 0 8 0 8 8 8 8 8 8 0 8 8 0 8 8 8 8 8 8 8 0 8 0 8 0 0 0 8 8 8 8 8 0 0 8 0 0 8 8 8 8 0 8 0 8 8 0 8 8 0 8 8 8 0 8 0 8 8 8 0 8 8 8 8 0 8 8 0 0 8 8 8 8 0 8 0 8 8 12 0 8 8 0 8 8 8 8 8 0 8 8 0 8 8 0 8 0 8 0 8 0 8 8 0 8 
8 8 8 0 8 0 8 8 0 8 8 0 8 0 8 0 8 8 8 0 8 8 8 8 8 0 8 8 8 8 8 8 0 8 0 8 8 8 8 8 8 8 8 8 0 0 8 0 8 0 8 8 0 0 8 8 8 8 0 8 0 8 0 8 8 0 8 0 8 8 8 8 8 8 8 8 0 8 0 8 0 8 0 8 8 8 0 8 8 8 8 8 0 8 0 8 0 8 8 8 8 8 8 8 8 0 8 0 8 8 0 0 8 8 8 8 8 8 8 8 8 8 8 0 0 8 0 8 0 8 8 8 0 8 8 8 8 8 0 8 8 8 8 8 8 0 8 8 0 8 8 8 0 8 8 8 0 8 8 8 
8 8 8 0 0 8 8 8 8 0 0 8 0 8 0 8 0 8 8 0 8 0 8 8 8 8 8 8 8 8 8 0 8 0 8 8 8 8 8 8 8 8 8 8 8 0 8 8 0 8 8 8 0 8 0 8 8 8 0 8 0 8 8 0 8 0 8 0 8 8 8 0 8 8 0 8 8 0 0 0 8 0 8 8 0 8 8 8 8 8 8 8 8 8 0 8 8 8 0 8 8 0 8 8 8 0 8 0 8 8 8 0 8 0 8 8 8 0 8 12 8 8 8 0 8 0 8 0 8 0 8 0 8 0 8 0 8 8 8 8 8 8 8 8 8 8 0 8 8 8 8 8 8 8 8 0 8 0 8 0 
