P2
4 4
255
0 25 50 75 
25 50 75 100 
50 75 100 125 
75 100 125 150 
