P2
4 4
255
100 125 150 175 
100 125 150 175 
100 125 150 175 
100 125 150 175 
