P2
160 120
255
151 161 151 151 151 155 151 155 151 151 151 144 151 144 144 144 144 151 144 144 144 144 144 144 144 145 145 145 145 144 145 145 138 145 138 138 132 145 138 133 138 138 133 134 129 133 126 129 123 126 123 120 120 112 104 108 104 104 101 100 93 89 85 85 79 77 78 71 66 56 54 37 37 17 10 10 8 8 8 8 8 8 8 8 8 0 8 0 8 8 8 8 8 8 8 8 0 8 0 0 8 0 8 0 8 8 0 8 8 8 0 8 8 8 8 8 8 8 8 8 0 8 0 8 8 8 0 8 8 0 8 8 0 8 8 8 0 8 8 8 8 8 8 8 8 8 0 8 8 8 0 8 8 8 8 8 8 8 8 8 
161 159 151 151 151 147 155 151 151 144 155 144 144 151 144 151 144 144 155 144 144 155 145 144 145 145 136 138 136 138 138 138 138 132 138 133 138 138 138 138 129 138 129 138 126 126 126 126 126 120 120 120 108 108 104 104 103 101 93 90 85 85 79 77 78 71 68 60 54 51 36 33 18 10 6 8 8 8 0 8 8 8 8 8 8 8 8 8 8 8 8 8 8 8 8 8 8 8 8 0 8 8 8 8 0 8 8 8 8 8 8 8 8 8 8 8 8 0 8 8 8 0 8 0 8 8 8 8 0 8 8 8 8 8 8 8 0 8 8 8 8 8 8 8 8 8 0 8 8 8 8 8 8 0 8 8 8 8 0 8 
155 151 151 151 155 151 151 151 151 151 144 151 144 151 144 151 144 144 144 144 144 145 138 145 138 138 145 138 145 138 132 145 138 132 138 134 138 132 129 129 133 134 126 126 126 123 126 123 118 110 108 108 108 104 101 101 98 93 89 85 79 77 78 75 68 66 60 51 42 29 26 10 10 8 8 8 8 0 8 8 8 8 8 8 0 8 8 8 8 8 0 8 8 8 8 8 8 8 8 8 8 8 8 8 8 0 8 8 0 8 8 0 8 8 8 8 8 8 8 8 8 0 8 8 8 8 8 8 8 8 8 8 8 8 8 0 8 8 0 8 8 8 8 8 8 0 0 8 8 8 8 0 8 0 8 0 8 8 8 0 
151 161 151 144 151 151 144 144 144 147 155 144 144 155 144 144 144 144 144 144 145 138 145 138 145 138 145 138 145 138 138 138 133 138 129 129 133 134 126 126 134 123 126 123 120 120 120 120 110 108 104 101 104 103 98 93 89 87 85 79 77 71 68 66 60 51 37 36 26 18 10 8 8 8 8 8 12 8 0 0 8 8 8 8 8 8 8 8 8 8 8 8 8 8 8 0 8 8 8 8 8 0 8 8 8 0 8 0 8 8 8 8 8 8 8 8 8 8 8 8 8 0 8 8 8 8 8 8 8 8 8 0 0 8 8 8 8 8 8 8 0 8 8 8 8 8 0 8 8 0 8 8 8 8 0 8 0 8 0 8 
147 155 151 144 151 144 144 155 144 155 145 144 144 147 144 144 144 145 138 145 138 138 138 145 138 138 145 138 138 132 138 138 138 129 134 126 138 126 126 123 126 126 123 120 120 119 112 112 108 104 101 101 101 93 93 87 85 79 79 78 68 68 60 59 37 37 33 18 17 10 8 6 8 8 8 8 8 8 0 8 8 8 8 8 8 8 8 8 8 8 8 0 8 8 0 8 0 8 8 8 8 8 8 8 8 0 8 8 8 0 8 8 8 8 0 8 8 8 8 0 8 8 8 8 8 8 8 8 8 8 8 8 8 0 8 8 8 0 8 0 8 8 8 8 8 0 8 8 8 8 0 8 8 0 8 0 8 8 8 0 
155 147 144 151 144 144 147 144 144 145 138 138 145 138 145 138 145 138 138 138 132 145 138 138 133 138 138 132 138 133 129 129 123 138 123 129 126 126 126 126 123 120 120 119 108 108 108 104 112 103 95 101 93 85 85 79 78 71 75 68 60 52 51 37 42 26 17 10 8 8 8 8 8 0 8 0 12 8 12 0 8 8 8 8 8 8 8 8 0 8 0 8 0 8 8 8 8 0 8 8 8 8 8 8 8 8 0 0 8 8 8 0 8 8 0 8 0 8 8 0 8 8 8 8 8 8 8 0 0 8 8 8 8 8 8 0 8 8 8 8 8 0 8 8 8 8 8 0 8 8 8 0 8 0 8 8 8 0 8 8 
151 144 144 144 144 145 144 144 144 145 138 145 138 138 138 138 138 138 145 138 138 138 138 138 145 138 129 133 126 134 134 123 138 126 123 133 124 123 123 120 120 119 108 108 104 104 103 99 101 95 92 87 87 79 75 71 71 68 64 54 47 42 29 26 17 16 8 8 8 8 8 8 8 8 0 12 8 12 0 8 8 8 8 8 8 8 8 8 8 8 8 8 8 8 8 8 0 8 0 8 0 8 8 8 8 8 0 8 8 8 8 8 8 8 8 0 8 8 8 8 8 8 8 8 8 0 8 8 8 0 8 0 0 8 0 8 0 8 0 8 8 8 0 8 0 8 8 8 0 8 0 8 0 8 8 8 8 8 8 8 
144 144 145 144 144 138 144 145 138 145 138 145 138 138 145 138 147 138 138 138 133 138 132 138 123 138 129 134 126 123 138 126 123 129 126 124 124 120 124 119 108 119 108 112 103 103 101 95 93 89 87 85 85 71 71 72 70 59 47 42 29 29 17 10 10 10 8 8 8 8 8 8 8 8 12 0 8 8 12 0 8 8 8 0 0 8 8 8 8 8 8 8 8 8 8 0 8 8 8 0 8 8 0 8 8 8 8 8 8 8 8 8 8 0 8 8 8 8 0 8 8 8 8 0 8 8 0 8 0 8 0 8 0 8 0 8 0 8 8 0 8 0 8 8 8 8 8 8 8 0 8 0 8 8 8 8 8 8 8 8 
144 138 145 144 138 145 138 145 138 138 145 138 138 138 138 138 138 138 133 136 138 129 123 133 134 129 133 134 133 134 123 126 123 126 123 120 119 108 119 108 112 110 108 103 101 101 93 89 87 85 79 78 79 68 61 61 37 37 33 19 10 10 6 10 8 8 8 8 8 8 8 8 8 8 0 8 0 8 0 8 8 8 8 8 0 8 8 8 8 8 0 8 8 8 8 8 0 8 8 8 8 8 8 8 8 8 0 8 8 8 8 8 0 8 8 8 8 0 8 8 8 8 0 8 0 8 8 8 8 0 8 0 8 0 8 0 8 8 8 8 0 8 8 0 8 8 8 8 0 8 0 8 8 8 8 8 8 8 8 0 
144 144 138 145 138 145 138 145 138 132 138 133 138 138 133 138 133 138 138 138 129 126 129 138 129 133 134 123 126 126 123 134 123 123 119 119 108 119 103 105 103 100 101 93 93 87 85 79 85 71 68 68 68 60 52 37 37 33 18 10 10 6 8 8 8 8 8 8 8 8 8 8 8 8 8 0 8 0 8 0 8 8 8 8 8 8 8 8 8 8 8 8 8 8 0 8 8 8 8 8 8 8 8 8 8 8 8 8 8 8 8 8 0 8 8 8 8 8 0 0 8 8 8 0 8 0 8 8 8 8 0 8 8 8 0 8 0 8 8 8 8 0 8 8 0 8 8 8 8 0 8 0 8 8 8 8 8 8 8 8 
144 144 145 138 138 138 138 133 136 132 138 136 132 138 138 138 138 132 129 129 123 138 133 126 126 126 126 123 123 126 123 123 119 119 108 112 105 104 103 104 101 98 93 87 85 77 79 75 71 68 59 56 52 42 29 29 18 8 6 8 8 8 8 8 8 8 8 8 8 8 8 8 8 8 8 8 8 8 8 8 8 8 8 8 8 8 8 0 8 8 0 8 8 0 8 0 8 8 8 8 8 8 8 8 8 0 8 8 8 0 8 8 8 0 8 8 8 0 8 0 0 8 8 8 0 8 0 8 8 0 8 8 8 8 8 8 8 8 8 0 8 8 0 8 8 8 8 0 8 8 8 8 8 8 8 8 8 8 8 8 
138 145 138 132 138 132 145 136 138 129 138 132 138 133 129 129 129 134 123 138 123 129 126 126 123 126 123 123 120 120 119 108 119 112 108 110 100 103 101 99 93 89 87 79 77 75 71 68 68 59 37 48 35 22 19 17 6 10 8 10 8 10 8 8 8 8 8 8 8 8 8 8 12 8 8 0 8 8 8 0 8 8 8 0 8 8 8 8 0 8 8 8 8 8 8 8 8 8 8 8 0 8 8 8 8 8 8 8 0 8 8 8 8 0 8 0 8 8 8 8 0 8 8 8 8 0 8 0 8 8 0 8 0 8 8 8 0 8 8 8 0 8 0 0 0 0 8 8 8 0 8 8 8 8 8 8 8 0 8 8 
129 138 129 138 133 136 138 129 129 138 133 138 138 126 138 123 138 123 133 126 126 123 123 129 123 123 123 123 120 112 119 112 112 110 100 96 96 93 95 87 87 85 79 75 71 68 66 59 52 37 42 29 18 10 10 10 8 8 8 8 8 8 8 8 8 8 0 8 0 8 8 8 8 8 0 8 0 0 8 0 8 0 8 0 8 8 0 8 8 8 8 8 8 8 8 0 8 0 0 8 8 8 8 0 8 8 8 8 8 8 8 8 8 8 0 8 0 8 8 8 8 0 8 0 8 8 0 8 0 8 8 0 8 8 8 8 8 8 8 8 0 8 0 8 0 0 0 8 0 8 8 0 8 0 8 8 0 8 8 8 
138 133 138 138 129 138 133 138 133 138 138 129 126 133 134 126 123 129 126 123 126 123 123 123 123 123 123 108 112 112 110 101 101 100 101 99 95 89 84 85 79 71 68 70 61 54 37 33 33 26 10 10 10 8 8 8 8 8 8 8 8 8 8 8 8 8 8 0 8 8 8 8 8 8 8 8 8 8 0 8 8 8 8 0 8 0 8 0 8 0 8 8 8 8 8 8 8 8 8 8 8 8 8 8 8 8 8 8 8 8 8 8 8 0 8 8 8 8 8 8 8 8 0 8 0 8 8 8 8 0 8 8 8 8 8 8 0 8 0 8 0 8 0 8 8 8 0 8 8 8 8 8 8 8 8 8 8 8 8 8 
133 134 123 138 133 134 134 123 134 123 133 123 126 126 126 123 126 123 123 126 123 123 123 118 118 108 112 118 110 101 101 101 101 99 95 93 85 79 76 71 66 66 59 51 38 51 26 26 16 10 8 8 8 10 8 8 8 8 8 8 8 8 8 8 0 8 8 8 8 8 8 8 8 8 8 8 8 8 8 0 0 0 8 0 8 0 8 8 8 8 8 8 8 0 0 8 8 8 8 8 8 0 8 8 8 8 8 0 8 8 8 0 8 8 0 8 8 8 8 0 8 8 8 0 8 8 8 8 8 8 0 0 8 0 8 8 8 8 8 0 8 8 8 8 8 8 8 0 8 8 8 8 8 0 8 8 8 0 8 8 
134 129 133 126 134 118 134 118 134 123 126 123 123 126 123 126 123 123 123 123 123 108 112 108 112 112 110 101 101 95 93 89 87 84 79 75 68 68 68 66 54 37 37 37 29 18 17 10 8 8 8 8 8 8 8 8 0 8 8 0 8 8 0 8 8 0 8 8 8 8 8 8 8 8 8 8 8 8 8 8 8 8 0 8 8 8 0 8 8 8 8 8 8 8 0 8 8 8 8 8 8 8 8 0 8 8 8 8 8 8 8 8 0 8 8 0 8 0 8 8 0 8 8 8 8 8 8 8 8 8 8 0 8 8 0 8 8 8 8 8 8 8 8 8 0 8 0 8 8 8 8 8 8 8 0 8 8 8 8 0 
126 123 126 123 123 138 134 123 123 123 123 123 120 123 123 123 123 123 112 123 108 123 110 104 110 103 98 95 95 95 95 87 84 79 79 68 61 61 54 37 37 33 19 18 10 8 8 8 8 8 8 8 8 0 8 8 8 0 8 8 8 8 8 8 8 8 0 8 8 8 8 0 8 0 8 8 8 0 8 8 8 8 8 8 0 8 8 8 8 8 0 8 8 8 8 8 8 8 8 8 0 8 8 8 0 8 0 8 0 8 0 8 8 0 8 8 8 8 8 8 8 8 8 0 8 8 8 0 8 8 8 8 8 8 8 8 8 0 8 8 8 8 0 8 0 8 8 8 8 8 8 0 8 8 8 0 8 0 8 8 
123 133 126 123 123 123 123 123 123 123 123 123 118 119 118 108 112 119 118 110 103 110 101 98 99 95 93 91 87 84 79 72 70 60 54 52 37 36 33 26 18 18 10 8 6 8 8 8 8 8 8 8 0 8 0 8 8 8 0 8 8 8 8 8 8 8 8 0 8 8 8 8 0 8 8 8 8 8 8 0 0 8 0 8 8 0 8 0 8 0 8 0 8 0 8 8 8 8 8 8 8 8 0 8 8 0 8 8 0 8 0 8 8 8 8 8 8 0 8 8 8 8 8 8 0 8 0 8 0 8 12 8 8 8 8 8 8 8 8 8 8 8 8 0 8 8 0 8 8 8 0 8 8 0 8 8 8 8 8 8 
123 123 123 123 123 123 123 118 108 123 118 119 108 119 112 119 110 110 96 101 103 95 95 93 87 82 86 79 76 71 68 61 51 37 37 36 26 18 8 10 10 8 8 6 8 8 8 8 8 8 8 8 8 0 8 8 0 8 8 0 8 8 8 8 8 8 8 8 0 8 0 8 8 8 8 8 8 8 8 8 8 8 8 8 8 8 0 8 8 0 8 0 8 0 8 0 8 8 8 8 8 8 8 8 0 8 0 8 0 8 0 8 8 8 8 8 8 8 0 8 0 8 8 0 8 8 0 0 8 8 8 0 8 0 0 8 0 8 8 8 0 8 0 8 0 8 8 0 8 8 8 0 8 8 8 8 8 8 0 8 
123 112 123 112 123 118 108 119 112 112 119 112 112 110 105 110 100 95 95 95 93 87 87 79 78 76 70 70 59 38 37 36 29 26 19 17 6 10 10 8 8 8 8 8 8 0 8 0 8 8 8 8 8 8 8 8 8 8 8 8 8 8 8 8 8 8 8 8 8 8 8 8 8 8 8 8 8 8 8 8 8 8 8 8 8 8 8 8 8 8 8 0 8 0 8 8 8 8 8 8 8 8 8 8 8 8 8 0 8 8 8 0 8 8 8 0 8 8 0 8 8 8 8 8 0 8 8 8 0 0 0 8 0 8 8 0 0 8 0 8 0 8 0 8 0 0 8 8 0 8 8 8 8 8 8 0 8 8 8 0 
112 123 108 119 108 112 119 118 110 112 110 110 103 103 103 95 95 93 84 87 86 79 76 66 70 70 38 37 37 37 26 18 10 10 8 8 8 8 8 8 8 8 10 8 8 8 8 8 8 8 8 0 8 0 8 0 8 8 0 8 8 0 8 0 8 0 8 8 8 8 8 8 8 8 8 8 8 0 8 8 0 8 8 8 0 8 8 0 8 8 8 8 8 8 8 8 8 0 8 8 8 8 8 8 8 8 8 8 8 8 8 8 8 8 0 8 8 0 8 0 8 0 8 0 8 8 8 8 8 0 8 0 0 8 8 8 0 8 8 8 8 0 8 8 8 8 8 8 8 0 8 8 0 8 8 8 0 8 0 8 
110 110 110 98 110 110 103 103 103 93 101 95 95 93 86 87 76 76 68 70 70 51 38 37 34 19 26 18 11 10 8 8 8 8 8 8 8 8 8 8 8 8 8 12 8 8 8 8 8 8 0 8 0 8 0 8 8 0 8 0 8 8 8 8 0 8 8 0 8 8 8 8 8 8 8 0 8 8 0 8 8 0 8 0 8 0 8 8 8 8 0 8 8 8 8 0 8 8 0 8 0 8 8 8 8 8 8 8 8 8 8 8 0 8 8 8 8 8 8 8 8 8 0 0 8 0 8 0 0 8 8 8 8 8 0 8 8 8 8 0 8 8 8 8 8 8 8 0 8 8 0 8 8 0 8 8 8 8 0 8 
101 101 103 103 103 101 99 93 110 99 95 93 86 76 76 76 66 61 54 37 37 30 29 19 18 10 6 6 8 8 8 10 8 8 10 8 8 8 8 8 8 8 8 12 8 8 8 8 8 8 8 8 8 8 8 0 8 8 8 0 8 8 8 8 8 8 8 8 8 8 8 8 0 8 0 8 0 8 8 0 8 8 8 8 8 8 0 8 8 0 8 8 8 8 0 8 8 0 8 8 8 0 8 0 8 8 8 8 8 0 8 8 8 8 8 8 8 8 8 0 8 8 0 8 0 8 8 0 8 0 8 0 8 0 8 8 8 8 0 8 8 8 8 8 8 8 8 8 8 8 8 8 8 8 8 0 8 8 8 8 
110 101 110 101 99 86 85 110 85 86 76 76 76 72 66 59 51 37 34 28 19 18 10 10 8 10 8 10 8 8 8 8 8 8 8 8 8 8 8 8 8 8 8 8 0 0 8 0 8 8 8 8 8 8 0 8 8 8 8 8 0 8 8 8 8 8 8 8 0 8 8 8 8 0 8 8 8 8 8 8 8 8 8 8 0 8 8 8 0 0 8 0 8 8 8 0 8 8 8 0 8 8 0 8 8 0 8 8 0 8 8 8 8 8 8 8 8 8 0 8 8 8 8 8 8 8 8 8 8 8 8 0 8 0 8 0 8 0 8 8 0 8 8 8 8 8 8 8 8 0 8 8 0 8 0 8 0 8 8 8 
93 93 84 93 86 91 86 68 68 70 51 51 37 38 37 28 19 18 11 10 10 8 8 8 8 8 8 8 8 8 0 8 8 8 8 8 8 8 8 8 12 8 12 0 8 8 8 8 8 0 8 8 8 8 8 8 8 8 8 8 8 8 8 0 8 8 8 0 8 8 8 8 8 8 8 8 8 8 8 8 8 0 8 8 8 8 8 0 8 0 8 8 8 8 8 8 8 8 8 8 0 8 8 8 0 8 0 0 8 0 8 0 8 8 0 8 8 0 8 0 8 8 8 8 8 8 8 8 8 8 8 8 0 8 0 8 0 8 8 0 8 8 8 8 8 0 8 8 0 8 0 8 0 0 0 0 8 0 8 0 
76 72 66 68 70 51 38 38 34 28 26 19 18 18 10 6 8 10 8 8 8 8 8 8 8 8 8 8 8 8 8 0 8 8 8 8 0 8 0 8 0 8 8 8 0 8 8 8 8 8 0 8 8 8 0 8 8 10 8 8 0 8 8 8 8 8 8 8 8 8 8 0 8 8 8 8 8 8 0 8 8 8 0 8 0 8 0 8 8 8 0 8 0 8 0 8 8 0 8 0 8 8 0 8 0 8 8 0 8 8 0 8 8 8 8 0 8 8 0 8 0 8 0 8 0 8 8 8 8 8 0 8 8 8 0 8 8 0 8 8 8 8 8 0 8 8 12 8 8 8 8 8 8 8 8 8 8 8 0 8 
51 34 34 30 19 19 19 26 11 16 10 10 8 8 8 8 8 8 8 10 8 8 8 8 8 8 8 8 8 8 8 8 12 8 8 8 8 0 8 0 8 8 0 12 8 8 8 8 8 8 8 0 8 0 8 8 8 8 12 8 8 0 8 8 8 8 8 8 0 8 8 8 0 8 0 8 0 0 8 0 8 0 8 8 8 8 8 8 8 8 8 8 0 8 8 0 8 8 0 8 8 8 8 8 0 8 0 8 8 8 8 8 8 8 8 8 8 8 0 8 0 8 8 8 8 0 8 0 8 8 8 8 0 12 8 8 8 8 0 8 8 8 0 8 0 8 8 8 8 8 8 8 8 8 8 8 8 8 8 8 
10 10 6 8 10 8 8 8 8 10 8 8 8 8 8 8 8 8 8 8 8 8 8 8 8 12 8 8 0 8 8 0 8 8 8 8 0 8 8 8 8 8 8 8 8 8 8 8 8 0 8 8 0 8 8 8 8 8 8 8 0 8 8 0 8 8 0 8 8 8 8 8 8 8 8 8 8 8 0 8 8 8 0 8 0 8 8 8 8 8 8 8 0 8 0 8 8 8 8 8 0 8 8 0 8 8 8 8 8 8 8 8 8 8 0 8 8 0 8 8 0 8 8 8 8 8 0 8 8 0 8 8 8 8 8 8 8 0 8 8 8 8 0 8 8 8 8 0 8 0 8 8 8 0 8 8 0 8 0 8 
8 8 8 8 8 8 8 8 8 8 8 8 8 8 8 8 8 12 8 8 8 8 8 8 0 8 12 8 8 8 8 8 8 8 8 8 8 8 8 8 8 8 8 8 8 8 8 8 8 8 8 8 8 8 8 8 8 8 0 8 8 8 0 8 0 8 8 8 8 8 8 8 8 8 0 8 8 8 8 8 8 8 8 8 8 8 0 8 8 8 8 8 8 0 8 8 0 8 8 0 8 8 0 8 0 8 0 8 0 8 8 8 0 8 8 8 8 8 0 8 0 8 8 8 0 8 0 8 8 0 0 0 8 8 8 8 8 8 0 8 8 0 8 0 0 8 8 8 0 8 0 8 0 8 0 8 8 0 8 8 
8 8 8 8 8 12 8 8 8 8 8 8 0 8 8 8 8 8 8 8 0 8 8 8 8 0 8 8 8 0 8 8 8 8 8 8 8 8 8 8 8 8 8 8 0 8 0 8 0 0 8 0 8 0 8 8 8 8 8 0 8 8 8 8 8 8 0 8 8 8 8 8 0 8 8 0 8 8 8 8 0 8 8 8 8 8 8 0 8 0 8 0 8 8 8 8 8 8 0 8 8 8 8 8 0 8 8 8 8 8 0 8 8 8 0 8 8 0 8 8 8 8 0 8 8 0 8 8 8 8 8 0 8 0 8 0 8 0 8 8 0 8 0 8 8 8 8 8 8 0 8 8 8 8 8 8 8 8 8 8 
0 8 8 8 8 8 8 8 8 8 12 8 8 0 8 8 8 8 0 8 8 0 0 8 0 8 8 0 8 8 0 8 8 8 8 0 8 8 8 8 0 8 8 8 8 0 8 8 8 0 8 0 8 8 8 8 8 8 8 8 8 8 0 8 8 0 8 8 8 8 8 0 8 8 8 8 8 0 0 8 0 8 0 8 8 8 8 8 8 8 8 8 8 8 8 8 8 8 8 8 0 8 8 0 8 8 8 8 8 8 8 0 8 8 8 8 8 8 8 8 8 8 8 0 8 8 8 0 8 8 8 8 8 8 8 0 8 8 0 8 8 8 8 0 8 0 0 8 0 8 12 0 8 0 8 8 0 0 0 0 
8 8 8 8 8 0 8 0 8 0 0 8 0 8 8 8 8 0 8 0 8 0 8 0 8 8 0 8 0 8 8 8 8 8 0 8 8 8 8 8 8 8 0 8 8 8 8 0 8 8 0 8 0 8 8 8 8 8 8 8 8 8 8 0 8 8 8 8 0 0 8 0 8 8 8 8 8 8 0 8 8 8 0 8 0 8 8 8 8 8 0 8 8 8 8 8 8 8 8 8 8 8 8 8 0 8 8 8 8 8 0 8 8 0 8 0 8 0 8 8 8 8 8 8 8 8 8 8 0 8 8 8 8 8 8 0 8 8 8 8 8 8 0 8 8 8 8 0 8 8 8 8 8 8 8 8 8 8 0 8 
8 8 8 8 0 8 8 8 0 8 8 8 0 8 8 8 8 8 8 8 0 8 8 8 0 8 8 0 8 0 8 8 8 0 8 8 8 8 8 8 8 8 8 8 8 8 0 8 0 8 0 8 0 0 8 8 0 0 8 0 8 8 8 8 0 8 8 0 8 8 8 8 8 0 8 8 8 8 8 8 8 0 8 0 8 8 8 0 0 8 0 8 0 8 0 8 8 8 8 8 0 8 8 0 8 8 8 8 8 8 8 0 8 0 8 8 0 8 0 8 8 8 8 8 8 8 8 8 8 8 8 0 8 8 0 8 0 8 8 0 8 8 8 0 8 0 0 8 8 8 0 8 0 8 8 8 0 8 8 8 
8 0 8 0 8 8 8 8 8 8 8 8 8 0 8 8 8 8 0 8 8 0 8 8 8 8 8 8 0 8 0 8 0 8 8 8 8 8 8 8 8 8 8 8 8 8 8 8 8 0 8 0 8 8 8 0 8 0 8 8 0 0 8 0 8 8 0 8 8 0 8 8 8 8 8 8 0 8 8 8 8 8 8 8 0 8 0 8 0 8 0 8 0 8 8 8 0 8 8 8 8 8 0 8 8 0 8 8 8 0 8 0 8 0 8 0 8 8 0 8 0 8 8 8 0 8 8 8 0 8 8 8 0 8 8 0 8 8 0 8 8 0 8 8 8 8 0 8 8 8 8 0 8 0 8 0 8 8 8 8 
8 8 0 8 8 8 8 8 8 8 8 8 0 8 0 8 0 8 8 8 0 8 0 8 8 8 8 8 8 8 8 8 8 8 8 0 8 0 8 8 8 8 8 8 8 8 8 8 8 8 8 8 8 8 8 8 8 0 8 8 8 8 0 8 0 0 8 0 8 0 8 8 8 8 0 8 0 8 8 8 8 0 8 0 8 0 8 8 8 8 8 8 8 8 8 8 8 8 8 8 8 8 8 8 0 8 8 8 8 8 8 8 8 8 0 8 8 8 8 8 8 0 0 8 0 8 0 8 8 8 8 8 8 0 8 8 0 8 8 8 8 8 8 8 8 0 8 0 8 0 8 0 8 0 0 8 0 8 8 8 
8 8 8 8 8 8 0 8 8 8 8 8 8 8 8 0 8 0 8 0 0 8 8 8 8 8 0 8 8 8 8 8 0 8 8 8 8 8 8 8 8 8 8 8 0 8 8 8 8 8 8 8 8 8 8 8 8 8 8 8 8 0 8 8 8 8 8 8 0 8 8 8 8 0 8 0 8 8 0 8 0 8 8 8 0 8 0 8 8 8 0 8 8 8 8 0 8 0 8 0 8 8 0 8 8 0 8 0 0 8 0 8 8 8 8 8 8 8 8 8 8 8 0 8 0 8 0 8 0 8 8 8 0 8 0 8 0 8 8 8 8 8 0 8 8 0 8 0 8 8 8 8 8 0 8 0 8 0 0 8 
8 0 8 8 8 0 8 8 8 8 8 0 8 8 0 8 0 8 8 8 8 8 8 8 8 8 8 0 8 8 8 0 8 8 8 8 8 8 8 8 8 8 8 8 8 8 8 0 8 0 8 0 8 8 8 8 0 8 8 8 0 8 8 8 8 8 8 8 8 8 0 8 8 8 8 0 8 8 8 0 8 8 8 8 8 0 8 0 8 8 8 0 0 0 8 0 8 0 8 8 8 0 8 8 0 8 8 8 8 8 8 0 8 8 8 8 8 0 8 8 0 8 8 0 8 8 8 8 8 8 8 0 8 8 8 0 8 8 8 8 8 0 8 8 0 8 0 8 0 8 0 8 0 8 0 8 0 8 8 8 
8 8 8 8 8 8 8 8 8 8 8 8 8 0 8 0 8 8 0 0 8 8 8 8 8 8 8 0 8 8 8 8 8 0 8 0 8 0 8 0 8 8 8 0 8 8 8 8 8 8 8 0 8 0 8 8 8 0 8 8 8 0 8 0 8 0 0 8 0 8 0 0 8 0 8 8 8 8 8 0 8 0 8 8 0 8 8 8 8 8 8 8 8 0 8 8 8 0 8 0 8 8 0 8 8 8 8 0 0 8 8 8 0 8 0 8 0 8 0 8 8 8 8 8 8 0 8 8 8 0 8 8 8 0 8 0 8 8 8 8 8 8 8 8 8 8 8 8 8 0 8 0 8 8 8 8 8 8 8 8 
8 8 8 8 0 8 0 0 8 8 8 8 8 8 8 8 8 8 8 0 0 8 0 8 8 8 8 8 0 8 8 0 8 8 8 8 8 8 8 8 0 8 8 8 8 0 8 8 8 8 0 8 0 8 8 8 8 8 8 8 8 8 0 8 0 8 0 8 0 8 0 8 8 8 8 8 8 0 0 8 8 8 0 8 8 0 8 0 8 0 0 0 8 0 8 0 8 8 8 8 0 8 0 8 8 8 8 8 0 8 0 8 8 0 8 8 8 8 8 0 8 8 8 8 8 8 0 8 0 8 0 8 0 8 8 8 8 8 8 8 8 8 8 0 8 0 8 0 8 8 0 8 0 8 0 8 8 0 8 8 
8 8 8 8 0 8 0 8 8 0 8 8 0 0 8 0 8 8 8 8 8 0 8 8 8 8 8 0 8 8 8 8 8 8 8 8 0 8 8 8 8 0 8 8 8 8 8 8 8 8 8 0 8 0 8 0 8 8 8 8 8 8 8 8 8 0 8 8 8 0 8 0 0 0 0 8 8 8 8 8 0 8 8 0 8 8 0 8 8 8 8 8 0 8 8 8 8 8 8 8 8 8 8 8 0 8 0 8 0 8 8 8 0 8 0 0 0 0 8 0 8 0 8 0 8 8 8 8 8 8 8 0 8 8 0 8 8 8 0 8 8 8 8 8 8 8 8 8 0 8 0 8 8 8 8 8 8 8 8 8 
8 8 0 0 8 0 8 8 0 8 8 8 8 8 0 8 0 8 0 8 8 8 8 8 0 8 8 8 0 8 8 8 8 8 8 8 8 8 8 0 8 8 0 8 8 8 0 8 8 8 8 8 8 8 8 8 8 8 8 8 8 8 8 0 8 8 8 0 8 8 8 0 8 0 8 0 8 8 8 8 8 8 8 8 0 8 8 8 0 8 8 0 8 8 8 8 0 8 8 8 8 8 8 0 8 0 8 8 8 8 8 8 0 8 0 8 8 0 8 0 0 8 0 8 0 8 8 8 8 0 8 8 8 8 8 0 8 8 8 0 8 0 8 0 8 8 0 8 8 8 8 8 8 8 8 8 8 8 8 8 
8 8 8 0 8 8 8 8 8 8 0 8 8 8 8 8 0 8 0 8 8 8 8 8 8 0 8 0 8 8 8 0 8 8 8 8 8 8 8 8 0 8 8 8 8 8 8 8 8 8 8 8 8 8 8 8 8 8 8 8 8 0 8 8 8 8 8 8 8 8 0 8 8 8 8 8 8 8 0 8 8 8 8 0 8 8 0 8 8 8 0 8 8 8 0 8 0 0 8 0 0 8 8 8 0 8 8 8 8 0 0 8 8 8 8 8 8 8 8 8 8 8 8 0 8 8 0 8 8 8 8 8 8 8 0 8 0 8 8 8 0 8 0 8 8 8 8 8 8 8 0 8 8 8 0 8 8 0 8 0 
0 8 0 8 8 8 8 8 8 0 8 0 8 8 8 0 8 0 8 0 8 8 8 0 8 0 8 8 8 8 8 8 8 0 8 8 8 8 8 0 8 8 0 8 8 8 8 8 8 8 0 8 0 0 8 8 8 8 8 8 0 8 8 0 8 0 8 0 8 0 8 8 8 8 8 8 0 0 8 0 8 8 0 8 8 8 8 0 8 0 8 8 0 8 8 8 0 8 0 8 8 8 8 8 8 8 8 8 8 8 0 0 8 0 8 8 0 8 8 8 8 8 8 8 0 8 0 8 8 8 8 8 8 8 8 0 8 8 8 8 8 8 0 8 8 8 0 8 8 8 8 8 8 8 8 0 8 0 8 8 
8 8 8 8 8 0 8 8 0 8 8 8 0 8 8 8 8 0 8 8 8 8 0 8 0 8 0 8 8 0 8 8 8 8 0 8 8 8 8 8 0 8 8 0 8 8 8 8 8 0 8 0 8 0 8 0 8 8 8 8 8 8 0 8 8 0 8 0 8 8 0 8 8 8 8 0 8 8 8 8 8 0 8 8 0 8 8 8 8 8 8 8 8 8 8 0 8 8 8 8 8 8 8 8 0 0 8 8 8 8 8 8 0 8 0 8 8 8 0 0 8 8 0 8 8 0 8 8 8 0 0 8 8 8 8 8 0 8 8 0 8 0 8 8 8 8 8 8 8 0 8 0 8 8 8 8 0 8 8 8 
0 8 8 8 8 0 8 8 8 8 8 8 0 8 0 8 8 8 8 8 8 0 8 8 8 8 8 0 8 8 8 8 8 8 0 8 8 8 8 8 8 0 8 8 8 8 8 8 8 8 0 8 8 8 0 8 8 0 8 8 8 8 8 0 8 0 8 0 8 0 8 8 8 8 0 8 0 8 8 8 0 8 8 0 8 8 0 8 8 8 0 8 8 8 8 8 8 8 8 8 8 8 8 8 8 0 8 0 8 8 8 8 8 0 8 0 8 0 8 8 0 8 8 0 8 8 8 8 8 8 0 8 8 8 8 8 8 0 0 8 8 8 8 0 8 0 8 8 8 8 0 8 8 8 0 8 8 8 8 8 
8 8 8 8 0 8 0 8 8 8 8 8 8 8 8 8 8 8 0 8 0 8 8 0 8 8 8 8 0 8 8 8 8 8 0 8 8 8 8 0 8 8 0 8 0 8 0 8 8 0 8 8 8 8 8 8 8 8 8 8 0 8 8 8 0 8 8 8 0 8 8 0 8 8 8 8 8 0 8 0 8 8 0 8 8 8 8 8 8 8 8 0 8 8 8 0 8 8 8 0 8 0 8 0 8 8 8 0 8 0 8 0 8 8 8 8 8 8 8 8 8 8 0 8 0 8 8 8 8 0 0 8 8 8 8 8 8 8 0 8 8 8 0 8 0 8 8 8 8 0 8 0 8 8 8 0 8 8 8 8 
0 8 0 8 8 8 8 8 0 8 0 8 8 0 8 0 8 8 8 8 8 8 8 8 8 0 8 0 8 8 8 8 8 8 8 0 8 8 8 8 8 8 8 0 8 8 8 8 8 8 8 8 8 8 8 0 8 8 0 8 8 8 8 8 8 8 8 8 8 8 0 8 8 8 0 8 8 0 8 8 8 8 8 8 8 8 8 8 8 8 8 8 8 0 8 8 8 8 8 8 0 8 8 8 8 8 8 8 0 8 0 8 0 8 0 8 8 8 8 8 8 8 0 0 8 8 8 8 8 0 8 8 8 12 8 0 0 8 8 0 8 8 8 8 8 0 8 8 0 8 0 8 8 0 8 0 8 8 8 0 
0 8 8 8 8 8 8 8 8 0 8 8 0 8 0 8 0 8 8 8 0 8 8 8 0 8 8 8 8 8 8 8 0 8 8 8 8 8 0 8 0 8 0 8 8 8 8 8 8 8 0 8 0 8 8 12 8 0 8 8 8 8 8 8 8 8 8 8 8 8 0 8 8 8 0 0 8 8 0 8 8 8 8 0 8 0 8 8 0 8 8 8 0 8 8 8 8 8 0 8 8 8 0 8 0 0 0 8 8 0 8 0 8 0 8 0 8 8 8 8 8 8 8 0 8 8 8 0 8 8 8 8 8 0 8 8 8 0 8 0 8 0 8 8 0 8 8 8 8 0 8 0 8 8 0 8 8 8 8 8 
8 0 8 0 8 0 8 8 0 8 8 0 8 0 8 0 8 0 8 8 8 8 8 0 8 8 0 8 8 8 8 8 0 8 8 8 8 8 0 8 0 8 8 8 8 8 8 0 8 0 8 0 8 0 8 8 8 8 0 8 0 8 8 8 8 0 8 0 8 8 8 8 8 8 8 0 8 8 0 8 8 0 8 8 0 8 8 0 8 8 8 8 8 8 0 8 8 8 8 8 0 8 8 0 8 0 8 8 8 8 8 8 8 8 0 8 0 8 8 8 8 0 8 0 8 0 8 8 0 8 8 8 8 8 0 8 0 8 0 8 0 8 8 8 8 8 8 0 8 0 8 8 8 8 0 8 8 8 0 8 
8 8 8 8 8 8 8 0 8 8 0 8 8 0 8 8 8 8 0 8 8 8 8 8 8 8 8 8 8 8 8 0 8 8 8 0 8 8 8 0 8 8 0 8 8 8 8 0 8 0 8 8 0 8 8 8 0 8 0 8 0 8 8 8 8 0 8 0 8 8 8 8 8 8 8 8 8 0 8 0 8 0 8 8 8 8 8 8 0 8 0 8 8 0 8 8 8 8 0 8 8 8 8 8 8 8 8 8 8 8 8 8 0 8 8 0 8 8 8 8 8 0 8 8 8 8 8 0 8 0 0 8 8 12 8 8 0 8 0 8 8 0 8 8 8 8 8 8 0 8 0 0 8 8 0 8 0 8 8 0 
8 8 8 0 8 8 8 8 8 8 8 8 8 8 8 0 8 0 8 8 0 8 8 8 8 8 8 8 8 8 8 8 8 8 8 8 8 8 0 8 8 8 8 8 0 8 8 8 0 8 0 8 8 8 8 8 8 8 8 0 8 8 8 8 8 8 0 8 8 0 8 8 8 8 0 8 8 8 0 8 8 8 8 0 8 8 8 0 8 8 8 8 0 8 8 8 0 8 8 0 8 8 8 8 8 8 8 8 8 0 8 0 8 8 0 8 8 0 8 0 8 0 8 0 8 8 8 8 8 8 8 8 8 8 0 8 8 8 0 8 8 8 8 8 8 8 8 0 8 8 8 8 0 8 8 8 8 0 8 8 
8 0 8 0 8 8 8 8 8 8 8 0 8 8 8 8 0 8 8 8 8 8 8 8 0 8 0 8 8 8 8 8 8 8 8 0 0 8 8 0 8 8 8 0 8 8 0 8 8 0 8 0 8 0 8 8 8 8 8 8 8 8 8 8 8 8 8 8 8 8 8 8 8 8 8 0 8 8 8 8 8 8 8 8 8 8 8 8 0 8 8 8 8 8 8 8 0 8 0 8 8 8 8 8 0 8 0 8 0 8 8 8 8 8 8 0 8 8 8 8 0 8 8 8 8 0 8 8 8 8 8 0 0 0 8 8 12 8 8 8 8 8 0 8 8 0 8 8 8 8 8 0 8 0 8 0 8 0 8 0 
0 8 0 8 8 8 8 8 8 8 8 8 8 8 0 8 8 8 0 8 8 0 8 0 8 0 8 0 0 8 8 8 8 8 8 8 8 8 8 8 8 8 8 8 8 8 8 0 8 8 8 8 8 8 0 8 0 8 8 8 0 8 0 8 8 8 8 8 8 8 0 8 8 0 8 0 8 8 0 8 8 8 8 8 8 8 8 8 8 8 8 8 8 8 8 8 8 8 8 8 8 0 8 8 8 8 8 8 8 8 8 8 8 8 0 8 0 8 8 8 8 0 8 0 8 8 0 8 8 0 8 8 8 8 8 0 8 0 8 8 0 8 8 8 8 0 0 8 8 8 8 8 0 0 8 8 0 8 0 8 
0 8 8 8 0 8 8 0 8 8 0 8 8 8 8 8 8 0 8 8 0 8 0 8 0 0 8 0 8 8 0 8 0 0 8 8 12 8 8 8 8 8 8 0 8 0 8 8 8 0 8 8 8 8 0 0 8 0 8 0 8 0 8 0 8 8 8 8 8 8 0 0 8 0 0 8 8 8 8 8 8 0 8 8 0 8 0 8 8 8 8 8 8 8 10 8 8 8 8 8 8 0 8 0 8 8 0 0 0 0 8 0 8 0 8 0 8 8 8 8 8 8 8 8 0 0 8 0 8 0 8 8 8 12 8 0 0 8 0 0 8 8 8 8 8 8 8 8 8 8 8 8 8 8 8 8 8 0 8 0 
8 0 8 8 8 8 8 8 0 8 8 0 8 8 8 8 8 8 8 0 8 8 0 8 0 8 8 8 8 8 8 8 8 0 8 0 8 8 8 8 8 8 8 8 8 8 8 8 8 8 8 0 8 8 8 0 8 8 8 8 8 8 0 8 8 8 8 8 8 8 8 8 0 8 8 0 8 8 8 8 0 8 8 8 8 0 8 0 8 8 8 8 8 8 8 8 8 8 0 8 0 8 8 8 8 8 8 8 8 0 8 8 0 8 8 8 0 8 8 8 8 0 8 0 8 8 8 8 8 8 0 8 8 8 8 8 8 0 8 0 8 0 8 8 8 8 8 0 8 8 0 8 8 8 0 8 8 0 8 8 
8 8 8 8 8 8 0 8 8 8 8 8 0 8 0 0 8 8 8 8 0 8 8 8 8 0 8 8 8 8 8 8 8 8 8 8 0 8 0 8 8 8 8 8 8 8 0 8 0 8 0 8 0 8 0 8 0 8 8 8 8 8 12 8 8 0 0 8 0 8 8 8 8 8 8 0 8 0 0 0 8 0 8 8 8 8 8 8 8 8 8 8 8 8 8 0 0 0 8 0 8 8 8 8 0 8 0 8 8 8 8 8 8 8 8 8 8 8 8 8 8 0 0 8 8 8 8 0 8 8 8 0 8 0 8 8 8 8 0 8 0 8 0 8 8 0 8 8 0 8 8 0 8 0 8 0 8 8 0 8 
0 8 0 8 8 8 8 8 8 8 8 8 8 0 8 0 8 8 8 0 8 0 8 8 0 8 8 8 8 8 8 0 8 8 8 8 0 8 8 8 8 8 8 0 0 8 8 8 8 8 8 8 0 8 0 8 0 8 0 8 0 8 8 8 0 8 0 8 8 8 8 8 8 8 8 8 0 8 8 8 8 8 8 8 8 8 8 0 8 8 8 8 8 8 8 8 8 0 8 0 8 8 8 8 8 8 8 0 8 0 0 8 8 8 8 8 8 8 8 8 0 8 0 8 0 8 0 8 0 8 8 8 8 8 0 8 0 8 8 8 8 0 8 8 8 8 8 0 8 8 0 8 8 8 0 8 0 8 8 0 
8 8 0 0 8 8 8 8 8 8 8 8 8 0 8 0 8 8 8 8 0 8 0 0 8 8 0 8 8 0 8 0 8 8 8 8 8 8 8 8 0 8 0 8 0 8 8 8 8 8 8 8 0 8 8 8 8 8 8 8 8 8 8 8 8 8 0 0 8 8 8 8 0 8 8 8 8 0 8 8 8 8 8 8 8 8 8 0 8 0 0 0 0 0 0 8 8 8 0 8 0 8 8 8 8 0 8 8 0 8 0 8 8 0 8 8 8 0 8 8 8 8 8 8 8 0 8 0 8 8 8 8 8 8 8 0 8 8 0 8 8 8 8 8 8 8 0 8 8 0 8 8 8 8 0 8 8 0 8 8 
8 8 8 0 8 8 8 8 8 0 8 8 8 8 8 8 8 8 8 0 8 8 8 8 0 8 0 8 8 0 8 0 8 8 8 8 8 8 8 0 8 8 0 8 8 0 8 8 0 8 8 8 8 0 8 8 8 8 0 8 0 8 8 0 8 0 8 8 0 8 8 0 8 0 8 0 8 8 8 8 8 8 8 0 8 0 8 8 0 8 0 8 8 0 8 0 8 8 8 0 8 0 8 0 8 8 0 8 8 8 8 8 8 0 8 0 8 8 8 8 0 8 8 0 8 8 8 0 8 8 0 8 8 8 8 0 8 8 8 8 8 8 8 8 8 0 8 8 0 8 8 8 8 8 0 8 0 8 8 0 
8 8 8 0 8 8 8 8 8 8 8 8 8 0 8 8 8 0 8 8 8 8 8 8 8 8 8 8 8 0 8 0 8 8 8 8 8 8 8 8 8 0 8 8 0 8 8 8 8 8 8 8 0 8 8 0 8 0 8 0 0 0 8 8 8 8 0 8 8 8 8 0 8 8 8 8 8 8 8 8 8 8 8 8 0 8 8 8 8 8 8 8 8 8 0 8 8 8 0 8 8 0 8 8 0 8 8 0 8 0 8 8 8 0 8 8 8 0 8 8 8 8 0 8 0 8 0 8 0 8 0 8 0 8 8 8 8 0 0 8 0 8 8 0 8 8 8 8 8 8 8 8 8 8 8 8 8 8 8 8 
8 8 8 8 8 0 8 8 8 8 8 8 8 8 8 8 8 8 0 8 0 8 8 8 0 8 8 0 8 0 8 8 8 8 8 0 8 8 8 8 8 8 8 8 8 8 8 8 0 8 8 0 8 8 8 8 8 8 0 8 8 0 8 0 8 0 8 0 8 8 8 8 0 8 8 8 0 8 8 8 8 0 8 0 8 8 8 8 0 8 0 8 0 8 8 0 8 8 8 0 8 0 8 0 8 8 8 8 0 8 8 8 0 8 0 8 0 8 0 8 0 8 8 8 0 8 0 8 0 8 0 8 8 0 8 8 8 8 0 8 8 0 8 8 0 8 8 8 8 8 8 8 0 8 0 8 8 8 8 0 
8 0 0 8 8 8 8 8 8 8 8 0 8 0 8 8 8 8 0 8 8 8 8 0 8 0 8 0 8 0 8 8 0 8 0 8 0 8 8 8 8 0 8 8 0 8 0 8 8 8 0 8 8 0 8 0 8 0 8 0 8 8 8 8 0 8 8 8 8 8 8 0 8 8 8 8 8 8 8 8 0 8 8 8 8 0 8 0 8 0 8 8 0 8 8 8 8 8 8 0 8 8 0 8 8 0 8 8 8 8 0 8 0 8 8 0 8 8 8 8 8 0 8 0 8 0 8 0 8 0 8 0 8 8 8 8 0 8 0 8 8 8 8 0 8 8 8 8 8 8 8 8 8 8 8 0 8 8 8 8 
8 0 8 0 8 8 8 8 8 8 8 8 0 8 8 8 8 0 8 0 8 8 8 8 8 8 0 8 8 8 8 8 8 0 8 8 0 8 0 0 0 8 8 8 8 8 8 8 0 8 8 0 8 0 8 0 8 8 0 8 0 8 0 8 8 0 8 8 8 8 8 8 8 8 8 8 8 8 8 0 8 8 8 8 8 8 8 8 8 8 8 8 8 8 8 8 0 8 8 8 0 8 8 8 0 8 8 8 0 8 0 8 0 8 8 8 8 8 8 8 8 8 8 0 8 8 8 8 8 8 8 8 0 8 0 8 0 8 8 8 8 8 8 8 0 8 8 8 8 8 0 8 0 8 8 8 8 8 8 8 
8 0 8 0 8 8 8 0 8 8 8 8 8 8 8 8 8 8 0 8 0 8 0 8 8 8 8 8 8 0 8 8 8 8 0 8 8 8 8 8 0 8 8 8 8 8 8 0 8 8 8 8 0 8 8 8 8 8 8 0 0 0 8 0 0 8 0 0 8 0 8 8 8 8 8 8 8 8 8 8 8 8 8 0 0 0 8 8 8 8 0 8 0 8 8 0 8 0 8 0 8 8 8 8 8 8 8 8 8 8 8 8 8 8 8 0 8 8 8 0 8 0 8 8 8 8 8 0 8 0 0 8 8 8 8 8 8 0 8 8 0 8 0 0 0 8 0 8 12 12 8 12 0 12 0 0 8 8 8 8 
8 8 8 8 0 8 8 8 0 8 0 8 8 8 8 8 8 8 8 0 8 8 8 8 8 8 8 8 8 8 8 8 0 8 8 0 8 8 8 8 0 0 0 0 0 0 8 0 8 8 8 0 8 0 8 8 8 8 8 8 8 0 8 8 8 8 8 8 8 8 0 0 8 0 8 0 0 0 0 8 8 8 8 8 0 8 0 8 8 8 8 8 8 0 8 8 8 8 8 8 8 0 8 8 8 0 0 0 8 8 0 8 8 8 8 8 0 8 8 8 8 8 8 8 8 0 8 0 8 0 0 0 8 8 0 8 8 8 8 8 0 8 8 8 0 8 0 0 8 12 8 12 0 8 0 12 8 8 8 8 
8 8 8 8 0 8 8 8 0 8 0 8 0 8 8 0 8 8 8 8 8 8 8 8 0 8 8 8 8 8 8 0 8 8 0 8 8 8 8 8 8 8 0 8 0 0 8 8 8 8 8 8 8 8 8 8 8 8 8 8 8 8 8 8 8 8 8 8 0 8 8 0 8 0 8 0 8 8 0 0 8 0 8 0 8 0 8 8 0 8 0 0 8 8 8 8 8 8 8 8 8 8 0 8 0 8 0 8 0 8 0 8 8 8 8 0 8 8 8 8 8 8 8 8 0 8 8 8 0 8 0 8 0 8 8 0 8 8 8 8 8 0 8 0 8 8 8 8 8 8 0 0 8 8 8 8 12 8 8 8 
8 8 0 0 8 0 8 8 8 0 8 0 8 8 8 8 8 8 8 8 0 0 0 8 0 8 0 8 0 8 8 8 0 8 8 8 8 8 0 8 8 8 8 8 8 0 8 8 8 8 8 0 8 0 8 8 8 0 8 8 8 8 8 8 8 0 8 0 8 8 8 8 8 8 8 8 8 8 8 8 0 8 8 8 8 8 8 8 8 8 0 8 0 0 0 8 0 8 0 8 0 8 0 8 0 8 8 0 8 8 8 8 8 8 8 8 0 8 0 8 8 0 8 0 8 0 8 8 8 8 8 8 8 0 8 8 12 0 8 8 0 8 0 8 0 8 8 8 8 10 8 0 0 0 0 0 0 8 8 8 
8 0 8 0 8 8 8 8 8 8 8 8 8 8 8 8 0 8 8 0 8 0 8 0 0 8 0 8 8 0 8 8 8 8 8 8 8 0 0 8 8 8 8 8 8 8 0 8 0 8 8 0 8 8 8 8 8 0 0 0 0 8 0 8 0 8 8 8 8 8 0 8 8 8 0 8 0 8 8 8 8 8 0 8 0 0 8 8 8 8 0 0 0 0 0 8 8 8 0 8 8 0 8 8 8 8 8 8 8 8 8 8 0 0 8 0 8 0 8 0 8 8 0 8 0 8 8 8 8 8 8 8 8 8 8 12 0 8 0 8 0 0 0 0 8 8 10 6 10 8 10 10 16 8 0 0 0 0 8 8 
8 8 8 8 8 0 8 8 0 8 8 8 8 8 8 8 8 8 0 8 0 8 0 8 8 0 8 8 8 8 8 8 8 0 8 8 0 8 0 8 0 8 8 0 8 0 8 8 0 8 0 8 0 0 8 8 8 8 0 8 0 0 8 8 8 8 8 8 8 8 8 0 8 0 8 0 8 0 8 8 8 8 8 0 8 8 0 8 8 0 8 8 8 8 0 0 8 8 8 8 0 8 0 8 8 0 12 8 0 8 0 8 0 8 0 8 0 8 0 8 8 8 8 8 8 8 0 8 0 8 8 8 0 8 0 8 0 8 8 8 8 8 8 8 0 8 6 18 29 19 16 10 8 8 8 0 8 0 8 0 
8 8 0 8 8 8 0 8 8 0 8 8 8 8 8 8 8 0 8 8 8 8 0 8 0 8 8 8 8 8 8 8 0 8 8 0 8 8 8 8 8 0 8 0 8 8 8 8 8 0 8 8 8 8 8 8 0 8 8 8 8 0 8 0 8 8 8 0 8 8 8 8 8 8 8 8 8 8 8 8 8 0 8 0 8 8 0 8 8 8 8 0 8 0 8 8 8 8 8 8 8 8 8 0 8 0 8 0 8 8 0 8 8 8 8 8 8 8 8 8 8 8 8 8 8 8 8 0 8 8 8 0 8 0 8 8 8 8 8 8 8 0 8 8 8 8 10 59 110 99 66 33 19 8 8 0 8 8 0 8 
0 8 0 8 0 8 0 8 0 8 0 8 0 8 0 8 8 8 8 8 8 0 8 0 8 8 8 0 8 8 8 8 8 8 8 8 8 8 8 8 8 8 8 8 8 8 8 8 8 8 8 8 8 8 8 0 12 8 8 8 8 8 8 8 0 0 8 0 8 0 8 0 0 8 0 8 0 8 8 8 0 8 8 8 8 8 8 0 8 8 8 8 8 8 8 8 0 0 0 8 0 8 8 8 0 8 0 8 8 8 8 8 8 8 8 8 8 8 8 8 8 0 0 8 8 8 8 8 8 8 8 8 0 8 8 0 8 0 8 0 8 0 0 8 0 10 8 85 147 134 86 66 33 10 0 8 8 8 12 8 
8 0 8 0 8 8 8 8 8 8 8 8 0 8 8 0 8 0 8 8 8 8 8 8 8 8 8 8 8 8 8 8 0 8 8 0 0 8 8 8 8 0 8 8 8 8 8 0 0 8 0 8 8 8 0 8 8 8 8 0 8 8 8 0 8 0 8 0 8 0 8 8 0 0 8 8 0 8 8 0 8 8 8 0 8 8 8 8 8 8 8 8 0 0 8 8 8 8 8 8 8 8 8 8 8 8 8 8 8 8 8 8 8 8 8 0 8 0 8 0 8 0 8 8 8 8 0 8 8 8 8 8 8 8 8 8 0 12 0 8 0 8 0 0 0 6 8 84 133 133 110 72 34 10 8 0 0 8 0 8 
8 8 0 8 8 8 8 8 8 0 8 8 8 0 8 8 0 8 0 8 8 8 0 8 0 8 0 8 8 8 8 0 8 8 8 8 0 0 8 8 0 8 8 0 8 8 0 8 8 0 8 8 8 8 8 8 8 0 8 8 8 0 8 8 8 0 8 0 8 8 8 0 8 8 8 0 8 0 8 8 8 8 8 8 8 8 8 8 8 8 8 0 8 0 8 8 8 0 8 8 8 8 0 8 8 0 8 0 8 8 8 8 8 8 8 0 8 0 8 0 8 8 8 8 8 8 8 0 0 8 8 8 8 8 8 8 8 0 8 8 8 0 0 0 8 8 10 75 133 133 105 86 33 8 0 8 8 8 8 8 
0 8 8 0 8 8 8 8 8 8 8 8 8 8 8 8 8 8 8 0 8 8 8 0 8 8 8 0 8 0 0 8 8 8 0 8 8 8 0 8 8 0 8 8 0 8 0 8 8 8 8 0 8 8 8 0 8 8 0 8 8 8 8 0 8 0 8 0 8 0 8 8 8 0 8 8 0 8 0 8 8 0 0 8 8 0 8 0 8 8 8 8 0 0 8 8 0 8 0 8 0 8 8 8 8 8 8 8 0 8 0 8 8 0 8 8 8 0 8 0 8 0 8 8 8 8 0 8 8 0 8 8 0 8 8 8 12 0 8 0 8 0 8 0 0 8 6 52 110 105 86 51 33 8 0 0 8 0 8 8 
8 0 8 8 0 8 0 8 8 8 8 8 8 8 0 8 8 8 8 0 8 8 8 8 8 8 8 8 8 8 8 8 8 8 8 0 8 8 8 0 8 8 8 0 8 0 8 8 8 8 8 0 8 8 0 8 8 8 8 8 0 8 8 8 0 8 8 8 8 8 8 8 8 8 8 8 8 0 8 8 8 8 8 8 8 8 0 8 8 8 8 0 8 0 0 8 0 8 0 8 8 8 8 0 8 8 8 8 8 8 8 8 8 0 8 0 8 8 0 8 0 8 8 8 0 8 8 8 8 8 0 0 8 0 8 0 8 0 8 8 0 8 0 0 8 0 8 18 38 51 33 26 10 0 0 0 0 8 8 0 
0 8 8 8 8 8 8 8 0 8 8 8 12 8 0 8 0 8 8 0 0 8 0 8 8 0 8 8 8 8 8 8 8 8 8 8 0 8 8 8 8 8 8 8 8 8 8 0 0 8 8 8 8 8 8 0 8 8 0 8 8 8 0 8 8 8 8 0 8 0 8 0 8 8 0 8 8 8 0 8 8 8 8 0 8 0 8 8 8 8 8 8 8 8 0 8 0 8 0 8 8 8 8 8 0 8 0 8 0 8 0 8 0 8 8 8 0 8 8 8 8 0 8 8 8 0 8 8 8 0 8 0 8 8 0 12 0 8 0 8 8 0 0 0 0 8 8 8 8 8 8 8 8 0 0 8 8 0 8 8 
8 8 0 8 8 0 8 8 8 8 8 8 8 8 0 8 0 8 8 8 8 8 8 0 8 8 0 8 8 0 8 8 8 8 0 8 8 8 8 8 8 8 0 8 8 8 8 8 0 0 8 8 8 8 0 8 8 8 0 8 0 8 8 0 8 8 8 8 8 0 8 0 8 0 8 8 8 8 0 0 8 8 8 0 0 8 8 8 8 0 8 8 8 8 8 0 8 8 8 0 8 8 8 0 8 0 8 0 8 8 8 0 8 8 0 8 8 0 8 0 8 8 8 0 8 8 0 8 8 8 8 8 8 8 0 0 8 0 0 8 8 8 8 8 0 8 8 8 8 0 8 0 8 0 0 0 0 8 0 8 
8 0 8 8 8 8 8 8 8 8 8 8 8 0 8 8 8 0 8 8 8 8 8 8 8 8 8 8 8 8 8 8 8 8 8 0 8 8 8 0 8 8 8 0 8 0 8 8 8 0 8 8 8 8 8 0 8 8 0 8 8 8 0 8 8 8 8 8 0 8 0 8 8 8 0 0 8 8 8 0 8 0 8 0 8 8 8 8 8 0 8 0 8 8 0 8 8 0 8 8 8 0 8 0 8 8 8 8 8 8 8 8 8 8 8 8 8 8 8 8 8 8 8 0 8 0 8 0 8 8 8 8 0 8 8 8 8 8 0 0 8 8 0 0 0 8 8 0 0 8 8 0 8 8 8 0 8 0 8 8 
0 8 8 8 8 8 8 0 8 8 8 8 0 8 8 8 0 8 0 8 8 0 8 8 8 8 8 0 8 0 0 8 8 8 8 8 8 8 0 8 0 8 8 8 0 8 8 8 8 8 0 0 8 0 0 8 8 8 0 8 0 8 8 0 8 8 0 8 8 0 8 8 8 8 0 8 8 0 8 8 0 0 0 0 8 8 8 8 8 8 8 8 8 8 0 8 8 8 8 8 8 0 8 0 0 0 8 0 8 0 0 0 8 8 8 8 8 8 8 0 8 8 0 8 0 8 0 8 8 0 8 0 8 8 8 8 8 0 8 8 0 8 8 0 8 0 0 8 0 0 0 8 0 12 0 12 0 8 8 8 
8 8 8 8 8 8 0 8 8 8 0 8 8 0 0 8 8 8 8 8 8 0 8 0 8 0 8 0 8 8 8 0 8 0 8 0 8 8 8 0 8 0 8 8 8 8 0 8 8 8 8 0 8 8 8 0 8 8 8 8 8 8 8 8 0 8 8 0 8 8 8 8 8 0 8 0 8 8 0 8 8 8 8 0 8 8 8 8 8 0 8 8 8 8 8 8 8 8 8 8 8 8 0 8 8 8 8 0 8 8 8 8 8 8 0 8 0 8 8 8 0 8 8 8 8 8 8 0 8 0 8 0 0 12 8 8 0 8 0 8 8 8 8 8 0 8 0 8 8 8 0 8 0 8 12 0 8 8 8 8 
8 0 8 8 8 0 8 0 8 8 8 0 8 0 8 0 8 8 8 8 8 0 8 0 8 0 8 0 8 8 8 8 8 8 8 8 0 8 8 8 8 8 0 8 8 8 8 0 8 8 8 8 8 0 8 8 8 8 8 8 8 0 8 8 8 0 0 8 0 8 8 8 0 0 0 8 0 8 8 8 0 8 8 8 8 0 0 8 0 8 0 8 8 8 8 8 8 8 8 8 8 8 8 8 8 8 8 8 0 8 0 8 0 8 0 8 8 8 0 8 8 8 8 8 8 8 0 8 0 8 0 0 8 8 8 8 0 12 8 8 0 8 0 8 8 0 0 8 8 8 8 0 8 8 8 12 8 8 8 8 
8 8 0 8 8 8 8 8 8 8 8 8 8 8 0 8 0 0 8 8 0 8 8 8 0 8 0 8 0 8 8 8 8 8 0 8 0 0 8 8 8 8 8 8 0 8 8 0 0 8 8 8 0 8 8 0 8 8 8 8 8 8 8 8 8 8 8 8 8 0 8 8 8 0 8 0 8 8 8 8 8 8 8 8 0 8 8 0 8 0 8 0 8 8 8 8 8 8 8 8 8 0 0 8 8 8 8 8 8 8 0 8 8 8 8 8 8 8 8 0 8 8 8 0 8 0 8 0 8 8 8 0 8 8 12 0 12 0 12 8 12 0 8 0 8 0 8 8 8 8 8 8 8 8 8 0 8 8 0 8 
0 12 8 12 8 0 0 8 8 0 8 0 8 8 8 0 8 8 0 8 8 8 8 8 8 8 8 8 8 8 8 8 8 0 8 0 8 0 8 8 8 8 8 0 8 8 8 8 0 8 8 8 0 0 8 8 0 8 0 8 8 8 8 8 8 0 8 0 8 8 8 8 8 8 8 8 0 8 8 0 8 0 0 8 8 8 8 8 0 8 0 8 8 8 8 8 8 8 8 8 8 8 0 8 0 8 8 12 8 8 8 0 8 8 8 8 0 8 0 8 8 8 0 0 0 8 8 8 0 8 0 12 8 0 0 12 8 0 8 0 0 8 0 12 0 0 8 8 8 8 0 8 0 8 0 8 0 8 8 8 
8 8 8 8 0 8 8 0 8 0 8 8 8 0 8 8 8 8 0 8 8 8 8 0 8 0 8 8 8 8 0 8 0 8 8 0 8 8 0 8 8 8 8 8 0 8 8 8 8 0 8 0 8 8 0 8 0 0 8 0 8 0 8 8 8 0 8 8 8 8 8 8 8 0 8 8 8 8 8 8 8 8 0 8 8 8 8 8 0 8 0 8 8 8 8 8 8 12 8 8 0 8 0 8 0 8 0 0 8 0 8 8 8 0 8 8 8 0 8 8 8 8 8 8 8 0 8 0 8 0 12 8 8 8 0 8 8 8 0 8 8 0 8 0 8 8 8 8 8 0 8 0 8 0 8 8 8 8 8 8 
8 0 8 0 8 8 8 8 8 8 8 8 0 8 8 8 0 8 8 8 8 8 0 8 0 8 0 8 0 8 8 0 8 8 0 8 0 8 8 0 8 0 8 0 8 8 0 8 8 8 0 8 8 8 8 0 8 0 8 0 8 8 8 8 8 8 0 8 8 0 8 8 8 8 8 0 8 0 8 8 8 0 8 0 8 8 8 8 8 0 8 0 8 0 8 0 8 8 0 8 0 0 8 0 8 8 8 0 0 8 0 8 8 8 0 8 0 8 8 8 0 8 0 8 8 0 8 0 8 0 8 8 8 0 0 8 8 0 8 8 8 8 8 8 8 8 8 8 8 8 8 8 8 0 8 8 8 0 8 8 
8 8 8 8 8 8 0 8 0 8 0 8 8 0 0 8 0 8 8 8 8 0 8 8 0 8 8 8 8 8 0 8 8 8 8 8 8 0 8 8 0 8 0 8 8 8 8 8 8 8 0 0 8 8 8 8 8 8 0 8 8 8 0 8 8 8 8 8 0 8 8 8 8 8 8 8 8 0 8 8 8 8 8 8 8 0 8 0 8 8 8 0 8 0 8 8 0 8 8 8 8 8 0 8 8 0 8 0 8 8 8 8 8 0 8 8 8 8 8 8 0 8 8 8 8 8 0 8 0 0 8 8 8 0 8 0 8 8 0 0 0 8 8 8 8 8 8 8 8 0 8 0 8 0 8 0 8 8 8 8 
8 8 8 8 8 8 8 8 8 0 8 8 8 8 8 0 8 0 8 8 8 8 8 8 8 8 0 8 8 0 8 8 0 8 8 0 8 8 0 8 8 0 8 0 8 0 8 8 8 0 8 8 8 0 8 0 8 8 8 8 8 8 8 8 8 0 8 8 8 0 8 8 0 8 8 8 8 0 0 8 8 0 8 0 8 0 8 0 8 8 8 8 0 8 0 8 8 0 8 8 8 0 8 0 8 0 8 8 0 8 8 8 0 8 8 8 8 8 0 8 8 8 8 8 0 8 8 8 8 8 0 8 8 8 8 8 8 8 8 8 8 8 8 8 0 8 8 0 0 8 0 8 8 8 8 8 0 8 8 8 
8 0 8 8 8 8 8 0 8 8 8 8 8 8 0 8 8 8 8 0 8 8 8 8 8 8 8 8 8 8 0 8 8 8 0 8 8 0 8 0 8 8 8 0 8 0 8 8 8 0 8 8 8 0 8 8 8 8 8 8 8 0 8 0 8 8 0 8 0 8 0 8 8 0 8 8 0 8 8 0 8 8 8 8 8 8 8 8 0 8 8 8 0 8 8 0 8 0 8 0 8 0 8 0 8 8 8 8 8 8 0 8 8 0 8 0 8 8 0 0 8 8 8 0 8 8 8 8 0 8 8 8 8 8 0 8 8 8 8 8 8 8 8 12 8 8 8 8 0 0 8 8 8 8 8 8 8 8 8 0 
8 8 8 8 0 8 0 8 8 8 0 0 0 8 8 0 8 0 8 0 8 8 0 8 8 8 8 8 0 8 8 8 8 0 8 8 8 8 8 8 0 0 0 8 8 8 8 8 8 8 0 8 8 0 8 8 8 8 0 8 8 8 8 0 0 8 0 8 0 8 8 8 0 8 8 0 8 8 0 8 8 0 8 0 8 0 8 8 8 8 8 8 8 0 8 8 0 8 8 8 0 8 8 8 8 8 8 8 0 8 8 8 8 0 0 8 8 8 0 8 8 0 8 8 8 8 0 8 8 0 8 8 8 8 12 8 8 8 8 8 8 8 8 0 12 8 8 8 8 8 8 8 8 8 8 8 8 8 8 8 
0 8 0 8 0 8 8 8 8 8 8 0 8 8 8 8 8 8 8 8 8 8 8 8 8 8 8 8 8 8 0 8 8 8 8 8 8 8 8 0 8 8 8 8 8 8 8 0 8 0 8 0 8 8 8 8 8 8 8 0 8 8 8 8 8 8 8 8 8 8 8 8 8 0 8 8 8 0 8 8 8 8 8 8 8 0 8 8 8 8 8 0 8 8 0 8 0 8 0 8 8 8 8 8 8 8 8 8 8 8 8 8 8 8 8 0 8 0 8 8 8 8 8 8 8 8 8 0 8 0 0 12 0 8 0 8 8 8 8 8 8 8 0 0 0 0 8 0 8 0 8 0 8 0 8 8 8 0 8 8 
8 0 8 8 8 0 8 8 8 8 0 8 8 8 8 8 8 8 8 8 8 0 8 8 8 8 8 0 8 0 8 0 8 8 0 8 8 8 8 8 0 8 8 8 8 8 0 8 0 8 8 0 8 0 8 8 8 8 8 8 0 0 8 8 8 8 8 8 8 8 8 0 8 8 0 8 8 8 0 8 8 0 8 8 0 8 0 8 8 8 8 8 8 8 8 0 8 8 8 0 8 8 8 0 8 8 0 8 8 0 8 8 8 8 8 0 8 0 0 8 8 8 8 8 8 0 8 8 0 8 0 0 8 8 8 0 8 8 12 0 8 8 8 0 0 8 8 8 0 8 0 8 0 8 0 8 8 8 8 8 
8 8 8 8 8 8 0 8 8 8 8 0 8 8 0 8 8 8 8 8 8 8 8 8 8 8 8 8 8 8 8 8 0 8 0 0 0 8 8 0 8 0 8 0 8 8 0 8 0 8 0 8 8 8 0 0 8 8 0 8 0 8 0 8 0 0 8 0 0 8 8 8 8 0 8 8 0 8 8 0 8 8 8 0 8 8 8 8 8 8 0 8 8 0 8 8 8 8 8 8 0 8 0 8 8 0 8 8 0 8 8 8 0 8 0 8 8 8 0 0 0 8 8 0 8 8 0 8 8 0 8 0 8 0 8 8 8 0 0 8 8 0 8 8 8 8 0 8 0 8 8 8 8 8 8 8 8 8 8 0 
8 8 0 8 8 0 8 8 0 8 8 0 8 8 8 8 8 8 8 8 8 8 0 8 8 8 8 8 8 8 8 8 8 0 8 0 8 0 8 8 0 8 0 8 0 0 8 0 8 8 8 8 0 8 0 8 8 8 8 0 8 0 8 8 8 8 8 8 8 8 8 8 0 8 8 8 8 8 8 8 8 8 8 8 8 0 8 0 8 0 8 8 8 8 8 0 8 8 8 8 8 8 8 0 8 8 0 8 8 8 8 8 0 0 8 8 8 0 8 0 8 8 0 8 8 8 8 8 8 8 8 8 8 8 8 8 12 8 0 8 8 8 0 12 8 0 8 0 8 0 8 8 8 0 8 0 8 8 8 8 
8 8 8 0 8 8 0 8 8 8 0 8 8 8 8 8 8 8 8 8 8 8 8 8 8 8 8 8 8 8 0 0 8 8 0 8 8 8 0 0 8 8 8 8 8 8 8 8 0 8 8 8 8 8 8 0 8 8 0 8 8 8 8 8 8 8 8 8 8 8 8 8 8 8 0 8 8 0 8 8 0 8 8 8 8 8 8 8 8 8 8 8 0 8 8 8 0 0 8 0 8 8 8 8 8 8 8 0 8 8 8 8 8 8 0 0 8 0 8 8 8 8 8 0 8 8 8 0 8 8 8 8 8 8 8 8 8 8 8 8 8 8 8 0 8 8 8 0 8 8 8 0 8 0 0 0 0 0 8 8 
8 8 0 8 8 8 0 8 0 8 8 8 8 8 8 0 8 8 8 8 8 0 8 8 8 8 8 8 8 0 8 8 8 8 8 8 8 0 8 8 8 8 8 8 8 8 0 8 8 0 8 0 8 0 8 8 0 8 8 0 8 8 0 8 0 0 8 0 0 8 0 8 8 0 8 8 0 8 8 0 8 8 8 8 8 8 8 8 8 8 8 8 8 8 8 0 8 0 8 8 0 8 8 8 8 0 8 8 0 8 0 8 8 0 8 0 8 0 8 8 8 0 8 8 0 8 8 8 8 0 8 0 8 8 8 8 8 8 8 8 8 8 8 8 8 8 8 8 8 8 8 8 8 8 0 8 8 8 0 8 
8 8 8 0 8 8 8 8 8 8 8 8 0 8 0 8 0 8 8 0 8 8 8 8 8 8 0 8 8 8 8 8 8 8 0 8 0 8 8 8 8 8 8 0 8 0 8 8 0 8 0 8 0 8 0 8 8 0 8 8 8 8 8 8 8 8 8 8 8 8 8 8 0 8 8 8 8 8 8 8 8 0 8 0 8 8 8 0 8 8 8 8 8 8 8 8 8 8 8 8 8 0 8 0 8 8 8 8 8 0 8 0 8 0 0 8 8 8 0 8 8 8 0 8 8 0 8 0 8 0 0 8 0 8 0 8 8 0 0 0 8 8 8 8 8 8 8 8 8 8 8 8 8 8 8 8 8 8 8 8 
0 8 8 8 8 0 8 8 8 0 8 8 8 0 8 8 8 8 8 8 8 0 8 0 8 8 8 8 0 8 8 8 8 8 8 8 8 8 8 8 8 8 8 8 0 8 8 8 8 8 0 0 8 8 0 8 0 8 0 8 8 8 8 8 8 0 8 0 8 8 8 8 8 0 8 0 8 8 8 8 8 8 8 8 8 8 8 8 8 8 0 8 8 8 0 8 0 8 8 8 0 8 0 8 0 8 8 8 8 8 0 8 0 8 0 8 0 8 8 8 8 8 8 8 0 8 0 8 0 8 8 0 8 8 8 0 8 8 8 0 8 0 8 8 8 8 0 8 8 8 0 0 8 0 8 8 8 8 0 8 
8 0 8 8 0 8 8 8 8 0 8 0 8 8 0 8 0 8 8 8 8 8 0 8 8 8 0 8 0 8 8 0 8 0 8 8 0 8 0 8 8 8 0 8 8 8 0 8 8 8 8 0 8 0 8 8 8 8 8 8 8 8 0 8 0 8 8 8 8 0 8 8 8 8 8 8 0 8 8 0 8 8 8 8 8 8 0 8 0 8 8 8 0 8 0 8 8 0 8 8 0 8 8 8 8 8 8 8 8 8 8 0 8 8 8 8 0 8 8 8 8 0 8 8 8 0 8 8 8 0 8 8 0 8 0 8 8 8 8 0 8 8 8 8 8 8 8 0 8 8 8 8 0 8 0 8 0 8 8 8 
8 8 0 8 8 0 8 0 8 8 8 8 0 8 0 8 8 8 8 8 8 8 8 8 0 8 8 8 8 8 0 0 0 8 0 8 8 8 0 8 0 8 8 8 8 8 8 8 0 8 8 8 0 8 0 8 0 0 8 8 0 8 0 8 8 8 8 8 8 0 8 0 8 8 8 8 8 0 8 8 8 8 8 0 8 8 8 8 8 8 8 8 8 0 8 8 8 8 8 8 8 0 8 0 8 8 8 0 8 8 8 8 8 0 8 0 8 0 0 8 0 8 8 8 0 8 0 8 8 8 8 8 0 8 8 8 8 8 0 8 0 8 8 8 8 0 8 8 8 8 8 8 8 8 0 8 0 8 8 8 
8 8 0 8 0 8 0 8 0 8 8 8 8 0 8 0 8 8 0 8 8 8 8 8 8 8 8 12 8 0 8 0 8 0 8 0 8 8 0 8 0 8 8 8 8 8 8 8 0 8 8 8 8 0 8 0 8 0 0 8 0 8 0 8 8 8 0 8 8 0 8 0 8 8 8 0 8 8 0 8 8 8 8 8 8 0 8 8 8 8 8 8 8 8 8 8 8 8 0 8 8 8 0 8 0 8 0 8 8 8 0 8 0 8 0 0 0 0 8 0 8 0 8 8 8 8 8 8 8 8 8 0 8 0 8 8 8 0 8 8 0 8 0 8 8 8 0 8 8 0 8 8 8 8 8 8 0 8 8 8 
8 8 0 8 8 0 8 0 8 8 8 8 0 8 8 0 8 8 8 8 8 8 8 0 8 0 0 8 8 0 8 0 8 0 8 8 0 8 8 0 8 8 0 8 8 8 8 0 8 0 8 8 8 0 8 8 8 8 8 8 8 8 8 0 8 0 8 0 8 8 0 8 8 8 8 8 0 8 0 8 0 8 8 0 8 8 0 8 8 8 8 8 8 8 8 8 8 0 8 0 8 8 0 0 8 0 8 8 8 8 8 8 8 0 8 8 0 8 0 0 8 0 8 8 8 8 0 8 8 8 0 8 0 8 8 8 8 0 8 8 8 8 8 0 8 0 8 0 8 8 8 8 0 8 8 8 8 8 8 8 
0 8 8 0 8 0 8 8 0 8 8 0 8 0 8 0 8 0 8 0 8 8 8 8 0 8 8 8 0 8 8 8 8 8 8 0 8 8 8 8 8 8 8 0 0 8 8 8 0 8 0 8 8 8 8 8 8 8 8 8 8 8 8 8 8 8 0 8 8 8 8 0 8 8 8 0 8 0 8 0 8 0 8 8 0 8 8 8 0 8 8 8 8 8 8 8 8 0 8 0 8 0 8 0 0 8 8 8 8 8 8 0 8 8 0 8 0 8 8 0 8 0 8 8 8 0 8 8 8 0 8 8 0 8 0 8 0 8 0 8 8 0 8 8 0 8 8 8 0 8 0 0 8 0 8 8 8 0 8 0 
0 8 8 8 8 8 0 8 8 0 8 8 8 0 8 0 8 8 0 8 8 8 8 8 8 8 8 8 8 0 8 8 0 8 12 8 8 8 8 8 0 8 8 8 0 8 0 8 8 8 0 8 0 8 8 8 8 0 8 0 8 8 8 8 8 8 8 0 8 8 8 8 8 0 8 8 0 8 8 0 8 0 8 0 8 8 8 8 8 8 0 8 8 8 8 0 0 8 0 8 8 8 8 8 8 8 8 0 8 8 8 8 0 0 8 0 0 0 8 0 8 0 8 0 8 8 0 8 8 8 8 8 8 0 8 0 8 0 8 8 8 8 8 8 8 8 0 8 8 0 8 8 0 8 8 8 8 8 8 8 
0 8 8 8 0 8 8 8 0 8 0 8 8 8 8 8 8 8 8 8 8 0 8 8 8 8 8 0 8 8 0 8 8 8 8 8 12 8 0 8 0 8 0 8 8 0 8 8 8 0 8 0 8 8 8 8 8 8 0 8 8 8 0 8 0 8 8 8 0 8 0 8 8 8 0 8 8 0 8 0 0 8 8 8 8 8 8 8 0 8 8 0 8 0 8 0 8 8 8 8 8 8 8 8 8 8 0 8 0 0 8 8 8 0 8 0 8 8 0 8 8 0 8 8 0 8 8 8 0 8 0 8 8 8 8 0 8 0 8 0 8 8 8 8 0 8 8 8 0 8 8 8 8 8 0 8 0 8 0 8 
8 8 8 8 0 0 0 8 8 8 8 8 8 0 8 8 8 8 8 8 0 8 8 0 8 8 8 8 0 8 8 8 8 0 8 8 8 8 0 8 8 8 8 8 8 8 8 8 8 0 8 0 8 8 8 0 8 8 8 8 8 8 0 8 8 8 8 8 8 8 8 0 8 8 8 8 8 8 0 8 8 8 8 0 8 8 0 8 8 8 8 8 0 8 8 0 8 0 8 8 8 8 8 8 12 8 8 0 8 8 8 8 0 8 8 8 8 8 8 8 8 8 0 0 8 0 0 8 8 0 8 0 8 0 8 8 8 8 0 8 0 8 0 8 8 8 8 8 8 0 8 8 0 8 0 8 8 0 8 8 
8 8 8 8 8 8 0 8 0 8 8 8 8 8 8 8 8 0 8 0 8 8 0 8 8 0 8 0 8 8 8 8 8 8 0 8 0 8 8 8 8 8 8 8 8 0 8 0 8 0 8 8 8 0 8 0 8 8 8 8 8 0 8 8 8 8 8 8 8 0 8 8 0 8 8 8 8 0 8 8 8 8 8 0 0 0 8 0 8 8 8 8 8 8 8 8 8 8 8 8 8 8 8 8 8 8 8 8 0 8 8 0 8 8 8 8 8 8 0 8 0 8 8 0 0 8 0 0 8 8 8 8 0 8 8 8 8 8 8 8 8 0 8 8 8 8 0 8 0 8 8 8 0 8 8 0 8 8 0 8 
8 8 0 8 8 8 8 8 8 0 8 0 8 0 8 8 8 0 8 0 8 0 8 8 8 8 0 8 0 8 8 8 8 8 0 8 8 8 0 0 8 8 0 8 8 8 8 0 8 0 8 8 0 8 0 8 8 8 8 8 8 8 0 8 8 8 8 8 8 8 8 0 8 8 8 8 8 8 0 0 8 8 8 8 0 8 8 8 8 8 8 8 8 0 8 8 8 8 8 8 8 0 0 0 8 8 0 8 8 8 0 8 8 8 8 8 0 8 8 0 8 0 8 8 8 8 8 0 8 8 8 8 8 8 8 8 8 0 8 0 8 8 0 8 8 8 8 0 8 8 8 8 8 8 8 8 8 8 8 8 
8 8 8 0 8 0 8 8 8 8 0 8 8 0 8 8 8 0 8 0 8 8 8 8 8 8 8 8 8 8 8 8 0 8 8 0 8 8 8 8 0 8 8 8 8 8 0 8 0 8 0 8 8 0 8 0 8 8 8 0 8 0 8 8 8 8 8 8 8 8 8 8 0 8 8 8 0 8 8 0 8 8 8 8 8 8 8 8 0 8 8 8 8 8 8 8 8 8 8 0 8 0 8 0 8 8 8 8 0 8 8 8 8 8 8 0 8 8 8 8 8 0 8 8 8 8 8 8 0 8 8 8 8 8 8 8 8 8 8 8 0 8 8 8 8 8 0 8 8 8 8 8 8 8 8 8 8 8 8 8 
8 0 8 8 0 8 8 8 0 8 8 8 8 8 0 12 8 8 8 8 8 8 8 8 8 8 0 8 0 8 8 0 8 8 0 8 8 8 8 8 8 0 8 8 8 8 8 0 8 8 8 8 0 0 8 8 8 8 8 8 8 8 8 8 0 8 8 8 8 8 8 8 8 8 8 8 8 8 8 0 8 8 8 8 8 8 8 8 8 8 8 0 8 8 8 8 8 0 8 8 8 8 0 8 8 8 8 8 8 0 8 8 8 8 8 8 8 0 8 8 0 8 8 8 8 8 8 8 8 8 8 8 8 8 8 8 8 0 8 8 8 0 8 8 8 0 8 8 8 8 8 0 8 8 8 8 8 0 8 0 
8 8 8 8 8 8 8 8 8 8 8 8 8 8 8 8 0 8 8 0 0 0 0 8 0 8 0 0 8 0 8 8 8 8 8 8 8 8 12 0 8 8 8 0 8 8 0 8 8 8 8 8 8 0 8 8 8 8 0 8 8 0 8 8 8 0 8 8 8 8 8 8 8 0 8 8 8 8 8 8 0 8 8 8 8 8 0 8 8 8 8 8 8 8 8 8 0 8 8 8 8 8 8 8 8 8 8 8 8 8 0 8 0 8 8 0 8 8 8 0 8 8 8 0 8 8 8 8 8 8 0 8 0 8 8 8 0 8 0 8 8 0 8 0 8 8 8 8 8 8 8 8 0 8 0 8 0 8 0 8 
8 0 8 8 8 8 8 8 0 8 0 8 8 8 8 8 8 0 8 8 8 8 8 8 8 8 8 0 0 8 0 8 8 8 8 0 8 8 8 0 8 0 8 8 0 8 8 8 0 8 8 8 8 8 8 8 8 8 8 8 8 8 0 8 8 8 8 8 8 8 8 8 8 8 0 8 8 0 8 8 8 0 8 8 8 8 8 0 8 8 8 8 8 0 8 8 8 8 8 8 8 0 8 8 8 8 8 8 8 8 8 0 8 8 0 8 8 0 8 8 8 8 0 8 0 8 8 8 8 0 8 0 8 8 8 8 8 0 8 8 0 8 0 8 8 8 8 8 8 0 8 0 8 0 8 0 8 0 8 0 
0 8 8 8 0 8 0 8 8 8 8 0 8 8 8 0 8 0 8 8 0 8 8 8 8 8 8 8 0 8 8 8 8 0 8 8 8 0 8 8 8 8 8 8 8 0 8 8 0 8 0 8 8 0 8 8 0 8 0 8 0 8 8 8 0 8 8 8 8 8 8 8 8 0 8 0 8 8 8 8 0 8 0 8 8 0 8 8 8 8 8 8 8 8 8 8 8 8 8 0 8 0 0 8 8 8 8 0 8 8 0 8 8 8 8 8 8 8 8 8 0 8 0 8 8 8 0 8 8 8 0 8 8 8 8 0 8 8 0 8 8 0 8 8 8 8 8 8 8 8 8 8 8 8 8 8 0 8 8 8 
8 0 0 8 0 0 8 0 8 0 8 8 8 8 8 0 8 8 0 8 8 0 0 8 8 12 8 0 8 0 8 0 8 8 8 0 8 8 8 8 8 8 8 8 8 8 8 0 8 0 8 8 8 0 8 0 8 8 8 0 8 0 8 8 8 0 8 8 8 8 8 8 8 8 0 8 8 8 8 0 0 0 8 0 8 8 0 8 8 8 8 0 8 8 8 8 8 8 0 8 0 8 0 8 8 8 0 8 8 0 8 8 0 8 8 0 8 8 0 8 8 0 8 0 8 8 8 0 8 0 8 8 0 8 8 8 0 8 8 8 0 8 0 8 0 8 0 8 8 8 8 8 8 8 0 8 8 8 8 8 
0 8 8 0 8 0 8 8 8 8 8 8 8 0 8 0 8 0 8 0 8 0 8 8 8 8 8 8 0 8 0 8 0 8 0 8 0 8 8 8 0 8 0 8 0 8 8 8 0 8 0 8 0 8 0 8 8 8 8 8 8 8 8 0 8 8 0 8 8 8 0 8 0 8 8 0 8 0 8 8 8 0 8 8 0 8 8 8 8 8 0 8 8 8 8 8 0 8 0 8 0 8 0 0 8 8 8 0 8 8 0 8 8 8 0 8 0 8 0 8 8 0 8 0 8 0 8 0 8 8 0 8 8 8 8 8 8 8 8 8 8 8 8 0 8 0 8 0 8 8 0 8 8 8 8 8 8 8 0 8 
8 8 8 8 8 8 0 8 8 8 8 8 0 8 0 8 0 8 8 0 8 8 0 8 8 8 8 8 0 8 0 8 8 0 8 8 0 0 0 0 8 0 0 8 0 0 8 0 8 8 8 8 8 8 0 8 8 8 8 8 8 0 8 0 8 0 8 8 8 0 8 8 8 0 8 8 0 8 8 8 8 8 0 8 8 8 8 0 0 8 8 0 8 8 8 8 8 0 8 8 8 8 8 8 0 0 8 0 8 8 8 8 8 8 8 0 8 8 8 8 0 8 0 8 0 8 0 8 0 8 0 8 0 8 0 8 0 8 8 8 8 8 8 8 8 8 8 8 8 8 8 0 8 0 8 0 8 0 8 0 
8 8 0 8 0 8 8 8 8 0 8 8 8 8 8 8 0 8 0 8 0 8 8 8 8 8 8 0 8 8 8 0 8 8 0 8 8 8 0 8 8 8 8 0 8 0 8 8 8 8 8 8 8 8 8 8 8 0 8 0 8 8 0 8 8 8 8 0 8 8 8 0 8 8 0 8 8 8 8 8 8 8 8 8 8 8 0 8 0 0 8 8 8 8 8 0 8 8 0 8 8 8 8 12 8 0 8 8 0 8 8 8 8 0 8 8 0 8 0 8 8 8 8 8 8 8 8 8 0 8 8 8 8 8 8 0 8 0 8 0 8 8 0 8 8 0 8 8 0 8 8 8 8 8 0 8 8 8 0 8 
8 8 8 0 8 0 8 0 8 8 8 0 8 8 8 8 8 0 8 8 8 8 0 8 8 8 8 8 8 8 8 8 8 8 8 8 8 0 8 8 8 8 8 8 8 0 0 0 8 8 0 8 8 8 8 8 0 8 0 8 8 8 8 8 8 8 8 8 8 8 8 8 0 8 8 0 8 8 8 8 8 0 8 0 8 0 0 8 8 8 8 0 8 0 8 0 8 0 8 8 8 8 8 8 8 8 8 8 8 0 0 0 8 8 8 0 8 8 0 8 8 8 8 8 8 8 8 8 8 0 8 0 8 0 12 8 0 12 8 8 0 8 0 0 0 8 0 0 8 0 8 8 8 8 8 8 8 8 8 8 
8 8 0 8 8 8 0 8 0 8 0 8 0 8 8 8 0 8 0 8 0 8 8 8 8 8 8 8 8 8 0 8 8 8 8 8 8 8 8 8 8 0 0 8 8 8 8 8 8 8 0 8 0 0 8 8 8 0 8 8 8 0 8 8 8 8 8 0 8 8 8 8 8 0 8 8 0 8 0 8 8 8 8 8 0 8 0 8 8 8 8 8 0 8 8 8 8 8 0 8 8 0 0 8 8 0 8 0 8 0 8 0 8 8 0 8 0 8 0 8 8 8 8 8 8 8 8 8 8 8 8 8 8 0 8 8 8 8 12 0 8 0 8 0 0 8 8 8 8 8 0 8 8 8 0 8 8 8 8 8 
8 8 8 8 8 8 8 8 8 8 8 8 8 8 8 8 8 8 0 8 8 8 8 0 8 8 8 8 8 8 8 0 8 8 0 8 8 8 8 8 0 8 8 0 8 8 8 8 8 8 8 0 8 8 0 8 8 0 8 0 8 8 0 8 0 8 0 8 0 8 0 8 8 8 0 8 8 0 8 8 8 8 8 8 8 0 8 0 8 0 8 8 8 8 8 8 8 12 8 8 8 8 8 8 8 8 8 8 8 8 8 12 8 8 8 8 8 0 8 8 8 0 8 0 8 0 8 0 12 8 0 12 0 8 0 12 0 8 0 8 8 8 8 8 8 0 8 8 8 8 0 8 0 0 8 8 0 8 0 0 
8 8 0 8 8 8 0 8 8 0 8 0 8 8 8 8 8 0 8 0 8 0 8 8 0 8 0 8 8 0 8 0 8 0 8 0 8 8 8 8 8 8 8 8 8 8 8 8 8 8 8 8 8 0 8 0 8 8 0 8 0 8 8 8 0 8 0 8 8 0 8 8 8 8 8 0 8 8 8 8 8 0 8 8 8 8 8 8 8 8 8 8 8 0 8 8 8 8 8 0 8 0 8 8 8 8 8 8 8 12 8 10 8 0 8 8 0 8 8 8 8 8 0 8 0 8 8 8 0 8 8 8 8 8 8 0 12 0 8 0 8 8 8 8 8 8 8 8 8 0 8 0 8 8 8 8 0 8 8 0 
