P2
160 120
255
18 26 18 18 26 18 19 26 19 26 19 28 26 26 26 26 26 26 26 26 26 33 29 33 29 34 34 33 30 33 29 37 37 52 56 59 68 77 79 91 95 101 98 101 104 102 110 112 110 113 110 110 116 113 116 113 118 121 123 123 126 126 126 126 129 123 129 126 126 123 126 121 126 126 126 126 126 129 126 126 121 118 118 112 110 112 116 118 120 129 134 138 145 138 144 145 138 144 144 143 144 144 145 151 144 151 155 151 155 151 155 151 151 155 155 161 155 155 161 161 161 161 159 161 155 161 155 161 155 155 161 151 155 151 151 147 151 151 144 155 151 155 151 151 155 151 151 151 144 155 151 144 151 151 151 151 155 151 151 161 
26 19 26 19 26 26 26 26 28 26 26 28 26 26 26 26 26 33 26 33 26 33 26 34 34 34 33 37 33 37 37 52 59 63 69 79 79 87 95 101 98 104 104 104 108 110 110 110 116 110 113 113 113 118 118 121 118 126 121 124 126 126 129 126 133 134 126 123 123 120 118 123 118 118 126 126 126 126 118 118 118 118 112 110 110 112 124 126 134 138 133 138 138 145 138 144 144 144 139 144 144 144 151 144 144 155 151 155 144 155 161 155 151 155 161 155 161 155 155 161 155 155 161 161 155 161 155 161 155 151 155 151 151 155 145 151 151 147 155 151 144 151 151 155 151 151 144 155 144 151 155 144 155 151 155 151 151 151 151 151 
26 26 26 26 26 26 19 28 26 28 28 26 28 26 33 26 29 33 29 34 34 34 33 29 33 30 37 37 37 52 52 61 71 79 87 90 93 96 96 101 104 107 108 110 110 113 110 113 115 113 118 113 118 116 121 121 126 124 126 126 126 126 126 126 123 120 120 120 120 118 118 118 121 126 123 126 120 118 123 118 116 112 110 112 116 120 126 126 138 133 138 145 138 138 145 145 138 144 139 144 144 144 144 144 155 145 144 155 155 151 159 155 155 151 155 151 155 151 155 151 155 155 155 161 159 155 151 155 151 161 151 151 145 151 149 151 145 151 144 151 144 155 151 147 155 151 151 144 144 151 151 151 147 155 147 161 151 151 151 151 
26 26 26 26 26 26 28 26 28 26 28 29 33 30 34 30 33 29 34 33 33 33 34 37 37 37 47 52 59 68 69 85 87 93 96 96 104 102 104 107 104 110 107 110 113 110 113 110 113 118 113 118 118 121 126 126 126 124 126 124 126 120 120 120 119 120 120 120 123 116 123 121 120 118 126 120 118 118 118 112 110 112 116 120 123 126 123 133 129 138 133 138 132 138 133 136 144 145 138 139 144 144 155 144 147 144 155 159 155 144 144 155 155 151 151 155 151 155 151 155 151 151 155 151 144 151 151 151 151 151 144 151 151 151 151 151 151 151 144 155 144 144 144 144 144 144 151 144 155 147 155 151 155 151 161 155 151 151 144 151 
26 26 26 26 26 26 26 26 26 28 26 34 28 34 29 34 29 34 33 30 33 36 37 37 47 52 59 61 75 82 87 95 96 96 104 96 104 104 110 110 107 110 113 118 113 118 110 113 110 118 118 121 121 126 129 121 124 120 124 120 112 108 104 108 107 112 116 120 123 123 124 123 126 118 118 118 116 110 112 110 108 112 120 124 123 134 118 138 123 133 134 138 145 133 139 136 145 138 144 144 144 144 144 145 145 145 144 155 147 155 155 144 159 144 155 147 155 155 147 155 151 151 144 144 155 144 144 151 144 151 144 145 147 145 151 151 144 144 144 144 155 151 144 144 144 144 155 151 147 161 151 144 151 147 155 147 155 151 151 151 
26 33 26 33 29 33 29 28 34 30 34 26 33 34 29 33 34 36 36 36 37 37 37 59 59 61 71 79 87 93 93 101 104 102 99 104 105 107 113 113 113 110 113 118 113 110 110 115 113 118 118 121 126 126 126 126 124 120 108 100 89 85 89 93 108 116 120 120 120 120 123 123 120 118 112 112 110 104 104 108 119 120 120 123 123 133 134 123 133 129 133 132 138 138 138 145 138 145 138 145 144 144 147 145 144 145 144 144 155 145 144 155 144 155 144 155 155 151 155 155 151 144 155 144 144 144 144 144 144 151 151 144 151 144 151 144 144 155 144 144 144 151 144 151 144 144 151 151 144 144 144 151 159 151 151 151 151 147 155 151 
26 26 29 26 29 26 34 34 34 34 34 30 33 37 34 36 36 37 37 37 52 59 59 68 75 79 90 93 95 101 96 101 99 104 102 110 110 110 113 118 113 113 113 113 118 113 118 121 118 126 121 123 123 126 126 126 120 105 84 69 61 61 84 96 110 116 120 126 120 123 120 118 112 112 108 108 104 108 108 119 108 119 120 123 126 123 123 123 138 133 134 138 133 138 138 138 145 138 145 138 144 159 145 145 145 147 145 145 145 144 147 155 145 145 144 155 144 144 144 144 155 144 144 144 144 144 144 144 144 144 144 144 144 144 144 144 144 144 144 144 144 151 144 151 144 151 147 155 144 144 144 151 144 151 144 151 151 155 151 144 
33 29 33 34 33 29 34 34 37 30 36 33 34 36 36 37 37 52 52 59 68 69 78 85 90 93 99 101 104 101 102 102 104 110 110 110 113 113 110 113 113 110 113 118 113 120 123 126 126 126 126 126 126 124 118 104 89 77 71 69 72 84 98 110 116 119 118 120 118 112 112 112 108 112 110 102 110 108 112 119 119 123 123 123 123 123 123 118 138 134 133 138 129 138 133 145 138 138 138 145 145 145 145 147 145 145 144 144 144 144 155 145 145 144 147 144 159 155 144 144 144 144 144 144 144 147 155 145 144 144 145 144 144 144 159 144 144 144 145 144 144 147 155 147 155 159 151 151 144 144 144 151 144 144 144 144 144 144 144 138 
29 34 34 33 34 34 33 30 37 33 30 36 36 37 37 52 52 61 63 75 79 89 93 90 93 96 102 104 104 102 104 108 110 110 110 116 115 110 113 110 113 113 118 118 121 126 121 121 126 126 126 124 124 112 96 77 61 65 77 89 101 108 112 119 118 112 116 112 108 108 104 103 103 103 101 101 101 108 112 119 123 112 123 123 123 123 138 134 118 138 123 138 133 138 138 138 138 138 145 144 147 138 145 138 144 147 145 145 147 145 145 147 145 145 145 145 145 144 144 145 145 144 145 147 145 145 145 147 145 138 145 147 144 144 145 144 145 138 138 144 144 155 144 155 151 144 151 147 144 144 155 147 144 144 144 144 144 144 144 144 
34 37 34 33 34 33 37 36 37 37 37 47 37 52 61 61 69 79 85 87 93 98 99 96 102 102 104 104 110 110 110 110 110 118 110 115 113 110 110 110 113 118 116 121 126 126 126 126 126 124 118 108 104 90 75 65 69 85 93 104 108 108 116 116 108 112 108 101 101 95 93 93 90 95 93 95 103 110 110 104 112 110 112 123 123 123 123 118 138 123 147 129 138 129 138 133 138 138 138 138 138 145 138 138 145 138 138 138 132 145 138 133 138 138 138 138 138 145 138 138 138 145 138 145 147 145 144 138 147 145 138 132 145 138 144 144 144 144 144 144 144 144 144 144 147 144 144 144 155 147 155 144 144 159 144 144 144 144 145 138 
34 33 36 34 33 29 37 37 37 47 52 52 61 63 71 85 87 87 93 98 97 98 100 102 99 102 102 110 110 112 118 118 110 115 110 110 110 110 110 118 121 123 118 121 126 129 126 118 118 116 104 85 71 69 79 79 96 104 108 119 119 108 111 108 108 101 100 93 89 85 72 71 68 78 84 93 99 101 105 112 110 108 112 123 123 123 123 123 123 133 126 133 126 138 133 134 138 129 138 138 138 138 138 138 138 147 132 147 133 138 132 138 138 132 145 133 138 138 145 133 138 138 138 145 138 147 138 147 132 145 147 138 145 138 145 144 147 145 144 147 155 144 145 144 144 144 159 144 144 144 144 144 144 144 144 145 145 144 138 144 
33 34 33 37 34 37 37 52 52 52 56 68 71 85 87 87 93 101 96 101 100 101 102 104 105 107 110 110 113 110 113 115 110 110 110 107 110 115 115 118 126 121 126 121 126 126 126 118 108 96 84 65 68 69 87 95 108 112 119 118 116 116 112 105 101 96 89 85 85 63 56 45 36 47 63 76 93 95 110 103 112 112 119 118 108 123 123 126 123 129 123 126 133 134 134 134 126 138 129 138 129 138 129 133 138 132 138 133 136 138 133 134 133 138 138 138 132 138 138 138 145 138 138 147 133 145 133 145 138 147 132 145 138 147 138 138 145 138 138 144 144 147 144 144 147 144 145 144 144 144 145 138 145 144 145 138 138 144 138 145 
33 37 36 37 37 51 52 52 60 68 69 79 87 93 93 93 96 101 100 101 102 104 104 110 110 110 113 118 118 110 118 110 110 110 110 110 110 118 121 121 121 126 121 126 126 120 108 101 89 79 69 68 72 90 101 104 108 119 108 108 108 108 104 101 93 89 85 75 64 52 35 22 19 26 33 59 71 84 87 99 110 110 103 112 112 112 123 123 123 123 133 123 134 124 123 123 138 126 126 129 138 126 138 129 138 138 133 134 129 133 134 126 138 126 129 138 133 138 129 138 138 133 138 138 138 138 138 138 133 145 138 138 138 145 138 147 138 145 138 144 138 145 138 145 138 145 138 138 144 138 138 132 138 144 138 138 138 147 145 138 
37 37 52 52 56 57 69 75 82 85 87 93 93 96 101 101 100 104 104 107 108 107 110 107 110 118 118 118 110 110 110 110 110 110 113 118 121 126 126 126 126 121 124 124 116 101 79 61 61 71 79 90 101 104 120 108 108 118 112 108 104 101 98 89 87 85 61 52 33 26 17 8 8 8 10 18 26 37 66 76 89 99 93 112 110 112 119 118 112 123 119 119 123 119 123 123 123 123 123 126 123 123 123 126 123 129 134 123 138 126 134 126 123 129 118 144 134 138 147 133 138 138 132 138 138 147 132 138 144 138 147 133 138 138 138 145 138 147 138 147 138 138 138 138 138 138 138 138 138 147 132 144 147 138 138 138 133 136 133 138 
52 57 59 63 69 75 79 85 89 98 93 96 100 100 104 102 104 108 104 110 110 112 110 110 115 113 115 110 110 110 110 105 105 120 121 126 124 123 120 121 121 123 116 101 93 79 69 71 71 79 93 101 108 108 108 118 112 110 110 104 96 100 89 79 78 60 37 33 18 10 8 8 8 8 0 8 10 26 33 51 59 86 93 99 93 110 110 103 112 119 119 119 119 123 123 123 119 123 123 123 123 123 123 123 123 123 123 123 123 134 118 134 123 138 138 134 133 129 138 129 138 129 138 133 138 129 147 133 138 138 129 138 138 147 133 138 138 138 147 145 147 133 138 138 147 133 138 138 133 138 138 133 134 138 118 138 138 138 129 138 
68 69 79 79 87 90 89 93 96 101 100 100 96 104 104 108 108 110 110 110 112 118 118 113 115 113 110 110 110 110 113 118 121 126 129 126 129 123 129 120 120 108 93 77 69 69 79 87 93 101 108 108 119 112 116 110 104 102 93 93 92 82 75 56 37 37 26 16 10 8 8 8 0 8 8 8 0 8 10 18 19 37 59 68 84 89 95 99 110 95 110 85 119 110 112 110 119 112 119 112 123 118 120 120 123 123 126 126 123 134 133 134 123 147 123 138 133 126 129 134 123 138 123 129 138 133 134 138 147 138 147 133 138 138 138 147 138 118 144 138 129 138 138 133 134 138 126 138 138 133 138 138 134 138 138 138 126 133 134 133 
79 82 87 95 95 101 98 93 101 100 104 100 104 102 108 112 110 110 110 112 113 116 116 110 110 110 110 110 110 113 116 120 126 123 123 123 123 120 123 112 98 89 71 61 37 96 93 101 112 108 119 119 116 108 108 102 100 100 93 92 85 71 60 37 33 17 10 8 8 8 8 0 8 8 8 8 0 8 0 8 8 11 26 37 60 70 72 86 93 99 95 110 99 103 105 110 108 112 110 112 112 119 119 118 119 118 120 123 123 123 126 123 133 126 138 123 138 126 123 133 134 118 144 123 138 138 123 138 133 138 126 138 138 118 144 138 138 138 147 133 138 129 138 134 134 123 138 133 134 138 134 138 123 138 133 126 126 126 123 138 
93 95 98 99 98 101 101 100 104 104 104 108 107 110 110 110 110 110 116 115 112 113 110 110 105 110 110 110 113 118 126 121 126 126 126 126 120 107 96 82 64 64 72 90 104 104 108 119 112 116 112 110 108 104 100 100 89 84 77 71 60 37 35 19 8 6 6 8 8 8 8 0 8 8 8 8 8 8 8 8 8 8 8 10 11 18 29 37 66 76 84 84 99 99 99 105 110 105 110 105 112 112 112 112 108 119 119 123 123 123 123 126 123 126 123 123 133 126 126 126 134 134 133 133 138 133 138 123 138 133 134 118 144 138 147 123 118 144 126 138 126 138 123 133 134 138 133 134 134 123 138 133 138 126 126 126 133 126 133 126 
96 101 101 98 101 104 104 104 108 107 110 110 110 116 110 110 110 110 115 113 110 110 110 102 110 110 113 118 126 126 126 126 120 126 123 120 112 90 72 63 64 82 91 103 108 120 120 118 112 110 108 108 100 100 92 89 85 78 63 52 36 29 8 17 6 8 8 10 8 8 8 0 8 0 8 8 8 8 8 8 8 8 8 8 8 8 16 19 33 37 66 66 72 86 93 93 99 99 105 110 93 110 112 110 119 112 112 123 123 123 123 123 123 123 123 126 126 123 123 123 123 123 129 126 134 123 138 133 134 126 123 138 118 134 123 138 138 133 126 123 138 123 138 126 123 133 132 123 123 133 126 126 126 123 123 123 123 126 123 126 
101 104 101 104 104 104 108 110 110 110 110 118 118 118 116 110 118 112 110 110 110 105 105 105 110 118 123 121 126 123 126 123 120 104 98 87 77 72 64 82 90 95 103 108 119 112 112 116 110 104 102 100 97 89 85 75 64 51 36 26 8 10 8 8 8 8 8 8 6 8 8 8 8 8 8 0 8 8 8 8 8 8 8 8 8 8 8 8 8 10 16 33 37 51 66 68 86 93 93 99 105 110 101 110 108 110 103 112 119 108 108 119 123 123 123 123 123 123 123 133 126 123 123 118 138 123 123 126 123 123 123 123 138 123 118 138 123 123 138 123 123 133 126 133 126 124 126 126 126 124 126 123 123 120 120 120 123 123 123 123 
99 104 102 104 107 112 110 113 110 110 116 115 116 115 118 116 110 110 110 105 105 107 110 113 121 123 126 126 123 126 120 120 104 98 72 65 63 72 82 95 110 108 119 119 108 112 110 110 104 102 100 93 85 79 68 60 37 26 10 10 10 8 10 8 8 8 8 8 0 8 8 8 8 8 8 8 8 0 8 0 8 8 8 0 0 0 8 8 0 8 0 10 16 18 34 37 59 66 86 86 87 99 99 103 99 103 110 110 112 110 110 103 112 118 112 123 123 123 123 119 123 123 123 123 123 123 123 123 123 123 123 123 123 123 123 123 123 123 123 123 123 123 126 123 124 123 126 123 123 123 123 123 123 120 123 120 118 119 123 118 
104 104 107 112 110 112 116 110 116 115 113 118 115 116 110 115 110 110 110 110 110 110 113 126 126 123 126 120 118 112 104 89 72 72 71 72 87 98 103 112 119 108 119 112 119 110 104 96 96 96 85 79 71 59 37 26 18 8 6 8 8 8 8 8 8 8 0 8 8 0 8 8 8 0 8 8 8 0 8 0 8 8 8 0 8 0 0 0 8 0 8 0 8 8 8 16 19 29 33 37 59 70 76 86 91 93 97 99 99 101 103 110 105 93 112 110 103 112 119 118 112 119 112 123 123 123 123 123 123 123 123 123 123 123 123 123 123 123 123 123 123 119 123 123 119 123 123 123 119 118 119 112 119 112 123 112 112 112 112 112 
107 110 110 112 112 113 118 118 118 113 116 113 110 110 110 113 110 110 107 110 118 123 129 126 126 126 126 120 107 89 77 61 65 69 82 93 103 108 112 119 112 119 112 108 104 110 100 89 92 85 79 71 54 30 19 10 8 8 8 8 8 8 8 8 8 8 0 8 0 8 8 8 8 8 0 8 8 8 0 8 0 8 8 12 8 12 8 8 8 8 0 8 0 8 0 8 8 10 10 11 26 30 37 54 61 68 76 87 86 93 95 99 110 99 93 112 99 110 110 101 110 112 110 112 110 112 108 119 118 112 119 118 103 119 118 112 123 123 119 123 119 123 112 119 123 108 110 112 119 112 112 110 112 112 110 110 112 110 112 110 
110 116 110 118 116 118 118 113 112 118 110 110 110 110 110 110 110 110 110 118 120 126 126 126 126 123 120 104 89 75 65 69 72 82 95 104 112 112 119 112 105 105 105 108 101 100 92 85 82 75 64 37 30 18 10 12 8 0 8 8 8 8 8 8 8 0 8 0 8 8 0 8 8 8 8 8 8 0 8 0 0 12 0 12 8 8 8 8 12 0 12 0 8 0 8 0 8 8 8 8 6 10 18 26 37 37 66 68 76 84 86 87 89 99 93 110 105 110 105 105 110 105 110 105 112 110 110 110 112 110 112 110 119 110 119 110 112 110 108 119 110 112 110 119 110 112 110 112 110 112 110 105 110 105 105 103 110 105 110 101 
118 110 118 110 118 118 110 113 110 116 110 110 118 116 110 110 112 118 120 124 126 124 126 120 108 101 77 72 72 72 77 84 95 104 108 119 112 119 119 119 108 105 101 97 92 89 85 75 64 54 37 26 18 10 8 8 8 12 8 8 8 8 8 8 8 8 8 8 0 8 8 0 8 0 8 8 8 8 0 8 0 12 0 8 8 8 12 0 8 0 8 8 8 8 0 8 8 8 8 8 8 8 8 10 18 18 26 33 34 37 37 51 54 68 76 78 84 85 86 89 93 89 99 99 93 103 101 105 93 110 105 110 105 110 105 110 105 110 99 110 110 110 103 110 103 93 105 93 110 105 99 99 103 93 110 97 95 93 93 89 
112 118 116 118 113 118 113 118 118 116 110 110 110 110 116 112 118 124 126 126 124 120 119 108 95 75 61 61 69 84 98 104 112 119 119 119 112 110 108 104 101 97 92 92 79 75 64 52 37 29 18 10 8 10 8 8 8 0 8 8 8 8 8 8 0 8 8 8 8 8 8 8 0 8 8 8 8 8 8 8 8 0 12 0 8 0 8 8 0 8 12 8 12 0 8 0 8 8 8 8 8 8 8 8 8 8 8 8 10 10 10 11 26 33 37 51 51 56 61 68 72 78 76 93 93 86 93 93 99 99 99 99 99 99 99 99 93 110 105 99 99 99 99 99 93 93 93 99 99 93 93 93 93 93 87 86 86 86 84 76 
110 113 118 118 118 110 118 118 118 118 112 110 110 112 116 120 124 124 124 119 108 103 93 79 72 69 72 77 90 101 108 119 108 119 112 112 108 102 101 100 92 89 89 79 68 52 37 26 18 17 8 8 8 8 8 8 8 8 8 8 8 8 0 8 8 0 8 8 8 8 0 8 8 8 8 0 8 0 8 8 8 0 0 0 8 0 0 12 8 0 8 8 8 12 0 8 8 8 8 8 8 8 8 8 8 8 0 8 0 8 0 8 10 10 16 11 18 26 33 34 37 38 51 37 52 56 60 60 70 70 66 66 76 76 76 86 79 84 76 86 76 86 86 78 86 76 86 78 76 66 68 70 70 61 61 61 54 54 54 37 
110 116 118 118 118 110 118 118 112 118 118 116 120 116 120 124 123 124 108 112 89 77 69 61 63 77 93 101 108 119 108 119 108 116 108 112 108 102 96 92 93 77 79 68 37 36 18 8 8 8 8 8 8 8 8 8 8 8 8 8 0 8 8 0 8 8 0 8 8 8 8 0 8 0 8 8 8 8 8 8 8 8 8 0 8 8 8 0 8 0 0 12 8 8 8 0 8 8 8 8 0 8 0 8 8 8 0 8 8 8 8 0 0 0 8 8 8 10 8 8 10 10 10 18 8 18 19 26 17 26 33 37 37 37 37 37 37 51 37 37 38 47 38 38 37 38 37 38 37 37 30 34 28 26 19 26 18 11 18 16 
110 118 118 118 118 118 118 118 110 116 116 120 124 124 126 120 111 104 89 79 71 69 69 77 85 101 108 119 108 119 111 119 108 108 108 101 96 92 84 90 77 63 47 35 29 17 8 8 8 12 12 0 8 8 8 8 8 8 8 8 8 0 8 8 0 8 0 8 8 8 8 8 8 8 8 8 0 8 0 8 8 0 8 8 8 8 8 8 8 8 0 8 8 12 8 8 8 0 0 8 0 8 8 8 8 8 8 8 8 0 0 8 0 8 8 8 8 8 8 8 8 8 8 6 10 10 10 10 8 11 16 18 18 18 18 17 19 19 26 19 26 18 19 26 19 19 19 18 11 19 11 11 18 10 10 10 6 8 10 8 
118 118 118 121 118 121 123 118 118 115 123 123 120 120 116 108 92 71 65 68 69 79 85 101 108 119 119 119 119 108 108 112 108 103 96 93 85 84 79 71 56 35 19 17 6 8 6 8 12 0 0 8 8 8 8 0 8 8 8 8 0 8 0 8 8 8 8 0 8 8 8 8 8 0 8 0 8 8 0 8 8 8 8 8 8 8 8 8 8 8 8 0 8 0 8 8 8 8 0 0 8 8 8 8 0 0 8 8 8 8 0 0 8 8 8 8 0 8 8 8 8 8 8 8 8 8 8 8 8 8 8 8 8 8 6 8 8 8 8 8 8 10 8 8 8 8 8 6 8 8 10 8 10 6 8 8 8 8 8 8 
118 121 126 118 121 123 118 123 123 126 123 116 115 101 92 84 71 69 69 79 87 95 101 116 112 112 112 112 108 119 103 101 101 93 87 85 79 71 56 45 26 18 8 10 8 10 8 8 8 8 8 8 0 8 8 8 8 8 0 0 8 0 8 8 8 8 0 8 0 8 8 8 8 0 8 0 8 8 8 8 8 8 0 8 8 8 8 8 0 8 8 8 8 0 0 0 8 0 8 8 8 8 8 8 0 8 8 0 8 8 8 8 8 0 8 8 8 0 8 0 8 8 8 8 8 8 8 8 8 8 8 8 8 8 8 8 8 8 8 8 8 8 8 8 8 8 8 8 8 8 8 8 8 8 8 8 8 8 8 8 
126 126 123 126 118 121 123 123 124 123 123 105 84 72 61 65 69 77 93 101 108 119 119 112 116 110 108 108 105 101 101 93 89 87 85 75 63 45 22 18 10 8 8 8 8 8 8 8 0 8 8 8 8 8 0 8 0 8 8 8 0 8 0 8 0 8 8 0 8 0 8 8 8 8 0 8 8 8 0 8 8 0 8 8 0 8 0 8 8 0 8 0 8 8 8 8 8 0 8 0 8 8 0 8 8 0 8 0 8 8 8 8 8 8 8 8 8 0 8 8 8 8 8 0 0 8 8 0 0 8 8 8 8 8 8 8 8 8 8 8 8 8 8 8 8 8 8 8 8 8 8 8 0 8 8 0 8 8 8 8 
126 121 124 118 126 124 120 116 108 100 92 77 72 61 61 77 85 98 108 119 119 112 119 108 116 112 108 101 96 93 93 87 79 68 60 47 36 22 17 6 8 8 8 8 0 0 0 8 8 0 8 8 8 8 8 0 8 8 8 8 8 8 8 0 8 0 8 8 8 8 0 8 0 8 8 8 0 8 8 8 8 8 8 8 8 8 8 0 8 8 0 8 8 8 8 12 8 8 8 8 0 8 0 8 8 8 0 8 0 8 8 8 8 8 8 8 8 8 8 8 8 0 8 8 8 0 8 8 8 0 0 0 8 8 0 8 8 8 8 8 8 8 8 0 8 8 8 8 8 8 8 8 8 0 8 8 0 8 8 0 
118 120 126 120 124 120 110 101 89 69 61 61 69 77 89 101 108 112 112 112 119 108 112 112 108 108 101 96 93 87 85 75 63 37 35 19 19 17 8 10 8 8 8 8 8 0 8 8 0 8 8 8 8 8 0 8 8 8 8 8 8 8 8 8 8 8 0 8 8 8 0 8 0 8 8 0 8 8 8 8 8 8 0 8 8 0 8 8 0 8 8 8 12 12 6 12 8 8 8 8 8 0 8 0 8 8 8 0 8 8 8 0 8 0 8 8 0 8 8 8 8 8 8 8 8 8 8 8 8 8 8 8 0 8 8 8 8 0 8 8 8 8 8 8 0 8 8 8 8 8 8 8 8 8 8 8 8 8 8 8 
124 124 120 119 108 101 89 77 69 63 69 72 85 98 108 112 112 119 123 112 108 112 110 100 101 93 93 89 85 75 64 52 37 35 11 10 8 10 10 10 8 8 0 8 8 8 8 8 8 8 8 0 8 0 8 8 8 8 8 0 8 8 8 8 8 8 8 8 8 8 0 8 0 8 8 8 0 8 8 8 8 8 8 0 8 8 0 8 8 0 0 8 0 8 0 8 8 0 8 8 0 8 0 8 8 8 0 8 8 8 0 8 8 0 8 0 8 8 8 8 8 8 0 8 8 0 8 8 8 8 0 8 8 0 8 8 0 8 0 8 8 0 8 8 8 8 8 8 8 0 8 8 8 0 8 8 8 0 8 8 
124 119 108 98 85 71 61 63 71 77 90 95 104 112 112 112 112 119 108 112 110 101 102 97 92 85 85 77 68 52 45 19 18 10 10 8 10 8 8 8 8 0 8 8 8 8 8 8 8 8 8 0 8 8 8 8 8 0 8 8 0 8 8 8 8 8 8 0 8 8 8 0 8 8 0 8 8 8 8 0 8 8 8 8 0 8 8 0 8 8 8 0 8 0 8 0 8 8 0 8 8 8 8 8 8 8 8 8 8 8 8 0 8 0 0 8 8 8 8 8 8 8 8 8 8 8 8 8 8 12 8 8 8 8 8 8 8 0 8 0 8 8 0 8 8 8 8 0 8 0 8 0 8 8 0 8 0 8 8 8 
112 103 87 77 63 59 63 72 87 101 108 108 119 119 112 119 112 112 110 105 102 100 101 85 85 83 71 59 45 29 17 10 6 8 8 6 8 8 8 8 8 8 0 8 8 0 8 8 8 8 0 8 0 8 8 8 0 8 8 0 8 8 8 8 8 0 8 0 8 0 8 8 8 8 8 0 8 8 0 8 0 8 8 0 8 8 0 8 8 8 8 8 0 8 8 8 0 8 8 0 0 8 0 8 8 8 0 8 0 8 8 8 8 8 8 8 8 8 8 0 8 8 8 0 8 8 8 8 8 0 8 8 8 8 8 8 8 0 8 8 0 8 8 8 8 8 8 8 0 8 8 8 0 8 8 8 8 0 8 8 
99 87 69 68 63 68 77 93 98 104 112 119 112 112 119 112 112 110 89 102 97 96 92 85 77 68 59 45 29 17 8 10 10 8 8 8 0 8 0 0 0 8 8 8 8 0 8 8 8 8 8 8 8 8 8 8 8 0 8 8 8 0 8 0 8 8 0 8 0 8 8 8 8 8 8 8 0 8 0 8 8 8 8 8 8 8 8 8 8 8 0 8 8 0 8 0 8 0 8 8 0 8 0 8 8 8 8 0 8 0 8 8 8 8 8 8 0 8 0 8 8 8 8 8 8 8 8 0 0 8 0 8 0 8 8 0 8 8 8 0 8 8 8 8 8 8 8 8 8 8 8 8 8 8 8 8 0 8 8 8 
68 61 61 75 87 97 104 112 112 119 112 112 119 110 108 110 105 102 100 92 83 84 77 68 52 42 19 17 8 10 6 8 8 8 8 0 12 12 8 12 0 8 8 8 8 8 0 8 8 8 8 8 8 8 8 8 8 8 8 0 8 8 8 8 8 8 8 8 8 0 8 0 8 8 8 8 8 8 8 0 8 0 8 0 8 8 8 8 0 8 8 8 0 8 8 8 0 8 0 0 8 0 8 8 8 8 8 8 0 8 8 0 8 8 0 8 0 8 0 0 0 8 8 8 8 8 8 8 8 0 8 8 8 0 8 8 0 8 8 0 8 0 8 8 0 8 0 0 8 8 8 8 8 0 8 0 8 8 8 8 
63 69 79 87 103 108 112 119 119 112 119 110 107 108 108 107 92 92 84 85 77 68 59 45 33 19 17 8 10 8 8 8 8 8 8 12 8 8 12 8 0 8 8 8 8 8 8 8 0 0 8 0 0 8 0 0 8 0 0 8 0 0 8 0 0 0 0 0 8 8 8 8 8 8 8 8 8 8 8 8 0 8 0 8 8 8 8 8 8 0 8 8 8 8 8 0 8 0 8 8 0 8 0 8 8 8 0 8 8 8 0 8 8 0 8 8 8 8 8 8 8 8 0 0 0 8 0 8 8 8 0 0 8 8 8 8 8 0 8 8 8 8 8 8 8 8 8 8 8 0 8 8 8 8 8 8 0 8 8 8 
85 93 101 108 119 119 112 112 112 112 108 108 101 100 97 85 89 83 78 69 59 45 29 17 8 17 6 8 10 8 8 8 8 8 8 8 12 8 8 0 0 8 8 8 8 8 8 8 8 0 8 0 8 0 8 0 8 0 8 0 8 8 0 8 0 8 0 8 8 8 8 8 8 0 8 0 8 8 8 8 8 0 8 8 8 8 8 8 8 8 0 8 8 8 0 8 8 8 0 8 8 8 8 8 0 8 8 0 8 8 8 0 8 8 8 8 8 8 8 8 8 8 8 0 8 0 8 8 8 8 8 0 8 8 8 8 8 0 0 8 8 8 8 0 8 8 8 8 8 8 0 8 8 8 8 8 8 8 8 8 
101 108 119 119 112 119 108 119 108 108 101 100 100 93 89 85 77 75 68 51 35 26 8 10 8 8 8 8 8 8 8 8 0 8 8 12 8 8 8 8 8 0 8 0 0 8 0 0 8 8 8 8 8 8 8 8 0 8 8 8 8 8 8 8 8 8 8 8 8 0 8 0 8 0 8 0 8 8 8 8 8 0 8 0 8 0 8 8 8 0 8 0 8 0 8 8 8 0 8 8 8 8 8 8 8 0 8 8 0 8 8 8 8 8 8 8 8 8 8 8 8 0 8 8 8 8 0 8 8 0 8 8 8 8 0 0 8 8 8 8 0 8 0 8 0 8 8 8 8 8 8 8 8 8 8 8 8 8 8 8 
119 108 119 108 112 108 112 108 104 101 96 93 92 85 85 68 60 37 35 17 10 10 10 8 8 8 8 8 8 8 0 8 8 8 8 0 8 8 8 0 8 8 0 8 0 0 8 0 8 8 8 8 0 8 0 8 8 0 8 8 8 8 8 8 8 8 8 8 8 8 8 8 0 8 0 8 0 8 8 0 8 8 0 8 0 8 0 0 8 0 8 8 0 8 8 8 8 8 8 8 0 0 8 8 8 8 0 8 8 0 8 8 0 8 8 8 8 0 8 8 8 8 0 8 0 8 8 8 8 0 8 8 0 8 0 8 0 8 8 0 8 8 8 8 0 8 0 8 8 0 8 0 8 0 8 8 8 8 8 8 
116 116 112 108 112 108 104 104 96 96 89 85 77 75 64 59 42 19 17 6 10 8 10 8 8 0 8 0 8 8 8 8 8 8 0 8 8 0 12 8 0 8 0 8 8 8 8 8 0 8 0 8 0 8 0 8 0 8 0 8 8 0 8 0 0 8 0 8 8 0 8 8 8 0 8 8 8 0 8 8 8 8 8 8 0 8 0 8 0 0 8 8 8 8 0 8 0 8 8 0 8 0 0 8 8 8 8 8 0 8 8 0 8 8 0 0 0 8 0 8 8 8 8 0 8 0 8 8 8 8 8 8 0 8 8 8 8 0 8 0 8 8 8 8 8 8 8 8 8 8 8 8 0 8 8 8 8 8 8 0 
112 112 108 110 108 107 100 96 89 85 77 72 60 47 42 22 18 8 8 10 8 8 0 8 0 8 0 8 0 8 8 8 8 8 8 0 8 8 0 8 8 8 8 0 8 8 8 8 8 0 8 8 8 0 8 8 0 8 0 8 0 8 8 8 0 8 8 8 0 8 8 8 8 8 0 8 0 8 0 8 0 8 8 0 8 0 8 0 8 8 8 8 8 0 8 0 8 8 8 8 8 8 0 8 8 8 8 8 8 0 8 8 8 8 0 8 8 8 8 0 8 8 0 8 0 8 0 8 8 8 8 0 8 8 8 8 8 0 8 0 8 8 8 8 8 8 8 8 8 8 0 8 8 8 8 8 8 8 0 8 
108 108 108 102 102 96 85 85 77 77 69 56 45 29 8 10 6 8 8 8 8 8 8 8 8 8 0 8 8 8 8 0 8 8 8 8 0 8 8 8 8 8 0 8 0 8 0 8 8 8 0 8 0 8 8 8 8 8 8 0 8 0 8 8 8 0 8 0 8 8 0 8 0 8 8 8 8 0 8 8 8 0 8 8 8 8 8 8 8 8 8 8 0 8 8 8 8 0 8 0 8 8 8 0 0 8 0 8 8 8 8 8 8 0 8 8 8 8 0 8 0 8 8 8 8 8 8 0 8 8 0 8 8 0 0 0 8 8 8 8 0 8 0 0 8 0 8 8 8 8 8 8 8 8 0 0 8 0 8 8 
108 104 100 96 92 85 83 75 60 52 36 29 17 8 10 10 8 8 8 12 8 12 8 8 8 0 8 0 8 0 8 8 0 8 0 8 8 8 0 8 8 0 8 8 0 8 8 0 8 0 8 8 8 8 8 8 8 0 8 8 0 8 0 8 8 8 8 8 0 8 8 8 8 8 0 8 0 8 0 8 8 8 8 8 8 0 8 8 8 8 0 8 8 0 0 8 0 8 8 8 8 8 8 8 0 0 8 8 8 8 8 8 8 8 0 8 8 8 8 0 8 0 8 8 0 8 0 8 8 0 8 8 8 8 8 0 8 8 8 8 8 0 8 8 8 8 0 0 8 8 8 8 0 8 8 8 8 8 8 0 
101 93 89 85 84 85 68 59 37 26 17 17 10 8 8 8 8 8 8 8 8 12 8 0 8 8 8 0 8 0 0 8 8 8 8 8 8 8 8 0 8 8 0 8 0 8 8 8 8 8 0 8 8 8 8 0 8 8 8 8 8 0 8 0 8 0 0 8 0 8 0 0 8 8 8 0 8 8 8 8 8 8 8 8 0 8 0 8 8 8 8 8 8 8 8 8 8 8 0 0 8 0 8 0 8 8 8 0 0 8 8 8 8 8 0 8 0 8 8 8 0 0 8 8 8 0 8 0 8 8 8 0 8 8 0 8 8 8 8 8 0 8 0 8 8 0 8 8 0 8 8 0 8 0 0 8 8 0 8 8 
93 89 85 79 75 68 52 38 26 17 8 8 8 8 8 8 8 8 8 12 8 8 12 8 8 8 0 8 8 8 0 8 8 8 8 8 8 0 8 0 8 0 8 8 8 0 8 8 0 8 8 0 8 8 0 8 0 8 0 8 8 8 8 0 8 8 0 8 0 8 8 8 8 8 8 8 0 8 8 8 8 8 8 8 8 8 8 0 8 0 8 8 8 0 8 8 8 8 8 8 0 8 0 8 0 8 8 0 8 0 8 8 0 8 8 8 8 8 8 0 8 0 0 8 0 0 8 8 8 8 0 8 0 8 8 0 8 0 8 8 0 8 8 8 8 8 8 8 8 0 8 8 0 8 8 8 0 8 8 8 
85 79 75 63 52 36 26 17 17 8 8 8 8 8 8 8 8 8 8 8 12 8 12 8 8 8 8 8 0 8 8 0 0 8 8 8 8 0 8 8 8 8 8 8 8 8 8 8 8 0 8 8 8 8 8 8 0 8 0 8 8 8 8 8 0 8 8 8 8 8 8 8 8 8 8 8 8 0 8 8 0 8 8 8 0 8 0 8 8 8 0 8 0 8 0 8 0 8 12 8 8 0 8 0 0 8 8 8 8 8 8 0 8 8 8 0 8 8 8 8 8 8 0 8 8 0 8 8 8 8 8 0 8 0 0 8 0 8 0 8 0 8 8 8 8 8 8 8 0 8 8 0 8 8 0 8 8 8 8 8 
71 68 60 37 35 17 6 8 8 8 8 8 8 0 8 8 8 8 12 8 12 8 8 8 8 8 8 8 8 8 8 8 8 8 8 8 0 8 0 8 0 8 8 0 8 8 0 8 0 8 8 0 8 8 8 8 0 8 8 8 8 8 0 8 8 0 8 0 8 0 8 0 8 0 8 8 0 8 8 0 8 8 8 8 8 0 8 0 8 8 8 8 8 8 8 0 8 8 8 8 0 8 8 8 8 8 8 8 8 8 8 8 8 8 0 8 0 8 8 0 8 8 8 0 8 8 8 8 8 8 0 8 8 8 8 8 8 8 8 0 8 0 8 8 8 0 0 8 8 8 8 8 8 8 8 0 0 8 0 8 
52 42 29 26 10 10 8 8 8 8 8 8 8 8 8 8 8 8 8 12 8 12 8 8 8 12 0 8 0 8 0 8 0 8 8 8 8 0 8 0 8 0 0 8 0 0 8 0 8 8 8 8 8 0 8 8 8 8 8 0 8 0 8 8 8 8 8 8 0 8 0 8 0 8 0 8 8 8 0 8 0 8 8 8 8 0 8 8 8 8 8 8 8 8 8 8 8 8 0 0 8 8 8 12 8 8 0 8 8 8 8 8 8 8 8 0 0 8 0 8 8 0 8 8 8 8 8 8 0 8 8 8 8 8 8 8 8 8 8 8 8 8 8 8 0 0 0 8 8 0 8 0 8 8 8 8 0 8 0 8 
29 8 10 10 8 8 8 8 8 8 8 0 8 8 8 8 8 8 8 8 8 12 8 8 0 8 8 0 8 8 0 8 0 8 8 0 8 8 0 8 8 8 8 8 8 8 8 8 0 8 8 8 0 8 8 8 8 8 8 0 8 0 8 8 8 8 8 8 8 8 8 8 8 8 0 8 8 8 8 8 8 0 8 0 8 0 8 8 8 8 8 8 8 0 8 0 8 8 8 8 8 0 8 0 8 0 8 8 8 8 0 8 8 8 8 8 0 0 8 8 8 8 8 8 0 8 8 0 8 0 8 0 8 0 8 8 0 8 0 8 8 0 8 8 0 8 0 8 0 8 0 8 8 8 0 8 8 8 0 8 
10 10 8 10 8 8 8 8 8 8 8 8 0 0 8 8 8 8 12 8 12 8 8 0 8 0 8 0 8 0 8 0 8 8 8 8 0 8 0 8 8 0 8 8 8 8 8 8 8 0 8 8 8 0 8 0 8 8 0 8 8 8 8 8 8 8 0 8 8 0 8 8 8 0 8 8 8 8 8 0 8 0 8 0 8 0 8 8 8 0 0 8 0 8 0 8 0 8 8 0 8 8 0 8 8 8 0 8 8 8 0 0 8 0 8 8 8 0 8 8 8 8 8 0 8 8 0 0 8 8 8 8 0 8 8 0 8 8 8 0 8 8 8 8 8 0 8 8 8 0 8 8 8 8 0 8 8 8 8 8 
8 8 8 8 8 8 0 8 8 8 8 8 0 8 0 8 8 8 0 8 0 12 8 8 8 8 0 8 0 8 8 8 0 8 0 8 8 0 8 8 0 8 8 8 0 8 8 8 8 8 0 8 0 8 0 8 8 8 8 8 8 8 8 8 0 8 8 0 8 0 8 0 8 8 8 8 8 0 8 0 8 0 8 0 8 8 0 8 8 8 8 8 8 8 8 8 8 8 0 8 0 8 0 8 8 8 0 8 0 8 8 0 8 8 8 0 8 8 8 8 8 8 8 8 8 0 8 0 8 0 8 8 8 8 0 8 8 0 8 8 8 0 8 8 8 8 8 0 8 8 8 8 0 8 8 0 0 8 8 8 
8 8 8 0 8 8 0 8 0 8 0 8 8 8 8 8 8 0 8 0 8 0 8 8 8 8 8 8 8 8 8 8 0 8 8 8 0 8 0 8 8 8 8 8 8 8 8 8 8 8 0 8 8 8 8 0 0 8 8 8 8 8 8 0 8 0 8 8 8 0 8 8 0 8 0 8 0 0 0 8 8 0 0 8 0 8 8 8 8 8 8 8 8 8 8 8 8 8 8 8 8 8 8 8 0 8 0 8 0 8 8 8 8 8 0 8 0 8 8 8 8 0 8 8 8 8 0 8 8 8 0 8 8 8 8 0 0 8 8 8 8 8 0 8 8 8 8 8 8 8 8 8 8 0 8 0 0 8 8 8 
8 8 8 8 8 12 0 8 0 8 0 8 8 8 8 8 8 8 8 8 8 8 0 8 8 8 8 0 8 8 0 8 8 8 0 8 8 8 8 8 8 8 8 8 8 0 8 0 8 8 0 8 8 8 8 0 8 8 8 8 8 8 0 8 0 8 8 0 8 8 0 8 8 0 8 8 8 8 0 8 8 0 8 8 8 8 8 0 8 0 8 0 8 0 8 8 8 0 8 8 8 0 8 8 8 8 0 8 0 8 8 0 8 8 0 8 8 8 8 0 8 8 8 8 8 0 8 8 0 8 8 8 8 0 8 0 8 0 8 8 8 8 8 0 8 8 0 8 0 8 8 8 8 8 8 8 0 8 0 8 
0 8 8 8 12 0 12 0 8 8 8 8 8 8 8 0 8 8 8 8 8 0 8 8 8 0 8 8 8 8 8 0 8 0 8 0 8 0 8 8 8 8 8 8 8 8 0 8 8 0 8 0 8 8 8 8 0 8 8 8 8 0 8 8 8 0 8 0 8 8 8 8 0 8 8 8 8 8 8 8 8 8 0 8 8 0 8 8 8 8 8 0 8 8 8 8 8 8 0 8 8 8 8 8 0 8 8 8 8 0 8 8 8 8 8 8 8 0 8 0 8 0 8 8 0 8 0 8 8 8 0 8 8 8 0 8 8 8 8 8 8 0 8 8 8 8 8 8 8 8 8 0 8 8 8 8 8 0 8 0 
8 8 8 8 0 8 8 8 0 8 0 8 0 8 0 8 0 12 8 0 8 8 0 8 8 8 0 8 8 0 8 8 8 8 8 8 8 8 0 8 8 8 8 8 0 8 8 8 0 8 8 8 0 8 0 8 0 8 0 8 8 8 0 8 8 8 0 8 0 8 8 0 8 8 0 8 8 0 12 8 8 8 8 8 8 8 0 8 0 8 8 8 0 8 8 8 8 8 8 0 8 0 8 8 8 0 8 8 8 8 0 8 8 0 8 8 8 0 8 0 8 8 8 8 8 0 8 8 8 8 8 8 8 8 8 0 8 8 8 8 0 8 8 0 8 8 8 0 8 0 8 0 8 8 8 8 8 0 8 8 
8 8 8 0 8 8 0 8 8 0 8 0 8 8 8 0 8 8 0 8 8 8 8 8 0 8 8 0 8 8 0 8 0 8 0 8 8 8 8 0 0 0 0 0 8 0 0 8 8 8 8 8 8 0 8 0 8 8 8 8 8 8 8 0 8 0 8 0 8 8 8 8 0 8 8 0 0 8 0 8 8 8 8 8 0 8 8 8 0 8 0 0 8 8 8 8 10 12 8 8 0 8 8 8 8 8 0 8 0 8 0 8 0 8 0 0 0 8 0 8 8 8 8 8 8 0 8 8 8 8 0 8 0 8 8 8 0 8 8 0 8 8 8 8 8 0 8 8 0 8 0 8 8 0 8 8 8 0 8 8 
8 0 8 8 8 0 8 8 8 8 8 8 8 8 8 8 0 8 0 8 0 8 8 0 8 0 8 0 8 0 8 8 8 0 8 8 8 0 8 8 0 8 0 8 8 8 8 0 8 8 8 8 0 8 0 8 0 8 8 8 8 0 8 0 8 8 0 8 0 8 8 0 8 8 8 8 0 0 8 8 8 8 8 8 8 0 8 8 8 8 8 0 0 8 8 12 8 8 0 8 8 8 0 8 8 8 8 8 8 8 8 8 8 0 8 8 8 0 8 0 8 8 8 8 0 8 0 8 8 8 8 8 0 8 0 8 8 0 8 8 8 0 8 8 0 8 8 8 8 0 8 8 0 8 8 0 8 8 0 8 
8 8 8 8 8 8 8 8 12 0 8 0 8 8 0 8 8 0 8 0 8 8 8 8 0 8 0 8 8 8 0 8 0 8 8 8 8 8 8 8 8 8 8 8 8 0 8 8 8 8 8 8 0 0 8 8 8 0 8 8 8 8 0 8 0 8 8 8 8 0 8 8 8 8 0 8 8 8 8 8 8 8 8 0 8 8 8 8 8 8 0 8 8 0 8 8 8 8 8 8 8 8 8 0 8 0 8 8 8 8 8 8 8 8 8 8 8 8 8 8 0 8 0 8 8 8 8 8 8 0 8 0 8 8 8 8 8 8 0 8 8 8 8 8 8 8 8 8 8 8 0 8 8 0 8 8 8 0 8 8 
0 8 0 8 8 10 8 8 8 0 8 8 8 0 8 0 8 0 8 8 8 8 0 8 8 8 8 0 8 8 0 8 8 8 8 8 8 8 8 8 8 8 0 8 0 8 0 0 0 8 8 8 8 0 8 8 8 0 8 8 8 0 8 8 0 8 0 8 8 0 0 8 0 8 0 0 8 8 8 0 8 8 8 8 0 8 8 0 8 8 8 8 8 8 8 8 8 8 0 8 0 8 8 8 8 8 0 8 0 8 0 8 8 0 8 0 8 8 8 8 8 8 8 8 8 8 8 8 8 8 0 8 8 8 8 0 8 8 8 0 8 8 8 8 8 8 8 8 8 8 8 0 8 8 0 8 0 8 8 8 
8 0 8 8 8 8 8 0 8 8 8 8 8 8 8 0 8 0 8 8 0 8 0 8 0 8 8 8 0 8 8 8 8 0 8 0 8 0 0 8 0 8 8 8 8 8 8 0 8 8 8 8 8 8 8 0 8 8 8 0 8 8 8 8 8 0 8 0 8 8 8 0 8 0 8 8 0 8 8 8 8 0 8 8 8 0 8 0 8 8 8 8 8 8 8 0 8 8 0 0 8 8 8 8 8 8 8 0 8 8 8 0 8 8 8 8 8 8 8 0 8 0 8 8 8 8 8 8 0 8 8 8 8 8 8 8 0 8 0 8 8 8 0 8 8 8 8 8 8 0 8 0 8 8 8 8 8 8 8 8 
8 8 0 8 8 8 8 8 8 8 8 8 8 0 0 8 0 8 8 8 8 0 8 8 8 0 8 8 8 8 8 8 0 8 8 8 8 8 8 8 8 0 8 8 8 0 8 0 8 0 0 8 8 8 0 8 0 8 8 8 8 8 8 8 0 8 0 8 0 8 8 8 8 8 8 0 8 0 8 8 8 8 0 8 0 8 0 8 0 8 0 8 0 0 8 8 0 8 8 8 8 8 8 0 8 0 8 8 8 0 8 8 0 8 8 8 8 0 8 8 8 0 8 0 8 8 8 8 8 0 8 8 8 8 8 8 8 0 8 8 8 8 8 8 8 8 8 0 8 0 8 8 8 8 0 0 0 8 0 8 
8 0 8 0 8 0 8 8 8 8 8 0 8 0 8 8 8 8 8 8 8 8 0 8 0 8 8 8 8 8 8 0 8 8 8 0 8 8 12 8 0 8 8 8 8 8 0 8 0 8 8 8 8 0 8 8 8 8 8 8 0 8 8 8 8 0 8 8 8 8 0 0 8 8 8 8 8 0 0 8 8 8 8 0 8 8 8 8 8 0 8 0 8 8 0 8 0 8 0 8 0 8 8 8 0 8 8 8 8 8 0 8 8 0 8 8 0 8 0 8 8 8 8 0 0 8 8 0 8 8 8 8 8 8 8 0 8 8 8 8 8 8 8 8 8 8 8 8 8 8 0 8 8 8 0 8 0 8 8 8 
8 8 8 8 8 0 8 8 8 8 0 8 0 8 0 8 8 8 8 8 8 8 8 0 8 8 0 8 0 0 8 0 8 0 8 0 8 0 8 0 8 8 8 8 8 8 8 8 8 8 8 8 8 8 8 8 8 0 8 0 8 8 0 8 8 8 8 0 8 0 8 0 0 0 8 8 8 8 8 0 8 0 8 8 0 8 8 0 8 8 8 8 8 8 8 8 8 0 8 0 8 0 8 8 8 8 8 8 8 0 8 8 0 8 8 0 8 0 8 0 8 8 8 0 8 8 0 8 0 8 8 8 8 8 8 8 0 8 0 8 8 8 0 8 0 8 8 8 8 8 8 0 0 8 8 8 8 8 8 8 
8 8 8 8 0 8 0 8 8 8 8 0 8 0 8 0 8 0 8 8 0 8 0 8 0 8 0 8 8 0 8 8 8 8 0 8 0 0 0 8 8 0 8 8 8 8 8 8 0 8 0 8 8 8 8 0 8 8 0 8 8 8 8 0 8 0 8 0 8 8 0 8 8 0 8 8 8 8 8 8 0 8 0 8 8 8 8 8 8 8 8 8 0 8 8 8 8 8 0 8 8 8 0 8 0 8 8 8 8 8 8 8 8 8 0 8 8 8 8 8 8 8 8 8 8 8 8 0 0 0 8 8 8 8 8 8 8 8 8 8 8 8 8 8 8 0 8 8 12 8 8 8 0 8 8 8 0 8 8 8 
8 8 8 8 8 0 8 0 8 8 8 8 0 8 0 8 8 0 8 0 8 8 8 8 8 8 8 8 8 8 8 8 8 8 8 8 8 8 8 8 8 8 0 8 0 8 8 8 8 0 8 0 8 0 0 8 0 8 8 0 8 0 8 8 0 8 0 8 0 8 8 0 8 8 8 8 0 0 8 8 8 8 8 0 8 8 0 8 8 8 0 8 0 8 0 8 0 8 8 8 8 0 8 0 8 0 8 0 8 8 0 8 8 0 8 0 8 8 8 8 8 0 8 8 8 8 0 8 0 0 8 8 8 8 8 8 8 8 8 8 8 8 8 8 8 8 12 0 0 8 8 8 8 0 0 8 0 8 0 8 
8 8 8 8 8 8 0 8 0 8 8 8 8 8 8 8 0 8 0 8 0 8 8 8 8 8 8 8 0 8 8 0 8 8 8 8 0 8 8 8 8 8 0 8 8 0 8 8 0 8 8 8 0 8 0 8 8 0 8 8 0 8 0 0 8 0 8 8 8 0 8 8 8 8 0 8 0 8 0 8 8 8 8 8 8 8 8 0 8 0 8 0 8 8 8 8 8 8 8 8 8 0 8 0 8 0 8 8 8 0 8 8 0 8 8 8 8 8 8 0 8 8 8 8 8 8 8 0 8 0 8 8 8 8 8 0 8 8 8 8 8 12 8 12 8 12 8 8 0 8 8 8 0 8 0 8 0 0 8 0 
8 0 8 8 8 8 8 0 8 8 8 8 8 8 8 8 8 8 8 8 8 8 8 0 8 0 8 8 8 0 8 8 8 0 8 0 8 8 8 8 8 0 8 0 8 0 8 8 8 0 8 8 8 8 8 0 8 8 8 0 8 0 8 0 8 8 0 8 8 8 0 0 0 8 0 8 8 8 8 0 0 8 0 8 8 0 8 0 8 8 8 8 8 8 8 8 8 8 8 8 0 8 0 8 0 8 8 0 8 8 8 8 8 8 8 8 8 0 8 0 8 8 8 0 8 8 0 8 0 8 8 8 0 8 8 8 8 8 8 0 8 0 8 0 8 0 8 8 8 8 0 8 0 8 8 8 8 8 8 8 
8 8 8 8 8 0 8 8 0 8 8 8 8 0 8 8 8 0 8 0 0 0 8 8 8 8 0 8 8 8 8 8 8 8 8 8 8 0 8 8 0 8 8 8 0 8 8 8 0 8 0 8 8 8 0 8 0 8 8 8 8 8 8 8 0 8 8 0 8 8 8 8 8 0 8 8 8 8 8 8 8 0 8 8 0 8 8 8 0 8 8 8 0 8 8 8 8 8 8 8 8 8 8 8 8 0 8 0 8 8 8 8 8 8 8 8 0 8 8 8 8 8 8 8 8 8 8 0 8 0 8 8 8 0 0 8 8 8 8 8 0 8 0 8 12 8 8 8 8 8 8 8 8 8 8 8 8 8 0 8 
8 8 0 8 8 0 8 8 8 0 0 8 8 0 8 0 8 0 8 0 8 0 0 8 8 8 8 0 8 8 0 8 8 0 8 8 0 8 8 8 8 0 8 0 8 0 8 12 8 8 0 8 8 8 8 8 8 8 0 8 0 8 0 8 8 0 8 8 8 8 8 0 8 8 8 8 8 0 8 0 8 8 8 0 8 0 8 0 8 8 8 0 8 8 8 0 8 8 0 8 8 8 8 8 8 0 8 0 8 0 8 8 8 8 8 8 8 0 8 0 8 8 0 8 8 0 8 8 8 8 0 8 0 8 8 8 8 8 8 8 0 8 8 0 8 8 0 8 8 8 8 8 12 8 8 8 8 8 8 0 
0 8 8 0 8 8 8 0 8 8 8 8 8 8 8 8 0 8 8 8 8 8 8 8 8 0 8 8 0 8 8 0 8 8 8 8 8 8 8 8 8 8 0 8 8 0 8 0 8 0 8 8 8 0 8 8 0 8 8 0 8 8 8 0 8 0 8 0 8 0 8 8 0 8 8 8 8 0 8 0 8 8 8 8 0 8 8 8 8 0 8 8 8 8 8 8 0 8 8 0 8 8 8 0 8 0 8 8 8 0 8 8 8 8 8 0 8 8 0 8 8 8 8 0 8 0 8 8 8 8 0 8 8 8 8 8 8 8 8 8 0 8 0 8 8 0 12 8 0 8 8 8 8 8 8 0 8 8 8 8 
0 8 0 8 8 0 8 8 8 8 8 8 8 8 8 8 8 8 8 8 8 8 8 0 8 8 8 8 8 8 8 8 0 8 8 8 8 8 8 8 8 0 8 8 8 8 8 8 0 8 0 0 8 0 8 0 8 8 8 8 8 8 8 8 0 8 8 8 8 8 0 8 8 0 8 8 8 8 8 8 0 8 8 8 0 8 0 8 8 8 0 8 8 8 8 8 8 0 8 0 8 8 8 0 8 0 8 0 8 0 8 8 8 0 8 8 0 8 8 0 8 0 8 8 0 8 0 8 8 8 8 0 8 8 8 0 8 0 8 8 8 0 8 0 8 8 0 8 8 0 8 8 8 8 0 8 8 8 0 8 
8 8 8 0 8 8 8 8 0 8 0 0 0 0 8 8 8 0 8 0 8 0 8 8 0 8 8 8 8 8 8 8 0 8 8 8 0 8 0 8 0 8 0 0 8 8 0 8 8 0 8 0 8 8 8 0 8 8 8 8 8 8 0 8 8 8 8 8 8 8 8 0 8 0 8 8 8 8 8 0 8 0 8 0 8 8 8 8 8 0 8 8 8 8 8 8 8 8 0 8 8 8 8 8 0 8 8 8 0 8 8 8 8 8 8 0 8 0 8 0 8 8 8 8 8 8 8 0 8 0 8 8 0 8 8 0 0 0 8 8 8 8 8 0 8 8 8 8 0 8 8 8 8 8 8 0 8 0 8 8 
8 8 8 0 8 0 8 8 8 8 8 0 8 0 8 8 8 8 8 0 0 8 0 8 8 0 8 8 8 8 8 8 8 0 8 0 8 8 8 0 8 0 8 0 8 8 0 8 0 8 0 8 8 8 0 8 8 8 8 8 8 0 8 8 8 8 0 8 8 0 8 8 0 0 0 8 0 8 8 8 8 0 8 8 8 8 8 8 8 8 0 8 0 8 8 8 8 8 0 8 8 8 8 8 8 0 8 8 8 0 8 0 8 8 8 8 0 8 0 8 0 8 0 8 8 8 8 0 0 8 8 0 8 8 0 8 0 8 0 8 8 0 8 0 8 8 8 8 8 0 8 8 8 8 8 0 8 8 0 8 
8 8 8 8 0 8 0 8 8 8 8 0 8 0 8 8 8 8 8 8 0 8 8 0 8 8 0 8 8 8 8 8 8 0 0 8 0 0 8 8 8 8 8 8 8 8 8 8 8 0 8 0 0 8 0 0 8 8 0 8 8 8 0 8 8 0 8 8 8 8 0 8 0 8 0 8 8 8 8 8 8 8 0 8 8 0 8 0 8 8 8 0 8 0 0 8 8 8 8 8 8 8 8 8 0 8 8 8 0 8 8 8 8 8 8 0 8 0 8 0 8 8 8 0 8 8 8 8 0 8 8 8 8 0 8 8 8 8 8 8 0 8 0 8 8 8 8 0 8 8 8 8 8 8 8 8 0 8 0 8 
8 8 8 8 0 0 8 0 8 8 8 8 8 8 8 8 8 8 8 8 8 8 8 8 8 8 8 8 8 8 8 8 8 0 0 0 8 8 8 8 8 8 8 0 8 0 8 8 8 8 0 8 8 0 8 0 8 8 8 0 8 8 8 8 8 8 8 8 8 8 8 0 8 8 0 0 8 8 12 0 8 0 8 8 8 8 8 0 0 12 8 0 0 0 0 8 8 8 8 8 8 8 0 8 8 8 8 8 8 8 8 8 8 8 8 8 0 8 0 8 0 8 0 8 0 0 8 8 8 8 8 8 8 8 8 8 8 8 8 0 8 0 0 8 0 8 12 8 8 8 8 8 8 8 8 8 0 8 0 8 
8 8 0 8 8 0 0 8 0 8 0 8 8 8 8 8 0 8 8 0 0 8 8 8 8 8 8 8 8 8 0 8 8 8 8 8 0 8 8 8 8 8 0 8 8 8 0 8 8 8 8 0 8 8 8 8 0 8 8 8 0 8 0 8 0 8 0 8 8 8 8 8 0 8 8 0 8 0 8 8 8 8 8 8 8 0 8 0 0 8 0 8 0 8 0 0 8 0 8 8 8 8 8 8 8 0 8 8 8 0 0 8 8 0 8 0 8 0 8 8 8 0 8 0 8 8 0 8 8 0 8 8 8 8 8 8 8 8 8 8 8 8 8 0 8 8 8 8 8 8 8 8 8 8 8 8 0 0 8 0 
0 8 0 8 0 8 0 8 0 8 0 8 0 8 0 8 8 8 0 8 0 0 8 8 8 0 8 8 8 8 8 0 0 8 0 8 8 0 8 8 8 0 8 8 8 8 8 8 0 8 8 0 8 8 12 8 8 0 8 8 8 0 8 0 0 8 8 8 8 8 8 0 8 0 0 8 8 8 8 8 8 0 8 0 8 8 0 8 0 8 0 0 8 8 8 8 0 8 8 8 8 8 0 8 0 8 8 8 8 8 8 0 8 0 8 0 0 8 8 8 8 8 0 8 8 8 8 0 8 8 8 8 8 8 8 8 0 8 8 8 8 8 8 8 8 8 0 8 0 8 8 8 8 8 8 8 8 0 8 0 
8 8 8 0 8 8 0 0 8 0 8 0 8 8 8 0 8 8 0 8 0 8 8 8 8 8 0 8 8 8 8 8 0 8 8 0 8 0 8 8 8 8 0 0 8 8 0 8 0 8 8 8 8 8 8 8 8 8 8 8 8 8 8 8 8 8 8 8 8 8 8 0 0 8 8 0 8 8 8 8 8 8 8 8 8 8 12 8 8 8 8 8 8 8 8 8 8 0 8 0 8 8 8 0 8 8 8 8 8 8 8 0 8 8 0 8 8 8 8 8 8 8 0 8 8 8 8 8 0 8 8 8 8 8 0 8 8 8 0 8 8 8 8 8 0 8 0 8 8 8 8 8 8 0 8 8 8 8 8 8 
8 8 8 8 0 8 0 8 0 8 0 8 8 8 8 0 8 8 0 8 0 8 8 8 8 8 8 8 0 0 0 8 8 0 8 8 8 8 8 8 0 8 0 8 0 8 8 8 0 8 8 0 8 8 8 8 8 0 8 8 0 8 8 8 0 8 8 8 8 8 0 8 8 0 8 8 8 0 8 0 8 0 8 8 12 8 8 8 0 8 8 0 8 8 8 8 8 8 8 8 8 8 8 8 0 8 0 8 8 8 8 8 0 8 8 0 8 8 8 0 0 8 8 8 8 8 8 8 8 8 8 8 0 8 8 0 8 0 8 0 8 8 8 8 8 0 8 0 8 8 8 8 8 8 8 0 0 0 8 8 
0 8 8 0 8 0 8 8 8 0 8 8 8 0 8 8 0 8 8 8 8 0 8 8 8 8 8 0 8 8 0 8 8 8 8 0 8 0 8 0 8 0 8 0 8 0 8 0 8 8 8 8 8 0 8 0 8 8 0 8 0 8 8 8 8 8 8 8 8 8 8 8 0 8 8 8 0 8 0 8 0 0 0 8 8 8 0 8 0 8 8 8 8 8 8 8 0 0 8 8 0 8 8 8 8 0 8 8 8 8 8 8 8 8 0 8 8 0 8 8 8 0 0 8 8 8 0 8 0 8 8 0 8 0 8 0 8 8 0 8 8 8 0 8 8 0 8 8 8 0 8 8 8 8 8 8 0 8 0 8 
8 8 8 0 8 8 8 8 8 8 8 8 8 8 0 8 8 0 8 8 8 8 0 0 0 0 8 8 8 8 8 8 0 8 8 8 0 8 0 8 8 8 0 8 0 8 8 8 8 0 8 8 0 8 8 8 8 0 8 0 8 0 8 8 8 8 0 8 0 8 8 8 8 8 8 8 8 0 8 0 8 8 8 8 8 8 8 0 8 0 8 8 8 8 8 8 8 0 8 0 8 0 8 0 0 8 0 8 0 8 8 8 8 8 8 0 0 8 8 8 8 8 0 8 0 8 0 8 0 8 0 8 8 0 8 0 8 0 8 8 0 8 8 8 0 8 0 0 8 8 8 8 8 8 8 8 8 8 8 8 
8 8 0 8 0 8 0 0 8 8 8 0 8 0 8 0 8 0 8 8 8 8 8 0 8 8 8 8 8 8 0 8 8 8 8 8 8 0 8 0 8 8 8 8 0 8 8 8 8 0 8 0 8 0 0 8 8 8 8 0 8 0 8 0 8 0 8 0 8 8 0 8 8 8 8 0 8 8 8 8 0 8 8 8 0 8 8 8 8 8 8 8 8 8 8 8 8 8 8 8 8 8 8 8 8 0 8 0 8 8 8 0 8 8 8 8 0 8 8 8 8 0 8 8 8 0 8 8 8 0 8 0 8 0 8 0 8 0 8 8 8 8 8 8 8 0 8 8 8 8 0 8 8 8 8 8 0 8 0 8 
0 8 0 8 8 8 8 0 8 0 8 8 8 0 8 8 0 8 0 8 12 8 8 8 8 0 8 0 8 0 8 0 8 8 8 0 8 8 8 8 0 8 8 8 8 0 8 8 8 0 8 8 8 0 8 0 8 8 8 8 8 8 0 0 8 8 0 8 0 8 0 8 0 8 8 8 8 8 8 0 8 8 8 0 8 0 8 0 8 8 0 0 8 8 8 8 8 0 8 8 8 8 0 8 0 8 8 8 8 8 8 8 8 8 8 8 8 8 8 0 0 8 8 8 8 8 8 8 8 8 8 8 0 8 8 8 0 8 8 8 8 0 8 0 8 0 0 8 8 8 8 8 8 8 8 8 0 8 8 8 
8 0 8 8 8 8 0 8 0 8 0 8 8 8 8 8 8 0 8 8 8 8 8 0 0 8 8 8 0 8 8 0 8 0 8 8 8 8 0 8 8 8 0 8 0 8 8 8 8 8 0 8 0 8 0 8 8 8 8 8 8 8 8 0 8 8 8 8 0 8 0 8 8 0 8 8 8 8 0 8 8 8 0 8 0 8 0 8 8 0 8 0 8 0 8 8 8 0 8 8 0 8 0 8 8 8 8 8 8 8 8 8 8 0 8 8 8 8 8 0 8 0 8 8 8 8 8 0 8 8 8 8 8 8 8 8 8 8 8 0 0 8 0 8 8 8 0 8 8 8 8 8 8 8 8 8 8 8 8 8 
8 0 8 8 8 8 8 8 8 0 8 0 8 0 8 8 8 8 0 0 8 8 8 8 0 8 0 8 8 8 8 8 8 8 0 8 8 8 8 0 12 8 0 8 0 8 0 8 8 0 8 0 8 8 8 8 8 12 8 0 8 8 8 8 8 8 8 8 8 0 8 0 8 8 0 8 8 0 8 8 0 8 8 8 8 0 8 8 8 8 8 8 0 8 0 8 0 8 8 0 8 0 8 8 8 8 8 8 8 8 8 8 0 8 8 8 8 8 0 8 8 8 8 8 8 8 0 8 8 8 8 0 8 0 8 8 8 8 8 8 8 0 8 8 8 8 8 8 0 8 0 0 8 8 8 8 8 8 8 0 
8 8 0 8 0 0 8 0 8 8 0 8 8 0 8 0 8 8 8 8 0 8 8 0 8 0 8 0 8 0 8 8 8 8 8 8 0 0 0 8 8 0 8 0 8 8 8 8 8 8 8 8 0 8 0 0 8 0 8 8 8 8 0 8 0 8 8 0 8 8 0 8 0 8 8 8 8 8 8 8 8 8 8 0 8 8 0 8 0 8 8 8 8 8 8 8 8 8 8 8 0 8 0 8 8 8 8 8 0 8 8 0 8 0 8 8 0 8 0 8 0 8 0 8 8 8 8 8 0 8 0 8 8 8 8 8 0 0 8 0 8 8 0 8 0 8 8 8 0 8 8 8 0 8 8 0 8 0 8 8 
8 8 8 0 8 0 8 0 8 0 8 0 8 0 8 0 8 0 8 8 8 8 8 0 8 8 8 0 8 0 0 8 8 8 8 0 8 8 0 8 8 8 8 8 8 8 8 8 0 8 8 8 12 8 8 0 8 8 0 8 8 8 8 0 8 0 8 0 8 8 8 8 8 8 8 8 8 8 8 8 8 8 8 8 8 8 8 8 8 0 8 0 8 8 8 8 8 8 0 8 8 8 8 8 8 8 8 8 8 0 8 8 0 8 8 8 8 8 8 8 8 8 8 0 8 0 8 0 8 0 8 8 8 8 8 8 0 8 0 8 0 8 8 0 8 8 8 8 8 0 8 0 8 0 8 0 8 8 0 8 
8 8 8 8 8 8 8 8 8 8 8 8 0 8 8 8 8 8 0 8 0 0 8 8 8 8 8 8 8 8 8 0 0 8 8 8 0 8 8 0 8 0 8 0 8 8 0 8 0 8 0 8 8 8 8 8 12 8 8 0 0 8 8 8 8 0 8 0 8 0 8 8 8 8 0 8 0 8 8 0 8 8 8 8 8 8 8 0 8 0 8 8 8 8 8 8 8 0 8 8 8 8 0 8 0 8 8 0 0 8 0 8 8 0 0 8 8 8 8 8 0 8 8 0 8 8 0 8 8 8 0 8 8 8 8 8 8 8 8 8 0 8 0 8 8 8 8 8 8 8 0 8 8 8 0 8 8 0 8 8 
8 0 8 0 8 8 8 8 0 8 0 8 8 8 8 8 8 0 8 0 8 0 8 8 8 8 8 0 8 8 0 8 0 8 8 8 8 8 8 8 8 0 8 8 8 8 8 0 8 0 8 0 8 8 8 8 8 8 8 0 8 0 8 8 8 0 8 8 8 8 8 0 8 8 8 0 8 8 0 8 8 8 8 0 8 8 0 8 8 8 0 8 8 8 8 0 8 8 0 8 8 8 8 0 8 0 8 0 0 0 8 0 8 0 0 8 0 0 8 0 8 0 8 0 8 0 8 8 0 0 8 0 0 8 0 8 8 8 8 8 0 8 8 8 8 0 8 0 0 8 8 0 8 8 8 8 8 8 0 8 
8 0 0 8 0 8 8 8 8 8 8 0 8 8 8 8 0 8 0 0 8 8 12 0 8 0 8 8 0 0 8 8 8 8 8 8 8 0 8 0 8 8 8 8 8 8 8 8 8 8 8 0 0 8 0 8 0 0 8 8 8 0 8 0 8 8 8 0 8 0 8 8 0 8 0 8 8 8 8 8 8 8 8 8 0 8 8 0 8 0 8 0 8 0 0 8 0 0 8 8 8 0 8 8 8 0 0 8 0 8 0 8 0 8 8 8 0 8 8 8 8 8 8 8 0 8 8 8 8 8 8 8 0 8 8 8 0 8 0 8 0 8 8 8 8 8 8 8 0 0 8 0 8 8 8 8 8 8 8 8 
0 8 8 0 8 0 8 8 8 0 8 8 0 8 0 8 0 8 0 8 8 8 8 0 8 0 8 0 8 8 0 8 8 8 8 8 8 8 0 8 0 8 8 8 8 0 8 0 8 8 8 8 0 8 0 8 0 0 8 8 8 8 0 0 0 8 8 8 0 8 0 8 0 8 8 8 0 8 8 0 8 8 0 8 8 0 8 8 8 8 0 8 0 8 0 0 8 0 8 0 8 8 8 0 8 8 0 8 8 0 8 0 8 8 8 0 8 8 0 8 8 8 8 0 8 8 8 8 8 0 0 8 8 8 8 0 8 0 8 8 8 0 8 8 0 8 8 0 8 8 0 8 8 8 8 8 8 0 8 8 
8 8 8 8 8 8 8 8 8 8 8 8 8 8 8 8 8 8 8 0 8 0 8 8 8 8 0 8 8 8 8 0 0 8 0 8 8 0 8 8 8 8 0 0 8 0 8 8 0 8 0 8 8 8 8 8 8 8 8 8 0 8 8 8 8 8 8 8 8 8 0 8 8 8 8 8 8 8 0 8 8 8 8 0 8 8 0 8 8 8 8 8 8 8 8 8 8 8 0 8 8 8 8 8 0 0 8 8 8 8 8 0 8 8 0 8 0 8 8 0 8 8 8 8 8 8 8 8 8 8 0 8 0 8 8 8 8 0 8 0 8 8 8 8 8 8 8 8 8 8 8 8 0 8 0 8 8 8 8 0 
0 0 8 8 0 8 8 0 0 0 8 0 8 8 8 8 0 8 8 8 0 8 0 8 0 8 8 0 8 0 8 0 8 0 8 0 8 8 8 0 8 0 8 8 8 8 8 8 0 8 8 8 8 0 8 8 8 8 8 0 8 0 0 8 0 8 0 8 0 8 8 0 8 8 8 8 8 0 8 0 0 8 0 8 0 8 0 8 0 8 8 0 8 8 8 8 8 8 8 0 0 8 8 8 8 8 8 8 8 8 0 8 8 8 0 8 0 8 0 8 8 0 8 8 8 0 8 8 0 8 8 8 8 8 8 8 8 8 8 8 8 0 8 0 8 8 8 8 0 8 0 8 8 8 8 8 8 8 8 8 
8 0 8 8 8 0 8 8 8 0 8 8 8 8 8 0 8 8 0 8 8 8 8 0 8 0 8 8 8 8 0 8 0 8 8 0 0 0 8 8 8 8 8 8 8 0 0 8 0 8 8 8 8 8 0 8 8 0 8 8 8 8 8 8 8 0 8 0 8 8 0 8 0 8 8 8 0 8 8 8 8 0 8 8 8 0 8 8 0 8 8 8 0 8 8 8 8 8 8 8 0 8 8 8 8 0 8 8 8 8 8 8 0 8 8 8 0 8 8 0 8 8 8 8 0 8 8 8 8 8 0 8 8 0 8 8 8 8 8 8 8 8 0 8 8 0 8 8 8 0 8 0 8 8 8 8 8 8 0 8 
8 0 8 8 8 8 8 8 8 8 8 0 8 0 8 8 8 8 8 0 8 8 8 8 8 8 12 8 8 8 0 0 8 0 8 0 8 0 8 0 8 8 8 8 8 8 8 8 8 8 8 0 8 0 8 8 0 0 8 8 8 8 8 0 8 8 8 8 8 8 8 8 8 0 8 0 8 8 8 8 8 8 0 8 8 8 8 8 8 8 0 8 8 0 8 8 8 8 8 0 8 0 8 8 8 0 0 0 8 8 8 8 8 8 8 8 0 0 8 0 8 8 8 0 8 8 0 8 8 0 8 8 8 8 8 8 8 8 0 8 8 0 8 0 8 8 8 0 8 8 8 8 8 8 8 8 0 8 8 8 
0 8 8 8 8 8 8 8 8 8 8 0 8 0 12 8 8 0 8 0 0 8 8 8 8 8 8 8 8 8 8 0 0 8 0 8 0 8 0 8 0 0 0 8 8 8 8 8 8 0 8 8 0 8 8 8 0 8 8 8 8 8 0 8 8 0 8 0 8 8 8 8 0 8 0 8 8 8 8 8 8 0 8 8 0 8 8 8 8 0 8 0 8 8 0 8 8 0 8 8 8 8 0 8 0 8 0 8 0 8 8 8 8 0 8 8 8 0 8 8 0 12 8 8 0 8 8 8 0 8 8 0 8 8 8 8 8 8 8 0 8 8 8 8 8 0 8 8 0 8 8 8 8 0 8 0 8 0 8 8 
8 0 8 0 8 8 0 8 0 8 8 0 8 0 8 8 8 8 8 0 8 8 8 8 8 8 8 8 8 8 8 8 0 8 0 8 0 0 8 8 8 8 8 8 0 8 0 8 8 8 0 8 8 8 8 8 8 8 8 8 0 8 8 0 8 8 0 0 8 8 8 0 8 8 8 0 8 8 8 8 8 8 8 8 8 8 8 8 0 8 8 0 8 0 8 8 0 8 8 0 8 0 8 0 8 8 0 8 0 8 8 0 8 8 0 8 8 8 0 12 8 8 0 8 8 0 8 8 8 0 8 8 8 8 8 8 0 8 8 8 0 8 0 8 8 8 0 8 8 8 8 0 8 0 8 0 8 8 8 0 
8 8 8 8 0 8 0 8 8 8 8 8 12 8 8 8 0 8 8 8 8 0 0 8 8 0 0 0 8 0 8 8 8 0 8 8 8 8 0 8 8 8 8 8 0 8 0 0 8 8 0 0 8 8 8 8 8 8 8 0 0 0 8 8 8 8 8 0 0 8 8 0 0 8 0 8 0 8 8 8 8 8 8 8 0 8 0 0 8 0 8 0 8 8 0 8 8 8 8 8 8 8 0 8 8 8 8 8 8 8 0 8 8 12 8 0 8 8 12 8 8 8 8 0 8 8 0 8 0 8 8 8 8 8 8 8 8 8 8 8 0 8 8 0 8 8 0 8 0 8 8 8 0 8 0 8 0 8 8 8 
8 8 0 8 0 8 0 8 8 8 8 0 8 8 8 8 8 8 8 0 8 8 8 8 8 8 0 8 0 8 8 8 8 8 8 8 8 0 8 0 8 8 0 8 8 8 8 8 8 8 0 8 0 8 8 0 8 8 0 8 8 0 8 0 8 8 8 8 8 0 8 8 0 8 8 8 8 0 8 0 8 8 8 8 8 0 8 0 8 0 8 0 8 0 8 8 8 8 8 8 8 8 8 0 8 8 0 8 8 0 8 8 0 8 8 8 0 8 8 8 0 8 0 8 8 0 8 8 8 0 8 8 8 8 8 8 8 8 8 0 8 0 8 8 0 8 0 8 8 8 0 8 0 8 0 0 8 8 0 8 
8 8 8 0 8 8 8 8 8 0 8 8 8 0 8 8 8 0 0 8 8 8 12 0 8 8 8 8 8 8 8 8 8 8 8 8 8 8 8 0 8 0 8 0 8 8 8 8 12 8 0 0 8 8 8 8 0 8 8 8 8 8 0 8 0 8 8 12 8 0 0 8 12 8 8 8 0 8 0 8 0 8 8 8 8 8 8 8 8 0 8 0 8 8 8 0 8 8 8 8 8 8 0 0 8 8 0 8 8 8 8 8 8 0 8 8 8 0 8 0 0 8 8 0 8 8 8 8 8 8 0 8 8 8 8 8 0 8 8 0 8 8 8 8 8 8 0 8 0 8 8 8 0 0 8 0 8 8 8 8 
0 8 8 8 8 8 0 8 0 8 0 8 8 0 8 0 8 0 8 0 8 8 8 8 0 8 8 0 8 8 8 8 8 8 8 8 8 0 8 8 8 8 8 8 0 8 8 0 8 0 8 8 8 8 0 0 8 0 8 8 8 0 8 8 8 8 8 8 0 8 0 8 8 8 8 0 8 8 8 0 8 8 8 8 0 8 8 8 8 0 0 8 8 8 0 8 8 0 0 8 0 8 8 0 8 8 8 0 8 8 8 8 0 8 8 8 8 8 8 8 8 8 8 0 8 8 8 0 8 0 8 8 0 8 8 8 8 8 8 8 0 8 0 8 0 8 8 8 8 8 8 0 8 8 8 8 8 8 8 8 
8 0 8 8 8 0 8 0 8 8 12 0 8 0 8 0 8 8 8 8 8 0 8 0 8 8 8 8 12 8 12 8 8 8 8 0 8 0 8 8 8 8 0 8 8 0 8 8 0 8 8 8 8 0 8 0 8 8 0 8 8 0 8 0 8 8 0 8 0 0 8 8 8 0 8 8 0 8 0 8 8 8 8 8 8 8 8 8 8 0 8 0 8 8 8 8 0 8 0 8 0 8 0 8 8 8 0 8 0 0 8 0 8 0 8 8 8 8 8 8 8 8 0 8 0 8 8 0 8 8 8 0 8 0 8 8 0 8 8 8 8 8 8 0 8 8 8 8 8 8 8 8 0 8 8 8 0 8 8 8 
8 0 8 8 8 0 8 8 8 0 8 8 8 8 8 12 0 8 8 8 0 8 8 8 0 8 8 8 8 8 8 8 8 0 8 8 8 0 0 8 8 8 0 0 0 8 8 8 8 0 8 0 8 8 8 0 0 8 8 0 8 8 8 8 8 8 0 8 8 8 8 0 8 0 8 0 8 8 8 8 8 8 8 8 0 8 0 8 8 0 0 8 8 12 8 0 8 8 0 8 8 8 8 8 8 8 8 0 8 8 8 8 8 8 8 8 0 8 8 8 0 8 8 0 8 8 0 8 8 8 8 0 8 8 8 8 8 8 8 8 8 0 8 8 0 8 0 8 8 12 0 8 8 8 8 8 8 8 8 0 
0 8 8 0 12 8 8 8 8 8 8 8 8 8 8 8 8 8 8 8 8 8 8 0 8 0 0 0 0 8 0 8 8 8 8 8 0 8 8 8 8 8 8 0 8 0 8 8 8 8 8 8 0 8 0 8 0 8 0 8 8 8 8 8 8 0 8 8 8 8 8 0 8 0 8 8 0 8 0 8 8 8 0 8 8 0 8 8 0 8 0 8 8 8 8 8 8 8 8 8 8 0 8 8 8 8 8 8 8 8 8 8 8 8 8 8 8 8 8 0 8 8 0 8 8 0 8 8 8 8 8 8 0 8 8 0 8 8 8 8 0 8 8 8 0 8 8 8 12 8 8 8 8 8 8 8 0 8 8 8 
8 0 8 8 8 0 8 8 8 8 8 8 8 0 12 8 8 8 8 12 0 12 8 8 8 8 8 8 8 0 8 8 8 8 8 8 8 8 8 8 0 8 8 8 8 0 8 8 8 8 0 8 0 8 8 8 0 8 0 8 0 8 8 8 0 8 8 8 8 8 0 8 0 8 0 8 8 0 8 8 8 8 8 0 8 8 8 8 8 0 8 8 8 8 0 8 8 8 8 8 8 8 8 0 8 8 8 8 8 8 8 8 8 8 8 8 8 8 0 8 8 8 8 8 0 8 8 8 8 0 8 0 8 0 8 8 8 8 8 8 8 0 8 8 8 8 8 8 8 8 8 8 8 8 0 8 8 8 0 8 
8 8 8 8 0 8 8 8 8 8 8 8 8 0 8 8 8 8 8 0 12 0 8 8 8 8 8 8 8 8 8 8 8 0 8 8 0 8 0 8 0 8 0 8 8 8 0 8 8 8 8 8 8 8 8 8 8 0 8 0 8 8 8 8 8 0 8 0 8 0 8 8 8 0 8 8 8 8 8 8 8 8 8 8 0 8 8 8 8 0 8 0 8 8 8 8 8 0 8 8 12 0 8 8 0 8 0 8 0 8 0 8 0 8 8 8 8 8 8 8 0 8 8 8 0 0 8 0 8 8 0 8 0 8 8 8 8 8 0 8 8 8 8 8 0 8 0 8 8 8 8 8 8 8 8 8 8 8 8 8 
8 8 0 8 8 0 8 8 8 8 8 8 8 8 8 8 0 8 8 8 0 8 8 8 8 8 0 8 0 8 8 8 8 0 8 0 8 0 8 0 0 8 8 8 8 8 8 8 0 8 8 8 8 8 8 8 0 8 8 8 8 8 8 8 0 8 0 8 0 8 8 8 8 0 8 8 8 8 0 8 8 8 8 8 8 0 8 0 8 8 8 8 8 0 8 0 8 8 8 0 8 8 0 8 8 0 8 8 8 0 8 8 8 8 8 0 8 8 8 8 8 0 8 8 8 8 0 8 0 8 0 8 8 8 0 8 8 8 8 8 0 8 0 8 0 8 8 8 0 8 0 8 8 8 0 8 8 8 8 8 
8 8 0 0 8 8 0 8 8 8 8 8 8 8 0 8 8 8 0 8 0 8 0 8 0 0 8 8 8 8 8 8 8 8 8 8 8 8 0 8 0 8 0 8 8 8 8 0 8 0 8 8 8 8 8 8 8 8 8 8 8 0 8 0 8 8 8 8 8 0 8 0 8 0 8 0 8 8 8 8 8 8 8 8 8 8 0 8 8 0 8 8 0 8 0 8 8 8 0 8 0 8 0 8 0 8 0 8 0 8 8 0 8 8 8 0 8 0 8 8 8 0 8 8 8 8 8 0 8 0 8 0 8 0 8 8 8 8 8 8 8 0 8 0 8 8 8 0 8 0 8 8 8 0 8 0 8 8 8 8 
8 8 0 8 0 8 8 8 8 8 8 8 8 8 8 0 8 8 8 0 8 8 8 0 8 8 8 8 0 8 8 8 8 8 8 8 8 8 8 8 8 0 8 8 8 8 0 8 0 8 8 8 8 8 8 8 8 8 8 8 8 8 0 8 0 0 8 8 8 8 8 8 0 8 0 8 8 0 8 8 8 8 8 8 0 8 8 8 8 8 8 0 8 8 8 0 8 8 0 8 0 8 8 8 0 8 0 8 8 0 8 0 8 0 8 8 0 8 8 8 8 8 8 8 8 8 0 8 0 8 8 8 8 8 0 8 8 0 8 8 8 0 8 8 0 8 8 8 0 8 8 0 8 8 0 8 8 8 0 8 
0 8 0 8 8 8 0 8 8 8 8 0 8 8 8 8 0 8 0 8 0 8 8 8 0 8 0 8 0 8 8 8 8 0 8 0 8 0 8 0 8 8 8 8 8 8 0 8 8 0 8 0 8 8 8 8 8 8 8 8 8 8 8 8 8 0 8 8 8 8 8 8 8 0 8 0 8 0 8 0 8 0 8 0 12 8 8 8 8 8 8 0 8 8 8 8 8 8 0 8 8 0 8 8 8 8 8 0 8 0 8 0 8 0 8 8 8 8 8 8 8 8 8 8 8 8 0 8 0 8 8 8 8 8 8 0 8 8 8 0 8 8 8 8 8 8 8 8 8 0 8 8 8 8 8 0 8 8 8 8 
0 8 0 8 8 8 8 0 8 0 8 8 0 8 8 12 8 8 8 8 8 8 8 0 8 0 8 0 12 8 8 0 0 0 0 8 8 8 8 8 8 8 8 8 8 8 8 8 8 8 0 8 8 8 8 0 8 8 8 0 8 0 8 8 8 8 0 0 8 0 0 8 8 8 0 8 0 8 0 0 8 0 0 8 0 8 0 8 0 0 8 0 8 8 8 8 0 0 12 8 8 8 0 8 8 8 8 8 8 8 8 8 8 8 0 8 0 8 8 8 0 8 0 8 8 8 8 8 8 0 8 8 8 8 8 8 0 8 0 8 8 0 8 8 8 0 8 0 0 8 0 8 8 8 8 8 0 0 8 8 
8 8 8 8 8 8 8 8 0 8 0 0 8 12 8 8 8 0 8 8 8 0 8 0 8 0 8 8 0 8 0 8 0 8 0 8 0 8 8 8 8 8 8 8 8 8 8 8 8 8 0 8 8 8 0 8 8 8 8 8 0 8 0 8 8 8 8 0 8 0 8 0 8 8 8 8 8 8 0 8 0 0 8 0 8 0 12 0 8 8 0 8 0 8 8 0 8 8 8 8 0 8 0 8 0 8 0 8 0 8 0 8 8 8 8 8 8 0 8 8 8 8 0 8 8 8 8 8 8 0 8 8 8 8 8 8 8 0 8 8 8 8 8 8 8 0 0 8 0 0 8 0 8 8 8 8 8 0 8 8 
8 8 8 8 8 0 8 8 8 8 0 8 8 8 8 0 0 8 8 8 0 8 8 8 8 8 8 0 12 0 0 8 8 8 8 8 8 8 8 8 8 8 0 8 0 8 8 8 8 0 8 0 8 8 0 0 8 8 0 8 0 8 8 8 0 8 8 8 12 10 8 0 8 8 12 0 8 8 8 8 8 12 8 12 8 12 0 8 0 8 8 0 8 0 8 8 8 8 8 8 8 0 8 0 8 0 8 8 8 0 8 0 8 0 8 0 8 8 0 8 0 8 8 8 8 0 8 0 0 8 8 8 8 8 8 8 8 8 0 8 8 8 8 8 0 8 0 0 8 0 8 8 0 8 8 8 8 8 8 0 
8 8 8 8 0 8 8 8 8 8 0 0 8 8 8 0 8 0 8 8 8 0 8 8 8 8 8 0 0 8 0 12 0 12 8 8 8 0 0 8 0 8 0 0 8 0 8 8 0 8 0 8 8 8 8 8 0 8 8 8 8 8 8 0 8 0 8 8 8 8 8 0 0 8 0 12 0 8 8 8 8 8 12 8 8 8 8 0 0 0 8 0 8 0 0 8 8 8 0 8 0 8 8 8 0 8 8 8 8 8 8 8 8 8 8 8 0 8 8 8 8 0 8 8 8 0 8 0 8 8 8 8 8 0 8 8 0 8 8 0 8 8 0 0 8 0 8 0 0 8 0 8 8 8 8 8 0 8 8 8 
8 0 8 0 8 8 0 8 8 0 8 0 8 8 12 8 8 8 8 8 8 8 0 8 0 0 8 8 8 8 8 0 0 0 0 8 8 8 8 0 8 0 8 0 8 0 8 0 8 0 0 0 8 8 0 8 0 8 8 8 8 8 0 8 8 8 0 8 0 8 0 12 8 0 0 8 0 0 8 0 12 0 0 0 0 8 8 8 8 8 0 8 8 8 8 8 0 8 0 8 8 8 8 8 8 0 8 0 8 0 8 0 8 0 8 8 8 8 8 8 8 8 0 0 8 8 8 8 8 0 8 8 8 8 0 8 8 0 8 0 0 0 8 0 8 8 8 8 0 0 8 0 8 8 8 8 0 8 0 8 
0 8 0 8 8 8 0 8 8 8 8 8 0 8 8 8 12 8 8 8 0 8 8 0 0 8 0 12 8 12 8 8 8 0 8 8 8 0 8 0 8 8 8 8 8 8 0 8 8 8 0 8 0 8 8 0 8 0 8 0 8 0 8 0 8 8 8 0 0 0 8 8 8 0 0 8 0 8 8 0 0 0 8 0 8 8 8 8 8 8 8 12 10 12 8 8 8 8 8 0 8 8 0 8 8 8 0 8 0 8 0 8 0 8 0 8 0 8 8 8 8 8 8 0 8 8 8 8 8 0 8 8 8 8 8 8 0 8 0 8 8 8 0 8 8 8 8 0 8 0 8 8 0 8 8 8 8 0 8 8 
