P2
160 120
255
10 16 26 18 18 17 26 19 26 26 26 26 33 26 33 26 34 34 37 30 33 30 36 37 51 59 75 85 89 95 100 96 100 102 104 110 110 112 118 116 113 116 115 118 121 126 126 123 129 126 126 123 126 119 96 77 61 57 69 85 103 103 108 103 95 98 93 90 85 85 71 71 68 54 36 18 10 8 8 8 8 8 8 8 0 8 0 8 0 8 0 8 8 8 8 8 8 8 8 8 8 8 8 8 0 8 8 8 0 8 8 0 8 8 0 8 8 0 0 8 0 8 8 8 8 8 8 8 0 8 0 8 8 0 0 8 0 8 8 8 8 8 8 8 0 8 8 8 8 8 8 8 0 0 8 8 8 0 8 0 
16 10 18 17 26 18 18 26 18 26 26 26 26 33 26 33 29 34 33 30 29 37 33 37 59 72 78 87 93 97 93 92 102 102 107 110 112 118 116 116 116 116 118 121 120 126 126 129 126 129 121 126 120 96 69 61 59 69 85 95 103 105 103 103 93 96 90 85 82 77 71 68 52 37 26 8 8 8 8 0 8 8 8 8 8 0 8 8 0 0 8 8 0 8 0 8 8 8 8 8 8 8 8 8 8 0 8 0 8 8 8 8 0 8 0 8 0 8 0 8 0 8 0 8 8 0 8 8 0 8 0 8 8 8 0 8 8 8 8 8 8 8 0 8 8 0 0 8 0 8 0 8 0 8 8 8 8 8 0 8 
16 16 26 18 18 26 19 26 26 26 26 29 33 29 33 30 34 33 30 33 34 37 37 59 59 75 84 93 97 93 96 96 104 104 110 110 116 110 116 113 112 118 121 118 126 123 126 129 126 126 123 118 108 77 52 52 61 77 93 103 103 112 110 100 90 90 89 85 77 71 71 60 45 19 10 10 8 8 8 8 8 8 8 8 8 8 0 8 8 0 8 8 8 8 8 8 8 8 8 8 8 8 8 8 8 8 8 8 8 0 8 8 8 8 0 8 8 0 8 8 8 0 8 8 0 8 0 8 8 8 8 8 8 8 8 0 8 0 8 0 8 0 8 0 8 0 8 0 0 8 0 8 8 8 0 8 0 8 0 0 
16 16 18 18 26 18 26 19 26 26 26 26 29 26 34 33 30 36 33 29 34 37 51 52 68 85 89 95 93 97 96 100 104 110 112 112 115 116 115 116 118 118 121 121 126 126 126 126 126 123 123 108 85 61 52 61 75 90 99 108 110 100 104 95 85 85 85 79 72 68 61 37 26 17 6 8 8 8 8 0 0 8 0 8 0 8 8 8 8 8 0 8 8 8 0 8 0 8 8 8 8 8 0 8 0 8 8 8 8 8 0 8 0 8 8 0 8 8 8 8 8 8 8 8 8 8 0 8 0 8 8 0 8 0 8 8 8 0 8 0 8 8 8 8 0 8 0 8 0 8 0 8 8 0 8 0 8 0 8 0 
16 18 17 26 18 18 18 26 26 26 26 33 30 29 30 36 34 29 26 33 37 51 52 68 79 87 95 97 96 100 100 104 108 112 112 118 116 112 116 118 118 126 123 118 121 126 123 126 126 126 108 79 60 59 59 75 95 101 103 104 102 96 98 93 90 79 82 71 68 66 37 33 10 8 8 8 8 8 8 8 8 8 8 8 8 8 8 8 8 8 8 8 8 8 8 0 8 8 8 8 0 0 8 0 0 0 8 0 8 8 8 8 8 0 8 8 8 8 0 8 0 8 8 8 0 8 8 8 8 8 0 8 0 8 0 8 8 8 0 8 8 8 0 8 0 8 8 8 8 0 8 8 8 8 8 8 0 8 0 8 
16 18 18 26 18 17 26 18 26 26 28 30 28 34 33 30 37 33 34 33 51 45 66 68 89 89 93 96 101 100 104 108 108 112 116 116 118 115 118 118 118 126 126 121 121 126 123 126 123 108 95 68 59 60 75 87 99 103 104 101 98 93 93 90 85 79 78 71 61 37 33 10 10 8 0 8 8 8 8 8 0 8 8 8 8 0 0 0 0 0 8 8 8 8 0 8 0 8 0 0 8 8 8 8 8 8 8 0 8 0 8 8 0 8 8 8 8 8 8 0 8 0 8 0 8 8 0 8 8 8 0 8 8 0 8 0 8 0 8 8 8 8 8 0 8 8 8 0 8 8 0 8 0 8 8 0 8 8 8 0 
18 18 18 16 26 18 18 26 26 28 26 33 29 34 37 33 34 36 33 37 51 59 68 85 95 95 93 100 101 104 108 107 110 116 118 118 112 118 118 118 121 118 126 123 118 126 126 126 112 93 69 52 61 85 95 103 103 104 101 96 96 89 85 85 72 71 71 61 51 26 10 8 8 8 8 8 8 8 0 8 0 8 8 8 0 8 0 8 8 8 8 8 8 0 0 8 8 0 8 8 8 8 8 8 8 8 0 8 8 8 0 8 0 8 8 8 8 8 8 8 0 8 0 8 8 8 8 0 8 0 8 0 8 8 8 8 0 8 8 0 8 8 8 0 8 8 0 8 0 8 0 8 0 0 8 0 8 8 8 8 
16 18 17 18 18 26 19 26 26 26 28 30 34 30 34 33 33 34 42 51 52 68 85 89 99 93 97 102 104 108 107 112 110 112 118 118 118 118 121 118 121 121 126 126 126 126 123 112 95 65 61 61 77 95 105 108 103 104 98 93 90 85 85 82 78 71 60 37 29 10 8 8 8 8 8 8 8 0 8 0 8 0 8 0 8 8 8 8 8 0 8 0 0 8 0 8 0 8 8 0 8 8 8 8 8 8 8 8 8 8 0 8 8 8 8 8 8 0 8 0 8 0 8 8 8 8 8 0 8 0 8 8 0 8 8 8 8 8 8 8 8 0 8 8 0 8 0 8 8 8 8 0 8 8 0 8 0 0 8 0 
18 18 26 19 26 26 26 26 28 26 34 26 34 33 34 33 33 36 37 59 68 83 93 92 101 96 100 102 102 110 110 110 116 116 116 118 118 121 126 118 121 124 121 126 126 123 119 95 69 56 59 77 93 105 112 103 101 101 96 89 93 82 79 75 70 56 37 35 10 10 0 8 8 8 10 8 0 0 8 8 8 8 0 8 0 0 8 8 8 8 0 8 8 8 8 8 8 0 8 8 0 8 8 8 8 8 8 0 8 8 0 8 8 8 8 0 8 0 0 8 8 8 0 8 8 8 0 8 0 8 0 8 8 8 8 8 8 8 8 8 8 8 0 8 0 8 0 8 0 8 8 8 8 8 0 8 8 0 0 0 
18 26 18 26 19 26 26 26 26 33 30 33 26 34 33 33 33 37 59 66 77 85 93 93 100 96 102 104 110 110 113 116 113 118 118 116 118 118 121 126 121 126 126 126 123 108 101 79 61 61 71 95 101 103 104 101 100 96 93 90 85 77 72 70 52 37 36 11 8 10 8 8 8 8 8 8 0 8 8 8 8 8 8 8 8 0 8 0 8 0 8 0 8 8 8 8 0 8 8 0 8 0 8 8 8 0 8 0 8 0 8 0 8 0 8 0 0 0 8 8 0 8 8 0 8 0 8 0 8 8 8 0 8 8 8 8 8 8 8 8 8 0 8 0 8 0 8 0 8 8 8 0 8 0 8 0 0 0 0 0 
18 18 26 19 26 26 26 26 29 28 33 30 26 33 34 33 37 51 66 69 84 93 97 93 100 102 102 110 110 113 118 113 118 116 118 118 121 126 121 126 126 123 126 123 119 93 77 61 61 79 87 105 108 104 100 96 96 92 89 85 82 71 68 56 36 26 11 10 8 8 8 8 8 8 8 8 8 0 0 8 8 8 8 0 8 8 8 8 8 8 0 8 0 8 8 8 0 8 0 8 0 8 0 8 8 0 8 8 8 8 8 8 0 8 0 8 8 8 0 8 0 8 0 8 8 8 8 0 8 0 8 8 0 8 0 8 8 8 8 8 8 8 8 8 0 8 8 8 8 8 0 8 8 8 0 8 8 8 8 8 
18 26 18 26 26 26 33 29 33 29 34 33 29 33 33 37 42 59 69 85 93 89 101 100 102 102 107 110 110 113 118 118 118 118 121 121 121 121 126 121 126 126 123 119 104 77 65 59 71 89 103 104 108 101 96 102 96 85 82 79 75 63 56 45 19 10 8 10 8 8 8 8 8 0 8 8 8 8 0 8 8 0 8 0 0 8 8 8 8 8 8 8 8 0 8 0 8 0 8 0 8 8 0 0 0 8 8 8 8 8 8 0 8 0 8 8 8 8 0 8 0 8 8 0 8 8 0 8 8 8 0 8 8 8 0 8 0 8 8 0 8 8 0 8 0 8 0 8 0 8 0 8 0 0 8 0 8 8 8 8 
18 18 26 26 26 26 26 34 26 33 30 33 33 34 37 51 59 66 78 89 93 93 96 100 102 110 110 113 113 118 113 113 121 118 121 121 121 121 129 126 123 120 119 98 77 56 61 85 95 103 110 97 98 96 100 96 90 82 77 72 71 56 36 19 10 6 8 8 8 0 8 8 8 8 8 8 8 0 8 8 8 8 0 8 0 8 0 8 0 8 8 8 8 0 8 8 0 8 8 8 0 8 0 8 0 8 8 8 8 8 8 8 8 8 0 8 0 8 8 8 8 0 0 8 8 0 8 8 0 8 8 8 8 8 8 0 8 0 8 8 8 8 0 8 8 0 8 8 8 0 8 0 8 0 8 0 8 0 0 8 
26 18 26 26 26 26 33 29 34 26 33 29 33 42 51 48 66 75 84 93 93 100 100 100 108 110 113 110 118 116 118 113 118 121 126 121 123 121 126 126 120 126 104 82 61 61 69 90 99 105 101 101 101 96 96 89 85 79 75 71 56 37 29 10 6 8 8 8 8 8 0 8 0 8 0 8 8 8 8 8 8 8 8 0 8 0 8 0 8 0 8 0 8 0 8 8 8 0 8 0 8 8 0 8 8 0 8 8 8 8 0 8 0 8 8 8 8 8 8 0 8 8 8 0 8 0 8 0 8 8 0 8 8 8 8 8 8 8 0 8 8 0 8 0 8 8 8 0 8 8 8 8 0 8 0 8 0 8 0 0 
18 26 33 26 26 26 26 33 30 33 34 33 33 36 52 66 75 84 93 93 96 100 100 108 105 113 118 118 118 118 113 118 121 123 123 126 126 126 126 123 120 108 85 61 61 71 87 99 104 103 101 101 101 96 85 85 85 79 64 64 37 29 8 6 8 8 8 0 8 8 8 8 8 8 8 8 8 0 8 8 8 8 8 8 8 8 8 8 8 8 8 8 8 0 8 8 0 8 8 8 0 8 8 0 8 0 0 8 8 8 0 8 8 8 8 8 8 8 0 0 8 8 0 0 0 8 8 8 0 8 8 8 0 8 8 8 8 8 8 8 8 8 8 8 0 8 8 8 0 8 8 8 0 8 8 0 8 0 8 0 
26 26 26 26 26 33 29 33 33 29 33 37 45 47 59 69 85 87 97 93 100 100 108 107 110 115 118 113 118 118 118 118 121 126 120 121 126 129 123 112 104 91 63 57 69 90 99 104 110 100 93 101 93 89 85 79 79 71 56 37 29 8 10 8 8 8 8 8 8 12 12 8 12 8 8 8 8 8 0 8 8 8 8 0 8 8 8 8 0 8 0 8 0 8 0 0 8 0 8 0 8 8 8 8 0 8 0 0 8 8 0 8 0 8 0 8 0 8 0 0 8 8 0 8 0 0 8 8 8 8 0 8 8 8 0 8 0 8 8 0 8 8 0 8 8 0 8 8 8 8 8 8 0 0 8 0 8 8 8 8 
26 26 26 26 26 33 29 34 29 33 33 37 51 59 72 79 87 97 93 97 101 104 108 108 110 113 118 118 118 121 118 121 124 123 126 120 123 123 123 103 82 63 61 69 89 103 108 103 108 100 93 93 89 85 79 77 71 60 37 29 18 8 8 0 8 8 8 8 8 0 8 8 8 8 8 8 8 8 8 8 8 8 8 8 8 8 0 0 8 0 0 0 8 0 8 0 8 0 8 8 0 8 8 0 8 0 8 8 8 8 8 8 8 8 0 8 8 8 8 8 0 0 8 8 8 8 0 8 8 0 8 8 8 8 8 8 8 0 0 8 8 0 8 0 8 8 0 8 8 0 8 8 8 0 0 8 0 8 0 0 
26 26 17 26 33 33 33 34 33 29 36 37 59 69 85 87 97 95 100 101 100 108 108 110 110 116 118 113 118 121 121 124 123 126 126 123 126 123 103 82 63 57 69 89 110 104 103 103 101 96 93 90 85 85 78 71 60 37 29 10 6 8 8 8 12 8 0 12 0 0 8 0 8 8 8 8 8 8 8 8 0 8 8 8 8 8 0 8 0 8 0 8 0 8 0 8 0 8 0 8 8 8 0 8 8 8 8 8 0 8 8 8 8 8 8 8 8 8 8 0 8 0 8 8 8 8 8 0 8 8 8 0 8 8 8 0 8 0 8 0 8 8 0 8 0 8 8 8 0 8 8 0 0 0 8 0 8 0 8 8 
19 26 26 33 26 33 33 33 30 37 37 59 71 84 87 93 99 100 101 105 108 108 112 110 116 118 118 118 118 126 118 126 126 126 126 124 123 103 82 69 63 68 82 103 101 103 101 101 96 93 89 85 79 79 64 56 37 29 11 8 8 8 8 8 0 12 0 0 12 0 8 0 8 0 8 0 8 8 8 8 8 8 8 10 8 8 8 8 8 8 8 8 8 8 0 0 8 0 8 0 8 0 8 0 8 8 8 8 8 0 0 8 8 8 8 8 8 8 8 8 0 8 8 8 8 8 0 8 8 8 0 8 8 8 0 8 8 0 8 8 8 8 8 8 8 0 8 8 8 0 8 8 0 0 8 8 0 8 0 8 
26 26 26 33 33 33 29 33 37 51 51 68 79 89 93 93 96 100 101 108 108 112 116 116 116 116 118 118 121 126 123 126 126 126 123 112 103 87 63 57 77 87 93 108 103 101 101 98 93 85 84 79 71 68 56 37 26 11 8 6 8 8 8 8 8 0 0 12 0 8 0 8 0 8 0 0 0 8 8 0 8 8 8 8 8 8 8 8 8 8 8 8 8 8 0 8 0 8 0 8 0 8 0 8 8 8 8 0 0 0 8 0 8 0 8 8 8 8 0 8 8 8 8 0 8 8 8 0 8 8 8 0 8 8 8 8 0 8 8 0 8 8 8 0 8 8 0 8 8 8 8 8 0 0 8 8 8 8 0 8 
26 26 34 34 33 33 33 34 42 47 66 75 87 93 93 100 100 101 108 108 108 116 112 118 118 118 116 121 121 126 123 123 129 123 123 110 85 68 61 69 89 101 104 112 103 96 101 97 90 85 82 78 68 54 34 26 18 8 8 10 8 8 8 12 8 8 8 8 8 8 8 0 8 8 8 8 8 8 8 8 8 8 8 8 8 8 8 8 0 8 8 8 8 0 8 0 8 8 8 8 8 0 8 8 8 8 8 8 8 8 8 8 8 8 0 8 8 8 8 8 8 8 8 0 8 8 8 8 0 8 8 8 0 8 8 0 8 0 0 8 8 8 8 8 0 8 8 8 8 8 8 0 8 0 8 0 8 0 8 0 
34 34 34 34 34 30 33 37 51 59 69 87 89 100 101 102 104 110 112 111 108 119 116 118 118 121 121 123 129 126 126 129 123 123 108 77 63 68 75 95 103 108 105 101 104 100 93 90 85 79 78 64 54 37 18 11 10 8 8 8 8 8 8 8 8 8 8 0 8 8 8 8 8 8 0 8 0 8 8 8 8 8 8 8 8 8 8 0 8 0 0 8 0 8 0 8 0 8 8 8 8 8 0 8 8 8 8 0 8 8 8 8 0 8 8 0 8 0 8 8 8 8 0 8 8 8 8 8 8 0 8 0 8 8 8 0 8 0 8 0 0 8 8 0 8 8 0 8 0 8 0 8 8 8 8 0 8 0 8 8 
30 34 30 34 34 33 37 37 59 71 85 93 93 100 100 104 107 110 116 116 116 112 118 120 118 123 126 123 126 129 123 123 123 103 85 63 59 71 93 101 108 104 101 101 100 96 85 85 79 77 64 56 33 18 10 8 8 8 8 8 8 8 8 8 8 8 8 0 0 8 8 0 8 8 8 8 8 0 0 8 8 8 8 8 8 0 8 8 8 8 8 8 8 8 8 0 8 8 8 8 8 0 8 8 0 8 8 8 8 8 0 8 8 0 8 8 0 8 8 0 8 8 8 0 8 0 8 0 8 0 8 8 8 8 8 0 8 0 0 8 0 8 0 8 8 8 0 8 0 8 8 8 0 8 0 8 0 8 8 8 
29 33 34 33 34 37 37 66 71 85 89 95 93 100 101 102 108 110 110 116 118 119 116 118 123 126 126 126 123 126 123 123 103 82 65 63 75 87 100 103 101 101 100 100 96 93 85 79 77 64 56 29 18 10 8 8 8 8 8 8 8 8 8 8 0 8 8 8 8 8 8 8 0 8 0 8 0 8 0 8 8 8 0 8 8 0 8 0 8 8 8 8 8 8 0 8 8 0 8 8 0 8 8 0 8 0 8 8 8 8 8 8 8 8 0 8 8 8 0 8 0 0 8 8 0 8 0 8 8 8 8 8 8 8 8 0 8 0 8 0 8 0 8 8 8 8 0 8 8 8 8 8 8 8 8 0 8 8 0 8 
33 30 33 30 36 51 56 68 85 87 95 93 100 98 108 110 112 110 116 112 116 118 120 126 123 126 123 123 126 129 123 103 82 57 61 72 87 95 101 108 101 100 101 96 93 89 85 72 71 47 35 19 18 8 8 8 8 8 8 8 8 8 8 8 8 8 0 8 0 8 8 0 8 8 0 8 8 0 8 8 8 0 8 0 8 0 8 8 8 8 8 8 8 0 8 8 8 8 0 8 8 8 8 8 8 8 0 8 8 8 0 8 8 0 8 8 0 8 0 0 8 8 0 8 8 0 8 0 8 0 8 8 0 8 0 8 0 8 8 8 0 8 8 8 0 8 8 0 8 8 8 8 0 8 0 8 0 8 8 8 
34 33 34 36 37 56 68 85 87 95 93 101 100 104 112 116 115 116 113 116 118 118 126 123 126 123 126 126 126 123 103 82 72 72 77 90 95 101 104 104 104 101 96 93 85 79 71 68 47 36 19 6 10 8 8 8 8 8 8 8 0 8 8 8 8 8 8 0 0 8 8 0 8 8 8 8 8 8 8 8 8 8 0 8 0 0 8 8 8 8 0 8 0 8 8 8 8 0 8 8 8 8 8 0 8 8 0 8 8 0 8 8 8 8 8 8 8 8 8 0 8 0 8 8 8 8 0 8 8 8 0 8 8 8 8 8 8 8 8 8 8 0 8 0 0 0 8 8 8 8 8 8 0 8 8 8 8 0 8 0 
29 36 37 37 59 68 79 89 95 95 97 98 101 110 116 112 118 113 116 118 118 123 126 126 126 126 120 126 108 104 82 65 63 72 91 103 104 104 101 98 95 96 89 85 79 69 63 47 35 11 6 6 8 8 8 8 8 8 8 8 8 8 8 8 8 8 8 0 8 8 0 8 0 8 0 8 0 8 0 8 8 0 8 0 8 0 8 0 8 8 8 0 8 8 8 0 8 8 8 0 8 8 8 8 0 8 0 8 0 8 8 8 8 8 0 8 8 0 8 8 0 8 8 0 8 8 8 0 8 0 8 8 0 8 0 8 0 8 8 8 8 0 0 8 0 8 8 8 8 0 8 0 8 0 8 8 8 0 8 8 
34 36 37 52 61 78 87 93 95 101 101 101 108 112 118 110 116 116 121 118 121 126 126 126 126 126 126 120 104 87 69 63 71 87 103 108 108 104 98 93 96 93 85 79 75 71 54 35 11 6 6 8 6 8 8 8 8 8 8 8 0 8 0 8 0 8 0 8 0 8 8 0 8 8 0 8 8 0 8 8 8 8 8 8 0 8 8 8 0 0 8 8 0 8 8 8 0 8 0 8 0 8 8 8 0 8 0 8 0 8 0 8 8 0 8 8 0 8 8 8 8 8 8 8 8 0 8 8 8 8 0 8 8 0 8 0 8 8 8 8 0 8 0 8 8 8 8 8 8 8 0 8 0 8 8 0 8 0 8 0 
37 37 59 61 75 87 93 93 100 101 104 108 116 118 112 116 115 118 121 126 126 121 126 123 126 123 120 104 87 65 68 72 87 101 112 110 102 104 96 93 89 90 85 72 64 52 37 18 6 8 6 8 8 8 8 8 8 8 8 8 0 8 8 0 8 0 8 8 8 8 8 0 8 0 8 8 8 0 8 0 8 8 8 8 8 0 8 0 8 0 0 8 0 8 8 8 8 8 8 0 8 0 8 8 8 0 8 0 8 0 8 8 8 8 8 0 8 0 8 8 8 8 0 8 8 8 8 0 8 0 8 0 8 0 8 8 0 8 8 8 8 0 8 0 8 8 8 0 8 8 8 8 0 8 0 8 0 8 8 8 
37 59 59 79 87 93 95 100 101 101 108 112 120 118 118 112 118 121 118 121 129 126 126 126 123 124 103 87 69 57 69 89 103 110 100 104 102 96 90 89 85 85 79 68 52 29 18 8 10 8 8 10 0 8 8 0 8 8 8 8 0 8 8 8 8 8 8 8 8 8 0 8 0 8 0 8 8 0 8 8 0 8 8 8 8 0 8 8 8 8 8 0 8 8 8 8 8 8 0 8 8 8 0 8 0 8 0 8 0 8 8 0 8 8 8 8 8 8 8 8 0 8 8 0 8 0 0 8 0 8 8 8 8 8 8 0 8 8 8 8 0 8 0 8 8 8 8 0 8 0 0 8 8 0 8 0 8 0 8 0 
52 60 75 85 93 93 100 101 104 108 112 116 116 118 118 118 121 126 126 121 126 123 126 126 120 104 82 69 63 75 87 98 103 101 108 104 98 96 90 87 82 75 64 47 33 19 10 6 8 8 8 8 8 0 8 0 0 0 8 8 8 8 8 8 0 8 0 8 8 8 8 8 8 0 8 0 8 8 0 8 8 8 8 8 8 8 8 8 8 8 0 8 8 0 8 0 0 8 8 0 8 8 0 8 8 0 8 8 8 8 0 8 0 8 8 8 8 8 0 8 8 0 0 8 8 8 0 8 8 8 8 8 8 8 8 8 0 8 8 8 8 8 8 0 8 0 8 0 0 0 8 0 8 8 8 0 8 0 8 8 
60 75 82 89 100 96 101 100 104 110 112 118 118 123 120 121 126 123 126 129 126 126 126 120 101 79 61 61 77 90 103 105 112 103 103 103 98 90 85 85 71 64 51 29 26 10 8 8 8 8 0 8 8 8 8 8 0 8 0 8 8 0 8 0 8 0 8 8 8 8 0 8 8 0 8 8 8 0 8 0 8 8 8 0 8 8 8 8 8 8 8 0 8 8 0 8 8 0 8 0 8 8 8 0 8 8 8 8 8 8 8 8 8 8 8 8 0 8 8 8 0 8 0 8 8 0 8 8 8 8 0 8 0 8 8 0 8 8 8 8 8 8 0 8 8 8 8 8 0 8 0 8 8 0 8 8 0 8 8 0 
68 84 87 100 101 102 104 104 110 112 116 118 120 121 126 121 126 126 126 123 118 120 120 104 85 72 69 71 89 110 108 112 99 103 99 93 90 85 85 71 60 47 29 8 10 8 8 8 8 8 8 8 0 0 8 8 8 8 8 0 0 0 8 0 8 8 0 8 8 8 8 8 0 8 8 0 8 8 0 8 8 8 8 8 8 0 8 0 8 0 8 0 8 8 8 8 8 8 0 8 0 8 8 8 8 0 8 0 8 0 8 8 8 8 8 8 8 0 8 8 8 8 8 8 8 8 8 0 8 0 8 8 0 8 0 8 8 0 8 8 0 8 8 0 8 8 8 8 8 0 8 8 0 8 0 8 8 8 8 8 
84 87 93 96 108 104 108 110 116 110 116 118 118 123 126 123 121 126 126 126 120 118 104 77 61 69 79 89 103 108 110 101 103 101 93 87 85 79 71 56 35 29 8 10 8 8 8 8 8 8 8 0 8 8 8 0 12 0 8 0 0 8 0 8 0 8 8 8 8 8 0 8 8 0 8 8 0 8 0 8 8 8 8 8 8 8 0 8 8 8 8 8 8 8 8 8 8 8 8 0 8 0 8 8 8 8 0 8 0 8 8 8 8 8 8 8 8 8 0 8 8 0 8 8 8 0 8 8 8 8 8 8 0 8 8 8 0 8 8 0 8 8 0 8 8 8 8 8 0 8 0 8 8 8 0 8 0 8 8 8 
93 93 100 100 107 110 110 116 118 118 118 118 121 118 126 123 126 121 126 126 118 104 85 69 61 71 93 103 105 108 101 101 97 96 93 79 72 71 56 35 22 17 10 8 8 8 0 0 8 8 0 8 8 8 0 8 0 0 8 8 0 8 8 8 0 0 8 8 8 0 8 8 8 8 0 8 8 8 0 8 8 8 8 8 8 8 8 8 8 8 8 8 8 8 0 8 0 8 8 8 8 8 0 8 0 8 8 8 8 8 0 8 0 8 8 8 8 8 8 8 8 0 0 8 8 8 0 8 8 8 8 8 8 0 8 8 8 0 8 8 0 8 8 0 8 8 8 8 0 0 0 8 8 8 8 0 8 8 8 8 
99 99 101 102 110 110 115 118 118 118 118 121 124 123 129 126 126 126 123 112 96 84 65 65 83 91 105 112 110 101 103 99 93 92 82 77 68 52 36 19 8 10 10 8 8 8 0 8 0 8 0 8 8 8 0 0 8 0 8 12 0 0 8 8 8 8 8 8 8 0 8 8 8 8 8 0 8 8 8 0 8 8 8 8 8 8 8 8 8 8 8 8 8 0 8 8 8 0 8 8 0 8 8 0 8 0 8 0 8 8 8 0 8 0 8 0 8 0 8 8 0 8 8 0 8 0 8 8 0 8 8 8 8 8 8 8 8 0 8 0 8 8 8 0 8 0 8 0 8 0 0 8 8 8 8 8 0 0 0 8 
99 104 104 108 110 116 113 118 121 118 123 121 123 129 126 126 126 123 118 108 85 71 61 75 95 101 112 105 101 101 101 95 92 79 77 68 56 36 22 8 10 10 8 8 8 8 8 0 8 12 8 8 0 8 8 12 0 8 0 0 8 8 8 8 0 8 8 8 8 8 0 8 8 0 8 8 0 8 8 0 8 8 8 8 8 0 8 8 8 8 0 8 0 8 8 0 8 8 0 8 8 0 8 8 8 8 0 8 0 8 8 8 8 8 0 8 0 8 8 8 8 8 8 8 8 0 0 8 8 0 8 8 8 8 0 8 8 0 8 0 8 0 8 8 8 8 8 8 8 8 8 8 8 0 0 8 0 8 8 0 
104 108 108 112 110 118 118 121 121 121 121 129 129 129 126 123 126 120 101 79 61 59 79 101 104 103 103 104 101 101 98 89 82 77 63 56 36 19 10 10 6 8 8 8 8 8 8 8 8 8 8 8 8 0 12 8 0 0 8 8 8 8 8 8 8 8 8 8 8 8 8 8 0 8 0 8 0 8 8 8 0 8 0 8 8 8 8 8 8 8 8 8 8 0 8 0 0 8 8 8 0 8 8 8 8 8 8 8 8 0 0 8 0 8 8 0 8 0 8 8 0 8 8 8 8 8 8 8 8 8 8 8 8 8 8 8 0 8 0 8 8 8 8 8 0 8 8 8 8 0 8 0 8 0 8 0 8 0 0 8 
108 104 112 110 118 113 118 118 121 121 128 123 128 129 123 126 123 108 85 69 60 75 90 105 108 104 108 98 96 96 93 87 79 77 63 37 19 18 6 8 10 8 8 8 8 0 8 8 8 0 8 8 8 8 8 8 8 8 8 8 8 8 0 8 8 8 8 8 8 0 8 8 8 8 0 8 0 8 8 8 8 0 8 8 8 8 8 0 8 0 8 0 8 8 8 8 8 0 8 0 8 0 8 8 0 8 0 0 8 8 0 0 8 0 0 8 8 0 0 8 8 8 8 0 8 8 8 0 8 8 8 0 8 8 8 8 8 8 8 0 8 8 8 8 8 0 8 8 0 8 8 8 0 8 0 8 0 8 8 0 
110 108 110 118 116 118 118 121 126 128 129 126 123 129 126 120 107 89 69 63 71 87 101 108 104 104 104 101 96 90 89 79 71 63 47 29 10 6 8 8 8 0 8 8 0 8 8 8 8 8 8 0 8 0 8 0 8 8 0 8 0 8 8 0 8 0 8 0 8 8 0 8 0 8 8 8 8 8 8 0 8 8 8 8 8 8 8 8 0 8 0 8 0 8 8 8 0 8 8 8 8 8 8 0 8 0 8 0 0 8 0 8 0 8 0 8 0 8 0 8 8 8 8 8 8 0 8 8 0 8 0 8 0 8 0 8 8 0 8 0 8 0 8 8 8 8 0 8 8 8 8 8 0 0 0 8 0 8 8 8 
116 112 118 118 118 118 121 121 129 123 128 123 129 126 123 98 82 69 65 75 90 101 112 112 103 103 98 98 85 77 77 71 57 45 19 6 8 8 6 8 8 8 8 8 8 8 8 8 8 0 0 8 8 0 0 8 0 8 0 0 8 8 0 8 8 8 8 8 0 8 0 8 0 8 8 8 8 0 8 0 8 8 8 0 8 8 0 8 8 8 8 0 8 8 8 8 0 8 8 8 8 12 8 0 8 8 0 8 8 0 8 0 8 8 8 0 8 8 8 8 8 8 0 8 8 8 0 8 0 8 8 0 8 8 0 8 8 8 0 8 8 8 0 8 8 8 8 8 8 8 8 0 8 8 8 0 8 0 8 0 
116 118 118 121 121 118 121 126 128 126 123 126 123 120 98 77 69 72 82 89 103 108 112 105 104 96 93 89 77 72 71 56 36 22 8 10 8 8 8 8 8 0 8 8 8 8 8 8 0 8 0 8 8 8 8 8 8 8 8 8 8 8 8 0 8 8 8 8 8 0 8 0 8 8 0 8 8 0 8 0 8 0 8 0 0 0 8 0 0 0 8 0 8 8 8 8 8 8 0 8 0 8 0 8 8 8 8 8 8 8 8 8 8 8 8 8 0 8 8 8 0 0 8 8 8 8 8 0 8 0 8 8 8 0 8 8 0 8 8 0 8 8 8 0 8 0 8 0 0 0 0 8 0 8 0 8 0 8 0 8 
118 118 121 118 126 121 121 126 129 126 126 123 116 96 77 37 78 79 95 104 108 112 103 103 98 93 87 79 71 71 63 36 22 8 6 10 8 8 0 8 8 8 8 0 8 0 8 0 8 8 8 0 8 8 0 8 8 8 8 8 8 8 8 8 0 8 8 8 8 8 0 8 8 0 8 8 0 8 0 8 0 8 0 8 0 8 0 8 0 8 0 8 8 8 8 8 8 8 8 8 0 0 8 8 0 8 8 8 0 8 8 8 8 0 8 0 8 0 8 8 0 8 8 8 8 8 0 8 8 8 0 8 0 8 0 8 8 0 8 8 8 8 0 8 0 8 0 8 8 8 0 8 8 8 8 8 8 8 0 8 
112 118 121 126 123 126 126 129 126 126 123 118 104 77 78 77 77 90 108 112 104 104 103 101 90 85 82 71 63 52 37 22 10 6 6 8 8 0 8 8 8 0 8 0 0 8 8 8 8 8 8 8 8 0 8 0 8 0 8 0 8 8 8 8 8 8 8 8 8 8 8 0 8 8 0 8 8 8 8 0 8 8 8 0 8 0 8 8 8 0 8 8 0 8 0 0 8 0 8 0 8 8 0 8 8 8 8 8 8 8 0 8 8 0 8 0 8 0 8 8 8 8 8 8 0 8 8 0 8 8 8 8 8 8 8 0 8 8 0 8 8 8 8 8 0 8 8 8 0 8 12 8 8 0 8 0 8 8 8 8 
118 121 121 123 128 123 126 123 129 126 112 96 77 61 72 93 98 105 112 103 104 101 98 96 85 79 71 69 37 22 19 8 10 6 8 8 8 0 8 8 8 0 0 8 0 0 8 0 8 8 8 8 8 8 8 8 0 8 0 8 8 0 8 0 0 8 8 8 8 8 8 8 0 8 8 0 8 8 8 8 8 8 8 8 8 8 0 8 0 8 0 0 8 8 8 8 8 0 0 8 0 8 0 0 0 8 8 8 8 8 8 0 8 0 0 8 0 0 0 8 8 8 8 0 0 8 8 8 8 8 8 8 0 8 8 0 0 8 8 8 8 8 8 8 8 8 8 0 8 8 0 8 0 8 0 8 0 8 8 8 
118 121 126 121 126 129 123 118 120 118 96 77 37 78 87 101 104 112 112 104 104 98 96 90 77 71 64 47 29 8 10 8 10 6 8 8 0 8 0 8 0 8 0 8 0 8 8 8 8 8 10 8 8 8 8 8 8 8 8 8 8 8 8 8 8 0 8 0 8 0 0 8 0 8 8 8 8 8 8 8 8 0 8 8 8 8 8 8 8 8 8 0 0 8 8 8 0 8 0 8 8 8 8 8 0 0 8 8 8 0 8 8 8 8 8 8 8 8 0 0 8 0 8 0 8 8 8 0 8 8 0 0 8 0 8 8 8 8 0 8 0 0 0 8 8 8 8 8 8 0 8 0 0 8 0 8 8 8 8 8 
121 126 123 123 123 126 123 120 112 96 77 72 77 92 104 112 110 101 103 101 98 96 90 85 72 63 37 29 8 10 6 10 8 8 8 8 8 8 8 8 8 8 8 8 8 8 8 8 8 8 8 10 8 8 8 8 0 8 0 8 0 8 0 8 8 8 0 8 0 8 0 8 8 8 8 8 8 0 8 8 0 8 8 0 0 8 8 8 8 0 8 0 8 0 8 8 0 8 8 0 8 8 8 8 8 0 8 8 8 8 0 8 8 0 8 8 0 8 8 0 8 0 8 8 8 8 0 8 8 8 0 8 0 8 8 0 8 8 8 0 8 0 0 0 8 0 8 8 8 8 8 8 0 8 8 8 8 8 8 8 
121 126 129 126 123 126 120 112 96 72 61 72 90 101 112 108 105 104 101 96 96 93 77 72 68 47 26 8 10 8 8 8 8 8 8 8 8 8 8 8 8 8 8 8 8 8 8 8 8 8 8 8 8 8 8 8 8 0 8 0 8 8 8 8 8 8 8 8 8 0 8 0 8 8 8 8 8 8 8 8 8 0 8 8 0 8 0 8 8 8 0 8 0 8 8 8 8 0 8 8 0 8 8 8 0 8 8 8 0 8 0 8 0 8 0 8 8 8 8 8 0 8 8 8 8 8 8 0 8 8 0 8 0 8 8 8 0 0 8 8 8 8 0 8 8 8 0 8 0 8 0 8 8 0 8 0 8 0 8 0 
121 126 126 123 129 126 108 93 77 65 75 90 105 112 103 103 101 101 100 96 89 77 72 63 37 26 8 10 8 10 8 8 8 0 8 12 0 8 8 8 8 8 8 8 8 8 8 8 8 8 8 8 8 8 8 0 8 8 8 0 8 8 8 8 8 8 0 8 8 8 0 8 8 8 8 8 8 8 0 8 8 8 8 0 8 8 0 8 0 8 8 0 8 0 8 0 8 8 8 0 8 0 8 8 8 8 8 8 8 0 8 8 8 8 8 8 8 8 0 8 8 8 8 8 8 8 8 8 8 8 8 0 8 0 8 8 0 8 0 8 8 8 0 8 8 8 8 8 8 0 8 0 8 8 8 8 8 8 8 0 
126 126 123 126 123 112 91 69 69 75 91 103 112 110 107 101 102 96 89 87 77 64 60 36 22 6 10 8 8 8 8 8 0 8 0 0 8 0 8 8 8 0 8 0 8 8 8 8 8 8 8 8 8 8 8 8 0 8 0 8 0 8 8 8 8 8 8 0 8 8 8 8 8 8 8 8 0 8 8 8 8 0 8 8 8 0 8 8 8 8 8 8 0 8 0 8 8 8 8 8 8 8 8 8 0 12 8 0 8 8 8 0 0 8 0 8 0 8 0 8 8 8 0 8 0 8 0 8 8 8 8 8 8 8 8 0 8 0 8 0 8 8 8 8 8 0 8 0 8 8 8 8 0 8 0 8 0 8 8 0 
123 126 123 108 110 89 71 69 75 95 101 110 115 105 101 104 100 84 82 77 69 56 35 19 10 6 8 8 0 8 8 8 8 0 0 0 0 8 0 8 0 8 0 8 0 0 8 8 8 8 8 8 0 8 0 8 8 8 8 8 8 0 8 8 8 8 8 8 0 8 0 8 8 0 8 0 8 8 8 0 8 8 8 8 8 8 8 8 8 8 8 8 8 0 0 8 0 8 8 8 8 8 0 8 0 8 8 8 8 8 0 8 8 0 8 8 8 0 8 0 8 0 8 0 8 8 0 8 8 8 8 0 8 0 8 0 8 8 8 0 0 8 8 0 8 0 8 0 8 8 8 8 0 8 0 8 8 8 8 0 
126 123 120 101 78 69 71 72 93 103 108 108 103 101 93 96 96 84 72 63 59 36 22 10 6 10 8 8 0 8 0 12 12 0 8 0 0 8 0 8 8 8 8 8 0 8 0 8 8 8 8 0 8 8 8 8 8 0 0 8 0 8 8 8 8 0 8 8 8 8 0 8 0 8 8 8 8 0 8 8 0 8 8 8 8 8 8 8 8 0 8 8 0 8 8 8 8 0 8 8 8 8 0 8 0 8 0 0 8 8 8 8 0 8 8 8 8 8 8 8 8 8 8 8 0 8 8 0 8 8 12 8 0 8 8 0 0 8 8 8 0 8 0 8 8 8 8 8 0 8 0 8 8 8 0 8 0 8 0 8 
123 126 112 82 63 63 71 87 101 112 112 110 100 98 93 92 85 77 72 60 36 19 8 8 10 8 0 8 8 8 8 0 12 0 8 8 0 8 8 8 8 0 8 0 8 0 8 8 0 8 0 8 8 0 8 8 0 8 0 8 0 8 0 8 8 8 0 8 0 8 0 8 8 8 8 8 0 8 0 8 8 8 8 8 8 0 8 0 8 8 0 8 8 8 8 8 8 8 0 8 0 8 0 8 8 0 8 0 0 8 8 8 8 8 8 8 0 8 0 8 8 8 8 8 8 8 0 8 0 8 8 0 8 8 8 8 0 8 8 8 8 8 8 0 8 8 0 8 8 8 0 8 0 8 8 0 8 8 8 0 
118 104 87 71 63 72 87 101 112 110 115 100 100 93 92 85 78 69 56 45 19 10 10 10 8 8 8 0 8 12 8 0 0 0 8 0 8 0 8 8 8 8 0 8 0 8 8 8 8 0 8 0 8 8 8 0 8 0 0 0 8 0 8 8 8 8 8 0 8 8 8 8 8 0 8 8 8 0 8 0 8 8 8 8 8 0 0 8 0 8 8 8 0 8 0 8 0 8 0 8 8 8 0 8 0 8 0 8 0 8 0 8 0 8 8 8 0 8 8 8 8 8 8 8 0 8 8 0 8 0 8 8 0 8 0 8 0 0 0 8 8 8 0 8 0 0 8 8 8 8 8 0 8 0 8 0 8 8 8 8 
103 82 61 69 79 93 101 104 108 108 104 100 93 89 85 72 71 52 29 17 10 8 8 8 0 8 8 8 0 8 8 8 0 8 8 8 8 8 8 8 0 8 8 0 8 8 0 8 0 8 8 8 8 8 8 8 8 8 8 0 0 8 0 8 0 8 8 8 8 0 8 8 8 8 0 8 0 8 0 8 0 8 8 8 8 8 8 0 0 8 0 8 8 0 8 0 8 0 8 0 8 0 8 0 8 8 8 0 8 0 8 0 8 8 0 8 0 8 0 8 8 8 0 8 8 0 8 0 8 8 8 8 0 8 8 0 8 8 8 8 0 8 8 8 8 0 0 0 8 0 8 8 8 0 0 8 8 8 8 8 
82 57 72 85 95 101 108 108 104 101 96 93 89 85 71 61 59 35 19 17 8 0 8 8 8 8 8 8 0 0 8 0 8 8 8 8 8 8 8 8 8 8 8 8 8 8 0 0 8 0 8 8 8 8 8 0 8 0 8 0 8 8 0 8 0 8 8 8 8 0 8 0 8 8 8 8 8 0 8 0 8 8 8 8 8 8 8 8 8 8 8 0 8 8 8 8 8 8 8 0 8 0 0 8 8 8 0 8 0 8 8 8 8 0 8 0 8 8 8 0 8 8 8 8 8 8 0 8 8 8 8 8 0 8 8 8 8 8 8 8 8 8 8 0 8 8 8 0 8 0 8 0 8 0 8 8 8 0 8 8 
57 78 87 98 108 112 112 103 101 98 92 85 79 69 59 47 35 19 10 8 0 8 8 8 8 8 0 8 8 0 0 8 8 8 8 0 8 8 8 0 8 8 0 0 8 8 8 0 0 8 8 8 0 8 8 0 8 0 8 8 8 8 8 8 8 8 8 8 8 0 8 0 8 8 0 8 8 0 8 8 8 8 8 8 8 0 8 8 8 8 0 8 8 8 8 0 8 8 0 8 0 8 8 0 8 8 8 8 8 8 8 8 8 8 8 8 0 8 0 8 8 8 8 8 8 0 8 0 0 8 8 0 8 0 8 8 8 8 8 8 8 8 8 8 0 0 8 8 0 8 0 8 8 0 8 8 8 8 0 8 
78 93 104 108 112 112 105 98 100 93 90 77 69 56 36 26 8 10 8 8 8 8 8 8 0 8 0 8 8 8 8 8 8 0 8 0 8 8 8 0 8 0 8 0 8 0 8 0 8 0 0 8 8 0 8 8 8 8 8 8 8 8 8 8 0 8 0 8 0 8 8 8 0 0 8 0 0 8 8 0 8 0 8 0 8 8 8 8 8 0 8 0 8 0 0 8 0 8 8 8 8 8 0 8 8 0 8 0 8 8 0 0 8 8 8 8 8 0 8 8 0 8 8 8 8 8 8 8 0 8 8 8 8 8 8 0 8 0 8 0 8 8 8 0 8 8 8 8 8 0 8 0 8 0 8 8 8 8 8 8 
90 102 108 108 112 103 101 101 93 89 79 75 56 36 19 8 10 8 8 8 8 8 0 8 8 0 8 0 8 8 8 8 0 8 0 8 8 8 8 8 8 8 8 0 8 8 0 8 0 8 8 8 0 8 8 8 8 8 0 8 0 8 0 8 0 8 8 8 8 0 8 0 8 8 0 8 8 8 8 8 0 8 8 0 8 8 8 0 8 8 8 8 0 8 0 8 8 0 8 8 8 8 8 0 8 0 8 0 8 0 8 8 0 8 8 0 8 8 8 8 8 0 8 0 8 8 0 8 8 8 0 8 8 8 8 0 8 0 8 0 8 0 8 0 8 0 8 0 8 8 0 8 8 0 0 8 8 8 8 8 
101 108 108 104 104 101 96 96 85 75 64 56 45 19 17 10 8 8 6 8 8 8 8 0 8 8 8 0 0 8 8 0 8 8 8 8 8 8 8 8 8 8 8 8 8 8 8 0 8 8 8 8 8 0 8 8 8 8 8 8 8 8 8 0 8 0 8 8 8 8 0 8 0 8 8 8 8 8 0 8 8 8 8 8 8 8 8 0 0 8 8 8 0 8 8 8 8 8 0 8 0 8 8 8 8 8 0 8 8 8 8 8 8 0 0 8 0 8 8 8 8 8 0 8 8 8 8 0 0 0 8 8 8 8 0 8 8 8 0 8 8 8 0 8 8 8 8 0 8 0 8 8 8 8 0 8 8 0 0 8 
105 112 104 104 101 96 92 85 79 65 52 35 26 10 8 8 8 8 8 0 8 8 0 8 8 8 0 8 8 0 8 8 8 8 8 0 8 8 0 8 0 8 8 8 8 8 8 8 0 8 8 8 8 0 0 8 0 8 0 8 0 8 0 8 8 8 8 8 8 8 8 0 8 8 8 8 8 8 0 8 8 8 8 8 0 8 8 8 8 0 8 8 8 8 0 8 8 0 8 8 0 8 8 8 8 8 8 8 8 8 8 8 8 8 0 8 0 8 8 0 8 8 8 0 8 8 0 8 0 8 0 8 8 8 0 8 8 8 8 8 8 8 8 8 0 8 0 8 0 8 0 8 8 0 8 8 8 8 0 8 
108 105 104 100 96 89 85 77 68 52 33 19 10 8 8 8 0 12 8 0 8 8 8 0 8 8 8 8 8 8 8 8 8 8 0 8 8 8 8 0 8 8 0 0 0 8 8 8 12 8 8 0 8 8 0 0 8 0 8 0 8 0 8 0 8 0 8 0 8 8 8 8 8 0 8 0 8 0 8 0 8 8 8 8 8 0 8 8 8 8 0 8 8 0 8 0 8 0 8 8 8 0 8 8 8 0 8 0 8 8 0 0 8 8 8 0 8 8 8 8 8 0 8 8 8 0 8 8 8 8 8 8 8 8 8 8 0 8 8 8 8 8 0 8 8 0 8 0 8 0 8 8 8 8 0 8 8 8 8 0 
104 103 100 92 85 84 72 63 48 29 8 10 8 8 8 0 8 8 0 12 8 8 8 8 8 0 8 0 8 8 0 8 8 0 8 8 8 8 0 8 8 8 0 8 8 0 8 8 8 0 8 8 0 0 8 8 8 8 8 0 8 8 8 8 0 8 0 8 8 8 8 8 0 8 8 0 8 8 0 8 8 0 8 0 0 8 0 8 0 0 8 0 8 0 8 8 0 8 8 0 8 8 8 8 8 8 8 8 0 8 0 8 0 8 0 8 0 8 8 8 8 8 0 8 0 8 8 0 8 8 8 8 8 8 8 8 8 0 8 8 0 8 8 0 8 8 0 8 8 8 0 8 0 8 8 0 8 8 0 8 
105 100 100 89 82 79 71 47 35 11 10 8 8 8 8 12 8 12 8 0 8 8 0 8 8 8 8 8 8 0 8 0 8 8 8 8 8 0 8 8 8 8 8 0 8 0 8 0 8 8 8 0 8 0 8 0 8 0 8 0 8 0 8 0 8 8 8 0 8 8 0 8 8 0 0 8 0 8 8 8 8 8 0 8 8 0 8 8 8 8 8 8 0 8 8 8 8 0 8 8 8 0 8 0 8 8 8 8 8 8 8 0 8 8 8 8 0 8 8 8 8 0 8 8 8 8 0 8 0 0 0 8 0 8 0 8 8 8 0 8 8 0 8 8 8 8 8 8 0 8 8 8 8 0 8 8 0 8 8 8 
100 93 89 79 77 68 52 29 26 6 10 8 8 8 8 8 12 8 8 8 8 8 8 8 0 8 8 8 8 8 0 8 0 8 0 8 0 8 8 8 8 8 8 8 8 8 8 8 8 8 8 8 0 8 8 8 0 8 8 8 0 0 0 8 0 8 8 0 8 0 8 0 8 8 8 8 8 8 8 0 8 8 8 8 8 8 0 8 8 8 8 8 8 8 8 8 8 8 0 8 0 8 0 8 8 0 8 8 8 8 8 8 8 8 8 8 8 0 8 0 8 8 8 8 8 8 8 0 8 8 0 8 0 8 8 0 8 0 8 8 0 8 8 0 8 0 8 0 8 0 8 0 8 8 0 8 8 0 8 0 
93 87 85 71 60 47 35 17 6 8 8 8 8 8 8 12 8 12 8 8 8 8 8 8 0 8 0 8 8 0 8 0 8 8 8 0 8 8 8 8 8 8 8 8 8 8 0 8 8 8 0 8 8 8 0 0 8 0 8 8 0 0 8 0 8 0 8 0 8 8 8 8 0 8 8 8 8 8 0 8 0 8 8 8 8 8 8 0 8 8 12 8 0 8 8 8 8 8 0 8 0 8 8 0 8 8 8 8 8 8 0 8 8 8 8 0 8 8 8 8 0 8 8 8 8 8 8 8 8 8 8 8 8 0 8 8 0 8 8 0 8 0 8 0 8 0 8 0 8 0 0 8 0 8 8 0 8 8 8 8 
85 79 71 52 45 29 8 10 10 8 8 8 8 0 8 0 0 8 8 8 8 8 8 8 8 0 0 0 8 8 8 8 8 0 8 8 8 8 8 8 8 8 0 8 8 8 8 8 8 8 0 8 8 8 8 8 0 8 0 8 8 8 0 8 8 8 8 8 0 0 0 8 0 8 0 0 8 0 8 8 8 8 8 0 8 8 8 8 8 8 0 8 0 8 8 8 8 0 8 8 8 0 8 0 8 0 8 8 8 8 0 8 0 8 0 8 0 8 8 8 8 0 8 0 8 8 8 8 8 8 0 8 0 8 0 8 8 8 8 8 8 0 8 8 8 8 0 8 8 8 0 8 8 0 8 8 0 8 0 8 
77 69 54 36 18 10 6 8 8 8 8 8 8 8 8 8 8 8 8 8 8 8 8 8 8 8 8 0 0 8 8 8 8 8 0 8 8 8 8 8 0 8 0 8 8 8 8 8 0 8 0 0 8 8 0 0 8 8 8 0 8 0 8 8 8 8 0 8 8 8 0 8 8 8 8 8 8 0 0 8 8 0 8 0 0 8 8 8 0 8 0 8 0 8 8 0 8 8 0 8 0 8 0 8 8 8 0 8 8 8 8 8 8 0 8 0 8 0 8 8 8 8 8 0 0 8 0 8 0 8 8 8 0 8 0 8 8 8 8 0 8 0 0 8 0 8 8 8 0 8 0 8 0 8 8 8 8 8 8 0 
65 52 36 11 10 6 8 8 8 8 8 8 12 8 8 8 8 8 8 0 8 8 8 8 8 0 8 8 8 8 0 8 0 0 8 0 0 8 0 8 8 8 0 8 0 8 0 8 8 8 0 8 8 8 8 0 8 0 8 0 8 8 0 8 8 0 0 0 8 8 8 8 8 8 8 8 8 8 8 0 8 8 0 8 8 0 8 0 8 0 8 8 8 8 0 8 0 8 8 0 8 8 8 0 8 8 8 8 8 0 8 8 0 8 0 8 8 8 0 8 0 8 0 8 8 0 8 8 8 0 8 8 8 8 8 8 8 8 8 8 8 8 0 8 8 8 0 8 0 8 0 0 8 8 8 8 8 0 8 8 
47 35 11 10 8 8 8 12 10 8 12 8 12 8 6 8 8 8 8 8 8 8 8 8 8 0 0 8 8 8 8 0 8 0 0 8 0 8 8 8 0 8 8 8 0 0 8 0 8 8 8 0 8 8 8 8 8 8 0 8 0 8 8 8 0 0 8 0 0 8 0 8 0 8 0 8 8 8 8 8 0 8 8 8 8 8 8 8 0 0 8 8 8 8 8 8 8 8 8 8 0 0 8 8 8 0 8 0 8 0 8 8 8 8 8 8 8 8 8 0 8 8 8 8 8 8 0 8 0 8 0 8 8 8 8 8 8 8 8 8 0 8 0 8 8 8 8 8 8 8 8 8 0 8 8 8 0 8 8 0 
29 10 10 8 8 8 8 8 8 8 0 0 8 8 8 8 8 8 8 8 8 0 8 0 8 8 8 8 8 8 0 8 8 8 8 8 8 8 8 8 8 8 8 0 8 8 0 8 0 0 8 0 8 8 0 8 0 8 8 0 8 0 8 8 8 8 8 8 8 8 8 8 8 0 8 8 0 8 0 8 8 8 8 0 8 0 8 8 8 8 0 8 8 8 8 0 8 8 8 0 8 8 8 8 8 8 8 0 8 0 0 8 8 8 8 8 0 8 0 8 8 8 8 0 8 0 8 8 8 8 8 8 8 8 8 0 8 0 8 0 8 8 8 8 0 8 8 8 8 8 8 8 8 8 8 8 0 8 0 8 
17 10 8 8 8 8 8 8 8 8 0 8 0 8 8 8 8 8 8 8 8 0 0 8 8 8 8 8 8 8 8 8 8 8 8 8 8 8 8 8 8 0 8 8 8 8 8 0 8 0 0 8 0 8 8 0 8 8 8 8 0 0 8 8 8 8 8 8 8 8 8 0 8 8 8 8 8 0 8 8 8 0 8 8 0 8 8 8 8 8 8 0 8 0 0 8 8 8 8 0 8 0 8 8 8 8 0 8 8 8 0 8 0 8 0 8 8 8 8 0 8 8 8 8 8 8 8 0 8 0 8 0 8 0 8 0 8 0 8 8 0 8 8 8 8 0 0 8 8 8 0 8 8 8 8 0 8 0 8 0 
8 10 8 8 8 8 8 0 8 8 0 8 8 8 8 0 8 8 8 8 0 8 0 0 8 8 8 8 0 8 0 0 8 0 0 8 8 8 0 0 8 8 8 8 8 8 8 0 8 0 8 8 8 8 8 8 8 0 8 8 8 0 8 8 8 8 8 8 8 0 8 8 0 8 8 8 0 8 8 0 8 8 0 8 8 0 8 0 8 0 8 0 8 8 8 8 8 8 0 8 8 8 0 8 8 8 8 0 8 0 8 8 8 0 8 0 8 8 8 0 8 0 8 8 0 8 0 8 8 8 8 0 8 0 0 8 0 8 8 8 0 8 0 8 0 8 8 8 8 8 0 0 8 8 8 8 8 8 8 0 
8 8 8 8 8 8 8 8 8 8 8 0 8 8 8 8 0 8 8 8 8 8 8 0 8 0 8 0 8 0 8 0 8 0 8 0 8 0 8 0 8 8 8 8 8 8 8 8 0 8 8 8 8 8 8 8 0 8 8 0 8 0 8 0 8 8 0 8 8 8 0 8 8 8 8 8 8 8 0 8 0 8 0 8 8 0 8 0 8 0 8 0 8 8 8 8 8 8 8 8 8 8 8 0 0 8 0 8 0 0 8 0 8 8 0 8 0 8 8 8 8 8 8 0 8 8 8 0 8 0 8 0 8 8 0 0 0 8 0 8 0 8 0 8 8 8 0 8 8 0 8 0 8 8 8 8 8 8 0 8 
8 8 8 0 8 8 8 8 8 0 8 8 8 0 8 0 8 0 8 8 8 0 8 8 8 8 8 8 8 8 8 8 8 8 8 8 0 8 8 8 0 8 8 0 8 8 8 8 8 0 8 8 8 8 8 8 8 0 8 8 0 8 0 8 0 8 8 8 8 8 8 0 8 8 8 8 8 0 8 8 0 8 8 8 8 8 8 0 8 0 8 0 8 0 0 8 0 8 0 8 0 8 8 8 8 8 8 8 8 8 8 8 8 8 8 8 0 8 8 8 8 8 0 0 8 8 8 8 8 0 8 8 8 0 8 0 8 0 8 0 8 0 0 8 8 8 8 8 8 8 8 8 8 8 0 8 0 8 8 0 
8 8 8 8 8 8 8 8 8 8 8 8 8 0 8 8 8 8 0 8 8 8 8 8 8 8 8 8 8 0 8 8 0 8 8 0 8 8 8 8 8 8 0 8 8 8 8 0 8 8 8 0 8 8 8 8 0 8 8 8 8 8 8 8 8 8 0 8 8 0 8 8 0 8 8 0 8 8 8 0 8 8 8 8 8 8 0 8 0 8 8 8 0 8 0 8 8 0 8 0 8 0 8 8 8 8 8 8 8 8 8 0 8 8 8 8 8 0 8 8 8 8 8 8 0 8 8 8 8 8 8 8 0 8 0 8 0 8 8 8 0 8 0 8 0 0 0 8 8 8 8 0 8 0 8 0 0 8 0 8 
8 8 8 0 8 8 8 8 8 8 8 8 8 0 8 0 8 0 8 0 8 0 8 0 8 8 8 0 8 0 8 0 8 0 8 8 0 8 8 8 8 0 8 8 8 0 8 8 0 8 8 8 0 8 8 8 8 8 0 8 8 0 8 8 8 8 0 8 0 8 8 0 8 8 0 8 8 0 8 8 8 8 8 8 0 8 8 8 8 8 8 8 8 8 8 8 8 8 0 8 8 8 0 8 0 0 8 8 8 8 8 8 0 8 8 0 8 0 8 8 0 8 0 8 8 8 8 8 8 8 8 8 8 0 8 8 8 8 0 8 0 8 0 8 8 0 8 0 0 8 0 8 8 0 8 0 8 8 8 8 
8 12 8 8 8 8 8 8 8 8 8 8 8 8 8 0 8 8 8 0 8 8 8 8 8 8 8 0 8 0 8 0 8 8 8 8 8 8 0 8 0 8 8 8 0 8 0 8 0 8 8 8 8 8 8 8 8 0 8 8 8 8 8 8 8 8 8 0 8 0 8 8 8 8 8 8 8 8 0 8 8 8 8 8 8 0 8 8 8 8 8 8 8 8 0 8 8 8 8 0 8 8 0 8 8 8 8 8 0 8 8 8 0 8 0 8 8 0 8 0 8 0 8 8 8 8 8 8 0 8 8 8 8 8 8 8 8 0 8 0 8 0 8 8 8 8 0 8 8 8 8 0 8 8 0 8 8 8 8 8 
8 12 8 8 8 8 8 8 8 8 8 8 8 8 8 8 8 8 8 0 0 8 0 8 0 0 8 0 8 0 8 0 8 0 8 0 8 0 8 0 0 8 0 8 8 0 8 8 8 0 8 8 0 8 0 8 0 8 8 8 8 8 8 8 8 0 8 0 0 8 8 8 8 8 8 0 8 0 8 0 8 8 8 8 8 8 8 0 8 8 0 8 8 8 0 8 0 0 8 8 8 8 8 0 8 8 0 8 8 8 8 8 8 8 8 8 8 8 8 8 0 8 8 8 8 8 8 8 8 8 8 8 8 8 8 8 8 0 8 0 8 0 8 0 8 8 8 0 8 8 8 8 8 8 8 8 8 0 8 0 
8 8 8 8 8 8 8 8 8 8 8 8 0 8 8 8 8 8 8 0 8 0 8 8 8 8 8 8 8 8 8 8 0 8 8 0 8 8 8 8 0 0 8 8 0 8 8 0 8 8 0 8 0 8 8 0 8 8 8 0 8 8 8 8 0 8 0 8 8 8 8 8 8 8 8 8 8 8 8 0 8 8 8 8 8 8 8 8 0 0 8 8 8 8 8 0 8 0 8 8 0 8 0 8 0 8 8 8 8 8 0 8 8 8 8 8 8 8 8 8 8 8 8 8 8 8 0 8 8 8 8 8 8 8 8 8 8 8 8 8 8 8 8 0 8 0 8 8 8 0 8 0 8 8 0 8 0 8 0 8 
0 12 0 8 8 8 8 8 0 8 0 8 8 0 8 8 0 8 8 8 8 8 8 8 8 8 8 8 8 8 8 8 8 8 8 0 8 0 8 8 0 8 8 8 8 0 8 8 8 0 8 8 8 8 8 8 8 8 8 0 8 8 0 8 0 8 8 8 8 8 8 8 8 8 8 0 8 8 8 8 8 8 0 8 0 8 0 0 8 8 0 0 0 8 8 8 8 8 0 0 8 0 0 0 8 8 8 8 0 0 8 8 8 8 8 8 8 8 8 0 0 0 8 0 0 0 8 8 8 8 0 8 0 8 0 8 8 8 8 8 8 8 8 8 0 8 8 8 0 8 0 8 0 8 8 8 8 8 8 8 
0 8 8 8 8 8 0 8 0 8 8 0 8 8 0 8 0 8 0 0 8 0 8 8 8 8 8 8 0 8 8 8 0 8 0 8 8 8 8 8 8 0 8 8 0 8 0 8 0 8 8 8 8 0 8 0 8 0 8 0 8 8 8 0 8 0 8 8 8 8 8 8 0 8 8 8 0 8 8 8 8 8 0 8 0 8 8 8 8 8 8 8 0 8 8 8 8 0 8 8 0 8 8 8 8 8 0 8 0 8 0 8 8 0 8 8 0 8 0 8 0 8 8 8 8 8 8 8 0 0 8 0 8 0 8 0 0 8 0 8 0 8 0 8 8 0 8 8 8 8 8 8 8 0 8 8 8 0 8 0 
0 8 8 0 8 8 8 0 8 8 0 8 8 8 0 8 0 8 0 8 0 0 8 0 8 0 8 0 8 0 8 8 8 0 8 8 8 8 8 8 8 8 8 8 8 8 8 8 8 0 8 0 8 8 8 8 0 8 8 8 0 8 0 8 8 8 8 0 8 8 8 0 8 8 0 8 8 8 8 8 0 8 0 8 0 8 0 8 8 8 8 8 8 8 0 8 0 8 8 8 8 8 8 8 8 0 8 8 8 8 8 8 0 8 8 0 8 8 8 0 8 0 8 8 8 0 8 0 8 0 8 8 8 8 8 0 8 0 8 8 0 8 0 0 0 8 0 8 0 8 8 8 8 8 8 8 8 8 0 8 
8 8 8 0 8 0 8 8 8 8 8 8 8 8 8 8 8 0 8 8 8 8 8 8 8 8 8 8 8 8 8 8 8 8 0 8 0 8 8 8 8 0 8 8 0 8 8 8 8 8 8 8 0 8 0 8 8 0 8 8 0 8 8 8 8 8 0 8 0 8 8 8 0 8 8 0 8 0 8 0 8 0 8 8 8 0 8 8 8 8 8 8 0 8 0 8 8 0 8 8 8 8 8 8 8 0 8 8 8 8 8 0 8 8 8 8 8 8 8 0 8 0 8 0 8 8 8 0 8 0 8 0 8 0 8 0 8 8 8 8 8 8 8 8 0 8 8 8 12 8 0 8 8 8 8 0 8 8 0 8 
8 8 8 0 8 0 8 8 8 0 8 8 8 8 8 0 8 8 8 8 8 8 8 8 8 8 8 8 0 8 8 8 0 8 8 0 8 0 8 0 0 8 0 8 8 8 8 8 8 8 8 0 8 0 8 0 8 8 8 8 0 0 8 8 8 8 8 8 8 8 8 8 8 0 8 8 8 0 8 8 0 8 8 8 8 0 8 0 0 8 8 0 8 8 8 0 8 8 8 8 0 8 0 8 0 8 8 0 8 0 8 8 0 8 8 8 0 8 8 8 0 8 0 8 0 8 8 8 8 8 8 8 8 8 8 8 0 8 8 8 8 8 8 8 8 0 8 8 0 8 8 0 8 0 8 0 8 8 8 0 
8 8 8 8 8 8 8 8 8 8 0 8 0 8 8 8 8 8 8 8 12 8 8 8 8 8 8 0 8 8 8 0 8 8 8 0 8 8 8 8 0 8 0 8 0 8 8 0 8 8 8 8 8 8 0 8 0 8 8 8 8 0 8 0 8 0 8 8 8 0 8 8 0 8 8 8 8 0 0 8 0 8 8 8 0 8 8 8 0 0 8 8 8 8 8 8 8 8 8 0 8 0 8 8 8 0 8 8 8 8 8 8 8 0 8 8 8 8 0 8 0 8 0 8 8 0 8 8 8 8 8 8 8 8 8 0 8 0 8 0 8 8 8 8 8 0 8 8 8 0 8 8 0 8 8 0 8 8 8 8 
8 8 8 8 8 8 8 8 8 8 8 8 8 8 8 8 8 8 8 0 8 0 8 0 8 0 0 8 8 8 0 8 8 0 8 8 8 8 8 8 0 8 8 8 8 8 8 8 8 8 8 8 8 8 8 8 8 0 8 0 8 8 8 8 0 8 8 8 8 8 8 8 8 8 0 8 8 8 0 8 0 8 8 8 8 8 8 8 8 0 8 8 8 8 0 0 8 0 8 8 8 8 8 8 0 8 0 8 8 8 8 8 8 8 8 0 8 8 8 8 8 8 8 8 8 8 0 8 8 8 0 8 8 8 8 0 8 8 8 0 8 8 8 8 0 8 8 0 8 8 8 8 8 0 8 8 8 8 0 0 
8 8 8 8 0 8 0 8 8 8 8 8 8 8 8 8 8 8 8 0 8 0 8 8 8 8 8 0 8 8 8 8 0 8 0 8 0 8 8 8 0 8 0 0 0 8 8 8 8 8 8 8 8 8 8 0 8 8 8 8 8 8 8 8 8 0 8 8 8 0 8 8 8 8 8 0 0 0 8 8 8 0 8 8 8 0 8 0 8 8 8 8 8 0 8 0 8 8 0 8 8 8 0 8 8 8 8 0 8 8 8 0 8 8 8 8 0 8 8 0 8 0 8 8 8 0 8 0 8 8 0 8 8 8 0 8 8 8 8 8 8 8 0 8 0 8 8 8 8 8 0 8 0 8 0 8 0 8 8 8 
0 8 0 8 8 0 8 0 8 8 8 8 0 8 8 8 0 8 8 8 0 8 0 8 0 0 8 8 8 8 8 8 8 8 8 8 8 8 8 0 8 0 8 8 8 8 8 0 8 8 0 8 8 8 8 8 8 12 8 8 8 0 8 8 8 0 8 0 8 0 8 8 8 0 8 8 0 8 0 8 8 8 8 0 8 8 8 8 8 8 8 8 8 8 0 8 0 8 0 8 0 8 0 8 0 8 8 8 8 8 8 8 0 8 8 8 8 8 8 0 8 8 0 0 8 8 0 0 8 8 8 0 8 8 8 0 8 0 8 8 0 8 8 0 8 0 8 0 8 0 8 8 8 8 8 0 8 0 8 0 
8 8 8 8 8 8 8 8 0 0 8 8 8 0 8 0 8 8 8 8 8 8 8 0 8 8 0 8 8 8 8 8 8 8 8 8 8 8 8 8 8 8 0 8 8 8 0 8 0 0 8 0 8 8 8 8 8 0 8 8 0 8 0 8 0 8 0 8 0 8 0 8 8 8 8 0 8 8 8 8 8 8 8 8 8 8 0 8 8 8 8 8 0 8 8 8 8 0 8 0 8 0 8 0 8 8 0 8 8 8 8 0 8 8 8 0 8 8 8 8 8 8 8 8 8 8 8 8 8 8 0 8 8 8 8 8 0 8 8 0 8 8 0 8 8 0 8 0 8 0 8 0 8 0 8 0 8 8 8 8 
12 8 0 8 8 8 8 8 8 8 8 8 8 0 8 8 0 8 8 8 8 8 8 8 0 8 8 0 8 8 8 8 8 0 8 8 0 8 8 0 8 8 8 8 12 8 8 0 8 0 8 0 8 8 8 8 8 8 8 8 8 0 8 8 8 8 0 8 0 0 8 0 8 8 8 8 8 8 8 0 8 8 0 8 8 0 8 0 8 8 0 8 8 8 0 8 8 8 8 8 8 8 0 8 0 8 8 8 8 8 8 0 8 0 8 8 0 8 8 8 8 0 8 8 8 8 8 8 8 8 8 0 8 8 8 8 8 8 8 8 8 8 8 8 8 8 0 8 8 8 0 8 8 8 8 8 8 8 8 8 
0 0 8 0 0 8 8 0 8 8 8 8 8 8 8 8 8 8 8 0 0 8 8 8 8 8 0 8 0 8 0 0 8 0 8 0 0 0 8 0 8 0 8 8 0 8 8 8 8 8 8 8 8 8 8 8 0 8 8 8 8 8 8 8 8 8 8 8 8 0 8 0 8 8 0 8 8 0 0 8 0 0 8 0 8 0 8 8 8 8 8 8 8 0 8 8 0 8 8 8 8 8 0 8 8 0 8 8 8 8 8 0 8 8 8 0 8 0 8 0 8 0 0 0 8 0 8 0 8 0 8 8 0 8 8 0 8 8 8 8 8 8 8 8 8 8 8 8 8 8 8 0 8 8 8 8 8 0 8 0 
0 8 0 8 0 8 0 8 8 8 8 8 0 8 8 8 8 8 0 0 8 0 12 8 8 8 0 8 8 0 8 0 0 8 0 8 0 8 0 8 8 8 8 0 8 0 8 8 8 8 8 0 8 8 8 8 8 8 8 8 0 8 8 8 8 8 8 8 8 8 8 0 8 8 8 0 8 8 0 8 8 0 8 0 8 8 8 0 8 8 0 8 8 8 0 8 8 8 8 8 8 8 0 8 0 8 8 0 8 8 8 0 8 0 8 8 0 8 0 8 8 8 0 8 8 0 8 8 0 8 8 8 0 0 8 8 0 8 0 8 8 0 8 8 8 8 8 8 8 8 8 8 0 8 0 8 0 8 8 8 
12 8 8 8 8 0 8 8 8 8 8 8 8 0 8 0 8 8 8 8 8 8 8 0 8 8 8 8 8 0 8 0 8 0 8 8 8 8 8 8 8 8 0 8 0 8 0 8 0 8 0 8 8 8 0 8 8 8 8 8 8 0 8 0 8 8 8 8 8 8 8 8 8 0 8 0 8 8 8 8 8 8 8 8 8 0 8 8 0 8 8 8 8 8 8 8 0 8 0 0 0 8 0 8 8 0 8 8 8 8 8 8 8 8 8 8 8 8 8 8 8 8 8 8 8 8 0 8 8 8 8 8 8 0 8 8 8 0 8 8 0 8 8 8 0 8 8 8 8 8 0 8 8 8 8 8 8 8 8 0 
0 8 8 8 8 8 0 8 0 8 0 8 0 8 8 8 8 0 8 12 8 8 8 8 0 8 8 8 8 0 8 0 8 8 8 8 8 8 8 0 8 0 8 8 8 8 0 8 0 8 8 8 8 8 8 12 8 8 8 8 0 8 0 8 0 8 8 0 8 8 8 8 8 8 0 8 8 8 8 8 8 0 8 0 8 0 8 0 8 8 8 8 8 8 8 8 8 0 8 0 8 0 8 0 8 8 0 8 8 8 8 0 8 8 8 8 8 8 8 8 8 8 0 8 8 0 8 8 0 8 8 8 0 0 8 0 8 8 8 8 8 8 8 8 0 8 0 8 0 8 8 0 8 0 8 8 8 8 8 8 
0 0 8 0 8 0 8 0 8 8 8 8 8 8 8 8 8 8 8 0 8 0 8 8 12 8 0 8 0 8 8 8 8 0 8 12 8 0 8 8 8 8 0 0 8 0 8 0 8 8 0 8 8 8 8 0 8 0 0 8 8 8 8 8 0 8 0 8 0 0 8 8 8 8 8 8 8 0 8 0 8 8 8 8 0 8 8 8 8 0 8 8 0 0 8 8 8 8 0 8 8 8 0 8 0 8 0 0 8 0 8 8 8 0 8 0 8 8 0 8 0 8 8 0 8 8 8 0 8 0 0 0 8 8 8 8 0 0 8 0 8 0 8 8 8 8 8 8 8 0 0 8 0 8 8 8 8 8 0 0 
8 0 8 8 8 0 8 8 0 8 8 8 0 8 8 8 8 8 8 0 0 8 8 8 8 8 0 8 8 0 8 8 8 8 8 8 0 8 0 0 8 0 8 0 8 0 8 8 8 0 8 8 8 8 0 8 8 8 0 8 8 8 8 8 8 8 8 8 8 8 8 8 0 8 0 0 8 0 8 0 8 0 8 0 8 8 8 8 8 8 8 8 8 0 8 8 8 8 8 0 8 8 8 0 8 0 8 8 8 8 0 8 8 8 8 8 0 8 8 0 8 8 8 8 8 0 8 8 8 8 0 0 0 8 8 0 8 8 0 8 0 8 0 8 8 0 8 8 8 8 8 0 8 0 8 8 8 0 8 0 
8 8 8 8 8 8 0 8 8 8 8 8 8 0 8 8 0 8 0 8 8 8 8 8 8 0 8 8 8 8 8 8 0 0 8 8 8 8 8 8 8 8 8 8 0 8 8 0 8 8 0 8 0 8 8 8 8 8 0 8 0 8 0 8 0 8 0 8 8 8 8 8 8 0 8 0 8 8 8 0 8 0 8 8 8 0 0 8 8 8 8 8 8 0 8 8 8 8 0 8 8 8 0 8 8 8 0 8 8 0 8 8 0 8 8 0 8 0 8 8 8 8 8 0 8 0 8 8 8 8 8 8 0 0 8 8 0 8 8 8 8 8 8 0 8 0 8 0 8 8 8 8 8 8 8 8 8 8 0 8 
8 8 8 8 8 8 8 8 0 8 8 8 8 8 8 8 8 8 8 8 8 8 8 8 0 8 0 8 0 8 8 8 8 8 0 8 8 8 8 8 8 8 8 8 8 8 8 8 0 8 0 8 8 8 0 8 8 0 8 0 8 0 0 8 0 0 8 0 8 0 8 8 0 8 0 8 8 0 8 0 8 8 0 8 8 0 8 0 8 8 8 8 8 0 8 8 8 8 8 0 8 8 8 0 0 8 8 0 8 8 8 8 8 8 8 8 8 8 8 8 8 8 0 8 0 8 0 8 8 8 8 8 8 0 0 8 0 8 0 0 8 0 8 8 0 8 0 8 0 8 8 8 8 8 8 8 8 8 8 0 
0 12 8 8 0 8 8 0 8 8 8 0 8 8 8 8 8 8 8 0 8 8 8 0 8 8 8 8 0 8 0 8 8 0 8 0 8 0 8 0 0 0 8 0 8 8 8 8 8 8 8 0 8 8 8 0 8 8 0 8 8 8 8 8 8 8 0 8 8 8 0 8 8 0 8 8 8 8 8 8 8 0 8 8 0 8 0 8 8 8 8 8 8 8 0 8 0 8 8 8 8 8 0 8 8 0 8 8 8 8 0 8 8 0 8 8 0 8 0 8 8 0 8 8 8 8 0 8 8 8 8 8 8 8 0 8 0 8 0 8 0 8 0 8 8 8 0 8 0 8 0 8 8 8 8 0 8 8 8 0 
8 8 8 8 8 8 0 8 8 8 8 8 8 8 8 8 0 8 8 0 8 8 8 8 8 8 8 0 8 0 8 0 8 8 8 0 8 8 0 8 0 8 0 8 8 8 8 8 8 8 8 8 8 0 8 8 0 8 8 8 8 8 8 8 8 8 8 8 8 0 8 8 8 8 0 8 8 8 8 8 0 8 8 8 8 8 8 8 8 8 8 0 8 0 8 0 8 8 8 0 8 8 8 8 8 8 8 8 8 8 8 0 8 8 0 8 8 0 8 0 8 8 0 8 8 8 8 8 8 8 8 8 8 8 8 0 8 0 8 0 8 0 0 8 8 8 8 0 8 0 8 0 8 0 0 8 0 0 0 8 
12 8 8 8 8 8 8 8 8 8 8 8 8 0 8 8 8 0 8 8 0 8 0 8 12 8 8 0 8 8 0 8 8 8 8 8 8 8 8 8 8 0 8 8 0 8 0 8 8 0 8 0 8 8 8 8 8 0 8 0 8 8 8 8 8 0 0 8 0 8 8 8 8 0 8 0 8 8 8 8 8 8 8 8 8 0 8 8 8 0 8 8 0 8 8 8 8 8 0 8 0 8 8 8 8 8 0 8 0 8 0 8 0 8 8 0 8 8 8 0 8 0 8 8 0 8 8 8 0 8 8 8 8 8 8 8 8 8 0 8 0 8 8 8 8 8 8 8 8 0 8 8 8 8 8 0 0 8 0 8 
8 12 8 8 0 8 8 8 8 8 8 8 0 8 8 8 8 0 8 8 0 0 8 8 8 12 8 0 8 8 0 0 8 0 0 8 8 0 8 8 8 8 8 0 8 8 0 8 0 8 8 8 8 8 0 8 8 8 0 8 0 8 8 8 0 8 0 8 8 8 8 8 0 8 0 8 8 8 8 0 8 8 8 8 8 0 8 8 8 8 8 0 8 0 8 8 8 8 8 0 8 8 8 8 8 8 8 0 8 0 8 8 0 8 0 8 8 8 0 8 8 8 0 8 8 8 8 8 8 8 8 8 8 8 8 8 8 8 8 8 8 0 8 0 8 8 8 8 8 8 0 8 8 8 0 8 0 8 8 0 
8 8 8 8 8 8 8 0 8 8 8 8 8 8 0 8 8 8 8 8 8 8 8 8 8 8 8 8 0 8 8 0 8 8 8 8 0 8 0 8 8 0 8 8 0 8 8 0 8 8 8 0 8 8 8 8 0 8 0 8 0 8 8 8 8 8 8 0 0 8 0 8 8 8 8 8 8 0 8 8 8 8 8 8 8 8 0 8 8 0 8 0 8 8 0 8 0 0 8 8 8 8 8 0 0 8 8 8 0 8 8 8 8 0 8 8 0 8 8 0 8 0 8 8 8 8 8 8 8 0 8 8 8 8 0 8 0 8 8 8 0 8 8 0 8 8 8 8 12 8 8 8 8 8 8 8 8 8 8 8 
0 0 8 8 8 0 8 8 8 8 8 8 8 8 8 0 8 8 8 8 0 8 0 8 8 8 8 8 8 8 8 8 8 0 8 8 8 8 8 0 8 0 8 8 8 8 8 8 8 8 8 8 0 8 0 8 8 8 8 8 8 0 8 8 0 8 8 8 0 8 0 8 0 8 8 8 8 8 0 8 8 8 8 8 8 0 8 0 8 8 8 8 0 8 8 8 8 8 0 8 0 8 8 0 8 0 8 0 8 8 0 8 0 8 8 8 8 0 8 8 8 8 8 0 8 8 0 8 8 8 8 8 8 0 8 8 8 8 0 8 8 8 8 0 8 8 8 8 8 8 8 0 8 8 8 8 8 8 8 8 
8 8 8 8 8 8 8 8 0 8 8 8 8 8 0 8 8 8 8 8 0 8 8 0 8 0 8 8 8 8 8 0 8 0 8 8 8 8 0 8 0 8 8 0 8 8 0 8 8 8 8 8 0 8 0 8 8 8 8 8 8 8 0 0 0 8 0 8 8 8 8 0 8 8 0 8 8 8 8 0 8 0 8 8 0 8 8 8 8 8 8 8 0 8 8 8 8 0 8 0 8 8 8 8 0 8 8 0 8 8 0 8 8 0 8 8 8 8 0 8 8 8 0 8 8 0 8 8 8 8 8 8 8 0 8 0 8 0 8 8 8 8 8 8 0 0 0 0 0 0 8 8 8 8 8 8 8 8 0 8 
0 8 8 8 8 8 0 8 8 8 0 8 8 8 8 8 8 8 8 8 8 0 8 0 0 8 0 8 8 8 0 8 8 0 8 0 8 8 8 8 0 8 0 8 8 0 8 8 8 8 8 8 0 8 8 0 8 8 8 0 8 8 0 8 8 8 8 8 0 8 8 8 0 8 0 8 0 8 8 8 0 8 8 0 8 0 8 0 8 0 8 0 8 8 8 8 0 8 8 0 8 0 8 8 8 8 8 0 0 8 8 8 8 8 0 8 0 8 8 0 8 8 8 0 8 8 8 8 8 8 8 8 8 8 0 8 8 8 8 8 8 0 0 8 8 8 0 8 0 8 8 8 0 8 8 0 8 8 8 8 
0 8 8 8 8 8 8 8 8 8 8 0 8 8 8 0 8 8 0 8 8 0 8 0 8 0 0 8 0 8 8 8 8 8 8 8 8 8 0 8 0 8 8 8 8 8 8 0 8 8 0 8 8 8 8 8 0 8 0 8 0 8 8 8 8 8 0 0 8 8 0 8 8 0 8 0 8 8 8 8 8 8 8 8 8 0 8 0 8 0 8 0 8 0 8 0 8 8 0 8 8 8 0 8 8 8 8 8 8 8 8 8 8 0 8 8 8 0 8 8 0 8 0 8 8 8 8 0 8 8 8 8 8 0 8 8 8 8 0 8 0 8 0 8 8 8 8 0 8 8 8 8 8 8 8 8 8 8 8 8 
8 8 0 8 8 8 8 8 0 8 8 8 0 8 8 8 0 8 8 8 8 8 8 8 0 8 8 0 8 8 0 8 8 8 0 8 0 8 8 0 8 8 8 8 8 8 8 8 8 0 8 8 0 8 0 8 8 8 8 0 8 8 8 8 8 8 8 0 8 8 8 8 8 8 8 8 0 8 8 8 8 8 8 8 8 8 8 8 8 8 0 8 8 8 0 8 0 8 8 8 8 0 8 8 8 8 0 8 0 8 0 8 8 8 8 8 8 8 0 8 8 0 8 8 0 8 8 8 8 0 8 8 0 8 0 8 8 0 8 8 0 8 8 0 8 8 0 8 8 8 8 0 8 8 8 8 8 8 8 8 
0 8 8 8 8 8 8 8 8 8 0 8 8 0 8 0 8 8 0 8 8 8 8 8 8 0 8 8 8 8 8 0 8 0 8 0 8 8 8 8 8 8 8 0 8 8 8 8 8 8 0 8 0 8 0 8 0 8 8 8 8 0 0 0 0 0 8 8 8 8 8 0 8 8 8 8 8 8 8 0 8 8 0 8 8 8 8 8 8 8 8 8 8 0 0 8 0 8 8 0 8 8 0 8 8 0 8 8 8 8 0 8 0 8 8 8 8 8 8 8 0 8 8 0 8 8 0 8 8 8 8 8 8 8 8 0 8 8 0 8 8 0 8 8 0 8 8 8 8 8 0 8 8 8 8 8 8 8 8 8 
0 12 0 8 8 8 8 8 8 8 8 0 8 8 0 8 8 8 8 8 8 8 0 8 8 8 8 0 8 8 8 8 8 0 8 8 8 0 8 8 8 8 0 8 8 8 8 8 0 8 8 8 0 8 8 0 8 8 8 0 8 8 8 8 8 8 8 8 8 8 8 8 0 8 0 8 0 8 8 8 8 8 8 0 8 8 0 8 8 8 8 8 8 8 0 8 8 8 8 8 0 8 8 8 8 0 8 8 8 0 8 0 8 0 8 8 8 8 8 0 8 8 0 8 8 8 8 8 8 0 8 8 0 8 8 8 8 0 8 8 8 8 8 0 8 8 8 8 8 8 8 8 0 8 8 0 8 8 8 0 
0 8 8 8 8 8 8 8 8 8 8 8 0 8 8 8 0 8 8 0 8 8 8 8 8 0 8 0 8 0 8 8 8 8 8 0 8 8 8 8 8 8 0 8 8 8 8 8 8 8 8 8 8 0 8 8 0 8 0 8 8 8 8 8 8 8 8 0 0 8 0 8 0 8 0 8 8 0 8 0 8 8 0 8 8 8 8 8 0 0 8 0 8 8 8 0 8 0 8 8 8 0 0 8 8 8 0 8 8 0 8 8 8 8 8 0 8 0 8 8 8 0 8 8 8 8 8 8 8 8 8 8 8 8 0 8 8 8 8 8 8 0 8 8 0 8 0 8 8 0 0 8 8 0 8 8 0 8 8 8 
12 8 8 8 8 8 8 8 8 8 8 8 8 0 8 8 8 8 8 8 8 0 8 8 0 8 8 0 8 0 8 8 8 8 8 8 8 8 0 8 8 0 8 8 8 8 8 0 8 0 8 8 0 8 8 8 8 8 8 8 0 8 8 8 8 8 0 8 0 8 8 8 8 0 8 0 8 0 8 0 8 0 8 8 8 8 8 8 0 8 0 8 8 0 8 8 8 8 8 0 8 8 8 0 8 0 8 8 8 8 0 0 8 0 8 8 8 8 0 8 0 8 0 8 8 8 8 8 0 8 8 8 8 8 8 8 0 8 0 8 8 8 0 8 8 0 8 8 8 8 0 8 8 8 0 8 0 8 8 8 
0 12 8 8 8 8 0 8 0 8 8 0 8 8 0 8 8 8 8 0 0 8 0 8 0 8 8 8 8 8 8 8 0 8 0 8 8 0 8 8 0 8 8 8 8 0 8 8 0 8 0 8 8 8 8 0 8 8 8 8 8 8 8 8 0 8 8 0 8 8 8 8 8 8 8 8 8 0 8 0 8 8 8 8 8 8 8 8 0 8 8 8 0 8 8 8 8 0 8 8 0 8 0 8 8 8 0 8 0 8 8 8 8 8 0 8 0 8 0 8 8 0 8 8 0 8 8 8 8 8 8 8 8 0 8 8 8 0 8 0 8 8 0 8 8 8 8 8 8 8 0 0 8 8 8 8 8 8 0 8 
8 0 8 8 8 8 8 8 8 0 8 0 8 0 8 8 8 8 8 8 8 8 8 0 0 0 0 8 8 8 8 0 8 8 8 8 8 8 8 8 8 8 0 8 0 8 8 8 8 8 0 0 0 8 0 8 0 8 8 8 0 8 8 8 8 0 8 8 8 8 8 8 8 0 8 0 8 8 0 8 8 8 0 8 8 8 0 8 8 0 8 0 8 0 8 0 8 8 8 8 8 8 8 8 8 8 8 0 8 0 8 8 8 8 0 8 0 8 8 0 8 8 8 8 8 8 8 0 8 8 8 8 8 0 0 8 8 0 0 8 0 8 8 8 0 8 0 8 8 8 8 0 8 0 8 8 8 8 8 8 
8 12 8 0 8 8 8 8 8 8 8 8 0 8 8 8 8 0 8 8 8 8 8 8 8 8 8 8 0 8 0 8 0 8 8 8 8 8 8 8 8 0 8 8 8 8 8 8 8 0 8 8 0 8 0 8 0 8 8 8 8 8 0 0 8 0 8 0 8 0 8 8 8 12 0 8 8 0 8 8 0 8 8 8 8 0 8 8 0 8 8 8 0 8 8 8 8 8 8 0 0 8 8 8 8 0 8 0 8 8 0 8 8 8 8 8 8 0 8 8 8 8 8 8 8 8 8 0 0 8 8 8 8 8 8 8 8 8 8 8 8 8 8 0 8 8 0 8 0 8 8 8 0 8 0 8 0 8 0 8 
8 8 0 8 0 8 8 8 8 8 8 8 8 8 0 8 0 8 0 0 8 0 8 8 8 8 12 0 8 0 8 8 8 8 8 8 8 8 8 0 8 8 8 8 8 8 8 0 8 8 8 8 8 8 8 8 8 8 8 8 8 0 8 0 8 0 8 0 8 0 8 8 8 0 8 0 8 8 0 8 8 0 8 8 8 8 0 8 8 8 8 8 8 0 8 8 8 8 8 8 0 0 8 8 8 8 0 8 0 8 0 8 0 8 8 8 8 8 0 8 0 8 8 8 0 8 0 8 8 0 8 0 8 8 8 0 8 8 8 8 8 0 8 8 0 8 8 0 8 0 8 8 8 0 8 0 0 8 8 0 
12 8 0 8 8 8 8 8 8 8 8 8 8 0 8 8 0 8 0 8 0 8 8 8 8 12 8 0 0 8 0 8 8 8 8 8 8 0 8 8 0 8 0 8 12 8 8 8 8 0 8 8 0 8 0 8 8 8 8 8 0 8 0 8 0 8 0 8 8 8 8 8 8 8 8 8 0 8 0 0 8 0 8 0 8 8 0 8 8 8 8 8 8 8 8 0 8 8 8 0 8 8 8 0 8 0 8 8 0 8 0 8 8 0 8 8 0 8 8 8 8 8 0 8 8 8 8 8 8 8 8 0 0 8 8 8 0 8 8 8 0 8 0 8 0 8 8 8 0 8 8 0 12 8 8 0 0 8 8 12 
0 8 8 8 0 8 8 8 8 8 8 0 8 8 8 8 8 8 8 8 8 8 8 0 8 0 8 0 0 8 8 8 8 8 8 0 8 8 0 8 8 8 8 8 8 8 0 8 0 8 0 0 8 0 8 0 8 0 8 8 0 8 8 8 8 8 8 8 8 8 8 8 8 0 8 8 8 8 8 8 0 8 8 8 0 8 8 0 8 0 8 8 8 8 8 8 0 8 0 8 8 8 0 8 8 8 8 8 8 8 0 8 0 8 8 0 8 8 8 8 8 8 8 8 8 8 8 0 8 8 0 8 0 8 0 8 8 8 0 8 0 8 8 0 8 8 8 8 8 0 8 8 8 0 8 0 8 8 8 0 
8 0 8 8 8 8 8 8 0 8 0 8 0 8 0 8 8 8 8 0 0 8 0 8 0 8 0 8 8 0 8 8 8 8 0 8 8 0 8 8 0 8 0 8 0 8 8 8 8 0 8 0 8 0 8 8 0 8 8 8 8 8 8 0 8 8 8 8 0 8 0 0 8 0 0 8 0 8 8 0 8 8 8 0 8 8 8 8 0 8 8 8 8 8 8 8 8 0 8 0 8 8 0 8 8 8 8 8 8 8 8 8 8 8 8 8 0 8 8 8 8 8 0 8 0 8 8 8 0 8 8 8 8 0 8 8 8 8 0 0 8 0 8 8 0 8 8 0 8 8 8 8 8 8 8 12 8 8 8 0 
