P2
160 120
255
0 0 8 0 8 0 8 0 8 0 8 0 8 0 8 8 12 8 0 0 8 0 8 0 8 8 8 8 8 0 8 0 8 8 0 8 8 8 0 8 8 8 0 8 0 0 8 0 8 0 8 0 8 8 8 8 8 8 8 8 8 8 8 0 8 8 8 8 8 8 0 8 8 0 8 0 0 0 8 8 8 0 8 8 8 12 8 0 8 0 8 0 8 8 8 8 8 0 0 8 8 8 8 8 8 8 8 8 8 8 0 8 0 8 8 0 8 8 8 8 0 0 8 8 12 8 0 8 8 8 8 0 8 8 8 8 8 8 8 8 8 8 0 8 0 8 8 0 8 8 8 8 8 8 8 0 8 8 8 0 
0 0 0 8 0 8 0 8 0 8 0 8 0 8 0 8 8 12 0 0 8 8 8 8 8 8 8 8 8 8 8 8 8 0 8 8 8 8 8 8 8 8 8 8 8 8 8 0 8 8 8 8 0 8 8 8 8 8 8 8 8 8 8 8 8 0 8 0 8 0 8 8 0 8 0 8 0 8 0 8 8 8 8 0 8 8 8 8 0 0 8 8 0 0 8 8 0 8 0 0 8 8 8 8 8 0 8 8 8 0 8 8 8 8 0 8 8 8 8 0 8 0 8 8 8 0 8 8 8 8 0 8 0 8 0 8 8 8 8 8 8 8 8 0 8 8 0 8 8 8 0 8 8 8 8 8 8 8 8 8 
0 0 8 0 8 0 8 0 8 0 8 0 8 0 8 8 12 0 8 8 0 8 8 8 8 8 8 0 8 8 0 8 8 8 0 8 0 8 8 8 8 8 8 8 8 8 8 8 8 8 0 8 8 8 8 8 8 0 8 8 8 8 8 8 0 8 8 8 0 8 8 8 8 8 8 8 8 8 8 0 8 8 8 8 8 0 8 8 8 8 8 0 0 8 8 8 8 8 8 0 8 8 8 8 8 8 0 8 0 12 8 8 8 8 8 8 8 8 8 8 8 8 8 8 0 8 0 8 0 8 8 0 8 0 8 0 8 0 8 8 0 8 8 8 0 8 8 8 8 0 8 8 8 8 8 8 0 8 8 0 
0 0 0 8 0 8 0 8 0 8 0 8 0 8 0 8 8 8 8 8 12 8 8 8 8 8 8 8 0 8 8 8 0 8 0 8 8 0 8 0 8 0 8 8 8 0 8 0 8 0 8 0 8 8 8 8 8 0 8 0 8 8 0 8 8 8 8 0 8 8 8 8 8 8 8 8 8 8 8 8 8 8 8 0 8 0 0 8 8 0 8 0 8 0 8 8 8 0 8 8 8 8 0 8 8 0 8 8 8 8 8 8 8 0 0 8 8 0 8 8 8 0 8 8 0 8 0 8 8 8 8 8 8 8 8 0 8 8 8 8 8 0 8 0 8 8 8 8 8 8 0 8 8 8 8 8 8 0 8 8 
0 0 8 0 8 0 8 0 8 0 8 0 8 0 8 0 12 8 12 8 8 8 8 8 0 8 8 0 8 0 0 8 8 0 8 8 8 8 8 8 0 8 8 8 8 8 0 8 8 8 8 8 0 8 8 8 0 8 0 8 0 8 8 0 8 8 0 8 0 8 0 8 0 8 0 8 0 8 8 0 8 0 8 8 0 8 8 8 0 8 0 8 0 8 8 8 0 8 8 8 8 8 8 8 8 8 8 0 8 0 8 8 8 8 8 0 8 8 8 0 8 0 8 0 8 0 8 8 8 8 8 0 8 8 8 8 8 0 8 0 8 8 0 8 8 0 8 8 8 0 8 8 8 8 8 0 8 8 8 8 
0 0 0 8 0 8 0 8 0 8 0 8 0 8 0 8 8 0 0 8 8 8 0 8 8 0 0 8 8 8 8 8 8 8 8 0 8 0 8 8 8 8 8 8 0 8 8 8 8 8 8 8 0 0 8 0 8 8 8 0 8 0 8 8 0 8 0 8 0 8 8 8 8 0 8 8 8 8 0 8 0 8 0 8 8 8 8 8 8 8 8 0 8 8 8 8 8 8 0 8 8 0 8 0 8 0 0 0 8 8 8 8 8 8 8 0 0 8 0 12 8 8 0 8 8 8 8 0 8 8 0 8 0 8 8 8 8 8 8 8 8 0 8 8 0 8 8 8 8 8 8 8 8 8 8 8 8 0 8 8 
0 0 8 0 8 0 8 0 8 0 8 0 8 0 8 0 8 12 0 8 0 8 8 8 0 0 8 0 8 8 8 0 0 8 0 8 0 8 0 8 8 8 0 0 8 0 8 8 8 8 0 8 0 8 0 8 8 8 8 8 8 8 8 8 8 8 8 0 8 0 8 8 8 8 0 8 0 8 8 8 8 8 8 0 8 0 8 8 8 0 8 8 8 8 8 8 0 8 8 8 0 8 8 8 8 8 8 0 8 0 0 8 8 8 8 8 0 8 8 0 8 0 12 8 8 0 8 8 8 8 8 8 8 0 8 8 8 8 0 8 8 8 8 8 8 8 8 8 8 8 0 8 8 0 8 8 0 8 0 8 
0 0 0 8 0 8 0 8 0 8 0 8 0 8 0 8 8 0 0 8 0 8 0 8 8 0 8 8 8 8 8 0 0 8 8 0 8 0 8 0 8 8 8 8 0 8 8 8 8 0 8 8 8 8 8 8 8 0 8 0 8 8 8 8 8 8 8 8 8 8 8 0 0 8 0 0 8 0 8 8 8 8 8 0 0 8 8 0 8 0 0 8 0 8 8 0 8 8 0 8 8 0 8 8 8 8 8 8 0 8 0 8 8 0 8 8 8 8 8 8 0 8 8 8 0 8 0 0 8 8 8 8 8 8 0 8 8 0 8 0 8 0 8 8 8 0 8 8 0 8 8 8 0 8 8 0 8 8 0 8 
0 0 8 0 8 0 8 0 8 0 8 0 8 0 8 0 8 8 0 8 8 8 0 8 8 8 8 8 8 0 8 8 8 0 0 8 8 8 0 8 0 8 8 8 8 0 8 0 8 0 8 8 8 8 0 8 0 8 0 8 0 8 0 8 0 0 8 0 8 8 0 8 0 8 0 8 0 8 0 8 8 8 0 8 0 8 0 8 0 8 0 8 8 8 8 8 8 8 8 8 8 0 8 0 8 8 0 8 8 0 8 0 8 8 0 8 8 8 0 8 8 8 0 8 0 8 8 0 8 0 8 8 8 8 8 0 8 0 8 0 8 0 8 8 0 8 8 0 8 8 0 8 8 8 8 8 8 0 8 8 
0 0 0 8 0 8 0 8 0 8 0 8 0 8 0 8 8 8 0 8 0 8 0 8 8 8 0 8 0 8 8 8 12 8 0 8 0 8 8 0 0 0 8 8 8 8 0 8 0 8 8 8 0 0 0 0 8 8 0 8 0 8 8 0 8 8 0 8 0 0 8 8 8 8 8 8 8 8 8 0 8 0 8 8 8 8 8 8 8 8 8 0 8 8 0 8 8 8 8 8 8 8 8 8 8 8 8 0 8 12 8 8 0 0 8 0 0 8 8 8 0 8 8 8 0 8 8 8 0 8 0 8 0 8 8 8 8 8 8 8 8 8 8 0 8 8 8 8 8 8 8 8 8 8 8 8 0 8 8 8 
0 0 8 0 8 0 8 0 8 0 8 0 8 0 8 0 8 8 8 8 8 0 8 0 8 0 8 0 8 0 8 8 8 0 8 0 8 0 0 8 8 0 8 8 8 0 8 8 8 8 8 8 8 0 8 0 8 8 8 0 8 8 8 8 8 8 8 0 8 0 8 0 8 8 0 8 8 8 8 8 8 8 8 0 8 8 8 12 8 8 8 8 0 8 8 0 8 0 8 8 8 8 8 8 8 8 0 8 8 8 8 0 8 0 8 8 8 0 8 8 8 0 8 0 8 8 8 0 8 0 8 8 8 0 8 0 8 8 0 8 8 8 8 8 0 8 8 8 0 8 8 0 8 8 0 8 8 0 8 0 
0 0 0 8 0 8 0 8 0 8 0 8 0 8 0 8 8 8 8 8 0 8 8 8 8 8 8 8 8 8 0 0 8 8 8 0 0 8 0 8 0 8 8 0 8 8 0 8 8 8 0 8 0 8 8 8 8 8 8 8 0 0 8 0 8 8 8 8 8 8 8 8 0 0 8 0 8 0 8 8 8 8 8 0 0 8 8 8 0 0 0 8 8 0 8 8 0 8 8 8 0 0 0 8 0 8 8 8 8 0 8 0 8 8 0 8 8 0 8 0 8 8 8 8 8 8 0 8 8 0 8 8 8 0 0 8 0 8 8 8 8 8 0 8 8 8 8 8 8 0 8 8 8 0 8 8 8 8 0 8 
0 0 8 0 8 0 8 0 8 0 8 0 8 0 8 0 8 8 8 8 0 8 8 8 0 0 8 0 8 0 8 8 0 8 0 8 8 8 8 8 8 8 0 8 8 8 8 8 8 8 8 8 8 0 8 0 8 0 8 8 8 0 8 8 0 8 8 0 0 8 8 8 8 0 8 8 8 8 8 0 8 0 8 8 0 8 0 8 8 8 0 8 8 8 0 8 8 8 8 8 8 8 8 8 8 0 8 8 0 8 8 8 0 0 8 8 8 0 0 8 0 0 8 8 0 8 8 8 8 0 8 8 8 8 0 0 8 8 0 0 8 8 8 0 8 8 8 8 0 8 8 0 8 0 8 8 8 8 8 8 
0 0 0 8 0 8 0 8 0 8 0 8 0 8 0 8 8 12 0 8 8 0 8 0 8 8 8 8 0 8 8 8 8 0 8 0 8 8 0 8 8 8 0 0 8 0 8 0 8 8 8 8 0 8 8 8 8 8 8 8 0 8 0 8 8 0 8 8 8 0 8 8 0 8 0 8 8 8 0 8 8 8 0 8 0 8 8 8 8 8 0 8 0 8 8 0 8 8 8 8 8 0 8 0 8 8 8 8 0 8 8 0 8 8 0 8 8 8 0 8 8 8 0 8 0 0 8 8 8 8 8 8 8 12 8 0 8 8 8 0 8 0 8 0 8 0 8 0 8 0 8 8 8 8 8 8 8 8 8 8 
0 0 8 0 8 0 8 0 8 0 8 0 8 0 8 0 8 12 8 8 8 8 8 8 8 0 8 8 8 0 8 8 8 8 8 8 8 8 8 0 8 0 8 0 8 8 8 8 8 8 8 0 8 8 8 8 8 8 0 8 8 8 8 0 8 0 8 0 8 8 8 8 8 8 8 0 8 8 8 8 8 8 8 0 8 8 8 8 8 0 8 8 8 8 0 8 0 0 0 8 8 8 8 8 0 8 8 8 8 8 8 8 8 0 8 8 8 8 8 0 8 8 0 0 8 0 8 8 8 8 0 8 8 8 8 8 8 8 0 8 8 8 8 8 8 8 8 8 8 8 8 8 8 8 8 8 8 8 0 8 
0 0 0 8 0 8 0 8 0 8 0 8 0 8 0 8 8 8 8 8 8 8 8 8 8 8 8 8 0 8 0 8 0 8 8 8 8 8 8 8 8 8 8 8 8 8 8 0 12 8 8 8 0 8 8 8 8 8 0 8 0 8 8 8 0 8 0 8 8 8 8 8 8 0 8 8 0 8 8 8 8 8 8 0 8 0 8 8 0 8 0 8 8 8 8 8 0 8 0 0 8 8 0 8 8 0 8 0 8 8 8 8 8 8 8 0 8 8 8 8 0 8 0 8 0 8 0 8 8 8 8 8 8 8 0 8 0 8 8 8 8 0 8 8 0 8 8 8 8 8 0 8 8 8 8 8 8 8 8 8 
0 0 8 0 8 0 8 0 8 0 8 0 8 0 8 0 8 8 8 8 8 0 8 8 8 0 8 8 8 0 8 8 0 8 0 0 8 0 0 8 0 0 8 8 8 0 8 0 8 0 0 8 8 0 8 8 8 8 0 8 8 8 0 8 8 0 8 0 0 8 0 8 8 8 0 8 8 0 8 8 0 8 0 8 8 8 8 8 8 8 8 8 0 8 0 8 8 8 8 8 8 8 8 8 0 8 0 8 8 8 8 0 8 8 8 0 0 8 8 8 8 0 8 8 8 0 8 8 8 8 8 8 8 0 8 8 8 0 8 0 8 0 8 0 8 0 8 0 8 0 8 8 8 8 8 8 0 8 0 8 
0 0 0 8 0 8 0 8 0 8 0 8 0 8 0 8 8 0 0 0 8 8 8 8 0 8 0 8 0 0 8 8 8 0 8 0 8 8 8 8 8 8 8 8 8 8 0 8 0 8 8 0 8 8 0 8 8 8 8 8 8 0 8 8 0 8 0 8 0 8 8 0 8 0 8 8 0 8 8 0 8 8 8 0 8 8 0 8 8 8 0 8 0 8 8 0 8 8 8 8 8 8 8 0 8 0 8 0 8 8 8 8 8 8 8 8 8 8 8 0 8 8 8 8 8 8 0 8 0 8 0 8 8 0 8 8 8 0 8 8 8 8 0 8 0 8 0 8 8 8 8 0 8 0 8 8 8 0 8 8 
0 0 8 0 8 0 8 0 8 0 8 0 8 0 8 0 8 0 0 8 8 0 8 0 8 0 8 8 0 8 0 8 0 8 8 8 0 8 8 8 8 8 0 8 8 8 8 8 8 8 0 8 0 8 0 8 0 8 8 8 0 8 0 8 8 8 0 8 8 0 8 8 8 0 8 8 8 8 8 8 8 8 8 8 0 8 8 8 8 8 0 8 8 8 8 8 0 0 8 0 8 8 8 8 8 8 0 8 0 8 8 8 0 8 0 8 8 0 8 8 8 8 8 8 8 0 8 0 8 8 8 8 0 8 8 8 0 8 8 8 0 8 8 8 8 8 8 8 8 8 8 8 8 8 8 8 8 8 0 0 
0 0 0 8 0 8 0 8 0 8 0 8 0 8 0 8 8 0 8 0 8 8 0 0 0 8 8 8 0 8 8 8 8 0 8 0 8 0 8 0 0 8 0 0 0 8 8 8 8 8 0 8 8 0 8 0 0 0 8 8 8 0 8 0 8 8 8 0 8 8 8 0 8 8 8 8 8 0 8 8 0 8 8 0 8 8 8 8 8 8 8 8 8 0 8 0 8 8 8 0 8 0 8 8 8 8 8 8 0 8 8 8 0 0 8 8 8 8 8 8 8 8 8 8 8 8 0 8 0 8 8 8 0 8 8 8 8 8 8 8 8 8 8 8 8 8 0 0 0 8 8 8 8 8 8 0 8 8 0 8 
0 0 8 0 8 0 8 0 8 0 8 0 8 0 8 0 8 12 0 8 0 8 0 8 8 0 8 8 8 0 8 8 8 0 8 8 0 8 8 8 0 8 8 8 0 8 0 8 0 0 8 0 0 8 8 8 8 8 8 0 8 8 8 0 8 0 8 8 0 8 8 8 0 8 8 8 0 8 8 0 8 8 0 8 8 0 8 8 8 8 8 8 0 8 8 8 0 8 8 8 8 8 0 8 8 8 8 8 8 8 8 8 8 0 8 8 0 8 0 8 0 8 8 8 0 8 0 8 8 8 0 8 0 0 8 8 8 0 8 0 8 0 0 0 8 0 8 8 8 8 8 8 8 8 8 8 8 0 8 8 
0 0 0 8 0 8 0 8 0 8 0 8 0 8 0 8 8 0 12 8 0 8 0 8 8 8 8 8 8 8 8 8 8 0 8 8 8 8 0 8 0 0 8 0 8 0 8 8 0 0 8 0 8 8 8 8 8 8 0 8 0 8 8 8 0 8 8 8 8 8 8 8 8 0 8 8 8 0 8 8 8 8 8 8 8 8 8 8 0 8 8 8 0 8 8 0 8 0 8 8 8 0 8 8 8 8 8 8 0 8 8 8 8 8 0 8 8 8 8 0 8 8 0 8 8 8 8 8 8 8 0 0 8 0 8 8 8 0 8 0 8 8 0 8 0 8 0 8 8 8 8 8 8 8 8 0 8 8 0 8 
0 0 8 0 8 0 8 0 8 0 8 0 8 0 8 0 8 8 0 8 0 8 0 8 8 8 8 8 0 8 8 8 0 8 0 8 8 8 8 0 8 0 0 8 8 0 8 8 8 8 0 8 8 8 8 0 8 0 8 8 8 8 8 8 8 8 8 8 8 0 8 8 0 8 8 0 8 8 0 8 8 8 8 8 0 8 8 0 8 8 8 8 8 8 8 0 8 0 8 8 0 8 0 8 0 8 8 8 0 8 8 0 8 8 8 8 8 0 8 8 0 8 8 8 0 8 8 8 0 8 8 8 8 8 0 8 8 0 8 8 8 0 8 8 8 8 8 0 8 0 8 8 8 8 0 8 0 8 0 8 
0 0 0 8 0 8 0 8 0 8 0 8 0 8 0 8 8 8 8 0 8 0 8 8 8 8 0 8 0 8 0 0 8 0 8 8 8 0 8 0 0 8 0 0 0 8 0 8 8 8 8 8 0 8 8 0 8 8 8 0 8 8 0 8 8 8 0 8 8 8 0 8 8 8 0 8 8 8 8 8 8 8 8 8 8 0 0 8 0 0 8 8 8 8 8 8 0 8 0 8 8 8 8 0 8 8 0 8 0 8 8 8 8 8 8 8 0 8 0 0 8 0 8 0 8 8 8 8 0 8 0 8 8 0 8 8 8 8 0 8 8 8 8 8 8 0 8 8 0 8 0 8 8 8 8 8 0 8 8 0 
0 0 8 0 8 0 8 0 8 0 8 0 8 0 8 0 8 8 8 8 8 8 0 8 8 8 8 0 8 8 8 8 8 8 0 0 8 8 8 0 0 0 8 8 8 0 8 0 8 0 8 8 8 8 0 8 0 0 8 8 8 8 8 8 0 8 8 0 8 0 8 8 0 8 8 8 0 8 8 0 8 8 0 8 8 0 8 8 8 8 8 8 8 8 8 8 0 8 0 8 8 0 8 8 0 8 0 8 0 8 0 8 0 8 8 8 8 8 8 8 8 8 8 8 8 8 0 8 8 0 8 0 8 8 0 8 8 8 8 8 8 8 0 8 8 8 0 8 0 8 0 8 8 8 8 8 8 0 8 8 
0 0 0 8 0 8 0 8 0 8 0 8 0 8 0 8 8 8 8 0 8 8 8 0 0 8 8 8 8 8 8 8 8 0 8 0 8 8 8 0 8 0 0 8 0 8 0 12 0 8 8 0 8 8 0 8 8 0 8 8 8 8 0 8 8 8 8 8 8 8 0 8 8 0 8 8 8 0 8 8 8 0 8 8 8 8 8 8 8 8 8 8 8 8 0 8 0 8 8 0 8 8 8 8 8 8 0 0 8 0 8 8 8 8 0 8 8 8 8 8 8 8 8 8 0 8 0 8 8 8 8 0 0 8 8 0 0 8 8 8 0 8 8 0 0 8 8 8 8 8 0 0 8 8 8 0 8 8 8 8 
0 0 8 0 8 0 8 0 8 0 8 0 8 0 8 0 8 8 0 8 0 8 12 8 0 8 0 8 0 8 0 8 8 0 0 8 0 8 0 8 8 0 8 8 0 8 0 8 8 8 8 8 8 8 8 0 8 8 8 0 8 0 8 0 8 0 8 8 0 8 8 0 8 8 0 8 0 8 8 0 8 8 8 8 8 0 8 0 0 8 0 8 8 0 8 0 8 0 8 8 8 8 8 0 8 0 8 8 0 8 8 8 0 8 0 8 8 0 8 8 8 8 8 8 8 0 8 0 8 8 0 8 0 8 8 8 8 8 0 8 8 0 8 8 0 8 8 8 8 8 0 8 8 8 8 8 8 8 8 8 
0 0 0 8 0 8 0 8 0 8 0 8 0 8 0 8 8 8 0 8 12 8 8 8 0 8 8 8 0 8 8 0 8 8 0 8 8 8 0 8 0 8 0 0 8 8 8 8 8 0 8 8 8 8 8 8 0 8 8 0 8 8 0 8 8 8 8 0 8 8 8 8 8 8 8 8 8 0 8 8 0 8 8 8 8 8 8 0 8 0 8 8 8 0 0 8 8 8 8 0 8 0 8 8 8 8 8 8 8 8 8 8 8 0 8 0 8 8 0 8 8 0 8 8 0 8 8 8 0 8 8 8 8 8 0 0 8 8 8 0 8 0 8 8 8 8 8 8 0 8 8 8 8 8 0 8 0 8 8 0 
0 0 8 0 8 0 8 0 8 0 8 0 8 0 8 0 8 12 0 0 8 8 8 0 8 8 8 8 8 8 8 8 8 0 8 0 0 8 8 8 0 8 0 8 0 8 8 8 0 8 8 8 8 0 8 8 8 8 8 8 8 8 0 8 8 0 8 8 8 8 8 8 0 8 8 0 8 8 8 8 8 8 8 8 0 8 0 8 8 8 8 0 8 0 8 8 8 8 0 8 0 8 0 0 8 8 8 8 0 8 8 8 8 8 8 8 8 0 8 8 8 8 8 8 8 8 8 0 8 8 8 8 8 8 8 8 8 8 8 8 0 8 8 8 8 8 8 8 0 8 0 8 8 0 8 8 8 0 8 8 
0 0 0 8 0 8 0 8 0 8 0 8 0 8 0 8 8 8 0 8 8 8 8 0 0 8 0 8 8 0 8 8 8 0 8 8 0 8 0 8 0 12 0 8 8 8 0 8 0 8 8 8 0 8 0 0 8 8 8 8 0 8 8 8 0 8 0 0 8 8 8 8 8 0 8 8 0 8 0 8 0 8 8 0 0 8 0 8 8 0 8 8 0 8 0 8 8 8 0 8 8 8 8 0 0 8 8 8 8 8 8 8 8 8 0 8 8 8 8 8 8 0 8 8 8 8 8 8 8 8 8 8 8 8 8 8 0 8 8 0 8 8 8 8 8 8 8 8 8 8 8 0 8 8 0 8 8 8 8 8 
0 0 8 0 8 0 8 0 8 0 8 0 8 0 8 0 8 12 8 12 0 8 0 8 8 0 8 8 8 8 8 0 0 8 0 8 8 0 8 0 8 0 8 0 8 0 8 0 8 0 8 0 8 0 8 0 8 0 8 0 0 0 8 8 8 8 8 8 0 8 8 8 8 8 0 0 8 0 0 0 8 0 0 8 8 8 8 0 8 8 0 8 8 8 8 8 8 8 8 8 8 0 0 8 0 8 0 8 8 8 0 8 8 0 8 8 8 8 0 8 0 8 0 0 0 8 8 0 8 8 12 8 8 8 8 8 8 8 0 8 8 0 8 8 8 8 8 8 12 8 8 8 8 8 8 8 8 8 8 0 
0 0 0 8 0 8 0 8 0 8 0 8 0 8 0 8 8 0 12 8 8 0 8 0 8 0 8 0 8 8 8 8 0 8 8 0 8 0 12 0 0 12 8 8 8 8 8 8 8 8 0 8 0 0 0 8 0 8 0 8 0 8 0 8 0 8 0 8 8 0 8 0 8 8 8 8 0 8 8 8 0 8 8 0 8 8 8 8 0 8 0 8 8 0 8 0 8 0 8 0 8 0 8 0 8 8 8 0 8 8 8 8 0 8 8 8 8 8 8 0 8 8 8 8 8 8 8 8 0 8 8 8 8 0 8 8 0 8 8 8 8 8 8 0 8 8 8 0 8 8 8 8 0 8 8 0 8 8 8 8 
0 0 8 0 8 0 8 0 8 0 8 0 8 0 8 0 8 8 0 12 8 0 8 8 8 8 8 8 0 8 8 8 8 0 0 8 8 0 12 8 8 8 8 8 8 8 8 8 8 8 8 8 8 8 8 8 8 8 8 8 8 8 8 8 8 0 8 8 0 8 0 8 0 8 8 8 8 8 8 8 8 8 8 8 8 8 8 0 8 0 8 8 8 8 0 8 0 8 8 8 0 8 8 8 8 8 8 8 0 8 8 0 8 8 0 8 8 8 0 8 8 8 8 8 8 8 0 8 8 8 8 0 8 8 0 8 8 0 8 8 8 8 8 8 0 8 0 8 0 8 0 8 8 0 8 8 0 8 8 8 
0 0 0 8 0 8 0 8 0 8 0 8 0 8 0 8 8 12 0 0 8 8 8 8 0 8 0 8 0 8 8 8 8 8 0 8 8 8 0 12 0 8 0 8 8 0 8 8 8 8 8 8 8 8 8 8 0 0 8 8 8 8 8 8 0 8 0 8 8 0 8 0 8 0 8 8 8 8 8 8 8 8 8 0 8 8 8 8 8 8 8 0 8 8 8 0 8 8 8 8 0 8 8 8 8 8 8 0 8 8 0 8 8 8 8 8 8 0 8 8 8 8 8 8 0 8 0 8 0 8 8 8 8 8 8 0 8 8 0 8 0 8 8 8 8 8 8 8 8 8 0 0 8 8 8 8 8 8 8 8 
0 0 8 0 8 0 8 0 8 0 8 0 8 0 8 0 8 12 0 8 0 8 8 0 8 0 8 8 8 8 8 0 0 8 8 12 0 8 0 0 8 8 8 0 8 8 8 8 0 8 8 8 8 8 8 8 8 0 8 8 0 8 8 8 8 8 8 0 8 8 0 8 0 8 8 8 8 8 0 8 8 8 8 8 0 8 8 8 8 0 8 8 8 8 8 8 8 8 8 8 0 0 0 8 0 8 8 8 8 8 8 8 8 8 8 0 8 8 8 0 8 0 0 0 8 0 0 8 8 8 8 8 8 8 0 8 8 8 8 8 8 0 8 0 8 8 8 8 8 8 0 8 0 8 8 8 8 8 0 8 
0 0 0 8 0 8 0 8 0 8 0 8 0 8 0 8 8 0 8 8 8 8 8 0 8 0 0 8 8 8 8 8 0 8 0 8 8 8 8 8 8 0 8 0 12 0 8 8 8 8 8 0 8 8 8 0 8 0 8 0 8 0 8 12 8 8 8 0 8 8 8 8 8 0 8 8 8 8 8 0 8 8 8 8 8 8 8 8 8 8 0 8 8 8 8 8 8 8 8 0 8 8 0 8 8 8 8 8 8 8 8 0 8 8 0 8 8 0 8 8 0 8 8 0 8 0 8 0 8 8 8 12 8 8 8 0 8 8 8 0 8 8 8 8 8 8 8 8 8 8 0 8 8 8 8 8 8 8 8 8 
0 0 8 0 8 0 8 0 8 0 8 0 8 0 8 0 8 12 0 12 8 8 0 8 0 8 8 0 8 0 8 8 8 8 8 0 8 8 8 8 8 8 8 8 8 8 8 8 8 0 8 0 0 8 0 8 0 8 8 8 8 8 8 8 8 0 8 0 8 8 8 0 8 8 0 8 0 0 8 0 8 0 0 8 8 8 8 8 8 0 8 0 8 0 8 8 8 0 0 8 8 8 8 0 8 8 8 8 0 8 8 8 0 8 8 8 0 8 8 8 8 0 8 8 8 8 8 8 8 8 0 8 8 8 0 8 8 8 8 8 0 8 8 0 8 8 8 8 0 8 8 0 8 8 8 8 0 8 8 8 
0 0 0 8 0 8 0 8 0 8 0 8 0 8 0 8 8 0 8 8 8 0 8 0 8 8 8 8 8 8 8 8 8 0 8 8 0 8 0 8 8 8 8 8 8 8 12 8 8 8 8 8 0 0 8 8 8 8 8 8 8 8 8 8 8 8 0 8 0 0 8 0 8 8 8 0 8 8 0 8 8 8 8 8 8 8 8 12 8 8 0 8 8 8 8 0 8 8 0 8 8 0 8 8 0 8 0 8 8 8 0 8 8 8 8 8 8 0 8 8 8 8 0 8 8 8 8 8 8 8 8 8 8 8 8 8 8 8 8 0 8 8 0 8 8 0 8 8 8 8 8 8 8 0 8 8 8 8 8 0 
0 0 8 0 8 0 8 0 8 0 8 0 8 0 8 0 8 0 0 8 0 8 0 8 0 8 0 8 8 8 8 8 8 0 8 8 8 0 8 8 8 0 8 0 8 0 0 8 0 8 8 8 8 0 8 8 8 0 8 0 8 0 8 0 0 8 8 8 0 8 0 8 0 8 8 8 8 0 8 0 8 0 8 0 8 8 8 0 8 0 8 0 8 0 8 8 8 8 8 0 8 8 8 0 8 8 8 8 8 8 8 8 8 8 0 8 8 8 8 8 8 0 8 8 8 0 8 8 8 8 8 8 8 8 8 0 8 8 0 8 8 8 8 8 8 8 8 8 8 8 8 0 8 8 8 8 8 8 8 8 
0 0 0 8 0 8 0 8 0 8 0 8 0 8 0 8 8 0 12 0 8 8 8 8 0 8 0 8 8 0 8 8 8 8 0 8 8 0 8 8 0 8 8 8 8 8 0 8 8 8 8 0 0 8 0 8 8 8 8 8 0 8 0 8 0 0 8 8 8 8 8 0 8 0 8 8 0 8 8 8 8 8 0 8 8 0 8 0 8 0 8 0 8 0 0 8 8 8 8 8 8 8 8 8 8 8 8 8 8 8 8 8 8 8 8 8 8 8 0 8 8 8 0 8 8 8 8 8 8 0 8 8 8 8 8 8 0 8 8 8 0 8 8 8 8 8 8 8 8 8 8 8 0 8 0 8 8 8 8 0 
0 0 8 0 8 0 8 0 8 0 8 0 8 0 8 0 8 8 0 12 8 8 8 0 8 0 8 0 8 8 0 8 8 8 8 8 8 8 8 8 8 8 8 0 8 8 8 8 8 12 8 8 0 0 8 8 0 8 8 8 8 8 8 0 8 0 8 8 8 8 0 8 0 8 0 8 8 0 8 8 0 8 8 8 8 8 0 8 0 8 0 8 0 8 8 0 8 8 8 0 8 0 8 8 8 8 8 8 8 8 8 8 8 8 8 8 8 8 8 0 8 8 8 8 0 8 8 8 0 8 8 0 8 8 0 8 8 0 8 8 8 0 8 8 0 8 8 8 8 0 8 8 0 8 8 0 8 0 8 0 
0 0 0 8 0 8 0 8 0 8 0 8 0 8 0 8 8 0 8 0 8 0 0 8 0 8 8 8 0 8 8 0 8 8 8 0 8 8 0 8 0 8 0 8 0 0 8 0 8 8 0 8 0 8 0 8 8 0 8 8 8 8 8 8 8 8 0 8 0 8 8 8 8 8 8 0 8 8 8 8 8 0 8 8 8 8 0 8 8 8 8 8 8 8 8 8 0 8 8 8 0 8 0 8 8 0 8 0 8 0 8 0 8 0 8 0 8 8 0 8 0 8 0 8 8 8 0 8 0 8 8 8 8 8 8 0 8 8 0 8 8 8 0 8 8 8 0 8 8 8 8 8 8 0 8 0 8 8 0 0 
0 0 8 0 8 0 8 0 8 0 8 0 8 0 8 0 8 8 0 8 8 8 0 0 8 0 8 0 8 0 8 8 8 8 0 8 8 8 8 0 8 8 0 8 8 8 8 8 0 8 8 8 8 0 8 8 8 0 8 8 8 8 8 8 8 8 8 0 8 0 8 0 8 8 8 0 0 8 0 8 0 8 0 0 8 0 8 0 8 8 8 8 8 8 8 0 8 0 8 0 0 8 8 8 8 0 0 0 8 0 8 0 8 0 8 0 8 8 0 8 8 8 8 8 8 8 8 8 8 0 8 8 8 0 8 8 0 8 8 0 8 8 8 8 8 8 8 0 8 8 8 8 0 8 0 8 8 8 8 0 
0 0 0 8 0 8 0 8 0 8 0 8 0 8 0 8 8 0 12 8 0 8 8 0 8 0 8 8 8 8 0 8 0 8 8 0 8 8 8 0 8 8 0 8 0 8 8 8 8 8 8 8 0 0 8 8 8 8 0 8 0 8 0 8 8 8 8 8 8 8 0 8 8 8 0 8 0 8 8 0 8 0 0 8 0 8 8 8 8 8 8 0 0 8 8 8 0 8 0 8 8 8 0 8 8 8 8 8 8 8 8 8 8 8 8 8 8 0 8 8 8 0 8 8 8 8 0 8 0 0 8 8 8 8 8 8 8 0 8 8 8 0 8 8 8 8 8 8 8 8 8 8 8 0 8 0 8 8 8 8 
0 0 8 0 8 0 8 0 8 0 8 0 8 0 8 0 8 8 0 0 8 8 0 8 0 8 0 8 0 8 0 8 8 8 0 0 8 8 0 8 0 8 8 0 8 0 0 8 0 8 8 8 8 0 0 8 8 0 8 0 8 0 8 8 8 8 8 0 8 8 8 8 8 8 0 0 0 0 8 0 8 0 0 0 8 8 8 8 0 8 0 8 0 8 8 8 0 8 8 8 8 8 0 0 0 8 8 8 8 8 8 0 8 8 0 8 0 8 8 0 8 8 8 8 8 8 0 8 0 0 8 8 8 0 8 8 0 8 8 0 8 8 8 8 8 8 8 8 8 8 8 8 0 8 8 0 8 8 8 8 
0 0 0 8 0 8 0 8 0 8 0 8 0 8 0 8 0 0 0 8 8 8 8 0 0 8 8 8 8 0 8 0 0 8 8 0 0 8 0 0 8 0 8 8 8 8 8 8 8 8 8 8 0 8 8 0 8 8 0 0 8 8 8 8 8 0 0 8 0 0 8 0 8 8 8 8 8 0 8 0 8 8 8 8 8 8 8 8 8 0 8 0 8 0 0 8 8 8 8 0 8 8 8 8 0 0 0 0 8 8 0 8 8 0 8 8 8 0 8 8 8 8 0 8 0 8 0 8 8 8 8 0 8 8 0 8 8 8 8 8 8 8 8 8 8 0 8 8 0 8 8 0 8 8 8 8 8 8 8 8 
0 0 8 0 8 0 8 0 8 0 8 0 8 0 8 8 8 0 0 8 0 8 8 0 8 0 8 0 8 0 0 8 0 0 8 8 0 8 0 8 0 8 0 8 8 0 8 8 8 8 0 8 8 0 8 0 8 0 8 8 0 8 8 8 8 0 8 0 8 0 8 8 8 0 8 8 8 8 0 8 0 8 8 0 8 8 8 8 8 0 8 8 8 0 8 0 8 8 0 8 0 8 8 8 8 0 8 0 8 8 8 8 8 8 8 8 8 0 8 8 8 8 8 8 8 0 8 8 8 8 8 0 8 8 0 8 8 8 8 0 8 0 8 0 8 0 8 8 8 8 8 8 8 8 8 8 8 8 8 8 
0 0 0 8 0 8 0 8 0 8 0 8 0 8 0 8 0 0 0 8 8 0 8 0 8 8 0 8 0 8 0 0 8 8 8 0 8 0 8 0 0 8 8 0 8 8 8 8 8 8 0 0 8 0 8 0 8 0 8 8 0 8 0 8 8 8 8 8 0 8 0 8 8 8 8 0 8 8 0 8 8 8 8 0 8 8 8 8 8 8 8 8 8 8 0 8 8 8 8 8 0 0 8 8 0 8 8 8 8 8 8 0 8 8 0 8 8 8 8 8 8 8 0 8 8 8 8 8 8 0 8 8 0 8 0 8 8 8 8 0 8 0 8 8 0 8 8 8 8 8 8 8 8 8 8 8 0 8 8 8 
0 0 8 0 8 0 8 0 8 0 8 0 8 0 8 8 8 0 0 8 0 8 0 8 0 8 8 8 8 8 8 8 8 0 8 0 8 8 8 8 0 8 8 8 0 8 0 8 8 8 8 0 8 0 8 0 8 0 8 8 0 8 8 8 0 8 8 0 8 8 8 8 8 8 8 8 0 8 8 8 8 0 8 8 0 8 8 8 8 8 0 8 8 8 0 8 0 8 0 8 0 8 0 8 0 8 8 8 8 8 0 8 8 0 8 8 8 8 8 8 8 0 8 8 0 8 8 0 8 8 0 8 8 8 8 8 8 8 8 8 0 8 8 8 8 8 0 8 8 8 8 8 8 8 8 8 8 8 8 8 
0 0 0 8 0 8 0 8 0 8 0 8 0 8 0 8 8 12 0 8 8 8 0 8 8 8 8 8 0 8 0 8 0 8 0 8 8 8 0 8 8 0 8 8 0 8 8 8 8 8 0 8 0 8 0 8 0 8 0 8 8 0 8 8 8 0 8 8 8 8 8 0 8 8 8 8 0 8 8 8 0 8 0 8 8 8 8 8 8 0 8 8 8 0 8 8 8 8 0 8 8 8 0 0 8 0 8 8 0 8 8 8 8 8 8 8 8 8 8 8 0 8 8 8 8 8 0 8 0 8 8 0 8 8 8 8 8 0 8 8 8 8 8 8 8 8 8 8 8 0 8 8 0 8 8 0 8 8 8 8 
0 0 8 0 8 0 8 0 8 0 8 0 8 0 8 0 8 0 0 8 0 8 0 8 0 0 8 0 8 0 8 8 0 8 8 0 8 8 8 8 8 8 8 8 0 8 0 0 8 8 8 0 8 0 8 0 8 0 8 0 8 8 8 0 8 0 8 8 8 8 8 8 8 8 8 0 8 0 8 8 8 8 0 8 8 8 0 8 0 8 0 0 8 8 0 8 8 8 8 8 0 8 8 0 0 8 0 0 8 8 8 8 8 8 0 8 8 0 8 0 8 0 8 8 8 8 8 0 8 0 8 8 8 8 8 8 0 0 8 8 0 8 8 8 0 8 8 8 8 8 0 8 8 0 8 8 8 8 0 8 
0 0 0 8 0 8 0 8 0 8 0 8 0 8 0 8 8 8 8 8 0 8 0 8 8 8 0 8 8 8 0 8 8 0 8 8 8 0 8 8 8 8 0 8 8 0 8 8 0 8 0 8 0 8 8 8 0 8 0 8 0 8 8 0 8 8 0 8 8 0 8 0 8 0 8 0 8 8 8 8 8 8 0 8 8 0 8 8 0 8 8 8 0 8 0 8 8 8 8 0 8 8 0 8 8 8 8 0 8 8 8 8 8 8 8 0 8 8 8 8 8 0 8 0 8 8 0 8 8 0 8 0 8 0 8 8 0 8 8 8 8 8 0 8 8 0 8 8 8 0 8 0 8 8 0 8 8 0 8 8 
0 0 8 0 8 0 8 0 8 0 8 0 8 0 8 0 8 8 8 8 8 0 8 8 0 8 0 8 0 0 8 0 0 8 0 8 0 8 8 0 8 8 8 8 0 8 8 0 8 0 8 8 8 8 8 8 8 8 8 8 8 0 0 8 0 8 8 8 8 8 8 8 0 8 8 8 0 8 8 8 8 0 8 0 8 8 0 8 8 0 8 0 8 0 8 0 8 8 8 8 0 8 0 8 8 8 8 0 8 0 8 8 8 8 0 8 8 8 8 0 0 8 0 8 8 8 8 0 8 0 8 8 8 8 8 8 8 0 8 8 8 0 8 8 0 8 8 8 8 8 8 8 8 0 8 0 8 8 8 8 
0 0 0 8 0 8 0 8 0 8 0 8 0 8 0 8 8 8 0 8 8 8 8 8 0 8 0 8 0 8 0 8 0 0 8 0 8 8 8 8 8 8 0 8 8 8 8 8 0 8 0 8 8 8 8 0 8 0 8 8 8 8 0 0 8 8 0 8 8 8 0 8 0 8 0 0 8 0 8 8 0 8 0 8 8 8 8 0 8 0 8 8 0 8 0 8 8 8 8 8 8 8 8 0 8 8 8 8 0 8 8 8 8 8 8 8 8 8 0 8 0 8 8 8 8 8 8 8 8 8 0 0 8 0 8 8 0 8 8 8 8 8 0 8 8 8 8 8 8 8 8 8 8 8 8 8 0 0 8 8 
0 0 8 0 8 0 8 0 8 0 8 0 8 0 8 0 8 12 0 0 8 8 0 0 8 8 8 0 8 8 8 0 8 0 8 8 0 8 0 8 8 8 8 0 0 8 0 8 8 0 8 8 8 8 8 8 0 8 0 8 0 8 0 8 0 8 0 8 8 8 8 0 8 0 8 0 8 8 0 8 0 8 8 8 8 0 0 8 0 8 8 8 8 8 8 8 8 0 8 8 8 8 8 8 0 8 0 8 8 0 8 8 8 8 8 8 0 8 8 8 8 0 8 8 8 8 8 0 8 0 8 8 0 8 0 8 8 8 0 8 0 8 8 0 8 8 8 8 8 8 8 8 8 8 8 8 8 8 8 8 
0 0 0 8 0 8 0 8 0 8 0 8 0 8 0 8 8 0 0 8 8 8 0 8 8 0 8 8 0 8 0 8 0 8 8 8 8 8 8 0 8 0 8 0 8 8 8 0 8 8 8 8 0 8 0 8 8 8 0 0 8 0 8 8 8 8 8 0 8 8 8 8 0 8 8 8 0 8 8 8 8 0 0 0 8 8 8 8 8 0 8 8 0 0 8 0 8 8 8 8 8 8 8 8 8 8 8 8 0 8 8 8 8 8 8 0 8 8 8 8 8 8 0 8 0 8 0 8 8 8 8 8 8 8 0 8 0 8 0 8 8 0 8 8 0 8 0 8 8 0 8 0 8 0 8 0 8 8 8 8 
0 0 8 0 8 0 8 0 8 0 8 0 8 0 8 0 8 12 0 8 0 8 0 0 8 8 0 8 0 8 0 8 0 8 8 8 8 0 8 8 8 0 8 0 8 0 8 8 0 8 8 0 8 0 8 0 8 8 0 8 0 8 0 8 0 8 0 8 0 8 8 0 8 8 8 0 8 0 8 0 8 8 0 0 0 0 8 8 8 8 0 8 8 8 0 8 0 8 8 8 0 8 0 8 0 0 8 0 8 8 0 8 8 0 8 8 8 8 8 8 0 8 8 8 0 8 0 8 0 8 0 8 8 8 8 0 8 8 8 0 8 8 0 8 8 0 8 8 0 8 0 8 8 0 8 8 0 8 8 8 
0 0 0 8 0 8 0 8 0 8 0 8 0 8 0 8 8 0 0 8 0 8 0 8 0 8 8 0 8 8 0 8 0 8 0 8 8 8 0 8 8 0 8 0 8 0 8 8 8 0 8 8 8 8 8 8 0 8 0 8 8 8 8 0 8 0 0 8 8 8 8 8 8 8 8 0 8 0 8 8 8 0 8 8 0 8 8 8 0 8 0 8 8 8 8 8 0 8 0 8 0 8 0 8 0 8 0 8 0 8 8 0 0 8 8 8 8 8 0 8 8 8 8 8 8 8 8 8 8 0 8 0 8 8 8 8 8 8 8 8 8 8 8 8 8 8 8 8 8 8 8 8 8 8 0 8 0 8 8 8 
0 0 8 0 8 0 8 0 8 0 8 0 8 0 8 0 8 8 8 8 0 8 8 8 0 8 0 8 8 8 0 8 0 8 8 8 0 8 8 0 8 0 8 0 8 8 8 8 8 0 8 8 8 8 8 8 8 0 8 0 8 0 8 8 8 0 8 0 8 8 8 8 0 8 8 0 8 8 8 0 8 8 0 8 8 8 0 0 8 0 8 0 8 0 8 8 8 8 0 8 8 0 8 8 8 0 8 8 8 0 8 0 8 8 8 8 8 0 8 8 8 8 8 8 8 0 8 8 8 8 8 0 8 0 8 0 8 8 8 0 8 8 8 8 8 8 8 8 8 8 8 0 8 0 8 8 8 8 8 0 
0 0 0 8 0 8 0 8 0 8 0 8 0 8 0 8 8 8 8 0 8 0 8 8 8 0 8 8 0 8 0 8 0 8 8 8 8 0 8 0 8 0 8 0 8 0 8 0 8 8 8 8 0 8 0 0 8 8 8 0 8 8 8 8 8 8 0 8 8 8 8 0 8 8 8 8 8 8 0 8 0 0 8 0 8 0 8 0 0 8 8 8 0 8 0 8 8 8 8 0 8 8 8 8 8 8 8 8 0 8 0 8 0 8 8 8 0 8 8 8 8 0 8 8 8 0 8 0 8 8 8 8 8 0 8 0 8 0 8 0 8 8 8 8 8 0 8 8 8 8 0 8 0 8 8 8 8 8 8 8 
0 0 8 0 8 0 8 0 8 0 8 0 8 0 8 0 8 8 8 8 0 8 8 8 0 8 8 8 8 0 8 0 8 0 8 0 8 8 8 8 0 8 0 8 0 8 0 8 8 8 8 8 8 0 8 8 8 8 0 8 8 0 8 8 8 0 8 0 8 8 8 8 8 0 0 8 8 0 8 8 8 8 8 8 0 8 0 8 0 8 8 0 8 8 8 8 8 0 8 8 8 8 0 8 0 8 8 8 8 8 8 8 8 0 8 0 8 8 8 8 8 8 8 0 8 0 8 8 0 8 8 0 8 8 8 8 8 8 0 8 8 8 8 8 8 8 8 8 8 8 8 8 8 0 8 0 8 8 0 8 
0 0 0 8 0 8 0 8 0 8 0 8 0 8 0 8 8 8 8 8 0 0 8 8 0 8 8 0 8 8 0 8 0 0 8 0 8 0 8 8 8 8 8 8 8 0 8 8 8 0 8 0 8 8 8 0 8 0 8 8 0 8 8 0 8 8 0 8 8 8 8 0 8 8 0 0 8 8 8 0 8 0 8 0 8 0 8 8 8 8 8 8 0 8 8 0 8 8 0 0 0 8 0 8 0 8 0 8 0 8 0 8 8 8 0 8 8 8 8 8 8 0 8 8 8 8 0 8 8 0 8 0 8 8 8 8 8 8 8 8 8 8 8 8 8 8 8 8 8 8 8 0 8 8 8 8 0 8 8 0 
0 0 8 0 8 0 8 0 8 0 8 0 8 0 8 0 8 12 0 8 0 8 0 8 0 8 0 8 8 8 0 8 8 0 8 0 8 8 8 8 8 8 0 8 8 8 8 8 8 8 8 8 8 8 0 8 8 8 0 8 8 0 8 8 0 8 8 8 8 8 8 8 0 8 12 8 0 8 8 8 0 8 0 8 0 8 8 0 8 8 8 0 8 0 0 8 0 8 8 8 0 8 8 8 0 8 8 8 0 8 8 8 8 0 8 0 8 8 8 8 8 8 0 8 0 8 8 0 8 8 8 8 8 8 0 8 0 8 8 0 8 8 8 0 8 8 0 8 0 8 8 8 8 0 8 8 8 8 8 8 
0 0 0 8 0 8 0 8 0 8 0 8 0 8 0 8 0 0 0 8 8 8 0 8 0 8 0 8 8 8 8 0 8 0 8 8 0 8 0 0 8 0 8 0 8 0 8 0 8 0 8 8 0 8 8 0 0 8 8 0 8 0 0 8 8 0 8 0 0 8 8 0 8 8 8 0 8 8 0 8 8 8 8 0 8 0 8 8 8 8 8 8 8 8 8 8 8 8 8 8 8 0 8 8 0 0 8 8 8 0 8 0 8 8 8 0 0 8 8 8 8 8 8 0 8 0 8 8 8 8 8 8 8 8 0 0 8 8 8 0 8 8 0 8 8 0 8 8 8 0 8 0 8 8 8 0 8 8 8 8 
0 0 8 0 8 0 8 0 8 0 8 0 8 0 8 8 0 0 0 8 8 8 8 8 8 8 8 8 8 8 8 8 8 8 8 0 8 0 8 0 0 8 0 8 0 8 0 8 0 8 0 8 8 0 8 0 8 8 8 8 8 8 0 0 0 8 0 0 8 8 8 8 0 8 8 0 8 0 8 8 8 8 8 0 8 0 0 0 8 0 8 0 8 8 8 8 0 8 0 8 8 8 0 8 8 0 8 0 8 8 8 8 8 8 8 8 8 0 8 8 0 8 8 8 8 8 8 8 8 8 8 0 8 8 8 0 8 8 8 8 8 0 8 0 8 0 8 0 0 8 8 8 8 8 8 8 8 8 8 0 
0 0 0 8 0 8 0 8 0 8 0 8 0 8 0 8 8 0 0 0 8 8 0 8 0 8 12 8 8 8 8 8 8 8 0 8 0 8 0 8 0 0 8 0 8 0 8 0 8 0 0 0 8 0 0 8 0 0 8 8 0 8 0 8 8 0 8 0 8 0 8 8 8 8 8 8 0 8 8 8 0 8 8 0 8 0 8 8 0 8 8 8 8 0 8 0 8 0 0 8 8 0 8 0 8 8 0 8 8 8 8 8 8 12 0 8 8 8 8 8 8 8 8 12 8 8 8 8 8 0 8 8 0 8 0 8 0 8 8 8 8 8 8 0 8 0 8 8 8 8 8 8 8 8 8 8 8 8 8 8 
0 0 8 0 8 0 8 0 8 0 8 0 8 0 8 0 8 0 8 0 0 0 8 0 8 8 0 8 8 0 8 0 8 0 0 0 8 0 8 8 8 8 8 8 0 8 0 8 8 8 0 8 8 8 0 0 8 8 0 8 8 8 8 8 8 8 8 0 8 8 8 8 8 0 8 8 8 8 8 0 12 8 0 8 0 8 0 8 8 8 8 8 8 8 8 8 8 8 8 8 0 8 0 0 8 8 8 0 8 0 0 8 0 8 0 0 8 0 0 8 0 0 0 8 0 8 8 0 8 8 0 8 8 8 8 0 8 8 8 8 8 8 8 8 8 8 8 8 8 8 8 0 8 0 8 0 8 0 8 8 
0 0 0 8 0 8 0 8 0 8 0 8 0 8 0 8 8 12 0 8 0 8 0 8 8 8 0 8 0 8 8 8 0 8 0 8 0 8 0 8 8 0 8 8 0 8 8 0 8 8 0 8 8 8 8 0 8 8 8 8 8 8 8 8 8 12 8 8 8 8 8 8 8 8 0 8 12 8 0 8 0 8 8 8 8 8 8 0 8 0 8 0 8 0 8 8 0 8 8 0 8 0 0 8 0 8 0 8 0 8 0 8 0 8 0 8 0 8 8 0 8 8 0 0 8 0 8 8 8 8 8 0 8 0 8 8 0 8 8 8 0 8 8 8 8 0 8 8 8 8 0 8 0 8 8 8 0 8 8 8 
0 0 8 0 8 0 8 0 8 0 8 0 8 0 8 0 8 0 12 0 8 8 8 8 8 8 8 8 8 8 8 8 8 8 0 8 0 8 8 8 8 8 0 0 8 0 0 8 0 8 0 8 0 8 8 0 8 8 8 8 8 0 8 8 8 8 8 12 8 0 0 8 0 8 8 8 8 0 8 0 8 8 8 0 0 8 0 8 0 8 0 8 0 8 8 0 8 0 8 0 0 8 0 8 0 0 8 8 8 8 8 8 8 0 8 0 8 8 8 8 8 8 8 8 8 8 0 8 8 0 8 8 8 8 8 8 0 8 8 8 0 8 0 8 0 8 0 8 0 8 8 8 8 8 8 8 8 8 0 8 
0 0 0 8 0 8 0 8 0 8 0 8 0 8 0 8 0 8 0 12 8 8 8 8 0 8 8 8 0 8 8 8 0 8 8 8 8 8 8 0 8 0 8 0 0 8 0 0 8 0 8 0 8 8 0 8 8 8 8 8 8 8 0 8 0 8 8 8 0 8 0 8 8 0 0 8 0 8 0 8 0 8 8 8 0 8 0 0 8 0 0 8 12 12 8 8 8 8 0 8 8 8 8 8 0 8 0 8 0 8 8 8 0 8 8 8 0 8 0 8 0 0 8 8 8 0 8 8 8 8 8 0 8 0 8 0 8 0 8 8 0 8 8 8 8 8 8 8 8 0 8 8 8 8 8 0 8 8 8 8 
0 0 8 0 8 0 8 0 8 0 8 0 8 8 8 8 8 12 8 8 0 8 0 8 8 8 8 8 8 8 8 8 8 8 8 8 8 0 0 8 0 8 8 8 0 8 8 8 8 0 8 8 8 8 0 8 8 0 8 0 8 0 8 8 8 8 8 8 8 8 8 0 8 8 8 8 8 8 8 8 8 8 0 8 8 0 8 8 8 8 8 8 8 8 0 8 0 8 8 8 8 8 8 8 8 8 8 8 8 0 8 0 8 8 8 8 8 8 8 8 8 0 8 0 8 8 8 0 8 0 8 8 8 8 0 8 8 8 0 8 8 8 8 8 0 0 8 8 8 8 0 8 0 8 8 8 8 0 8 8 
0 0 0 8 0 8 0 8 0 8 0 8 0 8 0 8 0 8 8 0 8 0 8 0 8 8 0 8 8 8 0 8 0 8 8 0 8 0 8 0 0 8 0 0 8 0 8 0 8 0 8 0 8 0 8 0 8 8 8 0 8 8 8 0 8 8 0 8 8 8 8 8 8 8 0 8 8 8 0 12 8 8 8 8 8 8 8 8 8 0 8 0 0 8 0 8 8 0 8 8 8 8 8 8 8 8 8 0 8 8 0 8 8 0 8 8 8 0 8 8 8 8 8 8 8 8 0 8 8 0 8 0 8 8 8 0 8 0 8 8 8 8 8 8 0 8 8 0 8 8 0 8 8 8 8 0 8 8 8 8 
0 0 8 0 8 0 8 0 8 0 8 0 8 0 8 0 8 0 0 8 0 0 8 8 8 0 8 0 8 8 8 0 8 8 8 0 8 8 8 8 8 8 0 8 0 8 0 12 8 8 8 0 0 8 0 8 0 8 0 8 0 8 0 8 0 8 8 8 8 8 0 8 8 8 8 0 8 8 8 0 0 8 8 8 0 8 0 8 0 8 8 0 8 0 8 0 8 8 8 8 8 0 8 0 0 8 8 8 8 0 8 0 8 0 8 8 0 8 0 8 8 8 8 8 0 8 8 0 8 8 8 8 8 0 8 8 0 8 8 8 8 8 12 8 0 8 8 8 8 0 8 0 8 8 0 8 8 8 8 8 
0 0 0 8 0 8 0 8 0 8 0 8 0 8 0 8 0 0 0 0 8 0 8 8 8 8 8 8 8 0 8 8 0 8 0 8 8 0 8 0 8 0 8 8 0 8 8 0 12 8 0 8 0 8 0 8 8 0 8 0 8 8 8 8 0 8 8 8 8 8 8 8 8 8 0 8 8 0 8 0 8 8 8 8 0 8 0 8 8 0 8 0 8 0 8 8 8 0 8 0 8 8 0 8 0 8 8 8 0 8 8 0 8 8 8 8 8 8 8 8 8 8 8 8 8 8 8 0 8 0 8 0 8 8 0 8 8 8 8 8 8 8 8 8 0 8 0 8 8 0 8 8 8 8 8 0 8 8 0 8 
0 0 8 0 8 0 8 0 8 0 8 0 8 0 8 0 8 0 8 0 8 8 0 8 8 0 8 0 8 0 8 0 8 0 0 8 8 8 0 8 0 8 0 0 8 8 8 8 8 8 0 8 8 8 0 8 8 8 8 0 8 8 0 8 0 8 8 8 8 8 8 0 8 8 0 0 8 0 8 8 0 8 0 8 8 8 8 8 8 8 8 0 8 0 8 0 8 0 8 8 0 0 8 8 8 8 8 0 8 8 8 8 0 8 8 0 8 8 8 8 8 8 8 8 0 8 8 0 8 0 8 8 8 0 8 8 8 8 8 8 8 8 8 0 8 8 8 8 8 8 0 8 8 0 8 8 8 8 8 8 
0 0 0 8 0 8 0 8 0 8 0 8 0 8 8 8 8 8 8 8 0 8 8 0 8 0 8 8 0 8 8 8 8 8 8 0 8 8 8 8 8 8 8 8 8 0 8 8 8 12 8 8 8 8 8 0 8 0 8 8 8 0 8 0 8 0 8 8 8 8 8 8 0 8 8 0 0 8 0 8 8 0 8 0 8 8 8 8 8 8 8 0 8 0 8 8 8 0 8 0 8 0 8 8 8 8 0 8 8 8 8 8 8 0 8 0 8 8 0 8 8 0 8 0 8 8 0 8 0 8 0 8 8 8 8 8 8 8 8 0 8 0 8 8 0 8 8 8 0 8 8 0 8 8 8 8 8 0 8 8 
0 0 8 0 8 0 8 0 8 0 8 0 8 0 8 0 8 0 0 8 8 0 8 0 8 8 0 8 8 8 8 8 8 0 0 8 0 8 8 8 0 8 8 8 8 8 8 0 8 0 8 0 8 8 8 8 0 8 8 8 8 8 8 0 8 0 8 8 8 8 8 0 8 8 8 8 0 8 8 8 8 0 8 8 8 0 8 8 8 0 8 8 0 8 0 8 8 8 8 8 0 8 8 8 0 8 8 8 0 8 8 8 8 8 8 8 8 0 8 8 0 8 8 0 8 8 8 0 8 8 0 8 8 8 8 8 8 8 8 8 0 8 0 8 8 8 8 12 8 8 8 8 0 8 8 8 8 8 8 8 
0 0 0 8 0 8 0 8 0 8 0 8 0 8 0 8 0 0 8 0 8 8 8 0 0 8 8 8 8 8 8 8 8 8 8 8 8 8 0 8 0 8 0 8 8 0 8 8 8 8 0 8 0 0 8 0 8 0 8 0 8 8 8 0 8 0 8 8 0 8 8 8 0 8 0 8 8 8 0 0 8 8 8 0 8 8 8 0 8 8 0 8 0 8 0 8 0 8 8 8 8 8 8 8 8 0 8 0 8 0 8 8 0 8 8 0 8 8 0 8 8 0 8 8 0 8 8 0 8 0 8 8 8 8 8 8 8 8 0 8 8 8 0 8 0 8 12 8 8 8 8 8 8 0 8 8 8 12 8 8 
0 0 8 0 8 0 8 0 8 0 8 0 8 0 8 0 8 0 8 8 8 8 8 8 8 8 8 8 8 8 8 0 8 0 0 8 8 8 8 8 8 0 8 0 0 8 8 0 0 8 0 0 8 8 0 0 8 8 0 8 8 8 0 8 0 8 0 0 8 0 8 8 8 8 8 8 8 8 8 0 8 8 8 8 8 8 0 8 0 8 0 8 0 8 0 8 0 8 8 8 8 8 0 8 0 8 0 8 8 8 8 0 8 0 8 0 0 8 8 8 8 8 8 8 8 8 8 8 8 8 8 0 8 8 8 0 8 0 8 0 8 8 8 8 8 8 8 8 8 8 8 8 8 8 0 8 8 8 8 8 
0 0 0 8 0 8 0 8 0 8 0 8 0 8 0 8 8 8 0 0 8 0 8 8 8 0 8 8 8 0 8 8 8 8 8 8 8 8 8 8 0 8 0 8 8 8 0 12 8 0 8 8 8 8 0 8 0 8 8 0 8 0 8 0 8 0 8 8 8 0 8 0 8 0 8 8 0 8 0 8 0 8 0 8 8 0 8 8 0 8 0 8 0 8 8 8 0 8 0 0 8 0 8 8 8 0 8 8 8 8 8 8 8 8 0 8 8 8 8 8 8 8 0 8 8 8 8 0 8 8 8 8 8 8 8 8 8 8 8 8 0 8 8 0 8 8 8 8 8 8 8 8 8 8 8 8 8 8 0 8 
0 0 8 0 8 0 8 0 8 0 8 0 8 0 8 0 8 0 0 8 0 8 0 8 0 8 0 8 0 8 0 8 0 8 8 8 0 0 0 8 8 8 12 8 8 8 12 0 8 12 0 8 0 8 8 0 8 0 8 8 0 8 8 0 8 0 8 8 8 8 0 0 0 0 0 8 8 0 8 0 8 0 8 8 8 8 0 8 0 8 0 8 8 0 8 8 8 0 8 8 0 8 0 8 8 8 8 8 8 8 8 8 8 8 8 8 0 8 0 8 0 8 8 8 8 0 8 0 8 0 0 8 0 8 0 8 8 8 8 8 8 8 0 8 8 8 0 8 8 8 8 8 8 8 8 8 8 8 8 8 
0 0 0 8 0 8 0 8 0 8 0 8 0 8 0 8 0 8 8 8 8 8 8 0 8 0 8 8 0 8 8 8 8 0 8 8 8 0 8 0 12 0 0 12 8 8 8 0 8 0 8 0 0 0 8 8 0 0 8 0 8 0 8 0 8 0 8 8 8 0 8 8 0 8 0 8 8 0 8 0 8 8 0 8 8 0 8 0 8 0 8 0 8 8 0 8 0 8 0 8 8 8 8 0 8 8 8 0 8 0 8 0 8 0 8 8 8 8 8 8 8 0 8 8 0 8 0 8 0 8 8 0 8 8 8 8 0 8 0 8 0 8 8 8 8 8 8 8 8 0 8 8 8 8 8 0 8 8 0 8 
0 0 8 0 8 0 8 0 8 0 8 0 8 0 8 8 8 0 8 8 8 8 8 8 8 8 0 8 8 0 8 8 8 0 0 8 8 8 8 8 0 8 0 0 8 0 8 0 8 8 0 8 8 8 0 8 8 0 8 0 8 8 8 8 0 8 8 0 8 8 8 8 8 8 8 8 8 8 0 8 8 8 8 0 8 8 0 8 0 8 0 8 0 0 8 0 8 0 8 0 8 8 8 8 0 8 0 8 0 8 0 8 0 8 8 8 8 8 8 0 8 8 0 8 8 8 8 8 8 0 8 8 8 8 8 0 8 0 8 0 8 0 8 8 8 8 8 0 8 8 8 8 8 8 8 8 8 8 8 8 
0 0 0 8 0 8 0 8 0 8 0 8 0 8 0 8 0 8 0 8 8 8 0 0 8 0 8 8 0 8 8 0 8 8 8 8 8 8 8 8 8 8 8 8 8 0 12 0 8 8 8 0 8 8 0 0 8 8 0 8 8 8 0 8 8 0 0 0 0 8 8 8 8 0 0 8 8 8 8 8 0 8 8 8 8 0 8 8 0 8 0 8 8 8 0 8 0 8 8 8 8 0 8 8 8 0 8 8 0 8 0 8 8 0 8 8 8 8 8 8 0 8 8 0 8 0 8 8 8 8 8 0 8 8 8 8 8 8 8 8 8 8 0 8 8 8 8 12 0 8 0 8 8 8 8 8 8 8 8 8 
0 0 8 0 8 0 8 0 8 0 8 0 8 0 8 0 8 0 0 8 0 8 0 8 0 8 8 8 8 8 8 8 8 8 8 8 8 0 0 8 8 8 12 8 8 8 8 8 8 8 0 8 8 0 8 0 0 8 8 0 8 0 8 0 8 8 0 8 0 0 8 0 0 8 0 0 8 0 8 8 0 8 0 8 8 0 8 8 8 0 8 0 8 8 8 8 8 8 8 0 0 8 0 8 0 8 8 8 8 8 8 0 8 8 8 8 8 8 8 0 8 0 8 0 8 8 0 8 0 8 0 8 8 0 0 8 0 8 0 8 0 8 8 8 8 0 8 8 8 8 8 8 0 8 0 8 8 8 8 8 
0 0 0 8 0 8 0 8 0 8 0 8 0 8 0 8 0 8 8 8 0 8 0 8 8 0 8 8 8 0 8 8 0 8 0 8 0 8 8 8 8 8 0 8 8 8 8 8 8 8 0 8 0 8 8 8 8 0 0 8 0 8 0 8 8 8 8 8 8 0 8 0 8 8 8 8 0 8 8 8 8 8 8 0 8 8 0 8 0 8 0 8 0 8 0 0 8 8 8 8 8 8 8 0 8 8 0 8 8 8 8 8 0 8 0 8 8 0 8 8 8 8 8 8 0 8 0 8 0 8 8 8 8 0 8 0 8 8 8 0 8 8 8 8 8 8 8 0 8 0 8 0 8 0 8 8 8 8 0 8 
0 0 8 0 8 0 8 0 8 0 8 0 8 0 8 8 8 8 8 8 8 0 8 0 8 8 8 8 8 8 8 0 8 0 0 8 8 8 8 8 8 0 8 0 8 8 0 8 0 0 8 0 8 0 8 8 0 8 0 8 0 8 0 8 8 8 8 8 8 8 8 0 8 8 8 0 8 8 8 8 8 8 0 8 8 8 8 8 8 0 8 0 8 8 8 8 0 8 8 8 8 8 8 8 8 0 8 0 8 8 8 0 8 0 8 0 8 8 0 8 0 8 0 8 8 0 8 8 8 0 8 8 8 8 8 8 8 8 8 8 0 8 8 8 0 8 8 8 0 8 0 8 8 8 8 0 8 8 8 8 
0 0 0 8 0 8 0 8 0 8 0 8 0 8 0 8 8 12 0 8 8 8 8 0 8 0 8 8 8 0 8 8 8 8 8 0 0 8 8 0 8 0 0 8 0 8 0 8 0 8 8 8 0 8 8 0 8 8 8 8 0 8 8 8 8 8 8 0 8 8 8 0 8 8 8 0 8 0 8 8 8 8 8 8 8 0 8 8 8 0 8 8 8 8 8 8 8 8 8 8 8 12 8 8 0 8 8 0 8 8 0 8 8 8 8 8 0 8 8 0 8 0 8 8 8 8 8 0 8 8 0 8 8 8 0 8 0 8 0 8 8 0 8 0 8 8 8 0 8 8 8 8 8 8 8 8 8 8 8 0 
0 0 8 0 8 0 8 0 8 0 8 0 8 0 8 8 8 0 0 8 8 8 8 8 8 8 0 8 0 8 0 8 8 0 8 0 8 0 0 8 0 12 0 8 8 8 8 0 0 8 8 0 8 8 8 8 8 8 8 8 8 8 8 8 8 0 8 0 8 8 8 8 0 8 8 0 8 0 8 8 8 8 0 8 0 8 8 8 0 8 0 8 8 8 8 8 8 8 8 0 8 8 0 0 8 8 8 8 8 8 8 0 8 0 0 8 8 0 8 0 8 0 8 0 8 8 8 8 0 8 8 8 8 8 8 0 8 8 8 0 8 8 0 8 8 8 8 8 8 8 0 8 8 8 8 0 0 12 8 8 
0 0 0 8 0 8 0 8 0 8 0 8 0 8 0 8 12 8 8 8 8 8 0 8 0 0 8 0 8 8 8 8 8 8 0 12 0 8 0 0 0 8 0 8 0 8 8 8 8 8 0 8 8 0 8 8 0 8 8 8 8 8 0 8 0 8 0 0 8 8 8 8 8 8 8 8 0 8 8 8 8 0 8 0 0 8 0 8 8 8 8 0 8 8 0 8 8 8 8 8 8 12 8 8 0 8 0 8 8 8 8 8 8 8 8 0 8 8 0 8 0 0 8 8 8 8 8 8 8 0 0 8 8 0 8 8 8 0 8 8 8 0 8 8 8 8 8 8 0 8 8 8 8 8 0 8 12 8 8 8 
0 0 8 0 8 0 8 0 8 0 8 0 8 0 8 0 8 12 8 8 0 8 0 0 8 0 8 8 0 8 8 8 12 8 0 8 0 8 0 8 0 8 8 8 8 0 8 8 8 8 8 0 8 8 8 0 8 8 8 8 8 8 8 0 8 0 0 8 8 8 8 0 8 8 8 8 8 8 0 8 0 8 0 8 0 8 0 8 0 8 0 8 8 0 8 8 8 8 8 8 8 8 8 8 0 8 0 8 0 8 0 8 8 8 0 8 0 8 0 8 0 8 0 8 8 8 8 8 8 8 0 8 0 8 8 8 8 8 8 8 8 8 0 8 8 8 8 8 8 8 8 8 8 8 12 8 8 12 8 8 
0 0 0 8 0 8 0 8 0 8 0 8 0 8 0 8 8 0 0 0 8 8 8 8 8 8 8 8 8 0 8 8 0 8 8 0 8 0 8 0 8 8 0 8 8 0 8 0 8 8 8 8 0 8 8 8 0 8 8 8 8 8 8 0 8 0 8 0 8 8 0 8 0 8 8 8 8 8 8 8 8 8 0 8 8 8 8 8 8 8 8 0 8 8 8 8 8 8 8 0 8 0 8 0 0 8 8 8 0 8 0 8 0 8 8 8 8 0 8 8 8 8 8 0 8 0 0 8 8 8 8 8 8 8 8 8 8 8 8 8 8 0 8 0 8 8 8 8 0 8 8 8 0 0 0 0 8 8 8 0 
0 0 8 0 8 0 8 0 8 0 8 0 8 0 8 0 8 0 0 8 0 8 8 12 8 8 8 0 8 8 0 8 8 0 8 0 8 8 0 8 8 8 8 0 0 8 8 0 0 8 8 8 8 8 8 8 8 0 8 8 8 8 0 8 0 8 8 8 8 8 8 0 8 0 8 8 8 0 8 8 0 8 8 8 8 8 8 8 0 8 0 8 8 8 8 8 8 0 8 8 0 8 0 8 0 8 0 8 0 8 0 8 8 8 8 8 8 8 8 8 8 8 8 8 0 0 8 0 8 8 8 8 8 0 8 8 8 8 0 8 8 8 8 8 8 8 8 8 8 8 8 0 8 0 8 0 8 12 0 8 
0 0 0 8 0 8 0 8 0 8 0 8 0 8 0 8 0 12 0 8 8 8 0 8 8 0 8 0 8 8 8 0 8 8 0 8 0 8 0 8 8 0 0 8 0 8 0 8 0 0 8 8 0 8 8 8 8 8 0 8 0 8 8 8 0 8 0 8 8 8 8 8 0 8 8 0 8 0 8 8 8 0 8 0 8 8 8 0 8 8 8 0 8 8 8 8 8 8 0 8 8 8 8 8 8 0 8 8 8 0 8 0 8 0 8 8 0 8 0 8 0 8 8 8 8 8 8 8 0 8 0 8 8 8 8 8 8 8 0 8 8 0 8 8 8 8 8 8 8 8 8 8 8 8 0 8 8 12 8 0 
0 0 8 0 8 0 8 0 8 0 8 0 8 0 8 0 8 0 8 0 8 0 8 8 0 8 0 8 0 8 8 8 8 8 0 8 0 8 8 8 0 8 0 0 8 8 8 8 8 8 0 8 8 8 0 8 0 8 8 0 8 8 0 8 8 0 8 0 8 8 8 8 8 8 8 0 8 0 8 0 8 8 8 0 8 0 8 8 0 8 0 8 8 0 8 8 0 8 8 8 8 8 8 0 8 8 8 8 8 8 8 8 0 8 0 0 8 8 8 0 0 0 8 8 12 12 8 0 8 0 8 8 8 0 8 8 8 0 8 0 8 8 0 8 8 8 8 8 0 8 8 8 8 0 8 8 12 8 8 8 
0 0 0 8 0 8 0 8 0 8 0 8 0 8 0 8 0 8 0 8 0 8 0 8 8 0 8 8 8 0 8 8 8 8 8 12 0 8 8 8 8 0 0 0 8 8 8 12 8 8 8 0 0 0 8 0 8 8 8 8 0 8 0 8 0 8 8 8 8 0 8 0 0 0 8 8 8 8 0 8 0 8 8 8 0 8 0 0 8 0 8 8 0 8 8 0 8 8 8 8 0 0 8 8 8 8 8 8 12 8 8 0 8 0 8 8 0 8 8 8 8 8 8 8 8 8 8 8 8 8 8 0 8 8 0 8 0 8 8 8 0 8 8 0 8 0 8 0 8 8 8 8 8 8 8 8 8 8 8 8 
0 0 8 0 8 0 8 0 8 0 8 0 8 0 8 0 8 0 0 0 8 8 8 0 8 8 8 8 8 8 8 8 8 8 8 0 12 0 12 12 8 8 8 8 8 0 8 0 8 0 0 0 8 0 8 8 0 8 8 8 8 0 8 0 8 8 8 0 8 8 0 8 8 8 8 8 8 0 8 8 8 0 8 8 8 8 8 0 8 8 8 8 8 8 8 8 8 0 8 8 0 8 0 8 8 8 8 8 8 8 8 8 0 8 0 8 0 0 8 8 8 8 8 0 8 0 0 8 0 8 8 0 8 0 8 0 8 8 8 8 8 8 8 8 8 8 8 8 8 8 0 8 0 8 8 8 0 8 8 8 
0 0 0 8 0 8 0 8 0 8 0 8 0 8 0 8 0 12 8 8 0 0 8 0 0 8 0 8 8 0 0 8 0 8 8 8 0 8 8 8 8 8 8 8 8 8 8 8 8 8 0 8 0 8 8 0 8 0 8 8 8 8 8 8 8 8 0 8 0 8 8 8 8 8 8 8 8 8 8 8 8 0 0 8 8 8 8 8 0 8 0 8 8 0 8 8 0 8 8 8 0 0 8 8 8 8 8 0 8 0 8 0 12 8 0 8 0 8 0 8 8 8 0 8 0 8 8 0 8 0 8 0 8 8 8 8 0 8 8 8 0 8 0 0 8 0 8 8 8 0 8 8 8 8 8 8 8 8 8 8 
0 0 8 0 8 0 8 0 8 0 8 0 8 0 8 0 8 0 12 0 8 0 0 8 0 0 8 8 8 8 0 0 8 8 0 0 8 0 0 12 0 8 8 8 0 8 0 0 8 8 8 8 8 8 8 8 0 8 8 8 8 0 8 0 8 8 0 0 0 8 0 8 0 8 0 8 0 8 8 8 8 8 0 8 8 8 8 8 8 0 8 0 8 8 8 0 8 8 8 8 0 8 8 8 8 8 8 8 0 8 8 8 8 0 8 8 0 8 8 0 8 8 8 8 0 8 0 8 0 8 0 8 0 8 0 8 8 0 8 8 8 0 8 0 8 0 8 0 8 8 8 8 8 8 0 8 0 12 6 8 
0 0 0 8 0 8 0 8 0 8 0 8 0 8 0 8 0 8 0 8 0 8 8 8 8 8 8 8 8 8 8 8 8 8 0 0 0 12 0 8 0 0 8 0 8 8 8 8 0 8 8 8 8 0 8 0 8 0 8 8 8 8 0 8 8 8 8 0 8 8 8 8 0 0 8 0 8 8 8 8 0 8 0 0 8 8 8 0 8 8 0 8 8 0 8 8 8 0 8 8 8 0 0 8 0 8 8 8 0 8 8 8 8 8 8 0 8 8 8 8 8 8 0 8 8 8 8 8 8 8 8 8 8 0 8 8 8 8 0 8 8 8 8 8 8 8 8 8 8 8 12 8 8 0 8 8 8 8 10 8 
0 0 8 0 8 0 8 0 8 0 8 0 8 0 8 0 8 0 0 0 8 0 8 8 8 0 8 8 8 8 8 8 8 8 8 8 0 8 8 0 8 0 0 0 8 8 8 8 0 8 8 8 8 8 0 8 8 8 8 0 8 8 8 0 8 8 8 8 8 8 8 8 8 0 8 8 0 8 8 8 8 8 8 8 8 8 8 0 8 0 8 8 0 8 8 8 8 8 8 0 8 8 8 0 0 8 8 8 8 8 8 8 8 0 8 8 8 8 8 8 0 8 8 8 8 8 8 8 8 0 8 8 8 8 8 8 0 8 8 8 8 0 8 8 8 8 0 8 8 0 8 8 0 8 8 8 8 8 8 8 
0 0 0 8 0 8 0 8 0 8 0 8 0 8 0 8 0 12 8 8 8 0 0 0 0 8 0 8 8 0 8 0 8 8 0 0 8 0 8 0 8 8 8 0 8 8 8 8 8 0 8 0 8 0 8 0 8 8 8 8 0 8 0 8 8 8 8 8 8 8 8 0 8 8 8 8 8 8 8 8 8 0 8 0 8 0 8 0 8 8 8 8 8 8 0 8 8 0 8 8 8 8 0 8 0 8 8 8 8 8 8 8 8 8 0 0 8 8 8 0 8 0 8 0 8 8 0 8 8 8 8 0 8 0 8 8 8 0 0 8 8 0 8 8 0 8 0 8 0 8 8 0 12 8 8 8 8 8 8 8 
0 0 8 0 8 0 8 0 8 0 8 0 8 0 8 0 8 0 0 8 8 8 8 8 0 8 8 8 0 8 0 8 0 12 8 0 0 12 8 0 8 8 8 8 8 8 8 8 12 8 0 8 8 8 8 8 0 8 8 0 8 8 8 0 8 8 8 8 0 0 0 0 8 8 8 8 8 0 8 0 8 8 0 8 8 8 0 0 0 8 8 0 8 8 8 0 8 8 0 8 8 8 8 8 8 8 8 0 8 8 8 0 8 0 8 0 8 8 0 8 0 8 0 8 0 8 0 8 8 0 8 0 8 0 8 8 8 8 0 8 0 8 0 8 8 0 8 8 8 0 8 8 8 8 8 8 0 8 8 10 
0 0 0 8 0 8 0 8 0 8 0 8 0 8 0 8 0 8 8 8 8 8 8 0 8 0 8 8 8 8 0 8 8 8 8 8 8 8 8 8 0 8 8 8 8 0 8 8 8 12 0 0 8 0 8 8 8 8 0 8 0 8 0 8 0 8 0 8 8 8 8 0 8 0 8 8 0 8 8 0 0 8 0 8 8 0 8 0 0 0 8 8 0 8 0 8 8 8 8 8 0 8 8 8 8 8 8 8 8 8 8 8 8 0 8 0 8 8 8 8 8 0 8 0 8 0 8 0 8 8 8 8 8 8 0 8 0 8 8 8 8 8 8 0 8 8 8 0 8 8 8 8 0 8 8 8 8 8 8 8 
0 0 8 0 8 0 8 0 8 0 8 0 8 0 8 0 8 0 8 8 8 8 8 8 8 8 0 8 8 0 8 8 8 0 8 0 8 0 8 8 8 0 8 8 8 8 0 8 8 8 8 8 8 8 8 8 0 8 8 0 8 0 8 8 8 8 8 8 8 8 0 8 8 8 8 0 8 8 8 8 8 8 8 0 8 8 0 8 8 0 8 0 8 8 8 8 8 8 0 8 8 8 0 8 0 8 8 8 0 8 8 8 0 8 0 8 8 0 8 8 8 8 0 8 8 8 0 8 8 0 8 8 8 0 8 0 8 8 8 8 8 0 8 8 8 8 8 8 8 8 8 8 8 8 8 8 8 8 8 8 
0 0 0 8 0 8 0 8 0 8 0 8 0 8 0 8 8 12 0 8 8 0 8 8 0 8 8 0 8 8 8 0 8 0 0 8 0 8 0 8 8 8 8 8 0 8 0 8 8 8 8 12 8 8 8 0 8 0 8 8 8 8 0 8 8 0 8 8 8 0 8 0 8 12 8 8 0 8 8 8 8 8 8 0 8 0 8 8 8 0 0 8 8 8 8 0 8 0 8 0 8 8 8 0 8 8 0 8 8 0 8 8 8 8 8 8 0 8 8 8 8 8 8 8 8 0 8 0 8 8 0 8 8 8 8 8 0 8 8 8 8 8 8 0 8 8 0 8 8 8 8 8 8 8 8 8 8 8 8 10 
0 0 8 0 8 0 8 0 8 0 8 0 8 0 8 0 8 0 8 8 8 8 8 0 8 0 8 8 8 8 8 8 8 8 8 8 8 8 8 0 8 8 8 8 8 0 0 0 8 8 8 0 8 8 8 8 8 8 8 8 0 8 0 8 0 8 0 8 8 8 8 8 12 8 8 8 0 8 8 0 8 0 8 8 8 8 8 0 8 0 8 0 8 0 8 8 8 8 8 8 8 0 8 8 8 8 8 8 0 8 8 0 8 8 8 8 8 0 8 8 0 8 8 8 8 0 8 8 8 8 8 0 8 8 8 0 8 8 0 8 0 8 8 8 8 8 8 0 8 0 8 8 8 8 8 8 8 8 8 8 
0 0 0 8 0 8 0 8 0 8 0 8 0 8 0 8 8 8 0 8 8 0 8 8 8 0 8 0 8 8 8 8 8 8 8 8 0 8 8 0 0 8 8 0 8 0 8 0 0 0 8 0 8 0 0 8 0 8 0 0 8 0 0 8 0 8 0 0 8 8 12 8 8 0 8 0 8 8 8 8 0 0 0 8 8 0 0 0 0 8 8 0 0 8 0 8 0 8 8 8 8 8 0 8 8 8 8 8 8 8 8 8 8 8 8 8 0 8 0 8 8 8 8 8 8 8 8 8 8 0 8 8 8 0 8 8 0 8 8 8 8 8 8 8 8 8 8 8 8 8 8 8 8 8 8 8 8 8 8 10 
0 0 8 0 8 0 8 0 8 0 8 0 8 0 8 0 8 8 8 8 8 8 0 8 8 8 8 0 8 8 8 8 8 8 8 8 8 0 8 8 8 8 8 8 8 8 0 8 0 8 8 8 0 8 8 0 8 0 8 0 0 8 8 0 8 8 8 8 0 8 8 8 0 8 0 8 8 0 8 0 8 8 8 8 8 8 8 0 8 0 0 8 8 0 8 8 8 0 8 8 8 8 8 0 8 0 8 8 8 8 8 8 8 0 8 8 8 8 8 8 0 8 8 8 8 8 8 8 8 8 0 8 8 8 8 8 0 8 0 8 8 8 8 8 8 0 8 8 8 8 8 8 8 8 0 8 8 8 8 10 
0 0 0 8 0 8 0 8 0 8 0 8 0 8 0 8 0 12 0 8 0 8 8 0 8 8 0 8 8 8 8 8 8 0 8 8 8 12 0 12 8 8 0 8 8 8 8 8 8 0 8 8 8 8 8 8 8 8 8 0 8 8 8 8 8 0 8 8 8 0 0 0 0 8 0 8 0 8 8 8 8 8 8 0 0 8 8 8 0 8 0 8 8 8 8 8 0 8 0 8 8 8 8 8 0 8 8 0 8 0 8 8 0 8 0 8 0 8 0 8 8 0 8 8 0 8 0 8 8 0 8 0 8 8 8 0 8 0 8 8 8 8 8 8 8 8 8 0 8 8 8 8 8 8 8 0 8 8 8 10 
0 0 8 0 8 0 8 0 8 0 8 0 8 0 8 0 8 0 8 8 8 0 8 8 0 8 0 8 8 8 8 8 8 8 0 8 0 8 12 0 8 0 8 0 8 8 8 8 8 8 8 8 8 8 8 8 8 8 0 8 8 8 8 0 8 0 8 0 8 0 8 0 8 8 8 0 8 8 8 8 8 0 8 8 8 0 8 0 8 0 0 8 0 8 8 0 8 8 8 8 8 8 8 0 8 8 8 8 0 8 0 8 0 8 0 8 0 8 8 0 8 8 0 8 8 8 8 8 0 8 8 0 8 8 8 0 8 0 8 8 8 8 0 8 8 8 8 8 8 8 10 8 8 0 0 8 0 8 8 18 
0 0 0 8 0 8 0 8 0 8 0 8 0 8 0 8 8 0 0 8 8 8 0 8 8 0 8 0 8 8 8 0 8 8 8 8 8 0 8 8 8 8 0 12 0 8 8 8 8 8 8 8 8 8 0 0 0 0 8 8 0 8 0 8 0 8 0 8 8 8 8 8 8 0 8 8 8 8 8 0 8 0 0 8 8 0 0 8 0 8 8 0 8 8 8 8 8 8 8 0 8 8 0 8 8 8 8 0 8 0 8 0 8 0 8 0 8 8 8 8 0 8 8 8 0 8 8 8 8 8 0 8 0 8 8 0 8 8 8 8 8 8 8 8 0 8 0 8 8 8 8 8 8 8 8 8 8 8 8 18 
0 0 8 0 8 0 8 0 8 0 8 0 8 0 8 0 8 0 0 8 0 8 0 0 8 8 0 8 0 0 8 8 8 8 8 8 0 8 8 8 12 8 0 8 0 8 8 8 8 0 8 8 8 8 8 0 8 0 8 8 8 0 8 0 8 8 8 8 8 8 8 8 8 8 8 0 8 8 8 8 8 8 0 8 0 8 0 8 8 0 8 8 8 8 8 0 0 0 0 8 0 8 8 0 8 0 0 8 8 8 8 8 8 8 8 8 8 8 0 8 8 8 8 0 8 0 8 8 8 0 8 8 8 0 8 0 8 8 8 8 8 0 8 8 8 0 8 8 0 8 8 8 8 8 8 0 12 8 8 10 
0 0 0 8 0 8 0 8 0 8 0 8 0 8 0 8 0 8 0 0 8 0 8 0 0 8 0 8 0 8 0 8 0 0 8 8 8 0 8 8 0 12 12 0 8 0 8 0 8 8 0 0 8 0 8 8 8 8 8 0 8 0 8 0 8 8 8 8 8 8 8 8 8 0 8 8 8 8 0 8 8 8 0 8 8 0 8 8 8 0 8 8 0 8 8 8 8 0 8 8 8 8 8 8 0 8 0 8 8 8 8 0 8 8 8 0 8 12 8 0 8 8 0 8 0 8 8 0 8 8 8 0 8 8 0 8 0 8 8 8 0 8 8 0 8 8 0 8 8 8 8 8 8 8 8 8 8 8 8 18 
0 0 8 0 8 0 8 0 8 0 8 0 8 0 8 0 8 0 0 8 0 8 0 8 0 0 8 8 8 8 8 0 8 0 8 0 8 8 8 8 8 8 12 8 12 0 8 12 8 8 8 8 8 0 8 0 0 8 0 8 8 8 0 8 8 8 8 0 8 8 8 0 8 8 8 0 8 0 8 8 8 8 8 8 8 8 8 8 8 8 8 0 8 0 8 0 8 0 8 8 8 8 0 8 8 8 8 0 8 8 0 8 8 8 8 8 8 8 8 8 0 8 8 0 8 0 8 8 8 8 8 8 0 8 8 8 8 8 0 8 0 8 0 8 8 0 8 0 8 8 8 8 8 8 0 12 0 8 8 18 
0 0 0 8 0 8 0 8 0 8 0 8 0 8 0 8 8 8 8 0 8 0 8 8 8 0 8 8 0 8 8 8 8 0 0 12 0 12 8 8 8 0 12 8 8 8 8 8 12 12 0 8 8 8 8 8 8 0 8 0 8 0 8 8 0 8 0 8 0 8 0 8 0 8 0 8 0 8 0 8 8 8 0 0 8 8 8 8 8 8 8 8 0 8 8 0 8 8 0 8 0 8 8 0 8 0 8 8 0 8 8 8 8 8 8 8 8 8 0 8 8 0 8 8 0 8 8 0 8 8 0 8 8 0 8 8 8 8 8 0 0 8 0 8 8 8 8 8 8 8 8 8 8 8 8 8 8 8 10 19 
0 0 8 0 8 0 8 0 8 0 8 0 8 0 8 0 8 0 8 8 8 0 8 8 8 8 0 0 8 0 8 8 8 8 8 0 8 8 8 8 8 8 0 8 0 8 0 8 0 8 0 0 0 8 8 8 8 8 8 8 0 8 8 0 8 8 8 8 8 8 8 8 8 8 8 8 8 8 8 8 8 8 0 8 0 8 8 0 8 0 0 0 8 8 0 8 8 0 8 8 0 8 0 8 0 8 0 0 8 8 8 8 8 8 8 0 8 8 0 8 0 8 8 0 8 8 8 8 8 0 8 8 0 8 8 8 8 0 8 0 8 0 8 0 8 8 8 8 0 8 8 8 8 8 8 8 8 8 8 28 
0 0 0 8 0 8 0 8 0 8 0 8 0 8 0 8 12 8 0 8 8 8 0 8 0 8 8 0 0 8 0 8 8 0 8 8 8 8 8 8 0 0 8 0 8 0 8 8 0 8 8 8 8 0 8 8 8 8 8 0 8 8 8 8 8 8 8 8 8 0 8 8 8 0 8 8 8 8 0 8 8 0 8 8 8 0 8 0 8 8 8 8 8 8 8 8 8 8 8 8 8 0 8 0 8 0 8 0 8 8 8 8 8 8 8 8 8 8 8 0 8 8 8 8 8 8 8 8 0 8 8 8 8 8 8 8 8 0 8 0 8 0 8 8 8 8 0 8 8 8 8 8 8 8 8 8 8 8 10 33 
0 0 8 0 8 0 8 0 8 0 8 0 8 0 8 8 8 0 8 0 8 8 8 8 8 0 0 8 8 0 8 8 0 8 8 8 0 8 8 8 12 0 0 8 0 12 0 0 8 0 12 8 8 8 8 0 8 0 8 8 0 8 0 8 8 8 8 0 8 8 8 0 8 8 0 8 0 8 0 8 0 8 8 8 8 8 0 8 8 8 8 8 8 8 8 8 8 8 8 0 8 8 0 8 0 8 0 8 0 8 0 8 8 0 8 8 8 8 0 8 8 8 0 8 8 0 8 8 8 8 8 8 8 8 8 8 8 0 8 8 8 8 0 8 8 0 8 0 8 8 8 8 8 8 8 8 8 12 8 34 
0 0 0 8 0 8 0 8 0 8 0 8 0 8 0 8 8 12 0 8 8 0 8 8 0 8 0 8 8 8 8 0 8 8 8 0 8 0 8 8 12 8 0 8 8 8 8 8 0 8 8 8 8 8 8 8 8 8 8 8 8 0 0 8 8 8 0 8 0 8 0 8 0 0 8 8 0 8 0 8 8 8 8 8 0 8 8 0 8 8 8 8 8 12 8 8 8 8 0 8 8 8 8 8 8 0 8 8 8 8 8 0 8 8 0 8 8 0 8 0 8 8 8 0 8 8 0 8 8 8 8 0 8 8 8 8 0 0 8 8 8 8 8 8 0 8 8 0 8 0 8 8 8 8 8 8 8 8 10 34 
