P2
160 120
255
0 0 8 0 8 0 8 0 8 0 8 0 8 0 8 0 8 8 8 8 0 8 0 8 0 8 8 0 0 0 0 8 0 8 8 8 8 8 8 8 0 8 12 8 0 0 8 8 8 8 0 0 8 8 0 8 8 8 0 0 8 8 0 8 0 8 8 8 8 8 8 8 8 8 8 8 8 8 8 8 8 0 8 0 8 8 8 8 0 8 0 0 8 0 8 8 8 8 8 0 0 8 0 8 8 8 8 8 8 8 8 8 0 8 8 0 8 8 0 8 0 8 8 8 8 8 8 0 8 0 8 8 0 8 8 8 8 8 0 8 8 0 8 8 8 8 8 8 8 8 8 8 8 8 8 8 0 8 10 37 
0 0 0 8 0 8 0 8 0 8 0 8 0 8 0 8 12 8 12 0 8 8 0 8 8 8 8 8 8 0 8 8 8 8 8 8 0 8 8 8 8 8 8 8 8 0 0 8 8 8 8 0 0 8 0 8 8 8 8 0 0 8 0 8 8 0 8 0 8 8 8 0 8 0 8 8 8 8 8 8 0 8 0 8 0 8 8 8 8 0 8 8 8 8 0 8 8 8 8 8 0 0 8 0 8 8 8 8 0 8 8 8 8 0 8 8 0 8 0 0 8 8 8 8 8 0 8 0 8 0 0 8 8 8 0 8 8 8 0 0 8 0 8 0 8 8 8 8 8 8 8 8 8 8 8 8 8 8 10 37 
0 0 8 0 8 0 8 0 8 0 8 0 8 0 8 0 8 0 0 8 0 0 8 0 0 8 8 0 8 0 8 0 8 8 0 0 8 0 0 8 8 8 8 8 8 8 8 12 8 8 8 0 8 0 8 0 8 8 0 8 8 0 8 8 0 8 8 8 0 8 8 8 0 8 8 8 0 8 0 8 8 8 0 8 0 8 8 0 8 8 0 8 0 8 8 0 8 8 8 8 8 0 8 8 0 8 8 8 8 0 8 0 8 8 8 8 8 8 8 8 8 8 8 8 8 8 8 8 8 8 8 8 8 8 8 0 8 8 8 8 0 8 8 8 8 0 8 8 8 8 8 8 0 8 8 8 8 8 18 37 
0 0 0 8 0 8 0 8 0 8 0 8 0 8 0 8 0 8 0 0 8 0 8 0 8 8 8 0 8 0 8 0 8 0 8 0 8 8 8 8 8 8 8 8 8 8 8 8 8 8 0 8 8 8 8 8 8 0 8 0 8 8 0 8 8 8 0 8 8 0 8 0 8 8 8 0 8 0 8 8 8 8 8 0 8 8 8 8 8 0 8 0 8 0 8 8 0 8 8 8 0 8 0 8 8 0 8 8 0 8 0 8 0 8 0 8 8 8 0 8 8 8 8 0 8 8 8 8 8 8 8 8 8 8 0 8 0 8 8 8 0 8 8 8 8 8 8 8 8 8 8 8 8 8 8 0 8 8 18 37 
0 0 8 0 8 0 8 0 8 0 8 0 8 0 8 8 8 0 0 0 8 0 8 8 8 8 8 8 8 8 8 8 0 8 0 8 0 8 8 8 0 0 0 8 0 8 8 8 0 0 8 8 0 8 0 8 0 8 8 8 0 8 8 0 8 8 8 0 8 8 0 8 8 0 8 0 8 8 0 8 8 8 8 8 8 8 0 8 8 8 8 0 8 8 0 8 8 0 8 8 8 8 8 0 8 8 8 8 8 8 8 0 8 0 8 0 8 8 8 8 8 8 0 8 0 0 8 0 8 0 8 0 0 8 8 0 8 8 8 8 0 8 0 8 8 8 8 8 0 8 8 8 8 0 8 8 8 8 16 37 
0 0 0 8 0 8 0 8 0 8 0 8 0 8 0 8 0 0 0 8 0 8 0 8 8 8 8 8 8 8 8 8 8 0 8 0 0 0 8 0 8 0 0 0 0 0 8 0 8 0 8 0 8 0 8 0 8 0 8 8 8 8 8 8 0 8 8 8 0 8 8 0 8 0 8 0 8 0 8 8 8 8 0 8 8 0 8 8 8 8 8 8 0 8 0 8 0 8 8 8 8 8 8 0 8 0 8 8 8 8 8 8 0 8 0 8 0 8 8 8 0 8 0 8 8 0 8 8 8 0 8 0 8 0 8 8 8 8 0 8 8 8 8 0 8 8 8 8 8 8 8 8 8 8 0 8 8 8 11 37 
0 0 8 0 8 0 8 0 8 0 8 0 8 0 8 8 8 0 0 8 0 8 8 8 8 8 0 8 8 8 8 0 8 0 8 8 0 8 0 0 0 8 8 8 8 0 12 0 8 8 8 8 0 8 8 0 8 0 8 8 8 8 0 8 8 0 8 8 8 8 0 8 0 8 0 8 8 8 8 8 8 8 8 0 8 8 0 8 8 8 8 0 8 0 8 8 8 8 8 8 8 0 8 8 0 8 8 8 0 8 0 8 8 0 8 8 8 0 8 8 8 0 8 0 8 8 8 8 8 8 8 8 0 8 0 8 8 8 8 8 8 0 8 8 8 8 8 8 8 8 8 8 8 8 8 8 8 8 18 37 
0 0 0 8 0 8 0 8 0 8 0 8 0 8 0 8 8 8 8 0 8 0 8 8 8 0 8 0 8 8 8 8 8 0 8 0 0 0 8 0 8 0 8 8 8 8 8 8 8 0 8 0 8 0 8 0 8 0 8 8 8 8 8 0 8 8 8 8 0 8 8 8 8 0 8 8 8 8 8 8 0 8 0 8 8 8 0 8 8 0 8 8 0 8 0 8 0 8 8 8 8 8 0 8 8 0 8 8 8 0 8 8 8 8 8 8 8 8 8 8 0 8 0 8 8 8 8 8 8 8 0 8 8 0 8 0 8 8 8 0 8 8 8 0 8 8 8 8 8 0 8 8 8 8 8 8 8 8 18 38 
0 0 8 0 8 0 8 0 8 0 8 0 8 0 8 8 8 12 0 8 8 0 8 8 8 8 8 8 8 8 0 8 8 8 8 8 8 8 8 0 8 0 0 8 0 8 8 8 8 0 8 8 8 8 0 8 0 8 8 8 8 8 8 8 8 8 8 8 8 0 8 8 0 8 8 8 8 0 8 0 8 0 8 0 0 8 0 8 8 8 8 0 8 0 8 8 8 0 8 0 8 8 8 0 8 8 8 8 0 8 8 8 8 8 8 8 8 8 8 8 0 8 0 0 8 0 0 0 8 0 8 0 8 8 8 8 8 8 8 8 8 8 8 8 8 8 8 8 8 8 8 8 8 8 8 8 8 10 18 37 
0 0 0 8 0 8 0 8 0 8 0 8 0 8 0 8 8 0 12 0 8 8 8 8 8 0 8 0 8 0 8 8 8 0 8 0 8 0 8 8 8 8 8 8 8 0 8 0 8 0 8 0 8 8 8 0 8 0 8 0 8 0 8 0 8 8 8 0 8 8 8 0 8 8 0 8 8 8 0 8 8 0 8 8 0 8 8 0 8 0 8 8 0 8 8 0 8 8 0 8 8 8 8 8 8 8 8 0 8 8 8 8 8 0 8 8 8 0 8 8 8 8 8 8 0 8 8 8 8 8 8 8 8 8 0 8 8 8 0 8 0 8 8 8 8 8 8 8 8 8 8 8 8 0 8 8 8 8 18 37 
0 0 8 0 8 0 8 0 8 0 8 0 8 0 8 8 12 8 0 8 0 8 0 8 8 8 0 8 8 0 8 8 0 8 0 8 0 12 0 8 0 12 8 8 0 0 0 12 8 8 0 8 0 8 8 8 0 8 0 8 8 0 8 0 8 0 8 8 0 8 8 8 0 8 8 0 8 0 8 8 0 8 0 8 8 8 8 0 8 0 0 8 8 8 8 8 0 8 0 8 0 8 8 8 8 8 8 8 8 8 8 0 8 0 8 0 8 0 8 0 8 0 8 8 8 8 8 0 8 0 8 8 8 0 8 0 8 0 8 0 8 0 8 8 8 8 8 8 8 8 8 8 8 0 8 8 8 8 18 51 
0 0 0 8 0 8 0 8 0 8 0 8 0 8 0 8 8 8 8 8 8 8 0 8 8 8 8 0 8 8 8 0 8 0 8 0 8 0 12 0 8 0 8 8 8 8 8 0 12 0 8 8 8 8 8 8 8 8 8 0 8 0 8 0 8 0 8 8 8 0 8 8 8 8 8 8 8 8 0 8 8 8 8 8 8 8 8 8 8 8 0 8 0 8 0 8 8 0 8 8 8 0 8 0 8 0 8 0 8 8 8 8 8 8 8 8 0 8 8 8 0 8 8 0 8 8 0 8 0 8 0 8 8 8 0 8 8 8 0 8 8 8 8 8 8 8 0 8 0 8 8 8 8 8 0 8 8 8 11 37 
0 0 8 0 8 0 8 0 8 0 8 0 8 0 8 8 8 12 0 8 0 8 0 8 8 0 0 8 0 8 0 8 8 8 8 12 0 8 0 8 8 0 0 8 8 12 8 8 0 0 8 8 8 8 8 8 8 8 0 8 8 8 0 8 8 8 0 8 0 8 8 8 8 8 8 8 0 8 8 0 8 0 8 0 0 8 0 8 8 8 8 8 0 8 0 8 0 8 8 0 8 0 8 0 8 8 0 8 8 8 8 8 8 8 8 8 8 8 8 0 8 8 8 0 0 8 0 8 0 8 0 0 8 8 8 8 8 8 8 8 8 8 8 8 8 8 0 8 0 0 8 8 8 8 8 8 8 8 18 37 
0 0 0 8 0 8 0 8 0 8 0 8 0 8 0 8 8 0 12 0 8 0 8 8 0 8 0 8 8 8 8 0 8 0 8 8 8 8 8 8 0 8 8 8 0 8 8 8 8 0 0 0 8 8 8 0 8 0 8 8 0 8 8 8 0 8 8 8 8 8 8 8 8 8 8 8 8 0 8 8 0 8 8 0 8 0 8 8 8 8 8 8 0 8 8 8 8 8 8 8 0 8 8 8 0 8 8 0 8 0 8 0 8 0 8 8 0 8 8 8 0 8 8 8 0 8 8 8 8 8 8 8 0 8 0 8 8 8 8 8 8 8 8 0 8 8 8 0 8 8 0 8 8 8 8 8 8 8 18 37 
0 0 8 0 8 0 8 0 8 0 8 0 8 0 8 8 12 8 0 8 8 8 0 8 8 0 8 0 0 8 8 0 8 0 8 8 8 8 8 8 8 8 8 8 8 0 0 8 8 12 8 0 8 0 8 0 8 0 8 0 8 8 0 8 8 0 8 8 8 0 8 8 0 8 8 0 8 0 8 8 8 0 8 8 8 8 0 8 0 8 0 8 8 8 8 8 8 8 0 8 8 8 8 8 8 8 8 8 8 8 8 0 0 8 0 0 0 8 0 8 0 8 8 8 8 0 8 8 8 8 8 8 0 8 8 0 8 8 8 8 0 0 8 8 8 8 8 8 8 0 8 8 8 8 8 8 8 8 18 37 
0 0 0 8 0 8 0 8 0 8 0 8 0 8 0 8 8 8 8 0 8 8 0 8 8 0 0 8 0 8 0 8 0 8 0 8 0 8 0 8 8 8 8 8 8 0 12 0 8 0 8 8 8 8 8 8 8 8 0 8 0 8 0 8 0 8 8 0 8 8 8 0 8 8 0 8 8 8 8 8 8 8 8 8 8 8 8 0 8 8 8 8 8 8 8 8 8 0 8 0 8 8 8 8 0 8 0 8 8 0 8 0 8 0 8 0 8 0 8 0 8 8 8 8 8 8 8 8 0 8 0 8 8 0 8 0 8 0 8 0 8 8 0 8 8 8 8 0 8 8 8 8 8 8 8 0 8 8 10 37 
0 0 8 0 8 0 8 0 8 0 8 0 8 0 8 8 8 8 8 8 0 8 8 8 8 8 0 8 0 8 0 8 8 8 8 0 8 0 8 8 0 0 0 8 8 8 8 8 0 8 0 8 0 8 8 8 8 0 8 8 0 8 0 8 8 8 8 8 0 8 8 8 8 8 8 8 0 8 0 8 8 0 8 8 8 8 0 8 8 8 0 8 0 8 0 8 8 8 0 8 8 8 8 8 8 0 8 0 0 8 8 8 0 8 8 8 8 8 8 8 0 8 0 8 8 8 8 0 8 0 8 0 8 8 8 8 8 8 8 8 0 8 8 8 8 8 8 8 8 8 8 0 8 0 8 8 8 8 16 34 
0 0 0 8 0 8 0 8 0 8 0 8 0 8 0 8 0 8 0 8 8 8 8 0 8 0 8 0 0 8 8 8 8 8 8 0 8 8 8 8 0 8 8 8 8 8 8 0 8 8 0 8 8 8 0 8 0 8 8 8 8 0 8 0 8 8 8 8 0 0 8 8 0 8 0 8 8 8 8 0 8 8 0 8 0 8 0 8 0 0 8 8 8 0 8 8 8 8 8 0 8 8 8 8 8 0 8 8 0 8 8 8 8 0 8 8 8 0 8 8 8 0 8 0 8 8 8 8 8 8 8 8 8 0 8 8 0 8 0 8 0 8 8 8 0 8 0 8 8 8 8 8 8 0 8 0 8 8 8 34 
0 0 8 0 8 0 8 0 8 0 8 0 8 0 8 8 8 8 8 0 8 8 0 8 0 8 8 8 0 0 8 0 8 8 0 8 8 8 0 8 8 0 8 8 0 8 8 8 0 8 8 0 8 8 8 0 8 0 8 8 0 8 8 8 8 8 8 8 0 8 0 8 8 0 8 0 8 8 0 8 0 8 8 0 8 8 8 0 8 8 0 8 8 8 0 8 8 8 0 8 0 0 8 8 0 8 0 8 8 0 8 0 8 8 8 0 8 8 0 8 0 8 8 8 0 8 8 8 0 8 8 8 0 8 0 8 8 0 8 0 8 8 8 8 8 8 8 8 8 8 8 8 8 8 8 8 8 8 12 28 
0 0 0 8 0 8 0 8 0 8 0 8 0 8 0 8 0 0 0 8 0 8 8 8 8 0 8 0 8 8 0 8 0 8 8 8 8 8 0 8 8 8 0 8 8 0 8 0 8 0 8 8 0 8 8 8 8 8 8 0 8 8 8 8 8 8 8 0 8 0 8 0 8 8 0 0 0 8 0 8 0 0 0 8 8 8 8 8 0 8 8 0 8 0 8 8 8 0 8 0 8 8 8 8 8 8 8 8 8 8 0 8 8 8 8 0 8 8 8 8 8 0 8 8 8 0 8 8 8 0 8 8 8 0 8 8 8 0 8 8 0 8 8 8 8 8 8 8 8 8 8 8 8 8 8 8 12 8 8 28 
0 0 8 0 8 0 8 0 8 0 8 0 8 0 8 8 8 0 0 0 8 0 8 8 8 8 0 8 8 8 8 8 0 0 8 8 0 8 8 0 8 0 12 0 8 8 0 8 8 8 0 8 8 8 8 0 8 0 8 8 0 8 0 8 8 0 8 0 8 0 8 0 8 8 8 0 8 0 8 0 8 0 8 0 0 8 0 8 0 8 0 8 0 8 8 8 8 8 8 8 8 0 8 8 8 0 8 0 8 0 8 0 8 0 8 8 0 8 0 8 8 8 8 0 8 8 0 8 8 8 8 8 8 8 0 8 0 0 8 8 8 8 8 8 8 0 8 8 8 8 6 8 8 8 8 8 8 8 8 28 
0 0 0 8 0 8 0 8 0 8 0 8 0 8 0 8 12 12 8 8 0 8 0 0 0 8 8 8 8 8 0 0 0 8 0 8 0 8 8 8 0 8 8 12 8 8 12 8 8 8 8 0 8 0 8 0 8 0 8 0 8 8 8 8 8 8 8 8 8 0 8 8 8 0 8 8 0 8 8 8 8 8 0 8 0 8 0 8 0 8 0 8 8 0 8 8 8 8 0 8 0 8 0 8 0 0 0 0 0 8 8 0 0 8 0 8 8 0 8 8 8 8 8 8 8 0 8 8 8 8 8 8 0 8 8 0 0 8 0 8 8 0 8 8 0 8 8 8 8 8 8 6 8 0 8 0 0 8 8 26 
0 0 8 0 8 0 8 0 8 0 8 0 8 0 8 0 8 8 0 8 0 8 0 8 0 8 0 8 8 0 8 8 0 8 8 0 8 0 8 8 8 0 8 8 8 8 8 8 8 8 0 8 0 8 0 8 0 8 0 8 8 8 8 8 0 8 0 8 8 8 0 8 0 8 8 8 8 8 8 8 0 8 0 8 0 8 0 8 0 8 0 8 0 8 8 8 8 0 8 8 8 8 8 0 8 8 0 8 0 8 8 8 0 0 8 0 8 0 8 0 8 8 8 8 8 8 0 8 0 8 8 0 8 8 0 8 8 8 8 0 8 8 8 0 8 8 8 8 8 8 8 8 8 0 8 0 0 0 10 19 
0 0 0 8 0 8 0 8 0 8 0 8 0 8 0 8 0 8 0 0 8 0 8 8 8 0 8 0 8 0 8 8 8 0 8 8 8 8 0 8 8 8 8 0 8 0 8 0 0 8 8 8 0 8 0 8 8 8 8 0 8 8 8 8 8 0 8 0 8 8 0 8 0 8 0 0 0 0 8 0 8 0 0 8 0 8 8 8 0 8 0 8 0 8 8 8 8 8 0 8 8 8 0 8 8 8 8 8 8 8 8 8 8 8 0 8 0 8 0 8 0 8 8 8 8 0 8 8 8 0 8 8 8 8 8 8 8 8 8 8 8 8 8 8 0 8 8 8 8 8 8 8 0 8 0 8 0 8 8 18 
0 0 8 0 8 0 8 0 8 0 8 0 8 0 8 8 8 8 8 8 8 0 0 8 8 8 0 8 0 8 0 8 8 8 0 8 8 8 0 0 8 8 8 8 0 8 0 8 8 0 8 8 8 8 8 0 8 0 8 8 8 8 8 8 0 8 0 8 8 8 8 0 0 8 8 0 8 8 8 8 8 0 8 0 8 8 8 8 8 8 8 0 8 0 8 8 0 8 8 8 8 0 8 0 8 8 8 8 8 8 8 0 8 8 8 8 8 0 8 8 8 0 8 8 8 8 0 8 0 8 8 0 8 8 8 8 8 8 8 8 8 8 0 8 8 8 8 8 8 8 8 0 8 8 8 0 8 8 8 16 
0 0 0 8 0 8 0 8 0 8 0 8 0 8 0 8 12 0 0 8 0 8 8 0 8 8 0 8 0 8 8 8 0 0 8 0 8 0 8 8 8 8 8 8 8 8 8 8 8 8 0 0 8 0 8 0 8 0 8 8 0 0 0 8 8 8 8 8 8 8 8 0 8 0 8 8 0 8 8 0 8 8 8 0 8 8 8 8 8 8 8 8 8 8 0 8 8 0 8 0 0 8 8 8 12 8 8 8 0 8 8 8 0 8 0 8 8 8 0 8 8 8 8 0 0 8 8 8 8 0 0 8 8 8 8 0 8 8 8 8 8 0 8 0 8 0 8 8 8 8 8 8 8 8 8 8 8 8 0 18 
0 0 8 0 8 0 8 0 8 0 8 0 8 0 8 8 8 8 8 8 8 8 8 8 8 8 8 8 8 0 0 0 8 0 0 8 0 8 0 8 0 8 8 8 0 8 8 8 0 8 8 0 8 0 8 0 8 0 8 8 8 8 8 8 0 8 8 8 8 8 0 8 8 8 0 8 8 8 8 8 0 8 8 8 0 8 8 8 0 8 8 0 8 0 8 8 0 8 8 8 0 8 8 8 8 0 8 8 8 0 8 8 8 8 8 0 8 0 8 0 8 0 8 0 8 0 8 0 8 0 8 8 8 8 8 8 8 8 0 8 8 8 8 0 8 8 8 8 8 8 8 10 8 8 0 12 0 12 8 10 
0 0 0 8 0 8 0 8 0 8 0 8 0 8 0 8 12 8 8 8 8 8 8 8 0 8 0 0 8 0 8 8 8 8 0 8 0 8 0 8 0 8 0 8 8 8 0 8 8 8 0 8 0 8 0 8 0 8 8 8 0 8 0 8 8 8 8 8 8 8 0 8 8 8 8 0 8 8 8 8 8 8 8 8 8 8 8 0 8 0 8 8 8 8 0 8 8 8 8 8 8 8 8 8 0 8 0 8 0 8 8 8 8 8 8 8 8 8 8 8 8 8 0 8 8 8 0 8 0 8 8 8 0 8 8 8 0 8 8 8 0 8 0 8 0 8 0 8 0 8 8 8 8 8 8 8 12 0 8 10 
0 0 8 0 8 0 8 0 8 0 8 0 8 0 8 8 12 0 8 0 8 8 8 8 0 0 8 0 0 8 8 8 8 8 8 0 8 0 8 0 8 0 8 0 8 0 8 0 8 0 8 0 8 8 8 0 8 0 8 8 8 8 8 0 8 8 8 0 8 8 0 8 8 8 8 8 0 8 8 0 8 8 8 8 8 8 8 8 0 8 0 8 0 8 8 0 8 8 8 8 12 8 8 8 8 8 8 0 8 0 8 8 8 0 8 0 8 8 8 8 0 8 8 8 8 8 8 0 8 8 8 8 8 0 8 8 8 0 8 8 8 8 8 8 8 8 8 0 8 8 8 8 8 8 8 0 8 8 12 10 
0 0 0 8 0 8 0 8 0 8 0 8 0 8 0 8 8 8 8 8 0 8 0 8 8 8 8 8 8 0 8 0 0 8 8 0 8 8 0 8 8 8 8 8 8 8 8 8 8 8 0 8 8 0 8 8 0 8 0 8 8 8 8 8 8 8 0 8 8 0 8 0 8 8 0 8 8 0 8 8 8 0 8 0 8 8 8 8 8 0 8 0 8 8 8 8 8 8 8 0 8 8 0 8 8 0 0 8 8 8 8 0 8 0 8 8 0 8 0 8 8 8 0 8 0 0 8 8 8 0 0 8 8 8 0 8 8 8 8 8 8 8 8 8 8 0 8 8 0 8 8 8 8 8 8 8 0 8 8 10 
0 0 8 0 8 0 8 0 8 0 8 0 8 0 8 8 12 0 0 8 8 8 8 0 0 8 8 8 8 0 8 8 0 8 0 8 0 8 8 8 8 8 8 8 0 8 8 8 8 8 0 8 8 8 0 8 8 0 8 0 8 8 8 0 8 8 8 0 8 8 8 8 0 8 0 8 0 8 0 8 8 8 8 8 0 8 8 8 0 8 0 8 8 8 8 8 0 8 8 0 0 0 8 8 8 8 8 0 8 8 8 0 0 8 0 8 0 8 8 0 8 8 0 8 8 0 8 8 8 8 0 0 8 8 8 0 8 8 0 8 8 0 8 8 8 8 8 8 8 8 8 8 8 0 8 8 0 8 8 8 
0 0 0 8 0 8 0 8 0 8 0 8 0 8 0 8 8 12 0 8 8 8 8 8 8 0 0 8 0 8 0 8 8 0 8 8 8 0 8 8 8 8 8 0 8 8 0 8 8 0 8 8 8 8 8 8 8 8 0 8 8 8 8 8 8 8 0 8 8 8 0 8 8 8 8 8 0 0 8 8 8 8 0 0 8 8 8 8 0 8 8 0 8 8 8 0 8 8 0 8 8 0 8 8 8 8 8 8 8 8 0 8 0 8 8 8 0 8 8 8 12 8 8 8 8 8 8 8 8 8 8 8 8 0 8 8 8 0 8 8 0 8 8 0 8 8 8 8 8 8 8 8 8 8 8 8 8 8 8 10 
0 0 8 0 8 0 8 0 8 0 8 0 8 0 8 8 12 0 8 8 8 8 8 8 0 8 8 0 8 0 8 0 8 0 8 0 8 8 8 8 8 8 0 8 0 8 8 0 8 8 0 8 0 8 8 8 8 0 8 0 8 8 8 8 0 8 0 8 0 8 8 8 0 8 0 8 0 0 8 8 8 0 8 8 8 8 0 8 0 8 8 8 8 8 8 8 0 8 8 8 0 8 8 0 8 0 8 0 8 8 8 0 8 8 8 0 8 0 8 8 8 0 8 8 8 0 0 8 8 0 8 0 8 8 0 8 8 8 0 8 8 8 0 8 0 8 8 8 8 8 10 8 8 8 8 8 12 8 8 8 
0 0 0 8 0 8 0 8 0 8 0 8 0 8 0 8 8 12 0 12 8 8 8 8 8 8 0 8 8 0 8 0 0 8 0 0 8 0 0 8 0 8 8 0 8 0 0 8 0 0 8 8 8 8 8 8 8 8 8 0 8 8 8 8 0 8 0 0 8 0 8 0 8 8 8 8 0 8 0 0 8 8 8 8 0 8 0 8 8 8 8 8 8 8 8 8 8 8 8 8 8 0 8 0 8 0 8 0 8 8 0 8 8 8 8 8 8 8 8 8 8 8 0 0 8 8 8 0 8 8 8 0 8 0 8 0 8 0 8 8 8 8 8 8 0 8 8 8 8 8 8 10 8 10 8 12 8 12 8 19 
0 0 8 0 8 0 8 0 8 0 8 0 8 0 8 0 8 0 12 8 8 0 8 0 8 0 8 0 8 8 8 8 8 8 0 8 0 8 0 8 0 8 0 8 0 8 0 0 8 0 8 8 0 8 0 8 0 8 0 8 0 8 8 8 8 8 8 8 0 8 8 8 8 0 8 0 8 0 8 8 0 8 8 0 8 8 8 0 8 0 8 0 8 8 0 8 8 0 8 8 8 8 0 8 8 8 8 8 8 8 8 8 8 8 0 8 8 0 8 8 8 0 8 8 0 8 8 8 8 8 0 8 8 8 8 8 8 8 8 8 8 8 8 8 8 0 8 0 8 8 8 8 10 10 8 10 8 10 28 30 
0 0 0 8 0 8 0 8 0 8 0 8 0 8 0 8 8 0 0 0 8 0 8 0 8 8 8 8 0 8 8 8 0 8 8 8 0 8 0 8 8 8 0 8 0 0 8 0 8 0 8 8 8 0 8 8 8 8 0 0 0 0 8 8 8 8 8 8 8 8 8 0 8 8 8 8 8 8 0 8 8 0 8 8 8 0 8 8 8 8 0 8 8 8 8 8 0 8 8 0 8 8 8 8 8 8 8 8 8 8 8 8 8 8 8 8 0 8 0 8 0 8 0 8 8 8 8 8 8 8 8 8 8 8 8 8 8 8 8 8 10 8 8 8 8 8 0 8 8 0 8 10 10 10 8 10 10 28 37 61 
0 0 8 0 8 0 8 0 8 0 8 0 8 0 8 0 8 0 8 0 8 0 8 8 0 8 0 8 8 0 8 0 8 0 8 0 8 0 8 0 8 0 8 0 8 0 8 0 8 8 8 8 8 8 8 8 8 8 8 8 0 8 0 0 8 0 8 8 8 0 8 8 0 0 8 8 8 8 8 0 8 8 0 8 0 8 0 8 8 8 8 8 8 8 8 8 8 0 8 8 8 8 0 8 0 8 0 8 8 8 8 8 8 8 8 0 8 8 8 8 0 8 8 8 8 8 8 8 0 8 0 8 0 8 8 8 0 8 8 8 8 8 8 8 8 8 8 8 8 8 8 10 10 10 10 19 30 37 68 78 
0 0 0 8 0 8 0 8 0 8 0 8 0 8 0 8 8 8 0 8 8 8 0 8 8 0 8 0 8 0 8 8 0 8 0 8 0 8 0 8 0 8 8 8 0 8 8 8 8 8 8 8 8 8 8 8 8 8 0 8 0 8 0 8 0 0 0 8 0 8 8 8 8 8 8 8 8 8 8 8 0 8 8 0 8 0 8 8 8 8 8 0 8 8 0 8 8 8 8 8 8 8 8 0 8 0 8 0 8 8 0 8 8 0 8 8 8 8 8 8 0 8 0 8 8 8 0 8 0 8 0 8 0 8 8 0 8 8 8 8 8 8 8 8 8 8 12 8 12 8 12 8 10 18 26 37 52 61 79 91 
0 0 8 0 8 0 8 0 8 0 8 0 8 0 8 0 8 0 0 8 0 8 8 0 8 8 0 8 0 8 0 8 8 8 0 8 0 8 8 8 0 8 8 0 8 0 8 0 8 8 8 0 8 0 8 0 8 8 0 8 8 0 8 8 8 8 8 0 8 0 8 8 8 8 8 8 8 8 0 8 8 0 8 8 8 8 8 0 8 0 8 0 8 8 8 8 8 8 0 8 8 8 8 8 8 8 8 8 8 8 8 8 0 8 8 0 8 8 8 8 0 8 0 8 8 8 8 0 8 8 8 0 8 0 8 8 8 8 8 8 8 0 8 8 8 8 8 12 8 8 12 8 10 26 33 60 71 84 91 95 
0 0 0 8 0 8 0 8 0 8 0 8 0 8 0 8 8 0 0 0 8 0 8 8 0 8 0 8 8 0 8 0 8 8 8 8 8 8 8 8 8 8 8 8 8 8 0 8 0 8 0 8 0 8 0 8 8 8 0 0 8 8 8 8 8 12 8 8 0 8 8 8 8 8 8 8 8 8 0 8 8 8 8 8 8 8 0 8 0 8 0 8 0 8 8 8 8 0 8 8 8 8 8 8 8 8 8 8 8 0 8 8 8 0 8 8 8 0 8 0 8 0 8 0 8 8 8 8 8 8 8 8 8 12 0 12 8 8 8 8 8 8 8 8 8 8 12 8 8 12 12 10 28 37 60 75 82 89 93 103 
0 0 8 0 8 0 8 0 8 0 8 0 8 0 8 0 8 0 12 0 8 8 8 8 12 0 8 0 8 8 8 8 0 8 8 8 0 8 8 8 0 8 8 8 0 8 0 8 8 8 8 8 0 8 8 0 8 8 8 0 8 0 8 0 8 8 0 8 8 8 8 0 8 8 8 0 8 0 8 0 8 8 0 8 8 8 8 0 8 0 8 8 8 0 8 8 0 8 8 8 8 8 8 8 8 0 8 0 8 8 8 8 8 8 8 8 8 0 8 8 8 8 0 8 0 8 8 8 0 8 8 8 0 8 8 8 8 8 8 0 8 8 8 8 8 8 8 8 8 8 10 28 51 66 78 87 85 93 100 104 
0 0 0 8 0 8 0 8 0 8 0 8 0 8 0 8 8 0 0 8 8 8 8 8 8 8 0 8 0 8 0 8 8 8 8 0 8 0 8 0 8 8 8 8 8 0 8 0 8 8 0 8 0 8 8 8 8 8 0 8 0 0 8 8 0 8 0 8 8 0 8 0 8 0 8 0 0 8 0 8 0 8 8 0 8 0 8 8 8 8 8 0 8 8 0 8 8 8 0 8 8 8 8 0 8 0 8 0 8 8 0 8 8 8 8 8 8 8 0 8 8 8 8 8 8 0 8 0 8 0 8 0 8 0 8 8 8 0 8 8 8 8 8 8 8 8 8 12 6 19 28 51 70 72 82 95 100 96 104 107 
0 0 8 0 8 0 8 0 8 0 8 0 8 0 8 0 8 0 0 8 0 8 8 8 8 0 8 8 8 8 8 0 8 8 8 8 8 8 8 8 0 8 8 8 0 8 8 0 8 0 8 8 8 8 8 8 8 8 8 8 8 0 8 8 8 0 8 8 0 8 0 8 0 8 0 8 8 0 8 8 0 8 8 8 8 0 8 0 0 8 8 0 0 8 0 8 0 8 8 0 8 8 8 8 8 8 0 8 8 8 0 0 8 8 8 8 0 8 8 0 8 0 8 8 8 8 8 8 8 0 8 0 8 0 8 8 8 8 8 8 8 8 8 8 8 8 8 8 11 33 51 68 86 84 87 100 102 102 110 112 
0 0 0 8 0 8 0 8 0 8 0 8 0 8 0 8 12 8 0 0 8 0 0 8 8 8 0 8 0 8 0 8 8 8 8 0 8 0 8 8 0 8 0 8 8 8 8 8 0 8 8 0 8 8 8 0 8 0 8 8 0 8 0 8 0 8 0 0 8 8 8 8 8 8 8 8 0 8 8 0 8 8 0 8 8 0 8 0 8 0 12 8 0 8 8 8 8 0 8 8 8 8 8 8 8 0 8 0 8 8 8 8 8 8 0 8 8 0 8 0 8 8 8 8 0 8 8 8 0 8 8 8 0 8 8 8 8 8 8 8 8 8 8 10 8 8 10 11 28 37 66 78 84 93 100 100 102 110 110 116 
0 0 8 0 8 0 8 0 8 0 8 0 8 0 8 0 8 12 12 8 0 8 8 8 8 0 8 8 8 8 8 0 8 8 0 8 8 8 8 8 8 8 8 0 8 8 8 8 8 0 8 8 8 8 8 8 0 8 8 0 8 0 8 0 8 0 8 8 0 8 0 8 8 8 8 0 8 8 8 0 0 8 8 8 8 8 8 0 8 8 8 8 0 8 8 8 8 8 8 0 0 8 0 8 8 8 8 8 8 8 8 8 8 8 8 0 8 0 8 8 0 8 0 8 8 0 8 8 8 8 8 8 8 0 0 8 12 0 8 8 8 8 8 8 6 8 18 34 54 72 79 84 90 99 101 108 110 110 110 102 
0 0 0 8 0 8 0 8 0 8 0 8 0 8 0 8 8 12 0 8 8 0 8 8 8 0 8 0 8 0 8 8 0 8 8 8 8 8 8 8 8 8 8 8 8 8 8 0 8 8 8 8 0 8 8 0 8 8 0 8 0 8 0 8 8 0 8 8 8 0 8 0 8 0 8 8 8 8 8 8 0 0 8 0 8 8 0 8 8 8 8 0 8 8 0 8 8 8 8 8 0 8 0 8 8 8 8 8 0 8 8 8 8 8 8 8 0 8 8 8 8 8 8 0 0 8 0 8 0 8 8 8 8 8 8 8 12 8 8 0 8 8 8 8 10 11 33 52 68 84 87 89 95 99 105 108 110 108 100 84 
0 0 8 0 8 0 8 0 8 0 8 0 8 0 8 0 8 0 0 8 0 8 8 0 8 0 8 0 8 0 8 0 8 0 8 0 8 8 0 8 8 8 8 0 8 0 8 0 8 8 8 0 8 8 8 8 0 8 8 0 8 8 8 8 0 8 8 8 8 0 8 0 8 8 0 8 8 12 8 8 8 8 8 8 0 8 8 8 8 0 8 8 8 8 8 8 12 8 0 8 12 8 8 8 0 8 0 0 8 8 8 8 8 8 8 0 8 0 8 8 8 8 8 8 0 8 0 8 0 8 8 0 8 8 8 12 8 8 0 8 0 8 10 16 26 36 54 68 76 87 93 101 105 100 108 115 108 100 84 72 
0 0 0 8 0 8 0 8 0 8 0 8 0 8 0 8 8 0 12 0 8 8 8 8 8 0 8 0 8 0 8 8 0 8 0 8 8 0 8 8 8 8 8 8 8 8 0 8 8 8 0 8 0 8 8 0 8 8 0 8 8 0 8 0 8 8 8 8 8 8 8 8 0 8 8 0 8 8 8 8 0 8 8 8 8 8 8 8 8 0 8 0 8 8 0 8 8 8 8 8 8 8 0 8 8 0 8 8 8 8 0 8 8 8 8 0 8 8 8 8 8 8 0 8 8 0 8 0 8 0 8 0 8 8 12 8 8 8 8 8 8 8 10 26 37 66 72 84 89 95 97 104 108 116 108 105 92 75 61 69 
0 0 8 0 8 0 8 0 8 0 8 0 8 0 8 0 8 12 0 8 8 8 0 8 8 8 0 8 0 8 0 8 8 8 8 8 8 8 0 0 8 8 0 8 8 0 8 0 8 0 8 8 8 0 8 8 0 8 0 8 0 8 0 8 0 8 0 0 8 8 8 8 8 0 0 8 0 8 0 0 8 0 8 8 8 0 0 0 8 8 8 8 8 0 8 8 8 0 8 0 0 0 8 0 8 8 8 8 8 8 0 8 0 8 8 8 8 8 0 8 0 8 8 0 8 8 8 8 8 0 8 0 8 0 8 8 0 8 8 8 10 16 17 51 66 68 85 89 93 100 101 108 110 108 100 92 75 69 69 85 
0 0 0 8 0 8 0 8 0 8 0 8 0 8 0 8 8 8 8 0 0 0 8 0 8 0 8 0 8 0 8 0 8 8 8 8 0 8 0 8 0 8 0 8 0 8 8 8 0 8 8 8 8 0 8 0 8 0 8 8 8 8 0 0 8 8 8 0 0 8 12 8 8 0 8 0 8 8 8 8 8 8 8 8 8 8 0 8 0 8 8 0 0 8 0 8 8 8 8 8 8 0 8 8 0 8 8 0 8 0 8 0 8 8 0 8 8 8 8 0 8 0 8 8 8 8 8 8 8 8 8 0 8 0 8 8 0 8 8 10 16 33 52 72 79 78 89 95 101 108 108 104 108 101 92 69 61 69 96 108 
0 0 8 0 8 0 8 0 8 0 8 0 8 0 8 12 8 0 0 8 0 8 8 12 8 8 8 0 8 0 8 8 8 8 8 8 12 8 8 0 0 8 8 0 8 8 8 8 8 8 0 8 8 8 0 8 8 8 8 8 0 0 8 0 8 0 8 8 8 0 0 8 0 12 12 8 8 0 8 8 8 8 0 0 0 8 8 0 8 0 8 0 8 0 8 0 8 8 8 8 8 8 0 8 8 0 8 8 8 8 8 8 8 8 8 8 8 0 8 8 8 8 8 8 8 8 8 0 8 0 8 8 8 12 12 8 0 12 10 19 29 52 71 79 85 93 96 97 104 108 112 112 105 87 69 61 69 92 110 120 
0 0 0 8 0 8 0 8 0 8 0 8 8 8 8 8 12 0 0 0 8 0 8 8 8 8 8 8 0 8 0 8 0 8 8 8 0 8 0 8 8 0 8 8 0 8 8 8 8 8 8 0 8 0 8 0 8 8 0 8 8 0 8 8 8 8 8 8 0 8 0 8 8 8 8 0 8 8 8 8 0 8 0 8 0 8 8 0 8 8 0 8 0 8 8 8 8 8 0 8 8 8 8 8 8 8 8 8 8 0 8 8 0 8 0 8 8 8 0 0 8 8 0 8 8 8 8 8 8 8 0 8 8 8 12 12 8 12 12 37 60 70 79 90 95 98 101 104 108 119 110 101 87 63 69 82 96 112 118 120 
0 0 8 0 8 0 8 0 8 0 8 0 8 0 8 8 8 12 8 8 8 8 0 8 8 8 8 8 8 8 8 0 0 0 8 0 8 8 8 8 8 8 8 8 8 0 8 0 8 8 8 0 0 8 8 8 8 0 8 0 8 8 0 8 0 0 8 8 8 8 8 8 8 8 0 8 0 8 0 0 0 8 8 0 8 8 0 8 8 8 8 8 8 8 8 8 8 0 8 8 8 8 8 0 8 8 0 8 0 8 8 0 8 0 8 0 8 0 0 8 0 8 8 8 8 8 8 8 8 8 0 8 0 8 8 12 12 19 37 61 79 79 87 95 101 101 104 112 112 104 99 79 69 64 89 104 116 123 126 123 
0 0 0 8 0 8 0 8 0 8 0 8 0 8 0 8 12 8 8 8 8 8 8 8 8 8 8 8 8 0 8 0 8 0 8 0 8 8 8 8 8 8 8 8 8 8 0 8 8 8 8 0 8 8 8 8 8 0 0 8 0 8 8 0 8 0 8 8 8 8 8 8 8 0 8 0 8 8 8 0 8 0 8 8 0 8 8 8 8 8 8 0 8 8 8 8 8 8 8 8 8 8 0 8 8 0 8 8 0 8 0 8 0 8 0 8 0 0 8 0 8 0 8 8 8 0 8 8 8 0 8 0 8 8 12 12 28 37 66 78 79 93 95 98 104 104 104 119 104 95 77 57 69 93 104 119 123 124 123 118 
0 0 8 0 8 0 8 0 8 0 8 0 8 0 8 8 8 0 8 8 8 0 8 0 8 8 8 8 0 8 0 8 8 8 8 0 0 0 8 8 8 8 8 8 8 8 8 8 8 8 0 8 8 8 0 8 0 8 0 8 8 8 0 8 0 8 0 8 8 8 8 0 8 8 8 8 8 0 0 8 8 8 0 8 8 8 8 0 8 12 8 8 0 8 0 8 8 8 8 8 8 0 8 8 0 8 0 8 0 8 8 8 8 8 8 8 8 12 8 8 8 8 8 8 0 8 8 8 12 8 8 8 12 8 12 28 38 72 76 84 79 95 101 103 112 112 110 104 95 79 69 61 82 108 112 120 126 123 118 118 
0 0 0 8 0 8 0 8 0 8 0 8 0 8 0 8 8 0 8 0 12 8 8 8 0 12 8 8 0 0 8 0 8 8 8 8 8 0 8 8 0 8 8 8 8 8 8 8 8 0 8 0 8 8 0 0 8 8 0 8 0 8 8 0 8 0 8 0 8 8 0 8 0 8 8 8 8 0 8 8 8 8 8 0 8 8 8 8 8 8 8 0 8 0 8 8 8 8 8 8 0 8 8 0 8 8 0 8 8 8 8 8 8 8 8 8 8 8 8 8 0 8 8 0 8 0 12 8 8 8 8 12 12 12 30 51 68 76 85 87 99 101 105 108 112 119 101 93 72 65 72 90 104 120 120 126 126 118 113 110 
0 0 8 0 8 0 8 0 8 0 8 0 8 0 8 0 8 12 0 8 8 8 8 12 8 8 8 8 8 8 8 8 0 8 8 8 8 8 8 8 0 8 8 8 8 8 8 8 0 8 0 8 0 8 0 8 0 8 8 0 8 0 8 8 8 8 8 8 8 0 8 8 8 8 8 8 8 8 8 8 8 8 8 0 8 8 0 0 8 8 8 0 8 0 8 0 8 8 8 8 8 0 8 8 0 8 0 0 8 0 8 8 8 0 8 8 8 8 8 8 8 0 8 8 0 8 8 8 12 8 8 12 10 34 38 71 84 84 89 99 105 101 108 112 110 108 91 71 64 63 85 112 118 126 126 123 126 113 113 113 
0 0 0 8 0 8 0 8 0 8 0 8 0 8 0 8 8 0 0 0 8 8 0 8 0 8 0 8 8 8 0 8 8 8 8 0 8 8 8 8 8 0 8 8 8 8 8 8 8 8 8 0 8 0 8 0 8 0 8 0 8 0 0 8 0 8 0 8 8 8 8 8 0 0 0 8 0 8 8 0 8 0 8 0 8 0 8 0 8 8 0 8 8 8 0 8 8 0 8 8 8 8 0 8 0 8 0 8 0 8 8 8 8 0 8 8 8 8 8 0 8 0 0 8 12 8 8 12 8 8 12 10 19 47 68 71 86 90 99 101 105 108 105 108 108 99 82 64 71 82 104 118 118 123 126 120 121 121 118 118 
0 0 8 0 8 0 8 0 8 0 8 0 8 0 8 0 8 0 0 8 8 8 8 8 8 0 8 8 8 8 8 0 8 8 8 8 0 8 0 8 8 8 0 8 8 8 8 8 0 8 0 8 0 8 0 8 0 8 8 8 8 8 8 8 8 0 8 0 8 8 8 8 8 8 8 0 8 8 8 8 0 8 8 8 8 8 8 8 0 8 8 0 8 0 8 8 8 8 8 8 8 8 8 8 8 0 8 0 8 8 8 8 8 8 8 8 8 8 8 8 0 12 8 8 8 8 12 8 8 12 10 30 51 70 76 79 91 99 103 105 108 108 112 103 85 77 63 72 91 108 120 123 121 126 121 118 121 121 121 118 
0 0 0 8 0 8 0 8 0 8 0 8 0 8 0 8 0 8 0 8 0 8 0 8 8 8 0 8 8 8 8 8 8 8 0 8 0 8 8 8 8 8 0 8 0 8 0 8 8 0 8 8 0 8 0 8 8 0 8 8 0 8 0 8 0 8 0 8 8 8 8 8 8 0 8 8 8 0 8 0 8 0 8 8 8 0 8 0 8 8 8 8 8 8 8 0 8 8 8 0 8 8 8 8 8 8 8 8 0 8 0 8 8 8 8 8 8 8 8 0 8 0 0 8 12 8 12 8 12 10 38 51 70 76 87 87 95 101 108 108 108 108 101 85 69 63 72 93 104 120 120 126 123 121 118 120 118 118 118 118 
0 0 8 0 8 0 8 0 8 0 8 0 8 0 8 0 8 8 0 8 8 0 8 8 0 0 8 8 8 8 8 8 8 0 0 0 8 0 0 8 8 8 0 8 0 8 0 8 0 12 8 0 8 8 8 0 8 8 8 8 8 8 8 8 8 0 8 8 0 8 8 0 8 0 8 0 8 0 0 8 8 0 0 0 8 8 8 8 8 8 8 8 0 8 8 8 0 8 0 8 0 8 0 8 0 8 8 8 0 8 0 8 0 8 0 8 8 8 8 8 0 8 8 12 8 12 8 8 19 34 61 70 68 87 91 98 103 103 104 112 112 99 85 69 61 72 93 104 120 126 123 123 126 121 121 118 120 118 113 118 
0 0 0 8 0 8 0 8 0 8 0 8 0 8 0 8 8 8 8 8 8 8 8 0 8 0 8 0 8 8 8 8 8 8 0 8 0 8 8 0 0 8 0 8 8 8 8 0 8 0 8 8 8 0 8 8 8 8 0 8 8 8 8 8 8 8 8 0 8 8 0 8 8 8 8 8 8 0 8 8 8 8 0 8 0 8 8 0 8 8 0 8 0 8 0 8 0 8 8 8 0 8 0 8 8 0 8 8 8 0 8 8 8 8 8 8 0 8 8 8 8 8 8 12 12 8 12 19 37 61 76 79 87 91 95 101 104 108 112 93 105 79 69 61 75 93 112 120 126 120 126 121 126 121 118 120 118 113 113 115 
0 0 8 0 8 0 8 0 8 0 8 0 8 0 8 0 8 12 8 0 8 8 0 8 0 8 0 8 0 8 8 0 8 0 8 8 8 8 0 8 0 0 8 0 8 8 0 8 0 0 8 8 8 8 8 0 8 8 8 0 8 8 8 8 12 8 8 8 0 8 8 0 8 8 8 8 8 8 8 8 8 8 8 8 8 8 8 8 8 0 8 0 0 8 0 8 0 8 8 8 8 8 8 0 8 8 0 8 8 8 8 8 8 8 8 8 8 8 8 0 8 12 8 8 8 12 28 38 64 71 87 87 87 98 101 104 112 112 110 93 82 61 65 83 98 112 118 126 120 123 126 121 121 118 120 118 113 118 110 110 
0 0 0 8 0 8 0 8 0 8 0 8 0 8 0 8 0 8 8 8 8 0 8 8 0 8 8 8 8 8 0 8 8 8 0 8 8 8 8 0 8 8 8 0 8 0 8 8 8 8 8 8 0 8 8 8 0 8 8 8 8 8 8 8 8 8 8 0 8 0 8 8 0 8 0 0 8 8 8 0 0 8 8 8 8 0 8 8 0 8 0 8 8 8 0 8 0 8 0 8 8 0 8 8 0 8 0 0 8 0 8 8 8 0 8 0 8 8 0 8 12 8 12 8 12 28 38 71 79 79 91 90 98 101 104 104 112 103 93 79 63 68 77 104 120 126 123 118 126 118 126 118 121 118 121 118 110 110 110 102 
0 0 8 0 8 0 8 0 8 0 8 0 8 0 8 0 8 8 0 12 8 8 0 8 8 8 8 8 8 8 8 8 8 0 8 0 8 0 8 8 0 8 8 0 0 0 0 8 8 8 0 8 0 8 0 8 8 8 0 8 8 8 0 0 0 8 8 8 8 8 8 0 8 0 8 0 0 8 8 8 0 8 8 8 0 8 8 0 8 0 8 8 8 8 8 8 8 0 8 0 8 8 8 0 8 8 8 0 8 0 8 0 8 0 8 8 8 8 8 0 8 12 8 19 28 51 68 76 87 82 95 96 98 107 108 108 103 95 82 71 65 85 98 119 126 126 118 120 126 126 121 118 118 118 113 113 110 110 110 102 
0 0 0 8 0 8 0 8 0 8 0 8 0 8 0 8 8 8 8 0 8 8 8 8 8 0 8 0 8 8 8 8 8 8 8 8 0 0 0 8 0 8 0 8 8 8 8 8 0 8 8 8 8 0 8 8 0 8 0 8 8 8 0 8 8 8 8 8 0 8 0 8 8 8 8 8 8 0 8 8 8 0 8 0 8 8 8 0 8 8 8 8 8 0 8 0 8 8 8 8 0 8 0 8 8 8 8 8 0 8 8 8 0 8 8 8 0 8 8 8 8 8 12 28 51 61 76 84 91 93 98 98 107 104 110 108 98 77 71 71 79 112 123 123 123 126 126 126 120 126 118 121 118 113 118 110 110 102 102 101 
0 0 8 0 8 0 8 0 8 0 8 0 8 0 8 8 8 12 0 8 8 8 8 8 8 0 8 0 0 0 8 0 0 12 8 8 8 0 8 0 8 0 0 8 8 8 8 0 8 0 8 0 8 0 8 8 8 0 8 8 0 8 8 0 8 8 0 8 8 0 8 8 0 8 8 8 8 0 8 8 8 8 8 8 0 8 0 8 8 8 12 8 0 8 8 8 8 0 8 8 0 8 8 8 0 8 8 8 8 8 0 8 8 8 8 8 8 8 10 8 6 19 34 54 68 78 79 93 98 98 104 110 108 108 103 95 77 65 75 91 103 123 123 123 126 126 126 121 126 118 121 118 116 116 110 110 107 104 100 100 
0 0 0 8 0 8 0 8 0 8 0 8 0 8 8 12 8 0 8 0 8 0 8 8 8 8 0 8 8 8 0 8 8 8 8 8 0 8 0 8 8 8 0 8 0 8 0 8 0 8 0 8 0 8 8 8 8 8 8 8 8 0 8 8 8 0 8 8 8 8 8 0 8 8 8 8 8 0 0 8 0 8 8 8 8 0 8 8 8 8 8 8 8 8 12 8 8 0 8 8 8 8 8 8 8 8 8 8 10 8 8 8 8 8 0 8 8 8 10 6 10 36 54 68 79 82 89 98 101 101 104 112 112 110 93 72 60 71 85 104 120 120 126 123 126 123 126 118 118 116 118 116 116 113 110 104 100 100 97 93 
0 0 8 0 8 0 8 0 8 0 8 0 8 8 0 8 8 0 8 8 0 8 0 8 0 8 8 8 0 8 8 8 0 8 8 8 0 8 0 8 8 0 8 8 8 8 8 8 8 8 8 0 8 0 8 8 8 8 8 8 8 0 8 8 0 8 8 8 8 8 0 8 8 8 0 8 0 8 8 0 8 8 0 8 8 8 8 8 8 0 8 8 8 8 8 8 0 8 8 8 0 8 8 8 8 8 8 8 8 8 0 8 8 0 0 8 8 8 12 12 26 52 71 75 79 85 93 93 104 104 108 108 104 99 79 60 63 77 104 119 120 126 123 126 120 126 120 121 118 118 112 112 110 110 108 100 100 100 93 89 
0 0 0 8 0 8 0 8 0 8 0 8 0 8 8 0 8 12 0 8 8 8 8 0 8 8 0 8 8 0 8 8 8 8 8 8 0 0 0 0 8 8 0 8 8 0 8 8 8 0 8 8 8 8 0 8 8 0 8 8 8 8 8 8 8 0 8 8 8 8 8 0 8 0 8 0 8 8 0 8 8 0 8 0 8 8 8 0 8 0 0 8 8 8 0 8 0 8 0 8 8 8 8 8 8 8 8 8 8 8 8 8 8 0 8 8 8 8 19 33 52 64 78 82 89 98 95 104 104 108 103 103 95 79 63 63 79 101 108 126 126 123 124 123 120 118 118 118 118 118 116 115 110 104 102 100 100 93 93 85 
0 0 8 0 8 0 8 0 8 0 8 0 8 0 8 8 8 0 8 8 8 0 8 0 0 8 8 0 8 8 0 8 8 8 0 8 0 8 8 0 8 8 8 0 8 8 8 8 0 8 8 8 8 8 8 0 8 0 8 0 8 0 8 0 8 8 0 8 0 8 0 8 0 8 0 8 0 8 8 8 8 8 8 0 0 8 8 8 0 8 0 8 8 0 8 0 8 8 8 8 0 8 8 8 8 0 8 0 8 8 8 8 12 0 8 8 8 19 37 68 68 78 79 87 95 99 101 104 108 112 103 93 79 61 69 87 104 120 124 120 126 126 123 120 118 118 118 118 113 116 112 110 104 102 100 96 92 89 79 69 
0 0 0 8 0 8 0 8 0 8 8 0 0 8 0 8 0 8 0 0 8 8 8 0 8 8 8 8 0 8 8 0 8 0 8 8 8 8 8 0 8 0 8 0 8 0 0 8 0 8 0 8 8 0 8 0 8 0 8 8 0 8 8 8 0 8 0 8 0 8 8 8 8 8 8 8 8 8 8 8 8 0 8 0 8 0 8 8 8 8 0 8 8 0 8 0 8 0 8 0 8 8 8 8 0 0 8 8 8 0 0 8 8 8 8 12 19 37 61 76 78 79 84 95 93 98 101 108 112 103 87 77 61 71 79 104 124 126 126 123 126 126 120 118 118 113 118 113 115 110 110 102 100 100 96 89 85 83 63 59 
0 0 8 0 8 0 8 0 8 0 8 0 8 8 0 8 12 0 12 8 0 8 8 8 0 8 8 0 8 8 0 8 8 0 8 8 8 8 8 8 0 8 8 8 8 8 8 8 8 8 0 8 8 8 0 8 8 8 8 8 0 8 0 8 8 0 8 0 8 0 0 8 0 8 8 8 8 8 8 0 8 8 0 8 0 8 8 0 8 8 8 0 8 0 8 8 0 8 0 8 0 8 8 8 0 0 8 8 8 8 0 12 8 10 10 19 37 68 68 78 79 93 93 99 101 103 108 112 93 93 69 57 61 89 101 108 123 134 123 126 123 120 118 113 118 113 118 110 110 110 100 102 100 96 92 89 77 69 52 45 
0 0 0 8 0 8 0 8 0 8 0 8 0 8 8 8 8 8 0 8 8 8 8 8 8 8 8 8 8 8 8 8 8 8 8 8 8 8 8 8 8 8 8 8 8 8 8 8 8 8 0 8 8 8 0 8 8 8 8 8 8 0 8 8 8 8 8 0 8 0 8 8 8 8 8 8 8 8 8 0 8 8 8 8 8 8 8 8 8 8 8 8 0 8 8 8 0 0 8 8 0 8 0 8 8 8 8 8 8 8 8 8 10 19 28 37 72 71 79 84 90 93 101 101 104 112 112 99 87 69 63 69 85 108 120 126 126 123 126 126 123 121 113 118 113 115 113 110 110 102 100 100 97 92 89 77 69 59 45 37 
0 0 8 0 8 0 8 0 8 0 8 0 8 0 8 8 12 0 0 8 0 8 8 8 8 8 8 8 8 8 8 0 8 8 8 8 8 8 8 12 8 8 8 8 8 8 8 8 8 8 0 8 8 8 8 8 8 8 8 8 8 8 0 8 8 0 8 8 0 8 8 8 8 8 8 8 8 8 0 8 8 8 8 8 8 8 8 8 8 8 8 0 8 8 8 0 8 0 8 0 8 0 8 0 12 8 12 8 8 8 8 12 10 26 37 68 78 78 85 93 93 101 101 103 112 110 99 87 65 61 71 90 108 120 126 126 126 123 120 123 118 118 113 118 113 118 110 110 107 102 97 92 92 84 77 68 52 36 36 36 
0 0 0 8 0 8 0 8 0 8 0 8 0 8 0 8 8 0 0 8 8 8 0 8 8 8 8 8 8 8 8 8 0 8 8 8 0 8 0 0 0 0 0 0 8 8 8 8 8 0 8 0 8 8 8 8 8 0 8 8 8 8 8 8 0 8 0 8 8 8 8 8 0 0 0 8 8 8 8 8 8 8 8 8 0 8 0 8 8 8 8 8 0 8 8 8 8 8 8 8 8 8 0 12 0 8 8 12 8 12 8 11 26 37 66 72 76 89 87 98 101 103 101 103 105 101 77 69 63 75 90 108 119 120 126 126 126 120 123 118 113 121 118 116 118 110 110 107 102 100 92 97 92 83 63 48 48 35 36 36 
0 0 8 0 8 0 8 0 8 0 8 0 8 0 8 12 8 0 8 8 8 8 8 0 8 8 0 8 0 8 0 8 0 8 8 0 8 0 8 0 8 8 0 8 8 8 8 8 8 8 0 8 8 8 8 8 0 8 0 8 0 8 0 8 8 8 8 0 8 0 8 8 8 8 0 8 8 8 0 8 8 8 8 8 8 0 8 8 8 8 8 8 8 0 8 8 0 8 8 8 0 8 8 8 8 8 8 12 12 8 16 26 37 66 76 79 87 93 93 101 101 108 112 112 95 87 69 61 71 95 112 124 126 123 126 126 123 124 118 113 113 118 113 118 110 110 108 102 100 93 92 89 77 68 52 48 35 36 33 29 
0 0 0 8 0 8 0 8 0 8 0 8 0 8 0 8 12 8 8 8 0 8 0 8 8 8 8 8 8 8 8 8 8 0 8 0 8 8 0 8 0 8 8 8 8 8 8 8 0 12 8 8 8 8 8 8 8 0 8 0 8 0 8 0 8 0 8 8 8 8 0 8 0 8 8 8 8 8 8 0 8 8 8 0 8 8 8 8 8 0 8 0 8 8 8 0 8 8 8 8 0 8 8 8 12 8 8 8 8 12 19 51 61 78 78 79 93 93 98 108 104 110 104 99 85 69 63 69 96 112 120 123 126 126 123 126 120 121 116 118 118 113 110 110 110 108 102 101 96 97 85 83 63 59 45 35 36 29 36 29 
0 0 8 0 8 0 8 0 8 0 8 0 8 0 8 8 8 12 0 8 8 0 8 8 8 0 8 8 8 8 8 0 8 8 0 8 0 8 0 8 0 8 8 8 8 8 0 8 8 8 8 8 8 0 8 8 0 8 0 8 8 8 0 8 8 8 8 8 0 8 0 8 8 8 0 8 0 8 8 8 8 8 0 8 0 8 8 8 8 8 0 8 8 8 8 8 0 8 0 8 0 8 8 12 8 0 12 8 19 26 51 68 78 79 90 95 98 96 101 108 104 101 96 85 63 61 72 103 119 120 120 126 123 123 126 120 120 116 115 113 113 115 110 110 104 102 100 100 92 85 85 68 52 45 35 36 36 33 29 33 
0 0 0 8 0 8 0 8 0 8 0 8 0 8 0 12 8 12 8 0 8 0 8 0 8 0 8 0 8 0 0 8 0 8 0 8 8 0 8 8 8 8 8 8 0 8 0 0 0 8 0 0 8 8 0 8 8 8 8 8 8 8 8 0 8 0 8 8 8 0 8 0 8 8 8 0 8 8 0 8 8 8 8 0 8 8 8 8 8 0 8 0 8 8 0 8 8 0 8 8 8 8 8 0 8 8 12 12 26 38 68 78 79 85 85 96 101 104 108 108 112 93 85 65 61 71 101 120 126 126 126 126 126 126 123 118 118 113 110 118 110 110 110 102 100 101 100 93 85 83 63 59 45 36 36 37 36 33 29 26 
0 0 8 0 8 0 8 0 8 0 8 0 8 0 8 8 8 0 12 8 0 8 8 8 8 0 8 0 8 0 8 0 8 0 8 0 8 8 8 8 0 8 0 8 0 0 8 0 8 0 8 0 8 0 8 8 8 8 8 8 8 0 8 8 8 8 0 8 0 8 8 8 8 8 8 8 0 8 0 8 0 8 8 8 0 8 8 8 8 8 0 8 8 8 8 8 8 8 8 8 8 8 8 8 12 12 8 34 14 84 76 84 90 93 101 102 108 104 108 112 95 79 69 63 69 98 119 123 126 123 126 129 123 126 120 118 113 118 110 110 113 107 104 100 100 100 93 89 77 68 52 37 45 36 36 33 30 29 29 26 
0 0 0 8 0 8 0 8 0 8 0 8 0 8 0 8 12 0 0 8 8 8 8 8 8 8 0 8 8 8 0 8 8 8 8 0 8 0 8 8 8 8 8 0 8 0 8 0 8 0 8 8 8 8 8 0 8 8 8 0 8 8 0 8 8 8 0 8 0 8 8 8 8 8 8 8 0 8 0 8 8 0 8 8 8 8 8 0 8 8 8 0 8 8 8 0 8 8 8 8 8 8 8 8 12 19 34 51 85 72 76 84 93 96 102 100 104 112 103 90 85 69 56 69 98 119 120 126 120 123 126 123 123 123 118 118 110 118 110 110 110 102 102 96 93 93 92 85 69 59 51 45 33 29 33 29 33 30 26 26 
0 0 8 0 8 0 8 0 8 0 8 0 8 0 8 8 8 0 0 8 8 8 8 8 8 8 8 8 8 8 8 8 8 8 0 8 8 8 8 8 8 8 0 8 8 8 0 8 8 8 8 8 8 0 8 8 8 0 8 0 8 0 8 8 8 8 0 0 8 8 8 8 8 0 8 8 8 0 8 0 8 0 8 8 8 8 0 8 0 8 0 8 8 0 8 8 8 0 8 0 8 8 8 12 10 28 38 66 66 86 84 89 93 100 102 104 108 108 98 79 72 63 57 84 112 124 123 126 126 129 126 123 121 123 118 118 112 118 110 110 110 102 96 97 93 93 89 78 68 52 36 36 36 33 29 33 30 33 26 26 
0 0 0 8 0 8 0 8 0 8 0 8 0 8 8 8 12 8 0 8 8 8 0 0 8 8 8 8 8 0 8 0 8 0 8 8 8 8 8 8 8 8 8 0 8 0 8 0 8 0 0 8 8 8 0 8 0 8 0 8 0 8 8 8 8 8 8 0 8 8 8 0 8 8 8 8 8 8 8 8 0 8 0 8 8 0 0 8 8 8 8 8 8 8 8 8 8 8 0 8 8 12 10 10 34 54 68 76 79 90 95 98 101 101 107 108 112 93 84 56 61 77 90 108 124 126 126 126 126 126 126 121 123 118 116 112 115 112 110 108 102 100 93 96 93 85 75 60 52 45 37 34 33 29 29 26 29 26 26 26 
0 0 8 0 8 0 8 0 8 0 8 0 8 0 8 8 8 0 8 8 8 12 8 8 8 0 8 0 8 8 0 8 0 8 8 0 8 8 8 8 8 0 8 8 8 8 8 0 8 0 8 8 8 8 8 8 8 8 8 8 8 0 8 8 8 0 8 8 0 8 8 8 8 8 8 0 8 8 8 8 8 8 8 0 0 8 0 8 8 8 0 8 8 8 8 8 8 8 8 8 8 12 19 34 51 70 76 85 87 90 98 100 98 104 108 103 99 76 68 60 64 89 108 124 123 126 126 126 126 123 126 118 118 116 116 111 112 108 108 102 100 96 100 93 85 79 68 52 37 37 37 34 29 26 29 26 26 26 19 26 
0 0 0 8 0 8 0 8 0 8 0 8 0 8 8 8 12 8 0 8 0 8 0 8 8 0 8 0 8 8 8 8 8 0 8 8 8 8 8 8 0 8 8 0 8 8 0 8 8 8 8 8 8 8 0 8 8 8 8 8 8 8 0 8 0 8 0 8 8 0 8 8 0 8 8 8 8 8 8 8 8 8 0 8 0 8 8 8 8 8 8 8 8 8 8 8 8 8 8 12 12 19 34 51 68 72 79 87 93 95 101 98 108 103 108 95 76 68 68 75 89 103 120 123 126 126 123 123 123 118 118 115 115 116 108 116 108 110 107 96 96 100 93 85 79 68 56 52 37 37 34 34 33 30 26 26 26 26 26 18 
0 0 8 0 8 0 8 0 8 0 8 0 8 8 0 8 8 0 0 8 8 8 0 0 8 8 8 8 0 8 8 8 8 8 0 8 8 8 8 8 8 0 8 8 0 8 8 8 8 0 8 8 8 8 8 0 8 8 8 0 8 0 8 8 0 8 8 8 8 8 8 0 8 8 0 8 8 8 8 8 8 8 8 0 8 0 8 0 0 8 8 8 8 8 8 8 0 0 8 12 19 33 51 66 78 76 93 90 95 96 101 104 108 112 95 82 60 63 79 95 112 120 124 123 120 129 123 126 118 118 115 118 115 108 116 110 108 108 96 100 93 93 89 78 63 56 37 37 37 37 34 33 30 26 29 26 26 19 26 19 
0 0 0 8 0 8 0 8 0 8 0 8 0 8 8 8 12 8 0 0 8 0 8 8 8 0 8 8 0 8 8 8 8 8 8 0 8 8 8 8 0 8 0 8 8 8 8 8 8 8 0 8 0 8 8 8 0 8 0 8 0 8 8 8 8 0 8 8 0 8 8 8 0 8 8 0 8 8 8 8 8 0 8 8 0 8 0 0 0 0 12 8 0 8 8 8 8 0 12 19 34 51 68 78 86 91 95 89 98 101 104 112 110 93 79 68 61 77 99 108 124 123 123 126 123 126 123 118 118 115 116 110 116 110 115 108 104 100 96 92 96 85 77 63 56 45 37 37 37 33 34 30 33 26 26 26 19 26 19 26 
0 0 8 0 8 0 8 0 8 0 8 0 8 0 8 8 8 12 0 8 8 8 0 8 8 8 8 0 8 0 0 8 8 8 8 8 0 8 8 8 8 8 8 8 8 0 8 8 0 8 8 8 0 8 0 8 8 0 8 0 8 8 8 8 8 8 8 8 8 8 0 8 8 0 8 8 0 8 0 8 8 8 0 8 0 8 12 8 8 0 12 0 8 0 12 8 8 8 16 34 59 68 86 76 86 95 95 95 103 104 103 101 93 77 69 57 71 96 119 123 126 126 123 126 123 123 123 118 118 112 110 115 115 108 108 102 100 100 96 93 92 77 68 52 45 37 37 37 33 37 29 29 26 29 26 26 18 26 18 18 
0 0 0 8 0 8 0 8 0 8 0 8 0 8 8 8 12 8 0 12 8 8 8 8 8 8 8 0 8 0 8 8 8 8 0 8 8 0 8 8 8 8 8 8 8 8 0 8 0 8 8 8 8 8 8 8 8 8 0 8 8 8 8 0 8 8 0 8 8 0 8 8 8 8 8 8 8 8 8 0 8 8 8 0 8 0 8 8 8 12 0 8 12 8 12 8 12 26 33 51 72 84 84 87 87 101 103 98 108 103 103 93 82 63 63 69 93 112 120 126 126 123 123 126 126 123 118 118 113 112 115 112 110 108 102 100 100 96 93 89 85 68 52 48 37 36 33 37 34 26 26 26 26 26 26 18 19 26 11 16 
0 0 8 0 8 0 8 0 8 0 8 0 8 8 0 8 8 0 0 8 8 8 0 8 0 8 8 8 0 0 8 8 8 8 8 0 8 8 0 8 0 8 0 0 0 8 8 8 8 0 8 8 8 0 8 8 8 8 8 8 8 0 8 8 8 0 8 8 0 8 8 0 8 8 0 8 8 0 8 8 0 8 8 8 8 8 0 8 12 8 8 12 12 0 12 12 16 26 59 72 76 84 87 95 99 98 103 103 104 110 100 82 68 56 69 93 116 123 126 126 123 123 123 123 120 118 118 113 112 110 110 115 108 108 102 96 100 93 92 85 75 59 47 42 33 37 33 37 34 26 26 26 26 26 19 26 18 18 18 16 
0 0 0 8 0 8 0 8 0 8 0 8 0 8 8 8 12 0 0 8 8 8 8 8 8 8 12 8 8 0 8 0 8 0 8 8 8 0 8 8 8 8 8 0 8 0 8 8 8 8 8 8 8 8 8 8 0 8 8 8 8 8 8 0 8 0 8 0 8 0 8 8 0 8 8 0 8 0 8 8 8 0 8 8 8 8 8 0 8 8 12 8 12 12 12 19 33 51 66 86 78 87 89 95 98 99 101 104 103 92 77 63 61 69 95 112 124 126 123 123 126 123 123 121 116 113 112 110 110 112 108 108 108 100 100 96 92 92 85 75 57 51 45 36 34 34 37 33 28 33 26 26 19 26 26 19 18 16 16 10 
0 0 8 0 8 0 8 0 8 0 8 0 8 0 8 8 8 8 8 8 8 8 8 0 8 8 8 8 8 8 0 8 0 8 0 8 8 0 8 8 0 8 8 8 8 8 8 8 8 0 8 0 8 0 8 0 8 8 0 0 8 0 8 8 0 8 8 8 0 8 0 8 8 8 8 0 0 8 8 8 8 8 8 8 8 8 8 0 0 8 12 8 8 12 26 33 51 72 86 84 85 87 98 99 101 103 104 112 95 85 61 57 69 95 119 119 120 126 121 126 123 126 121 116 112 110 110 107 110 108 108 104 101 100 96 97 92 85 79 60 52 35 36 34 34 34 34 33 28 26 29 26 26 18 26 18 18 18 10 8 
0 0 0 8 0 8 0 8 0 8 0 8 0 8 8 8 0 8 0 0 8 8 8 0 0 8 0 8 0 8 8 8 8 0 8 8 0 8 8 8 8 0 8 8 8 8 0 8 0 8 8 8 0 8 8 8 8 8 8 0 8 0 8 0 8 8 8 0 8 8 0 8 0 8 8 0 8 8 8 8 8 8 8 8 8 8 8 8 8 8 8 12 12 26 34 51 66 66 84 84 87 93 101 101 104 104 110 100 87 69 61 61 85 105 120 124 124 126 129 121 126 121 116 116 112 110 108 110 108 104 104 100 100 92 93 96 89 85 68 56 51 36 36 33 34 34 34 26 26 26 26 26 18 18 18 18 16 10 8 10 
0 0 8 0 8 0 8 0 8 0 8 0 8 8 0 8 12 0 0 8 0 8 0 8 0 8 0 8 8 8 0 8 8 8 8 8 8 0 8 8 8 0 8 8 12 8 0 0 8 8 8 0 8 8 0 8 8 0 8 8 8 0 8 0 8 0 8 8 0 8 0 8 8 8 0 8 8 0 8 0 8 8 8 8 8 8 8 8 8 12 8 12 19 38 51 66 72 84 84 87 101 93 101 103 104 103 96 85 65 63 65 85 103 124 124 123 124 123 126 126 118 116 112 110 112 108 110 112 104 104 100 100 100 93 93 89 82 71 59 37 45 36 34 33 33 30 33 29 26 26 26 26 19 26 18 18 16 10 10 8 
0 0 0 8 0 8 0 8 0 8 0 8 0 8 8 8 8 0 8 0 8 8 0 8 8 0 8 8 0 8 8 0 8 0 8 8 0 8 8 0 8 8 8 8 0 8 8 0 8 0 8 8 8 8 8 8 8 8 8 8 8 8 0 8 8 8 8 8 8 8 8 0 8 8 8 8 0 8 8 8 8 0 8 8 8 8 8 8 0 0 8 19 34 51 66 84 72 86 87 95 96 101 98 104 103 93 87 77 57 61 83 108 124 123 124 120 124 123 126 118 116 108 112 107 104 108 108 108 104 101 100 96 96 93 93 87 78 60 52 37 42 34 33 29 33 29 33 26 26 26 26 19 26 18 18 18 10 10 8 8 
0 0 8 0 8 0 8 0 8 0 8 0 8 0 8 8 8 12 8 0 8 8 8 0 8 8 8 8 8 8 8 8 0 8 8 0 8 8 0 8 0 8 0 8 0 8 8 8 0 8 8 8 8 8 8 0 8 8 0 8 0 8 8 8 8 8 8 0 8 0 8 8 0 8 8 0 12 8 8 8 8 8 8 8 10 10 8 8 12 12 19 34 51 86 66 86 84 91 93 99 96 101 104 108 98 85 71 61 61 82 98 120 126 123 124 126 120 118 118 118 112 108 104 104 104 104 104 104 101 100 96 96 96 93 84 78 60 52 42 34 33 34 33 28 26 33 29 26 26 26 26 26 18 18 18 16 10 8 8 8 
0 0 0 8 0 8 0 8 0 8 0 8 0 8 8 8 12 8 0 12 0 8 0 8 8 8 8 0 8 8 8 8 8 8 8 8 0 8 8 8 8 8 8 0 8 0 8 8 8 0 8 0 8 0 8 8 0 8 8 8 8 0 8 0 8 0 8 8 0 8 0 8 8 8 0 8 8 8 8 8 8 8 0 6 8 8 6 10 10 26 38 51 66 86 86 84 90 93 98 101 104 104 112 95 87 65 61 57 85 101 119 124 126 124 120 124 124 118 112 110 108 104 104 108 104 103 103 104 101 96 96 93 92 89 79 64 52 37 33 34 34 33 33 29 26 29 33 26 26 26 18 19 26 18 16 10 10 8 8 8 
0 0 8 0 8 0 8 0 8 0 8 0 8 8 0 8 8 12 0 0 8 0 8 8 8 0 0 8 0 8 8 8 8 8 0 0 8 8 0 8 0 8 8 8 0 8 0 8 0 8 8 8 0 8 8 8 0 8 8 8 8 8 8 8 8 8 0 8 8 0 8 0 8 8 8 0 0 8 0 8 8 8 8 8 8 8 8 16 26 34 51 66 86 86 86 87 95 95 101 104 104 103 98 85 63 61 61 72 103 116 120 123 120 124 120 118 115 110 108 104 104 104 104 103 104 104 103 101 99 100 96 92 90 78 68 52 37 42 34 33 33 34 34 33 26 26 29 26 29 26 18 18 18 17 11 17 8 8 8 8 
0 0 0 8 0 8 0 8 0 8 0 8 0 8 8 8 8 0 8 0 8 8 0 8 8 0 8 0 8 0 8 8 8 8 8 8 0 8 8 0 8 8 0 8 8 8 0 0 8 8 8 8 8 8 0 8 8 8 0 0 8 8 8 8 8 8 8 0 8 8 8 8 0 8 8 8 8 8 8 8 8 8 8 10 10 10 10 26 37 66 86 84 84 86 89 95 95 104 104 104 103 103 85 65 59 64 85 101 120 120 126 124 123 124 123 110 110 112 104 102 101 108 104 104 103 104 101 96 96 93 93 89 85 63 60 51 45 34 33 34 30 33 28 29 26 33 26 26 26 26 18 18 16 18 8 10 8 8 8 8 
0 0 8 0 8 0 8 0 8 0 8 0 8 0 8 12 8 12 0 12 8 8 8 8 8 8 8 8 8 0 8 0 8 8 8 8 8 0 8 8 0 8 0 8 0 8 8 0 8 8 8 8 0 8 8 0 8 8 8 0 8 8 8 8 8 8 8 8 12 8 12 8 8 0 8 8 8 8 10 8 6 8 8 10 6 11 26 37 51 66 66 84 84 84 95 101 98 98 98 108 110 77 71 56 61 90 104 108 126 123 126 126 120 120 116 110 110 104 102 108 104 104 108 104 104 104 96 93 93 93 93 85 75 60 54 37 37 34 34 33 33 29 33 26 26 19 26 26 26 18 26 18 16 16 8 8 8 0 8 0 
0 0 0 8 0 8 0 8 0 8 0 8 0 8 8 8 8 0 8 0 8 0 8 0 8 8 8 8 0 8 8 8 8 8 8 0 8 8 0 8 8 8 0 8 0 8 8 8 8 8 0 8 8 8 8 8 8 0 8 8 0 8 8 0 8 8 8 8 8 8 8 8 8 8 8 10 8 6 8 8 8 8 8 8 10 19 37 72 66 66 84 84 84 97 93 99 98 104 104 103 89 71 61 61 77 104 108 134 120 126 120 123 120 118 110 110 104 102 101 102 108 102 102 102 99 96 96 93 90 89 82 78 68 52 37 37 38 33 34 34 29 34 26 26 26 26 26 26 19 26 18 16 18 10 12 8 8 8 0 8 
0 0 8 0 8 0 8 0 8 0 8 0 8 0 8 0 8 12 0 8 8 8 0 8 0 8 8 8 8 0 8 8 0 8 8 8 8 0 8 0 8 8 8 0 8 8 8 8 0 8 8 0 8 0 8 8 8 8 8 8 8 8 8 8 8 8 8 8 12 8 8 0 8 8 8 8 8 8 8 8 8 8 8 10 19 51 59 66 72 84 84 85 97 99 93 101 104 104 98 90 71 56 61 79 104 119 120 134 123 123 120 120 118 110 110 104 102 104 100 104 102 104 102 102 96 96 96 93 93 87 78 63 60 37 51 33 29 34 33 34 26 34 34 26 26 26 26 19 26 18 18 16 16 10 12 12 8 0 8 8 
0 0 0 8 0 8 0 8 0 8 0 8 0 8 0 8 8 0 0 8 0 8 8 0 8 8 0 8 0 8 0 8 8 8 8 8 8 8 8 8 8 8 8 8 0 8 8 8 8 8 0 8 0 8 8 8 8 8 8 8 8 8 0 8 0 8 12 8 8 8 0 0 8 8 8 8 10 8 8 8 8 8 10 19 37 70 70 66 84 84 84 89 99 99 99 101 108 104 90 71 61 61 79 101 119 120 120 126 123 124 123 118 118 110 108 105 107 104 102 104 102 102 104 96 96 92 96 93 87 77 64 59 47 42 37 33 33 34 29 33 26 26 33 26 26 26 26 19 26 18 16 18 16 12 6 8 8 8 0 8 
0 0 8 0 8 0 8 0 8 0 8 0 8 0 8 8 0 8 8 8 0 8 0 8 0 8 8 0 8 0 8 0 8 0 8 8 0 8 0 8 0 8 0 8 8 8 8 8 8 8 8 8 8 0 8 0 8 0 0 8 0 8 0 0 8 0 0 12 0 8 0 0 8 8 8 8 8 8 8 8 12 12 10 34 51 66 84 72 84 87 93 89 95 101 103 104 103 87 72 63 59 79 101 119 120 124 124 120 126 123 123 118 110 110 107 102 102 108 101 102 108 104 100 102 96 93 93 90 85 71 61 47 45 37 33 34 37 33 34 29 26 26 26 26 26 19 26 19 18 18 16 16 10 12 12 8 8 0 8 8 
0 0 0 8 0 8 0 8 0 8 0 8 0 8 0 8 8 0 0 8 0 8 8 0 8 8 0 8 0 8 0 8 8 8 0 8 8 0 8 8 8 0 8 0 8 8 8 8 0 8 8 0 8 8 0 8 0 8 8 8 0 8 0 8 0 8 0 0 8 8 0 8 8 8 0 8 8 8 12 12 12 19 34 51 59 72 84 86 79 89 95 103 101 104 112 103 87 77 56 56 72 101 112 120 120 120 126 126 120 126 118 113 115 110 105 107 104 108 102 104 100 104 100 96 96 93 92 85 71 63 52 45 36 33 34 33 34 34 34 33 34 26 26 18 26 26 19 26 18 18 16 16 10 12 8 8 8 8 0 8 
0 0 8 0 8 0 8 0 8 0 8 0 8 8 8 8 12 8 0 8 8 0 8 8 8 8 8 8 8 0 8 8 8 0 8 0 8 8 8 0 8 8 0 8 0 8 8 0 8 8 0 8 0 8 0 8 0 8 8 8 8 0 8 8 8 8 8 8 8 8 0 8 0 8 0 8 0 8 8 12 19 38 51 66 72 84 72 93 84 90 103 103 104 110 101 93 75 61 59 69 93 112 119 124 120 124 126 123 126 118 118 113 110 107 105 107 105 104 104 100 104 100 100 96 97 92 87 77 63 56 37 37 36 29 33 30 33 33 29 26 26 26 26 26 18 26 26 19 26 18 16 16 10 12 8 8 0 8 8 0 
0 0 0 8 0 8 0 8 0 8 0 8 0 8 8 8 8 12 0 8 8 8 8 8 0 8 8 0 8 0 8 0 8 8 0 8 0 8 8 8 8 0 8 0 8 8 8 8 0 8 0 8 0 8 0 8 8 0 8 0 8 8 0 8 8 8 8 8 8 8 8 0 8 0 8 8 8 8 12 19 33 51 51 72 66 84 84 93 95 93 95 98 104 100 98 85 68 52 65 85 105 119 119 124 124 120 126 118 118 121 118 110 110 107 102 110 104 107 101 102 100 100 96 93 93 93 82 68 59 52 37 36 37 37 33 33 29 26 26 26 26 26 26 26 26 19 26 18 18 16 18 10 10 12 8 8 8 8 8 8 
0 0 8 0 8 0 8 0 8 0 8 8 0 8 0 8 0 8 0 8 0 8 8 8 8 0 8 0 8 8 0 8 8 8 12 8 0 8 8 8 0 8 0 8 8 8 8 8 0 8 0 8 8 8 8 8 0 8 0 0 0 8 8 8 8 8 8 8 8 0 8 0 8 8 12 8 12 12 19 26 51 66 66 84 84 84 89 95 99 98 101 104 98 93 82 68 57 68 89 112 119 120 124 123 124 120 118 118 118 118 115 110 110 110 107 102 108 104 104 100 96 96 97 92 93 89 71 68 47 45 37 37 36 37 34 29 33 29 33 29 33 26 26 26 26 19 26 19 18 18 26 10 12 10 12 8 8 8 8 8 
0 0 0 8 0 8 0 8 0 8 0 8 8 0 8 8 12 8 8 8 8 8 8 8 8 8 0 8 8 0 8 8 0 8 0 8 0 8 0 8 0 8 0 8 0 8 8 0 8 0 8 8 8 8 8 0 8 8 8 0 8 0 0 0 8 8 8 8 8 8 8 8 8 8 8 12 12 12 33 51 66 66 86 84 78 85 89 95 98 101 104 103 98 72 61 52 61 75 105 119 123 124 124 124 123 118 118 118 118 113 110 110 110 110 107 108 107 102 104 96 100 96 93 93 89 79 66 56 45 36 37 36 37 37 36 34 29 26 26 26 29 26 26 26 26 26 19 26 18 18 19 16 10 12 8 12 8 8 8 0 
0 0 8 0 8 0 8 0 8 0 8 8 0 8 0 8 8 12 8 8 8 8 8 0 0 8 8 8 12 0 0 8 8 8 8 8 8 0 8 0 8 0 8 8 8 0 8 8 0 8 8 0 8 8 0 8 8 8 8 0 8 0 8 8 8 8 8 8 10 8 8 8 8 8 0 12 12 28 51 70 66 72 86 78 85 97 95 97 95 103 104 98 79 65 52 48 77 99 119 124 123 126 123 120 120 118 118 118 113 118 110 110 110 110 110 102 108 102 96 96 100 93 97 89 85 68 59 51 36 36 37 29 37 34 33 29 26 26 26 26 26 26 26 26 19 26 19 26 18 19 26 16 10 10 12 8 8 8 8 8 
0 0 0 8 0 8 0 8 0 8 0 8 0 8 0 8 8 0 8 0 8 0 0 8 0 8 0 12 8 8 0 8 8 8 8 8 8 8 8 8 8 8 0 8 8 8 0 8 8 0 8 8 8 0 8 8 0 8 0 8 0 8 8 8 0 8 8 8 8 8 8 8 8 12 12 12 28 51 66 66 86 72 86 89 89 95 101 101 101 98 95 79 65 59 65 75 100 116 119 124 126 123 123 120 118 113 113 113 110 110 113 110 110 110 108 102 104 102 96 96 96 100 93 85 75 63 52 45 37 36 30 37 30 33 30 33 29 26 33 26 26 33 26 26 26 19 26 18 18 18 18 18 16 12 10 8 8 8 0 8 
0 0 8 0 8 0 8 0 8 0 8 0 8 0 8 12 8 0 0 0 8 0 8 8 8 0 8 8 0 8 8 8 8 8 8 8 8 8 8 0 8 8 8 0 8 8 8 0 8 8 0 8 8 8 0 8 8 8 0 8 8 8 8 8 8 0 8 8 8 8 8 8 12 8 19 26 51 59 86 72 86 79 87 87 98 93 104 104 103 95 85 61 52 61 75 96 111 124 124 126 123 120 120 120 116 110 110 110 113 110 110 113 110 110 107 102 102 96 96 92 93 93 89 77 68 59 45 37 37 37 37 30 34 34 29 33 29 33 26 29 26 26 26 19 26 26 19 26 18 18 26 16 16 10 12 10 12 8 8 8 
0 0 0 8 0 8 0 8 0 8 0 8 0 8 0 8 8 0 0 8 8 8 8 8 8 8 8 8 8 0 8 8 0 8 0 8 8 8 0 8 8 8 0 8 8 8 8 8 8 0 8 8 0 8 8 0 8 8 8 8 8 0 0 8 8 8 10 8 8 8 8 0 12 12 26 38 59 66 78 78 87 87 93 96 96 101 104 112 99 87 65 59 59 77 101 108 120 124 126 123 124 123 120 118 118 116 110 110 113 110 110 110 110 108 102 96 99 96 89 96 93 93 84 68 59 52 36 45 36 30 34 37 30 37 33 29 33 26 26 26 26 26 26 26 18 26 26 18 18 18 16 18 16 16 10 12 8 10 12 8 
0 0 8 0 8 0 8 0 8 0 8 0 8 0 8 12 8 12 0 8 8 8 8 8 8 8 8 0 8 8 8 8 8 0 8 8 8 8 8 8 8 0 8 8 8 8 8 8 0 8 8 8 8 8 8 8 8 0 12 8 8 0 8 0 8 8 8 8 8 8 12 8 12 28 51 70 66 86 86 76 93 93 90 98 98 104 103 95 87 71 59 56 75 93 119 119 124 124 126 126 120 120 123 120 116 110 113 110 110 113 110 107 108 105 104 96 96 99 96 93 92 85 78 61 59 45 33 36 34 29 34 30 34 34 37 29 29 33 26 26 26 26 26 26 19 18 18 26 18 16 19 18 18 19 10 10 19 12 8 8 
0 0 0 8 0 8 0 8 0 8 0 8 0 8 0 8 12 8 8 8 8 8 8 8 0 8 0 8 0 8 8 8 0 8 8 8 0 8 8 8 0 8 8 0 8 8 8 8 8 8 0 8 8 0 8 8 8 8 8 0 8 8 12 8 8 8 8 0 8 8 12 12 19 51 14 97 66 84 86 87 93 90 98 101 98 107 98 85 72 59 47 68 93 108 124 124 126 126 124 123 120 120 120 110 110 110 110 116 110 107 110 104 102 104 96 100 96 96 93 89 93 85 69 59 37 51 35 33 33 30 34 30 37 30 29 33 29 26 26 26 26 26 26 26 17 26 18 18 19 18 18 26 16 18 16 16 10 16 10 10 
0 0 8 0 8 0 8 0 8 0 8 0 8 0 8 8 8 8 0 8 0 8 8 0 8 8 0 8 8 8 8 8 8 8 0 8 0 8 8 8 8 0 8 0 8 8 8 0 8 8 8 8 8 8 8 8 8 8 8 8 8 8 8 8 8 0 8 8 8 8 10 28 51 66 78 84 84 78 87 89 87 95 100 98 107 98 89 71 56 52 75 89 110 119 134 123 126 123 123 123 120 118 112 107 110 107 110 110 112 110 104 104 102 100 96 96 96 96 93 93 89 75 63 52 48 36 36 33 34 34 37 34 30 26 26 29 26 33 26 26 26 26 26 26 18 26 18 19 18 18 18 18 18 19 18 16 16 19 16 19 
0 0 0 8 0 8 0 8 0 8 0 8 0 8 8 8 12 0 0 8 8 0 8 8 0 0 8 0 8 0 0 8 0 8 8 8 8 0 8 8 0 8 8 8 0 8 8 8 8 8 8 8 8 8 8 8 8 8 8 8 8 10 8 8 12 8 8 12 12 12 19 37 66 68 72 78 85 84 87 95 93 99 101 108 98 90 77 57 48 59 85 105 119 124 124 123 126 123 123 121 118 116 107 110 108 110 112 110 112 107 108 104 100 96 96 96 93 93 96 89 79 71 60 52 37 42 29 34 37 34 34 34 33 29 33 26 29 26 26 26 26 26 26 26 26 18 26 18 18 18 26 18 26 18 18 19 18 18 18 18 
0 0 8 0 8 0 8 0 8 0 8 0 8 8 0 8 8 0 8 0 8 8 0 8 8 8 0 8 8 8 8 8 8 8 8 0 8 8 8 8 8 0 8 8 8 8 8 8 8 8 8 8 8 8 8 8 8 8 8 8 8 8 0 8 8 8 8 8 16 19 34 51 66 78 78 79 84 90 89 93 95 103 103 104 96 82 69 52 61 75 95 119 119 124 124 126 123 123 121 116 116 110 108 107 110 110 110 112 104 108 104 102 96 100 93 96 93 96 95 87 79 64 56 51 36 37 34 33 34 36 34 30 34 29 26 33 26 26 33 26 26 26 26 19 26 26 26 19 18 18 19 26 19 26 18 26 26 18 18 19 
0 0 0 8 0 8 0 8 0 8 0 8 0 8 8 8 8 8 0 12 0 8 8 8 8 8 8 8 8 8 8 8 8 0 8 8 8 8 8 8 0 8 8 8 8 8 8 8 8 8 8 8 8 8 8 8 8 8 8 8 8 0 8 8 8 12 0 12 26 33 51 66 68 76 84 87 85 89 95 95 99 101 101 98 85 65 56 61 69 95 119 119 123 123 123 126 123 123 116 113 112 110 107 110 107 110 112 110 112 104 104 104 96 100 96 93 96 97 90 77 63 59 52 47 36 36 34 33 30 34 37 33 34 33 26 26 33 26 26 29 26 26 26 26 26 26 26 18 18 26 18 19 26 18 18 18 18 19 18 18 
