P2
160 120
255
0 8 0 8 0 8 0 0 0 0 0 0 0 0 0 0 0 0 0 0 0 0 0 0 0 0 0 0 0 8 0 0 0 0 0 0 0 0 0 0 0 0 0 0 0 0 0 0 0 0 0 0 0 0 0 0 0 0 0 0 0 0 0 0 0 0 0 0 0 0 0 0 0 0 0 0 0 0 0 0 0 0 0 0 0 0 0 0 0 0 0 0 0 0 0 0 0 0 0 0 0 0 0 0 0 0 0 0 0 0 0 0 0 0 0 0 0 0 0 0 0 0 0 0 0 0 0 0 0 0 0 0 0 0 0 0 0 0 0 0 0 0 0 0 0 0 0 0 0 0 0 0 0 0 0 0 0 0 0 0 
8 0 8 8 8 0 8 0 8 0 8 0 8 0 8 0 8 8 0 8 8 0 8 0 0 0 8 0 8 0 8 0 8 8 0 8 8 0 8 8 0 8 8 0 8 8 0 8 8 8 8 8 8 8 8 8 0 8 8 0 8 8 0 8 0 8 0 0 8 0 0 8 0 8 0 8 0 8 0 8 0 8 0 8 0 8 0 8 0 8 8 8 8 8 8 8 8 8 8 0 8 8 0 8 8 0 8 8 8 8 8 0 8 8 8 0 8 8 8 8 8 8 8 8 0 8 0 8 0 8 0 8 0 8 0 8 0 8 0 8 0 8 0 8 0 8 0 8 0 8 0 8 0 8 0 8 0 8 0 8 
8 8 8 0 8 8 0 8 0 8 0 8 0 8 0 8 0 8 0 8 0 8 8 8 8 0 8 0 0 8 0 0 8 0 8 0 8 0 8 0 8 8 0 8 8 0 8 8 0 8 0 8 0 8 0 8 0 0 0 0 0 0 0 0 8 0 8 0 0 8 0 0 8 0 8 0 8 0 8 0 8 0 8 0 8 0 8 0 8 8 0 8 8 0 8 8 0 8 0 8 0 8 0 8 0 8 0 8 0 8 8 8 8 8 8 8 0 8 8 0 8 8 0 8 0 8 0 8 0 8 0 8 8 0 8 8 8 0 8 8 8 0 8 8 8 0 8 8 0 8 0 8 0 8 0 8 0 8 0 8 
8 0 8 8 0 8 8 0 8 8 8 0 8 8 8 0 8 0 8 0 8 0 8 8 8 8 8 8 0 8 0 8 8 8 8 8 8 0 8 8 0 8 8 0 8 8 0 8 8 0 8 8 8 0 8 8 0 8 8 0 8 8 0 8 0 0 0 8 0 0 8 0 0 8 8 0 8 8 0 8 8 0 8 8 0 8 8 8 0 8 8 0 8 8 0 8 8 8 0 8 8 0 8 0 8 8 0 8 0 8 0 8 8 8 0 8 8 0 8 8 0 8 8 0 8 0 8 0 8 0 8 8 0 8 8 0 8 8 8 0 8 8 8 0 8 8 8 0 8 0 8 0 8 0 8 0 8 0 8 0 
8 0 8 0 8 0 8 8 8 8 8 8 8 0 12 8 8 8 8 8 8 8 0 8 8 0 8 8 8 8 8 8 8 8 8 8 8 8 0 8 8 8 8 8 8 8 8 8 8 8 8 0 8 8 8 8 8 0 8 8 0 8 8 0 8 0 8 0 8 0 0 8 0 8 8 8 0 8 8 0 8 8 0 8 8 0 8 0 8 8 0 8 8 0 8 8 0 8 8 0 8 0 8 8 0 8 0 8 8 0 8 8 0 8 8 8 0 8 8 0 8 0 8 8 8 8 8 8 8 8 0 8 8 0 8 0 8 0 8 0 8 0 8 0 8 0 8 0 8 8 8 8 8 8 8 8 8 8 8 8 
12 8 0 12 8 0 12 8 8 8 8 8 8 12 8 0 8 0 8 0 8 8 8 0 8 8 8 8 8 12 8 0 8 8 8 8 8 8 8 8 8 8 8 8 8 8 8 8 8 8 8 8 8 8 0 8 8 8 8 8 8 8 8 8 0 8 0 0 8 0 8 0 8 8 0 8 8 8 8 8 8 8 8 8 8 8 8 8 8 8 8 8 8 8 8 8 8 8 0 8 8 8 0 8 8 0 8 8 8 8 8 8 8 8 8 8 8 8 8 8 8 8 0 8 8 0 8 8 0 8 8 0 8 8 0 8 8 8 0 8 8 8 0 8 8 8 0 8 8 8 0 8 8 0 8 8 0 8 8 0 
8 12 8 8 12 8 8 0 12 8 8 8 0 8 0 12 8 12 8 8 8 8 12 8 0 12 8 8 0 8 0 12 8 8 8 8 8 8 8 8 8 8 8 8 8 8 8 8 8 8 8 8 8 8 8 8 0 8 0 12 8 8 0 12 8 0 8 8 0 8 0 8 0 8 8 8 8 0 8 8 0 8 8 0 8 8 0 8 8 8 8 8 8 8 8 8 8 8 8 8 0 8 8 8 8 8 8 8 8 8 8 8 8 0 8 8 8 8 8 8 8 8 8 8 8 8 8 8 8 8 8 8 8 8 8 8 0 8 8 8 0 8 8 8 0 8 8 8 8 8 8 8 8 8 8 8 8 8 8 8 
0 8 8 8 0 12 0 8 0 8 8 8 12 8 8 8 0 8 0 12 8 0 8 8 8 0 8 0 12 0 8 0 8 0 8 0 8 8 8 0 8 0 8 8 8 0 8 8 8 8 0 8 8 8 8 8 8 8 12 0 8 0 8 0 8 8 8 0 8 8 0 8 8 8 0 8 0 8 8 0 8 8 0 8 0 8 8 0 8 8 8 8 0 8 0 8 8 8 8 8 8 8 0 8 0 8 8 8 8 8 0 8 0 8 8 8 8 0 8 0 0 8 0 8 0 8 8 0 8 0 8 8 0 8 0 8 8 8 8 0 8 8 8 0 8 8 8 8 8 8 0 8 0 8 0 8 0 8 0 8 
0 0 8 8 8 0 8 8 8 0 8 8 0 8 0 12 8 0 8 8 8 12 0 8 8 0 8 0 8 0 0 8 8 8 8 8 0 8 0 8 0 8 0 8 8 8 8 8 8 0 8 8 8 8 0 8 0 8 8 8 8 8 0 8 8 8 8 8 8 8 8 8 8 0 8 8 8 0 8 8 8 0 8 8 0 8 8 8 8 8 8 8 8 0 0 0 8 0 8 0 8 0 8 8 8 0 8 12 8 8 0 8 8 0 8 8 0 8 0 8 8 0 8 8 0 8 8 8 0 8 8 8 8 0 8 8 8 8 0 8 8 8 0 8 0 8 0 8 8 8 8 8 8 8 8 8 8 8 8 8 
8 8 8 8 8 8 8 8 8 8 8 0 8 8 8 8 8 8 8 0 12 8 8 8 0 8 0 8 8 8 0 8 0 8 8 8 8 8 8 0 0 8 0 8 8 8 8 0 8 8 8 0 8 0 8 8 0 0 8 8 12 8 8 0 8 8 0 8 8 8 8 8 8 8 8 8 8 8 0 8 8 8 0 8 8 8 8 8 8 8 8 0 8 0 8 8 0 8 0 8 8 0 8 8 8 8 8 8 8 0 8 8 8 8 0 8 8 0 8 0 8 8 8 0 8 0 8 8 0 8 0 8 8 8 8 8 0 8 8 8 8 8 8 8 8 0 8 8 0 0 8 0 8 8 8 0 8 8 8 8 
8 8 8 8 12 8 8 8 8 8 8 8 8 8 0 8 8 0 8 8 8 8 8 8 8 0 8 8 8 0 8 8 8 0 8 8 0 8 0 8 0 8 8 8 8 8 8 8 0 8 8 8 8 8 0 8 8 0 8 8 8 0 8 8 0 0 8 8 8 8 8 8 8 8 8 8 0 8 8 0 8 0 8 0 8 8 8 8 8 0 8 0 8 8 8 8 12 8 8 8 8 8 0 8 8 0 0 0 8 0 0 8 0 8 0 8 0 8 8 8 8 8 8 8 0 8 8 8 8 0 8 0 8 8 8 8 8 8 8 8 8 0 0 8 8 8 0 8 8 0 8 8 0 8 8 8 8 8 8 0 
0 8 8 8 0 8 0 8 0 8 8 8 0 8 8 8 8 0 0 8 0 8 0 8 0 8 8 8 8 8 0 8 8 0 8 8 0 8 8 8 8 8 8 8 0 8 8 0 8 0 8 0 8 0 8 8 8 8 0 8 8 8 8 8 8 0 8 8 8 8 8 0 8 8 0 8 8 0 8 8 0 8 8 8 8 8 8 8 8 8 8 8 0 0 8 8 8 8 0 8 8 0 8 8 8 8 8 8 8 8 0 8 8 8 8 8 0 8 8 8 8 8 8 0 8 8 0 8 8 8 0 8 8 0 8 8 0 8 0 8 8 0 8 0 8 8 8 0 8 8 8 8 8 8 0 8 8 0 8 8 
0 8 0 8 0 8 0 8 8 8 8 8 12 8 8 8 0 8 0 8 0 8 0 8 0 8 8 8 8 8 8 8 8 8 0 0 8 8 8 8 8 8 8 0 8 0 8 0 8 0 8 0 8 8 8 0 8 8 8 0 0 8 0 8 0 8 0 8 8 0 8 8 0 8 8 0 8 8 0 8 8 0 8 8 0 8 8 0 8 8 8 8 0 0 0 0 0 0 8 8 8 8 0 8 8 0 8 12 8 8 8 8 8 8 0 8 8 8 8 8 8 8 8 8 8 8 0 8 8 8 8 8 8 8 0 8 8 8 0 8 8 0 8 8 8 8 8 8 8 8 8 0 8 8 8 0 8 0 8 8 
8 8 8 0 8 8 8 8 8 8 8 8 8 12 8 8 0 8 8 8 8 0 8 0 8 0 8 8 8 8 0 8 8 8 8 8 8 8 8 8 8 8 8 8 8 8 0 8 8 8 0 0 8 8 8 0 8 8 12 8 0 8 0 8 0 8 8 0 8 8 0 8 0 8 8 8 0 8 8 0 8 8 8 0 8 8 8 0 0 8 8 0 8 0 8 8 8 8 8 8 8 8 8 0 8 8 0 8 8 0 0 8 8 8 0 8 8 8 8 8 8 8 8 8 8 8 8 8 8 8 8 0 8 0 8 8 8 0 8 0 8 8 0 8 8 8 0 8 0 8 8 8 0 8 8 8 0 8 0 8 
0 8 0 8 0 8 8 8 8 8 8 8 8 8 8 8 8 0 8 8 8 8 8 8 0 8 8 8 8 8 8 0 8 8 8 8 8 8 8 8 8 8 8 8 8 0 8 8 8 0 0 8 8 12 8 8 0 8 8 8 8 8 8 8 0 8 0 8 0 0 8 0 8 8 8 0 8 8 8 8 8 8 8 8 8 8 8 8 0 0 8 8 0 8 8 8 8 8 8 8 0 8 0 8 8 8 0 8 0 8 0 8 8 8 0 8 8 8 0 8 8 8 8 8 8 0 8 0 8 8 0 8 8 8 0 0 8 8 8 0 8 8 8 0 8 8 8 0 8 0 0 8 0 8 0 8 8 8 8 8 
8 8 8 0 8 0 8 8 8 8 8 8 8 8 8 8 8 8 8 8 8 8 8 8 8 8 8 8 8 8 8 8 8 8 8 8 0 8 0 8 0 8 0 8 0 8 0 8 8 8 0 8 8 8 8 8 0 0 8 8 12 8 8 0 8 0 8 8 8 8 8 8 0 8 8 8 0 8 8 8 0 8 8 8 8 8 0 8 0 8 8 0 8 8 8 8 0 8 0 8 0 8 8 8 8 8 8 8 8 8 8 8 8 0 8 8 8 8 8 8 0 8 0 0 8 8 8 8 8 0 8 0 8 8 8 0 0 8 8 0 8 8 8 8 0 8 8 8 0 8 0 8 0 8 0 8 0 8 8 8 
8 8 8 8 8 8 0 8 0 8 8 8 8 8 0 8 0 8 0 8 0 8 8 0 8 8 8 8 0 8 8 8 8 8 8 0 8 0 8 8 8 0 8 0 8 8 0 8 0 8 8 8 0 8 8 8 0 8 8 0 8 0 8 8 0 8 0 8 8 8 8 8 8 0 0 8 8 0 8 0 8 0 8 0 8 8 8 8 8 0 8 8 8 8 8 8 8 8 8 8 8 0 0 8 0 8 0 8 8 8 0 8 0 8 8 0 8 8 0 8 8 0 8 8 8 8 8 0 8 0 0 8 0 8 8 8 8 8 8 8 8 8 8 0 8 0 8 8 8 8 8 0 8 8 8 8 0 8 8 8 
0 8 0 8 8 0 8 8 8 8 8 8 8 8 0 8 8 8 8 8 8 0 8 8 8 8 8 0 12 8 12 0 8 0 8 8 8 8 0 8 8 8 8 8 8 8 8 0 8 8 8 8 8 0 8 0 8 8 8 0 8 0 8 8 8 8 8 8 8 8 8 0 8 0 8 0 8 8 0 8 0 8 0 8 8 8 8 8 8 8 8 8 8 0 8 0 8 0 8 8 8 8 8 8 0 8 8 8 0 8 8 8 8 8 8 8 0 8 0 8 8 8 8 8 8 0 8 0 8 0 8 8 8 0 8 8 8 8 8 0 8 8 0 8 8 8 0 8 8 8 8 8 8 8 8 8 0 8 8 8 
8 8 8 8 8 8 0 8 8 8 8 8 8 0 8 0 0 8 8 8 8 0 0 8 8 0 8 8 8 8 8 8 8 0 0 8 8 8 8 0 8 0 8 0 8 8 8 0 0 8 8 8 8 0 8 8 8 0 8 8 0 8 0 8 8 8 8 8 0 8 8 0 8 0 8 8 8 8 8 0 8 8 8 8 8 8 0 0 0 8 8 8 0 8 8 0 8 0 8 0 0 8 8 8 8 8 8 0 8 0 8 8 8 0 8 8 0 8 0 8 8 8 8 8 8 8 8 0 0 8 8 8 8 8 8 0 8 8 8 8 8 0 8 8 0 8 8 0 8 8 8 0 8 0 8 8 8 0 8 0 
0 8 8 8 0 12 8 8 8 8 8 8 0 8 8 8 8 0 8 8 8 8 8 8 0 8 8 8 8 8 0 8 8 8 8 0 8 8 8 8 8 8 8 8 0 8 8 8 8 8 8 8 0 8 0 8 0 8 8 8 0 8 0 8 8 8 0 0 8 0 8 8 8 0 8 8 8 8 0 8 8 0 8 8 0 8 8 8 0 8 8 8 8 0 8 8 8 8 8 8 8 8 0 8 8 8 0 8 0 8 8 8 8 8 0 8 8 8 8 0 8 0 8 8 8 8 0 8 8 0 8 8 8 8 8 0 8 8 8 0 8 8 8 8 8 8 0 12 8 0 8 0 8 0 8 0 8 8 0 8 
8 0 8 0 8 0 8 0 8 8 0 8 8 0 8 8 8 8 0 8 8 0 8 8 0 8 8 8 12 8 8 0 8 8 8 8 0 0 8 8 8 8 8 8 8 8 8 8 8 8 8 8 0 8 8 8 8 0 8 8 8 0 8 8 0 8 0 8 0 8 8 8 8 0 8 8 8 8 8 0 8 8 0 8 0 8 8 8 8 0 8 0 8 8 0 8 8 8 8 8 8 8 8 0 0 0 8 8 8 8 0 8 0 8 0 8 0 8 8 8 8 8 0 8 0 8 8 8 0 8 0 8 8 0 8 0 8 8 8 8 0 8 8 8 8 8 8 8 0 8 8 8 0 8 8 8 0 8 8 0 
0 8 8 8 0 8 0 0 8 0 8 8 0 8 8 8 0 8 0 8 8 8 8 8 8 0 8 8 8 8 8 8 8 8 8 0 8 8 8 8 8 8 8 0 8 0 8 8 8 8 8 0 0 0 8 8 0 8 8 8 8 8 8 8 0 8 0 0 0 8 8 8 8 8 8 8 8 0 8 8 0 8 8 8 8 8 0 8 8 0 8 0 8 8 8 8 8 8 12 8 8 8 0 8 8 8 8 8 8 0 8 8 0 8 0 8 8 8 8 8 0 8 0 8 8 8 8 8 8 0 8 8 0 8 0 8 0 8 8 8 8 0 8 0 8 8 0 8 8 8 8 8 8 8 8 8 8 0 8 8 
8 8 0 8 8 0 8 8 0 8 8 8 8 0 8 0 8 8 8 0 8 8 8 8 0 8 8 0 8 8 8 0 8 0 8 8 8 8 8 8 0 8 8 0 8 0 8 0 8 0 8 8 8 0 8 8 8 8 0 8 8 0 8 8 0 8 0 8 0 8 8 8 8 8 8 8 8 8 8 8 8 8 8 8 0 8 8 0 8 0 8 8 8 8 8 8 8 8 0 8 0 8 8 0 8 0 8 8 8 8 8 8 8 0 8 8 8 8 8 8 8 0 8 0 8 8 8 0 8 8 0 8 8 0 8 8 8 8 8 8 8 8 0 8 8 0 8 8 0 0 8 0 8 8 0 0 8 8 0 8 
8 8 8 0 0 0 8 8 8 8 8 8 0 8 0 8 0 8 8 8 8 8 8 0 8 8 8 8 8 8 8 8 0 0 0 8 8 8 8 8 8 8 8 8 0 8 8 8 0 8 8 8 8 0 8 0 8 8 8 0 8 0 8 8 8 8 8 8 8 8 0 8 0 8 0 8 8 0 8 8 0 8 0 0 8 8 8 8 12 8 8 8 8 8 8 8 0 8 8 0 8 0 8 0 0 8 0 8 0 8 8 8 8 8 8 8 8 0 8 8 8 8 8 8 8 8 0 8 0 8 8 8 8 8 8 0 8 8 8 8 0 8 8 0 8 8 8 0 8 0 8 0 8 0 8 0 8 8 0 8 
8 0 8 8 8 0 8 8 12 8 8 8 8 8 8 8 8 0 8 8 8 0 8 8 8 12 8 12 8 12 12 0 8 8 0 8 8 8 8 8 8 0 8 0 8 0 0 8 8 8 8 8 8 8 8 8 8 8 8 8 8 8 8 8 8 8 8 8 8 0 8 0 8 0 8 8 0 8 8 8 0 8 0 8 0 8 8 8 8 8 0 8 8 0 8 0 8 8 0 8 8 0 8 8 0 8 8 8 8 8 8 0 8 8 0 8 8 8 8 8 8 8 0 8 8 8 8 8 8 8 8 0 8 0 8 0 0 8 0 8 8 8 0 8 0 8 8 8 8 8 0 8 0 8 8 8 8 8 0 8 
0 8 0 8 8 8 8 0 8 0 8 8 8 8 8 0 8 8 8 8 8 8 0 8 8 0 8 0 0 0 0 8 8 0 8 8 8 8 8 0 8 0 8 8 8 8 8 8 0 8 0 8 8 0 8 0 8 8 8 8 8 8 8 8 0 0 0 8 0 8 8 8 8 8 0 8 8 8 8 8 8 8 8 0 8 8 8 8 0 0 8 8 8 8 8 8 0 8 8 8 8 8 0 8 12 8 8 8 8 8 8 8 8 8 8 0 8 8 8 0 8 0 8 0 0 8 0 0 0 8 0 8 8 8 8 8 8 8 8 12 8 8 0 8 0 8 0 8 8 8 8 8 8 8 8 8 0 8 8 8 
0 8 8 8 8 8 0 8 0 8 8 8 8 0 8 8 8 0 8 8 0 8 0 8 8 0 8 8 0 8 8 8 8 8 8 8 8 8 8 8 0 8 0 8 8 8 8 8 8 8 8 0 8 8 8 8 8 8 8 8 8 8 8 8 8 0 8 8 8 8 8 8 8 8 0 8 8 8 8 8 8 8 8 0 0 8 0 0 0 8 0 8 8 8 8 8 0 0 8 0 8 0 8 8 8 8 8 0 8 8 8 8 8 0 8 8 8 0 8 0 8 0 0 8 8 8 8 0 8 0 8 8 8 0 8 8 0 8 8 8 8 8 8 0 8 8 8 0 8 8 8 8 8 8 8 0 8 0 8 0 
8 8 8 0 8 0 8 8 8 8 0 8 0 8 0 8 8 8 8 0 8 0 8 0 8 8 8 8 8 12 8 8 0 8 0 8 8 0 0 8 8 8 8 8 8 8 0 0 8 8 8 8 8 8 8 8 8 8 8 8 8 0 8 0 8 8 8 8 8 8 0 0 8 8 8 8 0 8 0 8 0 8 8 8 8 8 8 8 0 8 8 8 0 8 8 8 8 8 8 8 8 8 8 0 8 0 8 0 8 8 8 8 8 8 8 8 8 0 8 8 8 0 8 8 8 8 8 8 8 8 8 0 8 8 0 0 8 8 0 8 0 0 8 8 8 8 8 8 0 8 0 0 8 0 8 8 8 8 0 8 
8 8 8 0 8 0 8 8 0 8 8 0 8 8 0 8 0 8 8 8 8 8 8 8 0 8 0 8 12 8 12 8 8 8 8 8 0 8 8 8 8 8 8 8 0 8 0 8 8 8 0 8 8 8 0 8 8 8 8 8 8 8 0 8 8 8 0 8 8 8 8 0 8 8 8 8 8 0 8 0 0 8 8 8 8 8 8 8 8 8 8 8 8 0 8 8 8 8 8 8 8 0 8 0 8 0 8 8 0 8 8 0 12 8 8 0 8 8 8 8 8 8 8 8 8 8 8 8 8 0 8 0 8 0 8 8 0 8 0 0 8 8 8 8 8 0 8 8 8 0 8 8 0 8 0 8 8 8 8 8 
8 0 0 8 8 8 0 8 0 8 0 8 8 0 8 0 8 0 8 8 8 8 8 8 8 8 8 8 8 8 8 8 8 8 8 8 8 0 8 0 0 0 0 8 8 8 8 8 0 8 0 8 0 8 0 8 8 8 8 8 8 8 8 8 0 8 8 0 8 8 8 8 8 8 0 8 8 8 8 8 8 8 8 8 8 8 8 8 8 8 8 8 8 0 8 0 8 8 0 8 0 8 8 8 0 8 8 8 8 0 8 8 8 8 8 8 8 0 8 8 8 8 8 8 8 8 0 8 0 8 0 8 8 8 8 8 8 0 8 8 8 8 8 0 8 0 0 8 8 8 8 8 8 8 8 0 8 0 8 8 
8 8 0 0 8 8 8 0 0 8 0 8 8 8 8 0 8 8 8 8 8 8 0 8 8 8 8 0 8 0 8 8 8 8 0 8 8 8 0 8 0 8 0 8 8 8 8 8 8 0 8 0 8 8 8 0 8 8 8 8 8 8 8 8 8 0 8 8 8 8 8 8 8 0 8 8 0 8 8 8 8 8 8 8 8 8 8 8 8 8 0 8 8 8 0 8 8 0 8 8 8 8 8 8 8 8 8 0 8 8 8 8 8 8 8 8 8 8 0 8 0 8 8 0 8 0 8 0 8 8 8 8 0 8 8 8 8 8 0 8 8 8 8 8 0 8 0 8 8 8 8 0 8 8 8 8 0 8 8 8 
8 8 8 0 8 0 8 8 8 0 8 0 8 0 8 8 0 8 8 8 8 0 8 8 8 0 12 8 0 8 8 8 8 0 8 0 8 0 8 8 8 8 8 8 8 0 8 0 8 8 8 8 8 8 8 8 8 8 0 8 0 8 8 8 8 8 8 8 8 0 8 0 8 8 0 8 8 0 8 0 0 8 0 8 8 8 0 0 8 8 8 0 8 8 8 0 8 8 8 0 8 0 8 0 0 0 8 8 8 8 8 8 0 8 8 0 8 8 8 0 8 0 0 8 8 8 8 8 8 8 8 0 8 8 8 8 0 8 0 8 0 8 0 8 8 8 8 0 8 8 0 8 8 0 8 8 8 8 0 8 
8 0 8 8 8 0 8 8 8 8 8 8 8 8 0 8 8 0 8 8 8 0 8 0 8 8 8 8 8 8 8 8 8 8 8 0 8 8 8 0 8 8 0 8 0 8 0 8 8 8 8 0 0 8 8 8 8 8 8 0 8 8 0 8 0 0 8 8 8 8 8 8 0 8 0 8 0 8 0 8 0 8 8 8 8 8 8 8 8 0 8 0 8 8 8 8 0 8 8 12 8 8 0 8 0 8 8 8 8 12 8 8 8 8 8 8 8 8 8 0 8 8 0 8 8 0 8 8 8 8 8 8 0 8 8 8 8 8 8 0 8 8 8 0 8 8 8 8 0 8 8 8 8 8 8 8 0 8 8 0 
8 8 0 8 8 0 8 8 8 8 8 8 0 8 8 0 8 8 0 8 0 8 8 0 8 8 8 8 8 0 8 8 0 8 0 8 0 8 0 8 0 8 0 8 8 8 8 0 8 8 0 8 0 8 8 8 8 8 8 0 8 8 8 8 8 0 0 8 8 8 8 8 8 0 8 8 8 8 8 0 8 0 8 0 8 8 0 8 8 0 8 8 8 8 0 8 0 8 8 8 8 8 0 8 8 0 8 8 8 8 8 0 8 0 8 8 8 8 0 8 0 8 0 8 8 8 0 8 8 0 8 0 8 8 8 8 8 8 0 8 8 0 8 8 0 8 0 8 8 0 8 8 8 8 8 0 8 8 0 8 
8 0 8 8 8 0 8 8 8 0 8 0 8 0 8 8 0 8 8 0 8 8 8 8 8 0 8 8 0 8 8 8 8 0 8 8 8 8 8 8 8 8 0 8 0 8 0 8 0 8 8 0 8 8 8 0 8 8 0 8 0 8 0 8 0 8 8 0 8 8 0 8 8 8 8 8 0 8 8 8 8 8 0 8 0 8 8 0 8 0 8 8 8 0 8 8 8 8 0 8 0 8 8 0 8 8 0 8 8 8 8 8 0 8 8 8 8 8 8 8 0 8 0 8 0 8 8 8 0 8 8 8 8 8 8 0 8 8 8 0 8 8 8 0 8 8 8 0 8 8 8 8 8 8 8 8 8 8 8 0 
8 8 0 8 0 8 0 8 8 8 8 8 8 0 8 0 8 8 0 8 8 8 8 8 8 8 0 8 8 8 8 0 8 8 8 0 8 8 8 0 8 8 8 8 8 8 8 0 8 8 8 8 0 8 8 8 12 8 8 8 8 8 0 0 8 8 8 0 8 0 8 8 8 8 8 8 8 0 8 8 8 8 8 8 0 8 0 8 0 8 0 8 0 8 0 8 0 8 0 0 8 8 8 8 8 8 0 8 8 8 8 8 8 8 8 8 8 8 8 0 8 8 8 0 8 0 8 0 8 0 8 8 8 8 0 8 8 8 8 8 8 8 8 8 0 8 8 8 8 8 0 8 0 0 8 8 0 8 0 8 
0 8 8 0 8 0 8 8 0 8 8 8 8 8 8 8 8 8 8 8 8 8 8 8 8 8 0 0 8 0 12 8 8 0 8 8 0 8 8 8 0 8 8 8 8 0 8 8 0 8 0 8 8 0 8 8 0 8 0 8 0 8 8 8 8 8 0 8 0 8 0 8 8 0 8 8 8 8 0 8 0 8 0 12 8 8 8 0 8 0 8 0 8 0 8 0 8 8 0 8 8 0 8 8 0 8 0 8 8 8 8 0 8 8 8 8 0 8 8 0 8 8 8 8 8 0 8 8 0 8 0 8 8 0 8 0 8 8 8 8 8 8 0 8 8 0 8 8 0 8 0 0 0 8 0 8 8 0 8 8 
8 8 8 8 0 8 0 8 8 8 8 8 0 8 8 8 0 8 8 0 8 8 0 8 8 8 8 8 0 8 8 0 8 0 8 8 8 8 8 0 8 8 8 0 8 8 0 8 8 0 8 8 8 0 8 0 8 0 0 8 0 8 8 10 8 8 8 8 0 8 8 8 8 8 0 8 8 8 8 0 0 8 8 8 8 8 8 8 8 8 0 8 0 0 0 8 0 8 8 0 8 8 8 8 8 0 8 0 8 8 8 8 8 8 0 8 8 0 8 8 0 8 0 8 8 8 0 8 8 8 8 8 8 8 0 8 8 8 0 8 8 0 8 8 0 8 0 8 8 0 8 0 8 0 8 0 8 8 8 8 
8 8 8 8 0 8 8 0 8 8 8 0 8 8 8 0 8 8 0 8 8 0 8 8 0 8 8 0 8 8 8 0 8 0 8 0 8 8 8 8 0 8 0 8 8 0 8 8 0 8 8 8 8 0 8 8 0 8 8 8 0 8 0 8 8 0 8 0 8 0 8 8 8 0 8 8 8 8 8 0 8 0 8 8 8 0 8 0 8 8 8 8 8 8 0 8 8 8 8 8 8 8 8 0 8 8 8 8 12 12 8 8 0 12 8 8 8 8 0 8 8 8 0 8 8 8 8 0 8 8 0 8 0 8 0 8 0 8 8 8 8 8 0 8 8 0 8 0 8 8 0 8 8 8 8 8 8 8 0 8 
0 8 8 8 8 0 8 8 8 8 0 8 0 8 8 8 8 8 8 8 8 8 8 0 8 8 8 8 8 8 0 8 0 8 8 8 0 8 8 8 8 8 8 0 8 8 8 8 8 0 8 8 8 0 0 8 8 8 8 8 8 0 8 0 8 0 0 8 8 8 8 8 8 8 8 0 8 0 8 8 8 8 0 8 8 8 8 8 0 8 12 8 8 8 8 8 8 8 8 8 0 8 0 8 8 8 8 8 8 8 8 0 8 8 8 8 0 8 8 0 8 0 8 8 8 8 8 8 8 8 8 8 0 8 0 8 0 8 0 8 8 8 8 8 0 8 8 0 8 8 8 8 8 8 8 8 8 8 8 0 
0 8 8 0 8 8 0 8 8 0 8 0 8 0 8 8 0 8 8 0 8 8 0 8 0 8 8 8 0 8 0 8 8 8 0 8 8 8 0 8 8 8 8 8 8 8 0 8 8 8 8 8 8 8 8 8 0 8 0 8 0 8 0 8 0 8 8 8 8 8 0 8 8 8 8 8 0 8 8 8 12 0 8 0 8 0 8 8 8 8 8 8 8 8 8 8 8 8 0 8 8 8 0 8 0 8 0 8 8 8 8 8 0 8 8 8 8 8 8 8 8 8 8 8 8 8 0 8 8 0 8 8 8 0 8 8 8 8 8 0 8 8 8 8 8 0 8 8 8 0 8 8 8 8 8 0 8 8 8 8 
8 8 8 0 8 8 8 0 8 8 8 0 8 8 8 0 8 8 0 8 8 0 8 8 8 0 8 0 8 0 8 8 8 8 8 8 8 0 8 0 8 8 8 8 8 8 0 8 8 8 0 8 0 8 8 8 8 8 0 0 8 0 8 0 8 8 8 8 0 0 0 0 8 0 8 8 8 8 8 0 8 0 8 8 8 8 8 8 8 8 8 0 8 0 8 8 0 0 8 0 8 8 8 8 8 0 8 0 0 8 8 8 8 8 8 0 8 8 8 8 8 8 0 8 0 8 8 8 8 8 0 8 0 8 0 8 8 0 8 0 0 8 0 8 0 8 8 8 8 8 0 8 8 0 8 0 8 0 8 8 
8 8 8 8 8 8 8 8 8 8 0 8 8 8 8 8 0 8 8 8 8 8 8 8 8 8 0 8 0 8 0 8 8 8 0 8 0 8 0 8 8 8 8 12 8 0 8 0 8 8 8 8 8 8 8 0 8 8 8 8 8 8 8 8 8 0 8 8 0 8 8 8 0 8 8 0 8 8 0 8 8 0 8 8 8 0 8 8 8 8 8 8 8 8 8 0 8 8 0 8 8 8 8 8 0 8 8 8 8 0 8 0 8 0 8 8 8 0 8 8 8 8 8 8 8 8 8 8 8 8 8 8 8 8 8 8 8 8 0 8 8 8 8 0 8 8 8 0 8 8 8 8 0 8 0 8 0 8 0 8 
8 0 0 8 0 8 8 8 8 8 8 0 8 8 0 8 8 0 8 8 8 8 8 8 0 8 8 0 8 8 8 0 8 0 8 8 0 8 8 0 8 8 8 8 8 8 8 8 8 0 8 8 0 8 8 8 8 8 8 8 8 8 8 0 0 8 0 8 8 0 8 8 8 0 8 8 8 8 8 0 8 8 8 8 8 8 0 8 8 8 0 8 0 12 8 8 8 8 8 8 8 8 8 8 8 0 8 8 8 8 0 8 8 8 8 8 8 0 8 0 8 8 8 8 8 8 8 8 0 8 8 8 8 8 8 8 0 8 8 8 8 0 8 8 8 8 8 8 0 8 8 8 0 0 8 8 8 8 8 8 
8 8 8 0 8 8 0 8 8 8 8 8 8 8 8 0 8 8 0 8 0 8 8 0 8 8 0 8 8 0 8 0 8 0 8 8 8 8 8 8 0 8 0 12 8 8 8 8 8 8 8 0 8 8 0 8 0 8 8 8 8 0 8 8 0 8 8 8 8 8 0 8 8 8 0 8 8 8 8 8 8 8 0 8 8 0 8 8 8 0 8 0 12 8 8 8 8 8 0 8 8 8 8 8 8 8 8 8 8 0 8 8 8 0 8 8 8 8 0 8 8 8 8 8 8 8 0 0 8 8 8 0 8 8 8 8 8 0 8 8 8 8 8 0 8 8 0 8 8 8 8 8 8 8 0 8 8 8 8 8 
8 8 8 8 8 8 8 0 8 8 0 8 0 8 8 8 8 8 8 8 8 0 8 8 8 8 8 8 8 8 8 0 8 8 8 8 8 8 8 8 8 0 12 8 8 8 0 8 8 8 8 8 0 8 8 8 8 0 8 8 0 8 8 8 8 8 8 8 0 8 8 8 8 8 8 8 8 8 8 8 8 0 8 8 8 8 0 8 8 8 0 8 8 8 8 8 0 8 8 8 8 8 8 8 8 8 0 8 0 8 8 0 8 8 8 8 8 8 8 8 0 8 8 8 0 8 0 8 8 8 8 8 8 8 8 8 0 8 0 8 8 8 0 8 8 8 8 8 8 0 0 8 0 8 8 0 8 0 8 0 
0 0 8 8 0 8 8 8 8 0 8 0 0 8 8 8 8 8 8 0 8 8 0 8 8 8 8 8 8 8 8 8 0 8 8 8 8 8 8 0 8 8 8 8 8 8 8 0 8 8 8 8 8 8 8 0 0 8 0 8 8 0 8 8 8 8 8 8 8 8 0 8 8 0 8 8 8 8 8 8 8 0 8 0 8 8 8 12 8 8 0 8 8 8 8 0 8 0 8 8 8 0 0 8 8 8 8 0 8 8 8 8 8 8 8 0 8 8 8 8 8 0 8 0 8 0 8 0 8 8 8 8 8 8 8 0 8 0 8 0 8 0 8 0 8 8 8 8 8 8 0 8 8 8 0 8 0 8 0 8 
8 0 0 8 8 8 0 8 8 8 0 8 0 8 8 8 8 8 8 8 0 8 8 0 8 0 8 8 8 8 8 8 8 0 8 8 8 0 8 8 0 0 8 0 8 8 8 8 8 8 8 8 0 8 8 8 0 8 8 0 8 0 8 8 8 8 8 8 8 8 0 8 0 12 8 8 8 8 8 8 8 0 8 8 8 0 8 8 8 8 8 8 8 8 0 8 8 8 8 8 0 8 0 8 8 8 8 8 8 8 8 8 0 8 0 8 8 8 0 8 0 8 8 8 0 8 8 8 8 0 8 0 8 0 8 8 0 8 8 8 8 8 8 8 8 0 8 0 8 8 8 0 8 0 8 0 8 8 8 8 
0 12 8 8 8 8 8 8 8 8 8 0 8 8 0 8 8 8 8 0 8 8 0 8 0 8 8 8 8 8 8 8 8 8 8 8 0 8 0 8 8 8 0 12 8 8 0 8 8 8 0 8 0 8 8 8 8 8 8 8 0 8 8 8 8 0 8 8 8 0 8 8 8 8 8 8 12 8 8 8 0 8 8 8 8 8 0 8 0 12 8 8 8 8 8 8 0 8 8 8 8 0 8 0 8 8 8 8 8 8 8 0 8 0 8 8 8 0 8 0 8 8 8 0 8 8 8 8 8 0 8 0 8 0 8 0 8 8 8 8 8 8 8 8 8 8 8 8 0 8 8 8 8 8 8 8 8 8 8 8 
8 8 0 8 8 0 8 8 0 8 0 8 0 8 8 0 8 0 8 8 8 0 8 0 8 0 8 8 8 0 8 8 8 8 8 8 8 8 8 8 8 8 8 8 8 8 12 8 0 8 8 8 8 8 0 8 8 8 8 8 8 0 8 8 8 0 8 0 8 0 8 0 8 8 8 0 8 0 8 0 8 8 8 8 8 8 8 0 8 8 8 8 8 8 8 8 8 8 8 8 8 8 8 0 8 0 8 8 8 0 0 8 8 8 8 8 8 8 0 8 0 8 8 8 8 8 8 8 8 0 8 8 8 8 8 8 8 8 8 8 0 8 8 8 8 8 8 8 8 0 8 0 8 8 0 8 8 8 8 0 
0 8 8 8 0 8 8 8 8 0 8 8 0 8 0 8 8 0 8 8 0 8 8 8 8 8 0 0 8 0 8 0 8 8 0 8 0 8 0 8 8 0 8 8 0 8 8 0 8 0 8 8 8 8 8 8 8 8 0 8 8 8 8 8 8 0 8 0 8 0 8 8 0 8 0 8 8 8 8 8 8 0 8 0 8 8 8 8 8 0 8 8 8 0 8 8 8 8 0 8 8 8 0 8 8 8 8 0 8 8 0 8 8 8 8 8 8 8 8 8 0 8 0 8 8 0 8 0 8 8 0 8 8 8 8 8 8 8 8 0 8 8 0 8 0 0 0 8 0 8 8 8 8 8 8 8 8 8 0 8 
8 0 8 0 8 0 8 8 0 8 8 0 8 8 8 8 8 8 8 8 8 0 8 8 8 8 8 0 8 8 8 8 0 8 8 0 8 0 8 0 8 8 8 8 8 8 8 8 8 8 8 8 8 8 8 8 8 0 8 8 0 8 12 8 8 0 8 8 8 8 8 8 8 0 8 0 8 0 8 8 8 0 8 0 8 0 8 8 12 8 0 8 0 8 0 8 0 8 8 0 8 8 8 0 8 8 8 8 8 8 8 8 8 8 0 8 8 8 8 8 8 0 8 8 0 8 0 0 0 8 8 8 8 8 8 8 8 0 8 8 8 8 8 0 8 8 0 8 8 8 8 8 8 8 8 8 8 8 8 8 
8 8 0 8 8 8 0 8 8 8 0 8 8 8 8 8 8 8 8 8 8 8 0 0 0 8 8 8 8 0 8 0 8 0 8 8 8 0 8 8 8 8 8 8 8 8 8 8 12 8 8 8 8 0 8 0 8 8 8 0 8 8 8 0 8 8 0 8 8 8 8 12 8 8 0 8 8 8 0 8 0 8 8 8 8 8 0 8 8 8 8 8 0 8 8 8 8 0 8 8 0 8 0 8 8 8 8 8 8 0 8 8 8 8 8 8 0 0 0 0 8 8 8 0 8 0 8 0 8 0 8 0 8 8 8 8 8 8 8 8 0 8 8 8 8 8 8 8 8 8 8 8 8 8 8 8 8 8 8 8 
8 0 12 8 8 8 8 0 8 8 8 0 8 0 8 0 8 8 8 8 8 8 8 0 8 0 8 8 8 8 0 8 8 8 8 8 8 8 0 8 8 8 8 8 8 8 12 8 12 8 8 8 8 0 8 0 8 8 8 8 0 8 8 8 0 8 8 8 8 8 8 12 8 8 8 0 8 0 8 8 8 8 8 0 8 0 8 0 8 8 8 8 8 0 8 8 8 8 0 8 8 0 8 8 0 8 0 8 0 8 8 8 8 8 8 8 8 0 8 0 8 8 8 0 8 8 8 8 0 8 0 8 0 8 8 8 8 8 8 8 8 8 8 8 8 8 8 8 8 8 8 8 0 8 8 8 8 8 8 0 
8 8 0 8 0 12 0 8 0 8 8 8 8 8 0 0 8 8 8 8 0 8 8 8 8 8 0 8 0 8 8 8 0 8 8 8 8 8 8 0 8 8 8 0 8 8 8 8 8 8 8 0 8 8 8 8 8 8 0 8 8 8 8 8 8 0 0 0 0 8 0 8 0 0 8 0 8 8 8 8 8 8 8 8 0 8 0 8 0 8 8 8 8 8 8 0 8 8 8 0 8 8 8 8 8 8 0 8 8 8 8 8 8 8 8 8 0 8 8 8 8 0 0 8 8 8 8 8 8 8 0 8 8 8 8 8 0 8 0 8 8 8 0 0 8 0 0 0 8 0 8 8 8 8 8 8 8 8 0 8 
8 0 8 0 8 0 8 8 8 8 8 8 8 8 8 0 8 8 8 0 8 8 8 12 8 8 0 0 8 0 8 8 8 0 8 8 8 0 8 8 0 8 8 8 8 8 8 8 0 0 8 8 8 8 8 12 8 8 8 0 8 8 8 12 8 0 8 8 0 8 0 8 0 8 0 8 0 8 0 8 8 8 8 8 8 8 8 0 8 0 8 0 8 0 8 8 0 8 0 8 8 8 8 8 8 0 8 8 8 8 8 8 8 8 0 8 8 8 8 8 8 8 0 8 8 8 8 8 8 8 8 8 8 8 8 8 0 8 0 8 8 0 8 0 8 0 8 0 8 8 8 8 0 8 8 8 8 8 8 0 
8 8 8 12 0 8 0 8 0 8 0 8 8 0 8 8 8 8 0 8 8 8 8 0 0 8 8 8 8 8 0 0 8 8 0 8 0 8 0 8 8 8 8 8 8 8 8 8 8 8 8 8 8 0 8 0 8 8 8 8 0 8 8 8 8 8 0 8 8 8 8 8 8 8 8 8 8 0 8 0 0 8 8 8 0 8 8 8 8 8 0 8 8 8 0 8 0 8 8 0 8 8 8 8 8 8 8 8 8 8 8 8 8 0 8 8 8 8 0 0 8 0 8 8 8 8 0 8 0 8 8 8 0 8 8 8 8 8 8 0 8 8 8 8 8 8 8 8 8 8 8 8 8 0 0 8 8 0 8 0 
0 8 8 8 8 8 0 8 8 0 8 0 8 8 0 0 8 8 8 0 8 8 8 8 0 8 8 8 8 8 8 8 0 8 0 8 8 8 8 0 8 8 8 0 8 8 8 0 8 0 8 8 8 8 0 8 8 8 8 8 8 8 8 8 8 0 8 8 8 8 8 0 8 8 8 8 8 8 8 8 8 8 8 8 8 8 8 8 8 8 0 8 8 0 8 0 8 0 8 8 0 8 8 8 8 0 8 0 8 8 8 8 0 8 8 8 8 0 8 8 8 8 8 0 8 8 8 0 8 8 8 8 0 8 0 8 8 0 8 8 8 8 8 0 8 8 8 8 8 8 8 0 8 8 8 0 8 8 8 8 
8 0 8 0 0 8 0 8 8 8 8 8 0 8 8 0 8 0 8 0 8 8 8 8 8 8 0 8 8 0 8 0 8 0 8 8 0 8 8 8 0 8 8 8 8 8 0 8 0 8 8 0 8 0 8 0 8 8 0 8 8 8 8 8 8 8 8 8 8 8 0 8 0 8 8 8 8 8 8 8 8 8 8 8 8 8 8 8 8 0 8 8 8 8 8 8 8 8 0 8 8 0 8 8 8 8 8 8 0 8 8 0 8 8 0 8 8 8 8 8 8 8 8 0 8 8 8 8 0 8 0 8 8 0 8 8 8 8 8 8 8 8 8 8 8 8 8 8 8 8 8 8 8 0 8 8 8 8 8 8 
8 8 8 8 8 0 8 0 8 0 8 0 8 0 8 8 8 8 8 8 0 8 8 8 8 0 8 8 0 8 0 8 8 8 0 8 8 0 8 0 8 8 8 8 8 0 8 8 8 8 0 8 8 8 8 8 0 8 8 8 8 8 8 8 8 8 8 8 8 8 8 0 8 0 8 8 8 8 8 0 8 8 8 8 8 0 8 8 8 8 0 8 8 8 0 8 8 8 8 0 8 8 0 8 8 8 0 8 8 8 0 8 8 8 8 8 8 8 8 8 8 0 8 8 0 8 8 8 8 0 8 0 0 8 8 8 8 8 0 8 8 8 8 8 0 8 8 8 8 8 0 8 8 8 8 0 8 8 0 8 
8 8 8 8 8 8 0 0 8 0 8 0 0 8 8 8 8 8 8 8 8 0 8 0 8 8 8 8 8 8 8 0 8 0 8 8 8 8 8 8 0 8 0 8 8 8 0 8 8 0 8 0 8 0 8 8 8 0 8 8 8 8 8 0 8 8 8 8 8 8 8 0 8 8 8 8 8 8 8 8 8 8 8 8 8 8 8 8 8 8 0 8 0 8 0 8 0 8 0 8 8 0 8 8 8 8 8 0 8 8 8 0 8 8 0 8 8 8 8 8 8 8 0 8 8 8 8 8 8 0 0 0 8 0 8 0 8 8 8 0 8 8 8 8 8 8 8 8 8 8 12 8 0 8 8 8 0 8 8 0 
8 0 8 0 8 0 8 8 8 8 0 8 8 8 0 8 0 8 0 8 0 8 8 0 8 0 8 8 8 0 8 8 0 8 8 0 8 8 0 8 8 0 8 8 0 8 8 8 8 8 0 8 0 8 0 8 8 8 0 8 8 8 8 8 8 8 8 0 8 8 8 8 8 0 8 0 8 0 8 8 0 8 8 8 8 8 8 8 8 0 8 8 8 8 8 8 8 8 8 8 8 8 8 8 8 8 0 8 8 0 8 8 8 8 8 8 0 8 8 0 8 8 8 0 8 8 8 8 8 8 8 8 0 8 8 8 8 8 8 8 8 8 8 8 8 0 12 8 8 8 8 8 8 8 8 8 8 0 8 8 
0 8 8 8 8 8 8 8 12 8 8 0 8 8 8 0 8 0 0 8 8 0 8 0 8 0 8 0 8 8 8 8 8 0 8 8 0 8 0 8 8 8 0 8 8 0 8 8 8 0 8 0 8 0 8 8 0 8 8 0 8 0 8 8 8 8 8 8 0 8 8 0 8 8 8 8 0 8 8 0 8 8 8 8 0 8 8 8 8 8 8 8 8 8 8 8 8 8 8 8 8 8 0 8 8 0 8 8 8 8 8 8 8 8 8 8 8 0 8 8 8 8 8 0 8 8 8 8 8 8 0 8 8 8 8 8 0 8 0 8 0 8 8 8 8 8 8 8 8 8 0 8 8 8 8 8 8 8 8 8 
8 0 8 8 0 8 0 8 0 8 8 0 8 0 8 8 8 8 8 8 8 8 8 0 8 0 8 8 8 8 8 8 8 8 8 8 8 8 8 8 0 8 8 0 8 8 0 8 0 8 8 8 8 8 0 8 8 0 8 8 0 8 8 8 8 8 8 8 8 0 8 8 8 0 8 0 8 0 8 8 0 8 0 8 8 8 8 8 8 8 8 8 8 8 8 8 8 8 0 8 8 0 8 8 0 8 8 0 8 8 0 8 8 0 8 8 8 0 8 0 8 8 8 0 8 0 8 0 8 8 8 8 8 0 8 0 8 0 0 8 8 8 8 0 12 8 8 8 0 8 8 0 12 8 8 8 8 8 8 0 
8 8 8 0 8 8 8 8 8 8 0 8 0 8 8 8 8 0 8 8 8 8 0 8 8 8 8 0 8 0 0 8 8 8 8 0 8 0 8 0 8 8 8 8 8 8 8 8 0 8 8 8 8 0 8 0 8 8 0 8 8 8 8 8 0 8 0 8 0 8 8 8 8 8 0 0 8 8 8 0 8 0 8 8 8 0 8 8 8 0 0 8 0 8 0 8 0 8 8 0 8 8 8 8 8 8 8 8 8 0 8 8 0 8 8 0 8 8 8 8 8 8 8 8 8 8 0 8 0 8 0 8 0 8 8 8 0 8 0 8 8 8 8 8 8 8 8 8 0 8 0 8 8 8 8 8 8 8 8 0 
0 8 0 8 0 0 8 8 0 8 8 0 8 8 8 8 0 8 8 8 0 8 0 8 8 8 8 8 8 8 8 0 8 8 8 8 8 8 0 8 8 8 8 8 8 8 8 0 8 0 8 8 8 8 8 8 0 8 8 8 0 8 8 8 8 8 8 0 8 8 8 8 8 0 8 8 8 8 8 8 8 8 8 8 8 8 0 8 0 8 0 8 0 8 0 8 0 8 0 8 8 8 8 8 8 8 8 8 8 8 8 8 8 8 8 8 0 8 8 8 8 0 8 8 8 8 0 8 0 8 0 8 8 8 0 8 8 8 8 8 8 8 0 8 0 8 8 8 8 8 8 8 8 8 8 12 8 8 0 8 
8 0 8 0 8 0 8 0 8 0 8 8 0 8 8 0 8 8 8 8 0 8 0 8 0 0 8 8 8 8 8 0 8 0 8 8 8 8 8 8 8 8 8 8 8 8 8 8 0 0 8 0 8 0 8 0 8 8 8 8 8 0 8 8 8 8 8 8 8 8 0 8 0 8 8 8 8 8 0 8 8 0 8 0 8 8 8 0 8 8 8 8 8 8 8 8 8 8 8 8 8 8 0 8 8 8 8 8 8 8 8 8 8 8 8 8 8 8 8 8 0 8 0 8 0 8 0 8 8 8 0 8 8 8 8 8 8 8 8 8 8 8 8 0 8 8 0 8 8 8 8 8 8 8 8 0 8 8 0 8 
8 8 8 8 8 0 8 8 8 8 8 8 8 8 8 8 0 8 0 8 8 8 8 0 8 8 8 8 0 8 0 8 0 8 0 8 8 8 12 8 8 0 8 8 8 0 8 8 8 8 8 8 0 8 0 8 8 8 8 8 8 8 8 8 8 8 8 8 8 8 8 0 8 8 0 8 8 8 8 0 8 8 0 8 0 8 8 8 8 0 8 8 0 12 8 8 8 8 0 8 8 8 8 0 8 8 8 8 8 8 0 8 8 8 8 0 8 8 8 8 8 8 8 8 8 0 8 8 8 8 8 8 8 8 0 8 8 8 0 8 8 8 8 8 8 8 8 8 8 8 8 0 8 8 8 8 8 0 8 0 
8 8 8 8 0 8 8 8 8 8 8 8 0 8 8 8 8 8 0 8 0 8 8 8 0 8 8 8 8 8 8 8 8 8 0 8 0 8 8 8 8 8 8 8 8 8 8 8 8 8 8 8 8 8 8 0 8 8 8 8 0 8 8 8 8 8 8 8 0 8 8 8 8 0 8 8 8 8 8 8 0 8 0 8 8 8 8 0 8 0 8 8 8 0 8 8 0 8 8 0 12 8 8 8 8 8 8 8 8 8 8 0 8 8 8 8 0 8 8 8 8 8 8 8 8 8 8 8 8 8 8 0 8 0 8 0 8 0 8 0 8 8 8 8 0 8 8 0 8 8 8 8 8 8 8 8 8 8 8 8 
8 8 8 8 8 0 8 8 8 8 8 8 8 8 8 8 0 8 0 8 8 8 8 0 8 8 0 8 8 8 8 0 8 8 8 8 8 8 8 8 8 8 0 8 8 8 8 8 8 8 8 8 8 0 8 8 8 8 8 8 8 8 8 8 8 8 8 0 8 0 8 8 8 8 0 8 8 8 0 8 8 0 8 8 8 8 8 8 0 8 0 8 8 8 8 8 8 8 8 8 8 8 0 8 8 8 8 8 8 8 8 8 8 8 8 0 8 0 8 8 8 8 8 0 8 8 8 8 8 8 8 8 8 8 8 8 8 8 8 8 8 8 8 8 8 8 0 8 8 8 8 8 8 8 8 0 8 8 0 8 
0 8 8 8 8 8 8 8 8 8 12 8 8 8 0 8 8 0 8 0 8 8 8 8 0 0 8 0 0 8 0 8 8 0 8 8 8 8 8 8 8 8 8 8 8 8 8 8 8 0 0 8 0 8 0 0 8 8 8 0 8 8 8 8 8 8 8 0 8 8 0 8 8 0 8 8 8 8 8 0 8 8 8 8 8 8 8 8 8 8 8 8 8 8 8 8 8 8 8 8 8 8 8 0 8 8 0 8 8 8 8 0 8 8 8 8 8 8 8 0 8 8 8 8 8 8 8 8 8 8 8 8 8 8 8 8 8 8 8 8 8 8 8 8 8 0 8 0 8 8 8 8 8 8 8 8 8 8 8 8 
8 8 8 0 8 8 0 8 8 8 8 8 8 0 8 8 8 8 0 8 8 8 0 8 8 8 0 8 8 8 8 0 8 8 8 8 8 8 8 0 8 8 8 8 8 0 8 8 0 8 0 8 8 8 8 8 8 8 8 8 8 8 8 8 8 8 0 8 8 0 8 8 8 8 0 8 8 8 8 8 0 8 8 8 8 8 8 8 8 8 0 8 8 8 8 8 8 8 8 8 8 8 8 8 8 8 0 8 8 8 0 8 8 8 8 8 8 8 0 8 8 8 8 8 8 8 8 8 8 8 8 8 8 8 8 0 8 8 0 8 8 8 8 8 8 8 0 8 8 8 8 8 8 8 8 8 8 0 8 8 
0 8 8 8 0 8 8 0 8 8 12 8 8 0 8 0 8 8 8 8 0 8 0 8 8 0 8 8 8 8 8 8 8 8 8 0 12 8 8 8 8 8 8 8 8 8 8 8 8 8 8 0 8 8 8 8 8 8 0 8 8 8 8 0 8 0 8 8 8 8 8 8 8 8 8 8 8 8 8 0 8 8 8 8 8 8 8 8 8 8 8 0 8 8 0 8 0 8 8 8 8 8 0 8 8 8 8 8 8 8 8 0 8 8 8 0 8 8 8 8 8 8 8 8 8 0 8 8 0 8 8 0 8 0 8 0 8 0 8 8 8 8 8 8 0 8 8 8 8 8 8 8 8 8 8 8 0 8 8 8 
8 8 0 8 8 0 8 0 8 8 8 8 8 0 8 8 0 8 8 8 8 0 8 0 8 8 0 8 0 8 0 8 0 12 0 8 8 0 8 8 8 8 8 0 8 8 8 8 8 0 8 8 0 8 8 8 8 8 8 8 8 8 8 8 0 8 8 8 8 8 8 8 0 8 8 8 8 8 8 8 0 8 8 8 8 8 8 8 8 8 8 8 8 8 8 8 8 8 8 8 8 8 8 8 8 8 8 8 8 8 0 8 0 8 8 8 0 8 8 8 8 8 8 0 8 8 8 8 8 8 8 8 0 8 8 8 8 8 8 8 8 8 8 8 8 8 8 8 8 8 8 0 8 8 8 8 8 8 8 8 
8 8 8 8 8 8 8 8 8 8 8 8 8 0 8 8 8 0 0 8 8 8 8 8 8 8 8 0 8 8 8 0 8 8 8 8 8 8 8 8 0 8 0 8 8 0 8 8 8 8 8 8 8 8 8 8 0 8 8 8 8 8 8 8 8 8 8 8 8 8 0 8 8 8 0 8 8 8 0 8 8 8 8 8 0 8 8 8 0 8 8 8 8 8 8 8 12 8 8 8 8 8 8 0 8 8 0 8 8 8 8 0 8 0 8 0 8 8 8 0 8 0 8 8 8 8 8 8 8 8 0 8 8 8 0 8 8 8 8 8 8 8 8 8 8 8 8 8 8 8 8 8 8 8 10 8 8 8 8 12 
8 8 8 8 12 8 8 8 8 8 8 8 8 8 0 8 8 8 8 0 8 8 8 8 8 8 8 8 8 8 8 8 0 8 0 8 8 8 8 8 8 0 8 0 8 8 0 8 8 8 8 0 8 8 8 8 0 0 8 8 8 8 8 0 8 8 8 8 8 8 8 8 0 8 0 8 0 8 0 8 0 8 8 8 8 8 8 8 8 8 8 8 8 8 8 8 8 12 8 8 8 8 8 8 8 8 8 8 8 8 0 8 8 8 8 8 8 8 8 8 8 8 8 0 8 8 8 8 8 8 8 8 8 0 8 8 8 8 8 8 8 8 8 8 8 8 0 8 8 8 8 8 8 8 8 8 12 8 12 8 
8 8 8 8 8 8 8 8 8 8 8 8 0 8 8 0 8 8 8 8 8 8 8 0 0 8 8 8 8 8 8 0 8 8 8 8 0 12 8 8 0 0 8 0 8 8 8 8 8 8 8 8 8 0 8 8 8 8 8 8 8 0 8 8 8 8 8 8 8 8 8 0 8 0 8 8 8 8 8 0 8 8 8 8 8 8 8 8 8 8 8 8 0 8 8 0 8 8 8 8 8 8 8 8 8 0 8 8 8 0 8 0 8 8 8 8 8 8 8 8 8 8 0 8 0 8 0 8 0 8 8 8 8 8 8 8 8 8 8 8 0 8 8 8 0 8 8 8 0 8 8 6 8 8 8 8 8 8 8 8 
8 8 0 12 8 8 8 0 8 0 0 8 8 0 8 8 0 8 8 8 8 8 0 8 0 8 0 8 0 8 0 8 8 8 8 8 8 8 8 8 8 8 8 8 8 8 8 8 0 8 8 8 8 8 8 8 8 8 8 8 8 8 0 8 8 8 8 0 8 8 8 8 8 8 8 8 8 8 8 8 0 8 8 8 8 8 0 8 8 8 8 0 8 8 0 8 8 8 0 8 8 8 8 8 8 12 8 8 8 8 0 8 8 8 8 8 8 8 8 8 0 8 0 8 8 8 8 8 8 8 0 8 8 8 8 8 8 8 8 8 8 8 12 0 12 8 8 0 8 8 8 8 8 8 8 8 8 8 8 8 
8 0 8 8 8 8 8 8 0 8 8 0 8 0 8 0 8 8 8 8 8 0 8 8 8 0 8 8 8 0 8 0 8 8 8 8 8 0 12 8 8 8 8 8 0 8 8 8 8 8 8 8 8 8 8 8 0 8 8 8 8 8 8 0 8 8 8 8 0 8 8 8 8 8 8 8 8 8 8 8 8 8 8 8 8 0 8 8 0 8 8 8 0 8 8 8 8 0 8 8 0 8 8 8 0 8 8 0 8 8 8 8 8 0 8 8 8 8 8 8 8 8 8 8 8 8 0 8 0 8 8 0 8 8 8 8 8 8 8 8 12 8 12 8 0 8 0 12 8 8 8 8 8 8 8 8 8 8 8 8 
8 8 8 8 8 8 8 8 8 8 8 8 8 8 8 8 8 0 8 8 0 8 8 8 8 8 8 8 8 8 0 8 8 0 8 8 8 8 8 8 8 8 8 8 8 0 0 0 8 8 0 8 8 8 8 8 8 8 8 8 8 8 8 8 8 8 0 8 8 0 8 8 0 8 8 8 8 8 8 8 8 8 8 8 8 8 8 8 8 8 8 8 8 8 8 8 8 8 8 8 8 8 8 0 8 8 0 8 0 8 8 8 8 0 8 8 8 8 8 8 8 0 8 8 0 8 8 8 8 8 8 8 8 8 8 8 8 8 8 8 8 12 8 12 8 12 8 12 8 12 8 0 8 8 10 8 8 8 8 8 
8 8 8 0 8 8 8 8 8 0 8 8 8 8 8 8 8 8 0 8 8 8 0 8 8 8 8 8 8 8 8 0 8 8 8 0 8 8 8 8 8 8 8 0 8 0 8 0 8 8 8 8 8 8 8 0 8 8 8 8 8 8 8 8 8 8 8 0 8 8 8 8 8 0 8 8 8 8 8 8 0 8 8 0 8 8 0 8 8 0 8 8 8 8 8 8 8 8 0 8 8 0 8 8 8 8 8 8 0 8 8 8 8 8 0 8 8 8 8 8 8 8 0 8 8 0 8 0 8 0 8 8 8 6 8 8 8 8 8 12 8 8 8 8 12 8 12 8 12 8 12 8 8 8 12 10 10 12 10 12 
0 8 8 8 8 8 8 0 8 0 8 0 8 0 8 12 8 8 8 0 8 8 8 0 8 0 0 8 8 8 0 8 8 0 8 8 8 0 12 8 8 8 8 8 0 8 8 8 8 8 8 8 0 8 8 8 0 8 8 8 0 8 0 8 8 8 8 8 0 8 8 8 8 8 8 8 8 8 8 8 8 8 8 8 8 8 8 8 8 8 8 8 0 8 8 8 12 8 8 8 0 8 8 0 8 8 8 8 8 8 8 8 8 8 8 8 8 8 8 8 8 8 8 8 12 0 8 0 8 8 8 8 12 8 8 8 8 10 12 8 12 8 12 8 8 12 8 8 8 12 12 8 10 8 6 12 8 10 8 10 
8 0 8 8 8 0 8 0 8 0 8 8 8 8 8 8 8 8 8 8 8 8 8 8 0 8 8 8 8 8 0 8 0 8 8 8 8 8 8 8 8 0 8 8 8 8 8 8 8 8 0 8 8 8 8 8 0 8 0 8 8 8 8 8 8 0 8 8 8 8 8 0 8 8 8 8 8 0 8 8 0 8 8 8 8 8 8 8 8 8 0 8 8 8 8 8 8 8 0 0 8 0 8 8 8 8 8 8 8 8 8 8 8 8 8 8 8 8 0 8 8 8 8 0 0 12 8 8 12 8 8 8 8 8 10 8 8 8 8 0 8 8 12 8 12 8 12 8 12 12 8 12 12 12 6 12 12 10 10 19 
0 8 8 8 8 8 8 8 0 8 0 8 0 0 8 8 8 0 8 0 8 8 8 8 8 0 8 8 8 8 0 8 8 8 8 8 0 8 0 8 8 8 8 8 8 8 8 8 8 8 8 0 8 8 8 0 8 8 8 8 8 0 8 8 8 8 8 8 8 8 8 8 0 8 8 8 0 8 8 8 8 0 8 8 0 8 8 8 8 8 8 8 0 8 8 0 8 8 8 8 8 8 8 8 8 0 8 8 8 8 8 8 8 8 0 8 8 8 8 8 0 8 8 8 8 8 12 8 12 8 8 8 8 8 10 8 6 8 8 8 12 8 12 8 8 12 8 12 12 8 10 10 8 10 10 12 10 10 12 19 
8 0 8 0 8 8 0 0 8 8 8 0 8 8 8 0 8 0 8 8 0 8 0 8 8 8 8 8 8 0 8 8 8 8 0 8 0 0 8 8 8 8 8 0 8 8 8 8 8 8 8 8 8 8 8 8 8 8 8 8 8 8 8 8 8 8 8 8 8 8 8 8 8 0 8 8 8 8 8 8 0 8 8 8 8 8 0 8 8 0 8 8 8 0 8 8 8 8 8 0 8 8 8 12 8 8 8 8 8 8 8 8 8 8 8 8 8 8 8 8 8 8 8 12 12 8 8 12 8 12 8 12 8 12 8 8 12 8 8 12 8 12 8 8 12 12 10 10 10 19 11 19 19 12 28 12 19 28 19 28 
8 8 0 8 8 0 8 0 0 0 8 8 12 8 8 8 0 8 8 8 8 8 8 0 8 8 8 0 8 8 0 8 8 0 8 0 8 0 0 8 8 8 8 8 0 8 8 8 8 8 8 0 8 8 8 8 8 8 8 8 8 0 8 8 0 8 8 0 8 8 8 0 8 8 8 8 0 8 8 8 8 8 8 8 8 8 8 0 8 8 8 12 8 8 0 8 8 8 8 8 12 8 8 8 12 8 8 8 8 8 8 8 8 0 8 8 8 8 8 8 8 8 12 8 8 12 8 0 8 12 8 8 12 8 6 12 6 10 10 10 19 10 12 19 12 18 19 19 28 28 26 28 29 30 30 34 37 30 37 37 
8 8 8 8 8 8 8 8 8 8 0 8 8 8 0 8 8 8 8 8 8 8 0 8 0 8 8 8 0 8 0 8 0 8 8 8 8 8 8 8 8 8 8 8 8 8 8 8 8 8 8 8 8 0 8 8 8 8 8 8 8 8 8 8 8 0 8 8 8 8 8 8 8 0 8 8 8 8 8 8 0 8 8 8 8 0 8 8 8 0 8 8 8 8 8 8 8 8 0 8 8 8 8 8 8 8 8 8 8 8 8 8 8 8 8 8 8 8 8 0 8 8 8 12 12 8 12 8 12 8 12 12 8 10 10 10 19 10 19 19 19 26 19 26 26 30 34 34 34 30 37 37 37 38 37 37 38 38 54 38 
8 8 8 8 8 8 8 8 8 0 8 0 0 8 0 8 8 8 8 0 8 8 8 0 8 8 8 8 8 0 8 0 8 0 8 8 0 8 8 0 0 8 8 8 8 0 0 0 8 8 8 8 8 8 8 8 0 8 8 8 8 8 8 8 8 8 0 8 0 8 8 8 8 8 8 8 0 8 8 8 8 8 8 8 8 8 8 8 8 8 8 8 8 8 8 8 0 8 8 8 8 8 8 8 8 8 8 8 8 8 0 8 8 8 8 8 12 8 8 8 8 8 8 8 12 8 12 8 12 10 10 10 19 19 19 19 26 28 28 28 30 34 34 34 37 37 37 38 37 51 38 54 38 60 54 54 56 52 54 56 
8 8 8 8 8 8 0 0 8 0 8 8 8 8 8 8 0 8 8 8 0 8 8 8 8 8 8 8 0 8 8 8 0 8 8 8 8 8 8 8 0 8 8 8 8 8 0 8 0 8 8 8 0 0 8 8 0 8 0 8 8 8 8 8 0 8 8 8 8 8 8 8 8 0 8 0 8 8 8 8 8 8 8 8 8 8 8 8 8 0 8 8 8 8 8 8 8 8 0 8 8 0 8 8 8 8 8 8 8 8 8 8 8 8 8 8 8 8 8 8 8 8 12 8 12 8 12 10 19 19 19 26 26 28 33 30 34 34 34 37 51 37 38 54 51 54 59 54 54 54 54 56 60 54 61 60 61 60 60 60 
8 8 8 8 8 8 8 0 8 8 8 8 8 8 8 0 8 0 0 0 8 0 8 0 8 8 8 0 8 0 8 8 8 8 8 0 8 0 8 8 8 8 8 8 8 8 8 0 8 8 8 8 0 8 0 8 8 8 8 8 8 8 0 8 8 8 0 8 8 8 8 8 8 0 8 8 0 8 8 8 8 0 8 8 0 8 8 8 8 8 0 8 8 8 8 8 0 8 8 0 8 8 8 8 8 8 8 8 8 8 8 8 8 8 8 8 8 8 10 8 10 10 10 10 19 19 19 26 28 26 28 28 38 34 38 51 51 14 68 51 54 60 60 59 56 61 54 61 60 61 60 61 61 61 64 61 68 68 63 68 
0 8 8 8 8 0 8 8 0 8 8 8 8 8 8 8 8 8 8 8 8 8 8 0 8 0 8 8 8 0 8 8 8 8 12 8 8 8 0 8 8 0 8 8 8 8 8 8 0 8 8 8 8 0 8 0 8 8 8 8 8 8 8 0 8 8 8 0 8 0 8 8 8 8 8 8 8 8 8 8 8 8 8 8 8 8 8 8 8 8 8 8 8 8 0 8 8 8 8 8 8 0 12 8 8 8 12 8 12 8 8 8 8 8 8 8 8 10 12 10 10 19 19 19 19 26 28 34 38 34 38 38 37 54 51 56 61 69 60 56 61 56 61 61 64 61 68 64 61 63 61 64 64 68 70 68 64 71 71 71 
8 8 8 8 8 8 0 8 8 8 0 8 8 8 8 8 8 8 8 8 8 8 0 8 8 0 0 8 8 8 0 8 8 8 8 12 8 8 0 8 8 8 8 8 8 8 8 0 8 0 8 8 8 8 8 8 0 8 8 0 8 0 8 8 8 8 8 8 0 8 8 0 8 8 8 8 8 8 8 8 8 8 0 8 8 8 8 8 8 8 8 8 8 0 8 8 0 8 8 8 12 8 12 8 12 8 8 12 8 8 8 8 8 12 6 8 10 10 12 19 19 26 29 30 34 37 34 38 37 51 47 54 54 54 56 56 61 61 61 64 60 64 63 64 68 71 64 68 64 68 64 71 68 71 68 71 71 71 78 79 
8 8 8 8 8 0 8 8 8 8 8 0 8 0 8 8 8 8 8 8 8 8 8 8 0 8 8 8 8 8 0 8 0 8 8 8 8 8 8 8 8 8 8 8 8 8 8 8 8 8 8 8 8 0 8 8 8 8 8 8 8 0 8 8 8 8 8 8 8 8 8 8 8 8 8 8 8 8 8 8 8 8 8 0 8 0 8 0 8 8 8 8 8 8 8 8 8 8 8 8 12 8 12 8 12 12 8 8 12 8 12 10 10 10 19 19 19 19 28 33 30 34 34 38 37 51 38 54 51 54 56 59 56 70 59 70 61 64 64 64 71 71 71 71 71 71 71 71 71 75 75 71 79 76 79 79 79 79 82 79 
8 8 8 8 8 8 8 8 8 8 8 8 8 8 8 8 8 8 8 8 8 8 8 8 8 0 8 8 8 8 8 0 8 0 8 8 8 8 8 8 8 8 8 0 8 8 8 8 8 8 8 8 0 8 8 8 0 8 8 8 8 12 8 8 12 8 8 8 8 8 8 8 8 8 8 8 8 8 8 8 8 8 8 8 8 8 8 8 8 8 8 8 8 8 0 8 0 8 12 0 8 8 8 12 8 8 8 12 8 10 19 10 19 19 19 28 33 34 34 34 37 51 38 54 51 54 54 54 54 70 54 70 70 59 70 70 68 71 71 71 71 78 71 71 78 75 78 75 79 71 79 79 79 79 79 79 82 87 76 87 
8 8 0 8 8 0 8 0 8 8 8 8 8 8 12 8 8 0 8 8 0 8 8 8 0 8 8 8 8 8 8 8 0 8 0 8 8 8 8 8 8 8 0 8 8 8 8 8 0 8 8 8 8 8 0 8 8 8 8 8 8 8 8 8 8 8 8 8 0 8 8 8 0 8 8 8 8 8 0 8 8 8 0 8 8 0 8 8 8 8 8 8 8 8 8 8 8 8 12 8 12 8 12 8 12 8 12 8 10 19 19 19 28 28 33 34 37 37 38 51 38 59 54 54 54 54 54 54 54 54 70 51 68 70 66 76 71 76 79 79 79 79 79 79 79 79 79 79 79 79 79 79 79 87 82 86 87 87 87 91 
8 8 8 0 8 8 0 8 0 8 0 8 8 8 8 8 8 8 8 8 8 8 8 0 8 8 8 8 0 8 8 8 8 8 8 0 12 8 8 8 0 8 8 0 8 8 8 8 8 0 8 8 8 8 8 0 8 8 8 8 0 8 0 0 8 8 8 8 8 0 8 0 8 8 8 8 8 8 8 0 8 8 8 0 8 8 8 8 8 8 0 8 8 8 8 8 12 8 8 12 8 12 8 8 12 12 10 19 19 19 26 30 34 34 37 51 51 51 51 54 54 59 54 59 54 54 61 61 61 70 70 66 76 76 78 75 79 79 79 87 87 82 86 82 87 82 84 82 84 82 84 87 87 87 87 87 91 91 95 87 
8 8 0 8 8 8 8 8 8 8 8 0 8 0 8 8 8 8 0 8 8 0 8 0 8 8 8 0 8 8 8 8 8 8 8 8 0 8 0 8 0 8 0 8 0 8 8 8 0 8 8 8 8 8 0 8 8 8 8 8 8 8 8 8 8 8 8 8 0 8 0 8 8 8 8 8 0 8 0 8 0 8 8 8 8 8 8 8 8 8 8 8 8 8 12 8 8 12 8 12 8 12 10 19 10 19 28 30 34 34 34 37 38 51 38 54 51 54 47 59 54 61 61 61 61 61 70 61 66 66 68 76 78 75 79 79 84 82 79 86 82 87 87 87 87 87 87 87 87 87 90 87 91 93 91 95 93 95 93 93 
8 8 0 8 0 8 8 8 8 0 8 8 8 8 8 8 8 0 8 8 0 8 8 8 8 8 8 0 8 8 8 8 8 8 0 8 8 0 8 8 0 0 8 8 8 8 8 0 8 8 8 8 8 8 8 8 0 8 8 8 8 8 8 12 8 12 8 8 8 8 8 0 8 8 8 8 8 0 8 8 8 0 8 8 8 8 0 8 0 8 8 8 8 8 8 12 8 8 12 6 10 10 19 19 28 28 30 34 37 38 51 51 54 59 54 54 56 54 61 59 61 61 61 61 68 68 66 68 71 76 78 79 79 79 84 82 82 86 82 87 87 87 87 87 87 85 90 85 90 87 93 90 89 93 93 95 96 95 96 95 
8 0 8 0 8 8 0 0 0 8 8 8 0 8 0 8 8 8 8 8 8 8 8 0 8 8 8 8 8 8 8 8 8 8 8 0 8 8 8 8 8 0 8 0 8 8 8 8 8 8 0 8 0 8 8 8 8 8 0 8 8 8 8 8 8 8 8 12 0 8 8 8 8 8 8 8 8 8 8 8 8 8 8 0 8 8 8 8 0 8 8 12 8 12 8 6 12 6 10 10 19 19 19 28 30 34 37 38 37 51 47 51 54 54 59 56 70 59 61 61 61 68 68 64 68 68 68 71 76 78 79 79 79 87 82 87 87 90 87 90 90 93 89 90 93 90 87 93 90 93 87 95 93 98 93 98 93 96 95 96 
8 8 0 0 8 0 8 8 0 8 8 8 8 8 0 8 8 8 8 8 0 8 8 8 8 8 0 8 8 0 8 8 8 8 8 8 8 8 0 8 8 0 8 8 0 8 0 8 0 8 8 0 8 8 0 8 8 8 8 8 12 8 8 8 12 12 8 8 8 8 8 8 8 0 8 8 8 8 8 8 8 8 8 8 8 8 8 8 0 8 8 8 10 8 10 12 12 10 19 19 19 34 34 38 38 38 51 54 54 54 59 54 60 56 61 59 70 59 70 61 68 64 68 68 68 68 71 76 79 85 87 87 87 87 90 89 90 93 89 93 93 93 95 93 93 93 96 93 95 96 93 96 93 98 98 97 101 98 100 98 
8 8 8 8 8 8 8 0 8 8 0 8 0 8 8 8 8 8 8 0 8 0 8 0 8 8 8 0 8 8 8 0 8 8 8 8 8 8 8 8 0 8 8 8 8 8 8 8 8 8 8 8 0 8 8 8 8 8 8 8 8 0 8 8 8 8 8 12 8 8 8 8 0 8 8 8 8 8 8 8 8 8 0 0 8 0 8 8 8 8 8 12 10 10 10 10 19 19 28 29 34 34 38 37 54 52 54 52 59 54 60 59 61 61 61 61 66 68 68 68 68 68 68 71 78 71 79 85 87 87 85 87 89 89 90 93 93 93 93 96 96 96 96 96 98 96 96 96 96 98 96 98 96 101 96 104 101 102 101 104 
8 8 0 8 8 8 0 8 8 8 8 8 0 8 8 8 8 8 8 0 8 8 8 8 8 8 8 8 0 8 8 8 0 8 8 8 8 8 8 0 8 8 8 8 8 8 8 8 8 8 8 8 8 8 8 8 8 8 8 8 8 0 8 8 8 8 12 8 8 8 8 8 8 8 8 8 8 8 8 8 8 8 8 8 0 8 12 8 10 8 12 6 10 19 19 26 28 34 30 34 37 51 47 51 54 54 59 56 61 61 61 61 64 68 68 68 71 68 71 76 71 76 78 71 79 79 87 87 85 90 93 93 93 93 96 90 96 96 96 96 96 96 96 100 96 101 100 98 100 100 101 100 101 102 101 104 102 104 104 102 
0 8 0 0 0 8 8 0 8 8 8 8 8 8 8 8 8 0 8 0 8 8 8 0 8 8 8 0 8 8 0 8 0 8 8 0 8 8 8 8 8 8 8 8 8 8 0 8 8 8 8 0 8 8 8 8 8 12 8 8 8 8 8 8 8 8 8 8 8 12 8 8 8 8 0 8 0 8 8 8 8 8 8 8 8 8 8 8 8 10 10 19 19 26 26 29 34 37 37 51 47 54 54 59 54 56 61 61 66 64 68 68 68 68 71 68 71 76 72 78 78 79 79 79 85 87 87 93 93 93 93 96 96 96 93 96 100 99 104 96 100 96 102 101 102 100 104 100 104 96 102 104 102 104 104 102 104 107 104 104 
0 8 8 8 0 8 8 8 8 8 8 8 8 8 8 0 8 8 8 8 8 8 8 8 0 8 0 8 0 0 8 0 8 8 8 12 8 8 8 8 8 0 8 8 8 0 8 0 8 8 8 0 8 8 8 8 8 8 0 8 0 8 8 8 12 8 0 12 8 8 8 8 8 8 8 8 8 8 8 8 8 8 8 8 8 8 8 10 12 10 19 26 26 33 34 37 37 51 37 54 59 54 54 56 60 61 61 68 68 68 68 68 76 78 71 76 78 78 75 79 79 79 84 82 85 87 93 95 100 95 100 101 100 96 100 96 102 102 102 100 99 100 104 102 101 102 104 102 100 104 102 101 104 102 108 108 102 104 107 102 
0 8 8 8 8 8 8 0 8 8 8 8 8 8 8 8 8 8 8 0 0 8 8 0 8 0 8 0 8 8 0 8 8 0 8 8 8 8 8 8 0 8 8 0 8 8 0 8 8 8 8 8 8 8 8 8 0 0 8 0 8 8 8 8 8 8 8 8 8 8 8 12 8 8 8 8 8 8 8 8 8 0 8 8 8 8 10 10 19 26 33 33 34 37 37 51 51 51 52 54 52 59 60 60 61 68 68 68 68 76 68 76 68 78 78 71 79 79 76 79 86 87 87 87 93 93 101 100 98 100 98 100 102 100 99 102 96 102 98 102 102 102 102 104 107 104 107 104 102 108 102 110 107 108 104 108 110 110 102 110 
8 0 8 8 8 8 8 8 0 8 0 8 8 8 8 8 8 8 8 8 0 8 0 8 8 8 8 8 8 8 8 8 8 8 8 8 8 8 8 8 8 8 8 8 0 8 8 8 8 8 8 0 8 8 8 8 0 0 8 8 8 8 0 0 8 8 8 8 8 8 8 8 8 12 8 8 8 8 8 8 8 8 8 8 10 16 19 26 26 33 34 34 51 51 51 51 52 54 59 59 60 60 60 64 68 68 68 71 72 76 78 71 79 79 79 79 76 84 87 84 82 91 93 93 93 100 98 99 101 101 102 101 102 104 102 104 102 102 102 102 108 107 104 107 105 107 104 110 102 110 108 110 110 110 110 110 107 110 110 110 
0 8 0 8 8 0 8 8 8 0 8 8 8 8 8 0 8 8 8 8 8 8 8 8 0 8 0 8 0 8 0 8 8 8 8 8 8 8 0 8 8 8 8 0 8 8 8 8 0 8 8 8 0 8 8 8 0 8 8 8 8 8 8 0 8 8 8 0 8 8 8 12 8 8 8 8 8 8 8 8 8 8 10 16 18 18 26 26 34 34 37 51 37 51 54 52 59 54 60 61 61 64 66 64 71 78 76 76 76 78 78 79 79 79 86 87 87 87 85 87 95 93 95 96 100 101 101 102 104 102 104 102 104 102 110 105 108 105 102 110 105 105 110 102 110 105 102 110 107 110 110 110 113 110 110 110 110 110 110 107 
8 8 8 0 8 8 0 0 8 8 8 8 8 8 8 0 8 8 8 8 8 0 8 8 8 8 8 8 8 8 8 0 8 8 8 8 8 8 8 0 8 8 8 8 8 8 0 8 0 8 8 8 8 8 8 0 8 0 8 8 8 8 8 8 0 8 0 12 0 0 8 8 12 8 8 12 8 12 8 8 10 10 19 26 26 34 34 37 37 51 51 51 54 59 54 54 60 60 61 60 68 68 64 71 78 71 78 78 78 79 79 86 87 87 87 85 87 87 93 93 93 96 100 98 102 104 102 104 102 104 102 102 102 110 110 110 105 110 102 110 110 102 110 105 110 110 110 110 110 110 110 110 110 113 110 110 118 110 113 115 
8 8 8 8 0 8 8 8 8 0 0 8 0 8 0 8 0 8 0 8 0 8 8 0 8 0 0 8 0 8 8 8 0 8 0 8 8 0 8 8 0 8 8 8 8 0 8 8 8 8 8 0 8 8 8 8 8 8 8 8 8 0 8 0 12 8 12 8 8 8 12 8 12 8 12 8 8 8 8 10 19 19 19 34 34 37 37 51 54 47 52 56 54 56 60 60 56 61 68 68 68 71 78 71 79 76 76 78 79 84 87 82 84 85 85 87 92 93 92 93 96 100 100 99 104 105 107 102 107 102 110 105 107 110 107 110 110 107 110 105 110 110 105 110 110 110 110 113 110 113 118 113 115 110 118 113 110 118 110 118 
0 8 8 8 8 8 8 8 8 8 0 8 0 0 8 8 8 8 8 0 8 8 0 8 0 8 8 0 8 8 8 8 8 8 8 8 0 8 0 8 0 8 8 8 8 8 8 8 8 8 8 8 0 8 0 8 8 8 8 8 8 8 0 8 8 12 8 8 12 0 12 12 10 12 8 8 8 12 10 19 19 28 33 37 38 37 51 47 54 60 54 60 60 60 61 61 64 68 68 71 68 71 79 76 84 78 85 79 84 82 86 87 87 85 87 92 90 93 96 100 100 104 104 102 107 110 107 110 104 110 107 110 110 107 110 110 110 110 110 110 110 110 110 110 110 113 110 118 118 113 115 113 118 113 118 118 113 118 113 118 
8 0 8 8 8 8 8 8 0 8 0 8 0 8 8 8 8 0 8 0 8 8 8 8 8 8 8 8 8 8 8 8 0 8 8 8 8 8 8 0 8 8 8 8 8 0 8 0 8 8 8 8 8 8 8 8 8 12 8 8 8 8 8 8 8 12 12 8 0 12 8 8 12 8 8 12 10 19 19 19 28 34 38 37 51 54 54 54 59 56 61 60 61 61 60 68 68 68 76 78 71 76 76 84 79 79 79 86 87 84 87 85 87 85 89 89 93 100 100 100 104 108 104 110 107 110 107 110 110 107 110 110 110 110 113 110 113 110 113 110 113 110 113 110 113 118 118 113 118 110 115 113 118 110 113 115 118 118 118 118 
8 8 8 8 0 8 8 0 8 0 8 8 8 0 8 8 8 8 8 8 0 8 0 8 8 8 8 8 8 8 8 0 8 0 8 8 0 8 8 8 0 8 8 8 8 8 8 8 0 8 8 8 8 8 0 8 0 8 8 8 8 8 8 8 12 8 12 8 8 0 0 8 8 10 10 19 10 19 19 34 34 38 51 47 51 54 54 54 54 61 61 64 60 64 68 68 71 71 76 78 79 84 79 79 86 87 84 87 87 87 93 93 87 93 89 98 100 101 102 104 108 110 110 107 110 107 110 110 110 113 110 113 110 110 110 110 110 118 113 115 110 113 115 113 118 118 118 118 118 118 113 118 118 118 118 113 118 118 118 118 
8 8 0 0 8 8 0 8 0 8 8 8 8 8 8 0 8 0 8 8 8 8 8 8 8 8 8 0 8 8 0 8 8 8 8 8 8 8 8 0 8 12 8 8 0 8 8 8 8 8 8 8 12 8 8 0 8 8 8 8 8 12 8 12 8 8 8 0 8 8 8 12 8 10 19 19 28 28 38 37 38 54 51 52 54 54 60 59 60 64 68 68 68 68 71 71 76 78 79 84 82 87 84 82 87 87 87 87 95 89 95 93 93 93 96 101 102 104 108 110 107 110 110 110 110 110 110 110 113 110 113 113 110 113 110 113 113 115 113 118 113 118 118 118 118 118 121 120 118 120 118 120 118 118 120 118 120 120 118 120 
8 8 8 0 8 8 0 8 0 8 8 8 8 12 8 8 8 8 0 8 0 8 8 8 8 8 8 8 0 8 0 8 0 8 0 8 8 0 8 8 8 8 8 8 8 0 8 8 8 8 0 8 8 0 8 8 8 8 8 8 8 8 12 8 8 8 8 8 8 8 12 6 19 19 28 28 34 38 51 38 59 54 54 54 60 60 61 61 64 66 64 68 71 71 76 78 76 79 85 79 87 82 87 87 87 87 95 95 93 93 95 93 100 100 101 108 108 110 110 110 110 110 110 113 110 113 110 113 113 118 118 113 115 113 118 113 115 113 118 118 118 118 113 115 120 120 121 120 126 120 126 120 121 126 120 126 118 126 120 118 
8 0 8 8 8 0 8 8 8 8 8 8 12 8 12 8 0 8 0 0 8 8 8 8 8 8 8 8 8 0 8 0 8 8 8 8 8 8 0 8 8 8 12 8 8 8 8 12 8 8 8 0 0 8 8 12 8 12 8 8 12 8 8 8 0 8 8 8 10 10 10 19 19 28 34 34 38 51 54 54 54 54 60 61 60 61 64 68 68 70 66 71 71 76 78 79 85 79 87 87 87 87 93 93 95 93 95 93 93 93 93 96 101 104 104 108 110 110 110 110 110 110 113 113 113 110 113 113 118 121 113 118 113 118 113 115 120 118 118 120 120 120 120 120 120 126 120 120 120 121 120 126 120 120 121 120 126 119 126 120 
8 8 8 8 8 8 0 8 0 8 8 8 8 12 8 8 8 0 8 8 8 8 8 8 8 8 8 0 8 8 8 8 0 8 8 8 8 8 8 0 8 0 8 8 8 8 8 8 8 8 0 8 8 8 8 8 8 8 8 8 8 12 8 8 8 10 8 10 10 10 19 26 33 34 37 51 38 54 51 54 59 60 61 61 61 68 68 68 68 71 71 71 76 78 87 85 87 87 87 87 87 93 90 89 95 93 93 93 95 96 101 101 102 108 108 110 110 115 118 113 110 110 113 118 113 118 120 121 120 118 120 118 120 118 120 120 118 120 120 118 120 118 126 120 126 120 126 120 126 120 120 118 126 120 126 120 126 120 119 126 
8 8 0 8 8 8 8 0 8 8 8 8 8 8 8 0 8 8 8 8 8 8 8 0 8 8 8 8 8 8 8 8 8 8 8 8 8 0 8 8 8 8 8 8 8 8 0 8 0 8 8 8 8 8 8 12 0 0 8 8 12 8 8 8 8 8 10 10 19 19 29 34 34 38 51 38 59 54 52 59 56 61 61 68 68 68 71 76 78 76 78 78 79 85 85 87 87 87 89 90 89 95 93 95 93 93 93 96 101 100 101 102 108 110 110 115 113 118 113 118 118 118 113 115 120 118 121 118 121 126 120 118 120 118 120 120 120 120 126 120 126 119 126 126 126 123 120 126 126 126 120 126 119 126 120 126 127 120 127 120 
0 8 8 0 8 8 8 8 8 8 0 8 0 8 0 8 8 8 8 8 8 8 8 8 8 8 8 8 0 8 0 8 8 8 8 8 8 8 8 8 8 8 8 8 8 8 12 8 8 12 8 0 8 8 8 8 12 8 8 8 8 8 8 8 10 10 10 10 19 34 37 38 51 54 51 54 59 54 61 61 66 70 66 68 71 71 76 78 78 79 79 79 87 85 82 87 89 93 90 93 93 90 93 93 98 93 100 101 100 104 104 108 110 110 118 116 118 118 118 118 118 118 120 118 120 118 120 120 118 120 120 120 121 120 123 120 126 119 126 119 126 120 123 123 126 127 126 123 127 126 123 120 126 119 127 127 126 123 127 120 
8 0 8 8 8 0 8 8 8 8 8 8 8 8 8 8 8 8 0 8 8 8 8 8 8 8 8 8 8 8 8 8 8 8 8 0 8 8 8 8 8 8 8 8 12 8 0 8 8 0 12 8 12 8 12 8 8 12 8 12 0 12 8 10 10 10 19 19 34 38 51 47 51 54 54 59 56 66 70 70 59 68 66 76 78 76 78 79 79 85 85 87 89 87 89 90 95 93 93 93 93 96 97 98 99 100 96 104 108 108 110 110 110 118 118 118 118 118 120 120 120 120 120 120 121 120 120 118 120 120 126 119 120 126 119 126 119 126 119 126 127 126 127 120 123 120 127 128 126 127 127 126 127 126 127 127 127 127 123 127 
0 8 8 0 8 8 8 8 8 8 8 8 8 0 8 8 8 8 0 8 8 8 8 8 8 8 8 8 8 8 8 8 8 8 8 8 8 8 8 8 0 8 8 8 8 8 8 8 8 12 8 8 8 8 8 8 12 8 12 8 12 8 8 10 19 19 29 34 38 51 47 51 56 59 54 60 59 70 59 66 68 66 75 78 71 79 79 79 84 82 87 90 89 91 93 89 95 93 93 96 96 101 101 100 98 100 104 108 110 110 116 110 118 118 118 120 121 118 120 118 119 126 120 126 120 120 118 120 126 119 126 126 119 126 119 127 126 123 127 119 126 127 126 123 120 127 128 131 127 126 127 126 127 126 127 127 127 127 127 127 
