P2
4 4
255
200 225 250 255 
200 225 250 255 
200 225 250 255 
200 225 250 255 
