P2
160 120
255
0 0 0 0 0 0 0 0 0 0 0 0 0 0 0 0 0 0 0 0 0 0 0 0 0 0 0 0 0 0 0 0 0 0 0 0 0 0 0 0 0 0 0 0 0 0 0 0 0 0 0 0 0 0 0 0 0 0 0 0 0 0 0 0 0 0 0 0 0 0 0 0 0 0 0 0 0 0 0 0 0 0 0 0 0 0 0 0 0 0 0 0 0 0 0 0 0 0 0 0 0 0 0 0 0 0 0 0 0 0 0 0 0 0 0 0 0 0 0 0 0 0 0 0 0 0 0 0 0 0 0 0 0 0 0 0 0 0 0 0 0 0 0 0 0 0 0 0 0 0 0 0 0 0 0 0 0 0 0 0 
0 8 0 8 0 8 0 8 0 8 0 8 0 0 0 0 0 0 0 0 0 0 0 0 0 0 0 0 0 0 8 0 8 0 8 0 8 0 8 0 8 0 8 0 8 0 8 0 8 0 8 0 8 0 8 0 8 0 8 0 8 0 8 0 8 0 8 0 8 0 8 0 8 0 8 0 8 0 8 0 8 0 8 0 8 0 8 0 8 0 8 0 8 0 8 0 8 0 8 0 8 0 8 0 8 0 8 0 8 0 8 0 8 0 8 0 8 0 8 0 8 0 8 0 8 0 8 0 8 0 8 0 8 0 8 0 8 0 8 0 8 0 8 0 8 0 8 0 8 0 8 0 8 0 8 0 8 0 8 0 
0 8 0 8 0 8 0 8 0 8 0 0 8 0 0 0 0 0 0 0 0 0 0 0 0 0 0 0 8 0 8 0 8 0 8 0 8 0 8 0 8 0 8 0 8 0 8 0 8 0 8 0 8 0 8 0 8 0 8 0 8 0 8 0 8 0 8 0 8 0 8 0 8 0 8 0 8 0 8 0 8 0 8 0 8 0 8 0 8 0 8 0 8 0 8 0 8 0 8 0 8 0 8 0 8 0 8 0 8 0 8 0 8 0 8 0 8 0 8 0 8 0 8 0 8 0 8 0 8 0 8 0 8 0 8 0 8 0 8 0 8 0 8 0 8 0 8 0 8 0 8 0 8 0 8 0 8 0 8 0 
8 0 8 0 8 0 8 0 8 0 8 0 0 0 0 8 0 0 0 0 0 0 0 0 0 0 0 0 0 8 0 8 0 8 0 8 0 8 0 8 0 8 0 8 0 8 0 8 0 8 0 8 0 8 0 8 0 8 0 8 0 8 0 8 0 8 0 8 0 8 0 8 0 8 0 8 0 8 0 8 0 8 0 8 0 8 0 8 0 8 0 8 0 8 0 8 0 8 0 8 0 8 0 8 0 8 0 8 0 8 0 8 0 8 0 8 0 8 0 8 0 8 0 8 0 8 0 8 0 8 0 8 0 8 0 8 0 8 0 8 0 8 0 8 0 8 0 8 0 8 0 8 0 8 0 8 0 8 0 8 
8 8 8 8 0 8 8 8 0 8 8 8 8 0 8 0 8 0 8 0 0 8 0 8 0 8 0 8 0 8 8 0 8 8 8 0 8 8 8 0 8 8 8 0 8 8 8 0 8 8 8 0 8 8 8 0 8 8 8 0 8 8 8 0 8 8 8 0 8 8 8 0 8 0 8 0 8 0 8 0 8 0 8 0 8 0 8 8 8 8 8 8 8 8 8 8 0 8 0 8 0 8 0 8 0 8 0 8 0 8 0 8 0 8 0 8 0 8 0 8 0 8 0 8 0 8 0 8 0 8 0 8 0 8 0 8 0 8 0 8 0 8 0 8 0 8 0 8 0 8 0 8 0 8 0 8 0 8 0 8 
8 8 0 8 8 8 0 8 8 8 0 8 8 0 8 0 8 0 0 8 0 0 8 0 8 0 8 0 8 8 8 8 8 0 8 8 8 0 8 8 8 0 8 8 8 0 8 8 8 0 8 8 8 0 8 8 8 0 8 8 8 0 8 8 8 0 8 8 8 0 8 8 0 8 8 0 8 8 0 8 8 0 8 8 0 8 0 8 0 0 8 0 0 8 0 8 0 8 0 8 0 8 0 8 0 8 0 8 0 8 0 8 0 8 0 8 0 8 0 8 0 8 0 8 0 8 0 8 0 8 0 8 0 8 0 8 0 8 0 8 0 8 0 8 0 8 0 8 0 8 0 8 0 8 0 8 0 8 0 8 
8 8 8 8 8 8 8 8 8 8 8 8 8 8 8 8 0 8 0 8 0 8 0 8 8 8 0 8 0 8 8 8 8 8 8 8 8 8 8 8 8 8 8 8 8 8 8 8 8 8 8 8 8 8 8 8 8 8 8 8 8 8 8 8 8 8 8 8 8 8 8 0 8 0 8 0 8 0 8 0 8 0 8 0 8 8 0 8 0 8 0 8 0 8 0 8 0 8 0 8 0 8 0 8 0 8 0 8 0 8 0 8 0 8 0 8 0 8 0 8 0 8 0 8 0 8 0 8 0 8 0 8 0 8 0 8 0 8 0 8 0 8 0 8 0 8 0 8 0 8 0 8 0 8 0 8 0 8 0 8 
0 8 0 8 0 8 8 8 8 8 8 8 8 8 0 8 8 0 8 0 8 8 8 8 8 0 8 8 0 8 0 8 8 8 8 8 8 8 8 8 8 8 8 0 8 8 8 0 8 8 8 8 8 8 8 8 8 0 8 0 8 8 8 8 8 8 8 8 8 0 8 0 8 8 0 8 0 8 8 0 8 0 8 8 0 8 8 0 8 0 8 8 8 0 8 0 8 0 8 0 8 0 8 8 8 0 8 8 8 8 8 0 8 8 0 8 8 8 0 8 8 0 8 8 8 0 8 0 8 8 8 0 8 0 8 0 8 8 8 0 8 8 8 0 8 8 8 8 8 8 8 8 0 8 8 0 8 8 0 8 
0 8 8 8 0 8 0 8 8 8 8 8 8 0 8 0 12 8 8 8 8 0 8 8 0 8 8 8 8 0 8 0 8 8 0 8 8 8 8 0 8 8 8 8 0 8 8 8 0 8 8 8 8 8 8 8 8 8 0 8 0 0 8 8 0 8 0 0 8 8 8 8 0 8 0 8 8 0 8 0 8 0 8 8 8 8 8 0 8 8 8 8 8 8 8 8 8 8 0 8 0 8 8 8 0 8 0 8 8 8 8 8 8 0 8 8 8 8 0 8 8 0 8 8 8 8 8 8 8 8 8 0 8 0 8 8 8 8 8 8 8 8 8 8 8 8 8 8 8 8 8 8 8 0 8 8 8 8 8 0 
0 8 0 8 0 8 8 8 8 8 8 8 0 8 8 8 0 8 8 8 8 8 8 8 8 8 8 8 8 8 0 8 8 0 8 8 8 8 8 8 8 8 8 8 8 0 8 8 8 8 8 8 8 0 8 0 8 8 8 0 8 0 8 8 8 0 8 0 0 8 8 8 8 0 8 8 8 8 8 0 8 8 8 8 8 0 8 8 0 8 8 8 8 8 0 8 8 8 8 8 8 0 8 8 0 8 0 8 0 8 0 8 8 8 8 0 8 8 8 0 8 8 8 8 8 8 8 8 8 8 0 8 0 8 0 8 8 0 8 0 8 8 8 8 8 8 8 8 8 8 8 0 8 8 8 0 8 0 8 8 
8 0 8 0 8 8 8 8 12 8 8 8 8 0 0 0 8 0 8 0 8 0 8 0 8 0 8 0 8 8 8 0 8 8 8 8 8 8 8 0 8 8 0 8 8 8 0 8 0 8 0 8 8 8 8 8 8 8 8 8 8 0 8 8 8 8 0 8 8 0 8 8 8 8 8 8 8 8 8 8 8 8 8 0 8 8 0 8 0 8 8 8 0 8 8 0 8 8 8 8 0 8 0 8 0 8 8 8 8 0 8 8 8 8 8 8 8 8 8 8 0 8 0 8 8 8 8 0 8 8 8 8 8 8 8 0 8 8 0 8 8 8 8 8 8 12 8 8 8 8 0 8 8 8 0 0 8 0 0 8 
8 8 0 8 0 8 0 8 8 0 8 8 0 8 8 0 8 8 8 8 8 0 8 0 8 8 8 8 0 8 0 8 8 0 8 8 8 8 8 8 0 8 8 0 8 0 8 0 8 8 8 0 8 8 8 0 8 8 8 8 8 8 0 8 8 8 8 8 8 8 8 8 8 8 8 8 8 0 8 8 8 0 8 8 0 8 8 0 8 8 8 0 8 8 8 8 8 8 8 8 8 0 8 0 8 0 8 8 0 8 8 0 8 8 8 8 0 8 8 0 8 8 8 8 8 8 8 8 0 8 8 8 8 8 8 8 8 0 8 8 8 8 8 8 8 8 8 8 0 8 8 8 8 8 0 8 8 8 8 8 
8 0 8 8 0 0 8 0 0 8 0 0 8 8 8 8 8 8 8 8 8 0 8 0 8 0 8 8 8 8 8 8 8 8 0 8 0 8 8 8 8 0 8 8 0 8 8 8 8 0 8 8 8 8 8 8 0 8 0 8 8 8 0 8 0 8 8 8 8 0 8 8 0 8 8 8 8 8 0 8 0 8 8 0 8 0 8 8 0 8 0 8 8 8 8 8 8 0 8 8 0 8 0 8 0 8 8 8 8 0 8 8 8 8 8 0 8 0 8 8 8 8 0 8 8 8 0 12 8 0 8 8 8 8 0 8 8 8 8 8 8 8 8 0 8 8 0 8 0 8 0 8 0 8 8 8 8 8 8 8 
8 8 0 8 8 0 8 8 8 8 8 8 0 8 8 0 8 0 8 0 0 8 0 8 0 8 8 8 0 8 8 0 8 8 8 0 8 8 8 0 8 8 0 8 0 8 0 8 0 8 8 0 8 8 8 8 0 8 0 8 8 8 8 0 8 8 8 8 8 0 8 0 8 8 8 0 8 8 8 8 8 0 8 8 8 8 0 8 8 0 8 0 8 8 8 8 8 8 8 8 8 8 8 0 8 8 12 8 8 0 8 8 0 8 8 8 0 8 8 0 8 8 8 8 8 8 8 8 8 8 8 8 8 12 8 8 0 8 8 8 8 8 8 8 8 8 8 8 8 8 8 8 8 12 8 8 0 8 0 8 
8 0 8 0 0 8 0 8 8 8 8 8 8 8 8 8 0 8 0 8 0 8 8 8 8 8 8 8 8 8 8 8 8 8 0 8 0 8 8 8 0 8 8 0 8 0 8 8 8 0 8 8 8 8 0 8 8 8 8 8 8 8 0 8 8 8 8 8 8 8 8 8 8 0 8 8 8 0 8 8 8 8 0 8 8 0 8 8 8 8 0 8 8 8 8 8 0 0 8 8 8 8 0 8 0 8 8 8 0 0 8 0 8 0 8 8 0 8 8 0 8 8 8 8 8 12 8 8 8 8 8 8 8 8 12 8 8 0 8 8 8 8 8 8 8 8 8 8 0 0 8 8 12 8 0 8 8 8 8 0 
8 8 0 8 0 8 8 8 8 0 8 8 8 0 8 8 8 8 8 8 8 8 8 8 0 8 0 8 8 0 8 8 8 8 8 8 8 0 8 0 8 8 0 8 8 0 8 0 8 8 0 8 8 8 0 8 0 8 8 8 0 8 0 8 8 8 0 8 0 8 8 0 8 8 8 8 8 8 8 8 0 8 8 0 8 8 8 8 8 8 0 8 0 8 8 0 8 8 8 8 8 8 8 8 8 8 12 8 8 8 0 8 8 8 8 0 8 0 8 8 8 8 8 0 8 0 8 8 8 0 8 0 8 0 8 8 8 8 0 8 0 8 8 8 8 8 8 0 8 8 8 8 8 12 8 8 8 8 8 8 
8 8 8 8 8 8 8 8 8 8 8 8 0 0 8 0 8 8 8 8 8 0 8 8 8 0 8 0 8 8 0 8 8 0 8 8 0 8 0 8 0 8 8 0 0 8 8 8 8 8 0 0 8 8 8 8 8 8 8 8 8 0 8 8 8 8 8 0 8 8 8 8 8 8 8 8 8 0 8 0 8 0 8 8 8 0 8 8 8 8 8 8 8 0 8 8 8 12 8 8 8 8 0 8 0 8 8 8 8 8 8 8 0 8 8 8 8 0 8 8 8 8 8 0 8 8 0 8 0 12 8 8 0 0 8 8 8 8 8 8 8 0 8 8 8 0 8 8 8 8 8 8 8 8 8 8 8 8 8 8 
8 0 8 0 8 8 8 8 8 8 0 8 8 0 8 8 8 0 8 0 8 8 0 8 8 8 0 8 0 8 8 8 0 8 8 0 8 8 0 0 8 8 0 8 0 8 8 8 8 0 8 0 8 8 12 8 8 8 0 8 0 8 8 8 8 8 8 8 0 8 8 8 0 8 8 8 0 8 0 8 8 8 0 8 0 8 8 8 8 8 8 0 8 8 8 8 8 8 8 8 8 8 8 0 8 0 8 0 0 8 8 8 8 0 8 8 8 8 0 8 12 8 8 8 0 12 8 0 8 8 8 8 8 0 8 0 8 8 8 0 8 8 8 8 8 8 8 0 8 0 8 8 0 8 8 8 8 8 8 8 
8 8 8 8 8 8 8 8 8 8 8 0 8 8 8 8 0 8 0 8 0 8 8 8 8 0 8 8 8 0 0 8 0 8 0 8 0 8 8 0 8 8 8 0 8 8 0 8 8 8 0 8 8 8 0 0 0 0 8 0 8 0 0 8 8 8 8 0 8 0 8 0 8 8 0 8 8 0 8 8 8 8 8 0 8 0 8 0 8 8 0 8 8 8 8 0 8 12 8 8 0 8 8 8 0 8 8 8 8 8 8 8 8 8 8 8 8 8 8 12 8 8 8 8 8 8 8 8 8 12 8 12 8 8 8 12 8 0 8 8 0 8 8 8 8 8 8 12 8 8 8 8 8 0 8 8 8 8 8 8 
8 0 8 8 0 8 0 8 0 8 8 0 8 8 8 8 8 0 8 0 8 8 8 8 8 8 8 0 8 8 8 8 8 0 8 0 8 8 8 0 8 8 8 0 8 8 8 8 8 8 8 0 8 8 8 8 0 8 0 0 8 0 8 0 8 8 8 8 8 8 8 8 0 8 8 8 0 8 0 8 8 8 8 8 0 8 0 8 0 8 8 8 0 8 8 8 8 8 8 8 8 8 8 8 8 0 8 0 8 8 8 8 8 8 12 8 8 8 8 8 8 8 8 8 8 8 8 8 8 8 8 8 12 8 8 8 8 8 8 8 8 8 8 8 8 8 8 8 8 8 0 8 8 8 8 0 8 8 8 8 
8 8 0 8 0 8 0 8 0 8 0 8 0 8 8 8 8 0 8 8 0 8 8 8 8 8 8 8 8 8 8 8 8 8 8 8 8 8 0 8 8 8 8 0 8 8 8 8 8 8 8 8 8 8 8 8 8 0 8 8 8 8 8 8 8 8 8 8 8 8 8 8 8 0 8 0 8 0 8 0 8 8 0 8 8 0 8 8 8 0 8 8 8 0 8 8 8 8 8 0 8 8 8 8 0 0 0 8 0 8 0 0 8 8 0 8 0 8 0 8 0 12 8 8 0 8 8 12 8 8 8 8 8 8 12 8 0 12 8 8 0 8 0 8 0 0 8 0 8 0 8 8 8 8 0 8 0 8 0 8 
0 8 8 8 0 8 0 8 0 8 0 8 8 0 8 8 8 8 8 8 8 8 8 8 8 0 8 0 8 8 8 8 8 8 8 8 8 8 8 0 8 8 8 8 8 8 8 0 8 8 8 8 8 0 8 0 8 8 0 8 8 8 8 8 0 8 8 8 12 8 8 8 0 8 8 0 8 8 8 0 8 0 8 8 0 8 8 0 8 8 0 8 0 8 8 8 0 8 8 8 0 12 8 8 8 0 8 0 8 8 8 8 8 8 8 0 8 8 8 0 8 8 8 8 0 8 8 8 12 8 0 8 0 8 8 8 8 8 8 8 12 8 8 0 8 8 0 8 8 8 8 8 8 8 8 8 8 8 8 8 
0 8 0 8 8 8 8 0 8 8 8 0 8 8 0 8 8 0 8 8 8 8 8 0 8 0 8 0 8 8 8 8 8 0 8 8 0 8 0 8 8 8 8 8 8 8 8 8 8 8 8 8 8 0 8 8 0 8 8 0 8 0 8 8 8 0 8 8 12 8 8 8 8 8 0 8 0 8 8 0 8 8 0 8 8 8 8 8 8 8 8 0 8 8 8 8 8 0 8 8 8 8 8 8 0 8 8 8 8 8 8 8 8 8 8 8 8 8 8 8 8 0 8 8 8 0 8 8 8 8 0 8 8 0 8 8 8 8 0 8 8 12 8 8 0 8 8 8 8 8 8 8 8 8 0 8 8 8 8 0 
0 8 8 8 0 8 8 8 0 8 8 8 0 8 8 8 0 8 0 0 8 0 8 0 8 0 8 0 8 8 8 0 8 8 0 8 8 8 8 0 8 12 8 8 0 8 8 0 8 0 8 8 8 0 8 8 8 8 8 8 8 0 8 0 8 0 8 8 8 8 8 8 8 8 8 8 8 8 8 8 0 8 8 0 8 0 8 8 8 8 8 8 8 0 8 8 0 8 0 8 8 0 8 0 8 0 0 8 0 8 8 0 8 8 0 8 0 12 8 0 8 0 8 8 8 8 8 8 8 8 8 0 8 8 8 8 8 8 8 8 8 8 8 8 8 8 8 8 0 8 0 8 0 8 8 8 8 8 8 8 
0 8 8 8 0 8 0 8 8 8 0 8 8 8 8 0 8 0 0 8 0 8 0 8 8 8 0 8 0 8 8 8 0 8 8 8 8 8 0 8 12 8 8 0 8 0 8 8 0 8 0 8 8 8 8 0 8 0 8 0 8 8 8 8 8 8 8 8 0 8 8 8 8 0 8 8 8 8 8 8 0 8 8 8 8 0 8 0 8 0 8 8 8 8 0 8 8 8 8 0 8 0 8 0 8 8 8 8 8 0 8 8 0 8 8 8 8 8 8 8 8 8 8 8 8 8 8 8 8 0 8 8 0 0 8 8 8 8 8 8 8 8 0 8 12 8 8 8 12 8 8 0 8 0 8 8 12 8 0 8 
8 8 8 0 8 8 8 8 8 8 8 8 0 0 8 8 8 8 8 8 8 8 8 8 8 8 8 8 8 0 8 8 8 8 0 0 8 0 8 8 8 8 8 8 0 0 8 0 8 8 8 8 0 8 8 8 8 8 8 8 8 8 0 8 0 8 0 8 8 8 8 8 8 8 8 8 8 0 8 0 8 0 8 0 8 8 8 8 8 8 8 0 0 8 0 8 8 8 8 8 8 8 8 8 0 8 8 8 8 8 8 8 8 0 8 8 0 8 0 8 8 8 8 8 8 8 8 8 8 8 0 8 0 8 0 8 8 0 8 8 8 12 8 8 8 8 8 8 8 8 8 8 0 8 0 8 8 8 8 0 
8 8 8 8 8 8 8 8 0 8 0 8 8 0 8 8 8 8 12 8 8 0 8 8 0 8 8 0 8 8 8 8 8 8 8 0 8 0 8 0 8 8 8 8 8 8 8 8 8 8 8 8 0 0 8 8 0 8 8 8 0 8 0 8 0 8 8 0 8 8 8 8 0 8 8 8 8 8 8 8 8 8 0 8 0 8 8 8 8 8 8 8 0 8 0 8 8 8 8 8 0 8 0 8 8 8 12 8 8 8 8 8 8 8 8 0 8 8 8 8 8 8 8 8 8 8 8 8 8 0 8 8 8 8 8 0 8 0 8 8 8 12 12 8 0 8 8 8 0 12 8 8 8 8 0 8 0 8 8 8 
0 8 8 8 8 8 8 0 8 0 8 0 8 0 8 8 8 0 8 0 0 8 0 8 0 8 0 8 0 8 0 8 0 8 0 8 8 8 8 0 8 0 8 0 8 8 8 8 8 0 8 0 8 8 0 8 0 8 0 8 0 8 0 8 8 0 8 8 0 8 0 8 8 0 8 0 8 8 8 8 8 8 8 8 8 8 8 0 8 0 8 8 8 8 8 8 0 8 0 0 8 0 8 0 8 8 8 8 8 0 8 8 8 8 8 8 8 8 8 8 8 8 8 8 8 8 8 8 8 8 0 8 0 8 8 0 8 8 8 8 8 8 8 8 0 8 0 8 8 0 8 8 8 8 8 8 8 8 8 8 
0 0 8 8 8 8 8 8 8 8 0 8 0 8 0 0 8 0 8 8 8 8 8 8 8 8 8 8 8 8 8 8 8 0 8 8 12 12 8 8 0 8 0 8 0 8 8 8 0 8 0 8 8 8 8 0 8 0 8 0 8 0 8 0 8 8 0 8 8 0 8 0 8 8 0 8 8 0 8 0 8 8 8 8 8 8 0 8 0 8 0 8 8 8 8 8 8 8 8 8 8 8 8 8 0 8 0 8 0 8 0 8 0 8 8 8 8 8 8 8 8 8 8 8 0 8 8 8 8 0 8 0 8 8 8 8 0 8 8 0 8 8 8 8 8 8 8 8 8 8 8 8 8 8 8 8 8 8 8 0 
8 8 0 8 0 8 0 8 0 8 8 8 8 8 8 8 0 8 0 8 8 0 0 8 0 0 8 0 8 0 8 8 8 8 0 8 0 8 8 12 8 0 8 0 8 0 0 8 8 8 8 8 8 0 8 8 8 8 8 8 8 8 0 8 0 8 8 0 8 8 8 8 0 8 8 0 8 0 8 0 0 8 0 8 0 8 0 8 8 8 8 0 8 0 0 8 8 8 8 8 8 8 8 8 8 8 8 8 8 8 8 8 0 8 0 8 8 8 8 8 8 8 8 8 8 8 8 8 8 0 8 8 0 8 8 8 0 8 8 8 0 0 8 8 8 8 8 8 8 8 8 8 8 0 12 8 0 8 8 8 
8 8 8 0 8 0 8 0 8 0 8 0 8 8 8 8 8 8 0 8 0 8 0 8 0 8 0 8 0 0 8 8 8 8 8 0 8 8 8 8 0 8 0 8 8 8 0 8 8 8 8 8 8 8 8 8 8 8 0 8 8 8 0 8 0 8 0 8 8 8 8 0 8 8 8 0 8 8 8 0 8 8 8 8 0 8 0 8 8 8 8 0 8 0 8 0 8 8 8 0 8 8 8 0 8 8 0 8 8 12 8 8 0 8 8 8 8 8 8 8 8 8 0 8 8 8 8 8 8 8 0 8 0 8 0 8 8 8 8 0 8 0 8 8 8 8 8 8 8 8 8 8 8 8 8 8 8 0 8 8 
0 8 0 8 8 0 8 8 8 8 8 8 8 0 8 0 8 8 8 8 8 8 8 8 8 8 8 8 8 8 0 8 0 0 8 8 8 8 8 8 8 8 8 8 8 8 8 8 8 0 8 0 8 8 8 0 8 8 8 8 8 8 8 8 8 8 8 8 8 0 8 8 8 8 0 8 0 8 8 8 8 8 0 8 8 8 8 8 0 8 0 8 8 8 8 8 8 8 8 8 8 0 8 8 8 0 8 8 8 8 8 8 0 8 8 0 8 8 8 8 0 8 8 8 0 8 8 8 8 8 8 8 8 0 8 0 8 0 8 8 8 8 0 8 8 0 8 8 8 8 8 0 8 8 8 8 0 8 8 12 
8 8 8 0 8 8 8 0 8 0 12 8 8 0 0 8 0 8 0 8 8 8 0 8 8 8 12 8 8 8 8 0 8 8 0 8 8 8 8 8 0 8 0 8 8 0 8 8 0 8 0 8 8 8 0 8 8 8 8 8 8 0 8 0 8 0 8 8 0 8 0 8 8 0 8 8 8 0 8 8 8 0 8 8 8 12 8 8 8 8 8 8 8 8 8 8 0 8 8 8 8 8 8 0 8 8 8 8 8 8 8 8 0 8 8 8 8 8 0 8 8 8 8 8 8 8 8 8 8 0 8 8 0 8 8 8 8 8 0 8 8 8 8 8 0 8 8 8 8 0 8 0 8 8 8 8 8 0 8 0 
8 0 8 8 8 8 8 8 8 8 8 8 0 8 8 8 8 0 8 0 8 8 8 0 8 0 8 0 8 0 8 8 8 8 8 0 8 8 0 8 8 0 8 8 8 8 8 8 8 8 8 8 8 0 8 0 8 8 8 8 0 8 8 8 8 8 0 8 8 8 8 0 0 8 8 8 8 8 8 0 8 0 8 8 8 8 8 0 8 0 8 8 8 0 8 0 8 0 8 0 8 8 8 0 8 8 0 8 8 8 0 8 8 8 8 0 8 8 8 8 8 8 8 8 0 8 8 8 8 8 8 8 8 8 8 8 8 0 8 8 8 8 8 8 8 8 0 8 8 8 8 0 8 8 8 8 8 8 8 8 
0 8 8 8 0 8 8 8 8 8 8 8 8 8 8 8 8 0 8 0 8 8 8 8 8 0 8 8 8 0 8 0 8 8 0 8 8 8 8 8 0 8 8 8 8 8 8 8 8 0 8 0 8 8 0 8 8 8 0 8 0 8 8 8 8 8 8 8 8 8 8 8 8 8 8 8 8 8 0 8 8 8 0 0 8 0 8 8 8 8 8 8 8 8 8 8 8 8 8 8 8 8 8 0 8 0 8 8 8 8 8 0 8 8 8 8 0 8 8 8 8 8 8 8 8 8 8 8 8 8 8 8 8 8 8 8 8 8 8 8 8 8 0 8 0 8 8 8 12 8 8 8 0 8 8 8 0 8 8 8 
8 0 8 8 0 8 8 8 8 8 0 0 8 8 8 12 8 8 0 8 8 8 8 8 0 8 0 8 8 8 0 8 8 0 8 8 0 8 12 8 8 8 8 8 8 8 0 8 8 0 8 8 8 8 0 8 0 8 8 8 0 0 8 8 8 8 8 8 8 8 8 8 8 8 0 8 0 0 8 0 8 8 8 8 0 8 8 8 8 8 12 8 8 8 8 8 0 8 8 8 0 8 8 0 8 0 8 8 8 8 0 8 8 8 8 0 8 8 8 8 8 8 0 8 0 8 0 8 0 8 8 8 8 8 8 8 0 8 8 8 8 8 8 0 8 8 8 0 8 8 8 8 8 0 8 8 8 8 8 8 
0 8 0 8 8 8 0 8 8 8 8 0 8 8 8 0 8 0 8 8 0 8 8 0 8 0 0 0 8 8 8 8 0 8 0 8 0 8 8 8 0 8 8 8 8 8 8 8 0 8 0 8 8 8 0 8 0 8 0 8 0 8 0 8 0 8 0 8 8 8 8 0 8 0 8 8 8 8 0 8 0 8 8 0 0 8 0 8 8 8 0 8 8 8 8 0 8 8 8 0 8 8 0 8 0 8 8 8 8 0 8 8 8 8 0 8 0 8 8 8 8 0 8 0 8 8 8 8 8 8 8 8 8 8 8 8 8 8 8 8 8 8 8 8 8 8 8 8 8 8 12 8 8 8 8 0 8 8 8 8 
8 8 8 0 8 8 8 0 8 0 8 8 0 8 0 8 0 8 8 8 8 0 8 8 8 0 8 0 0 8 8 8 8 0 8 0 8 8 8 8 0 8 0 8 0 8 8 8 8 8 8 8 8 0 8 0 8 0 8 8 8 0 8 8 8 0 8 8 8 8 0 0 0 8 8 8 8 8 8 0 0 8 0 8 8 8 8 0 8 0 8 0 8 8 8 8 8 0 8 8 0 8 8 8 8 8 8 8 8 8 0 0 8 0 8 8 8 0 8 8 8 8 8 8 8 0 8 8 0 8 8 0 8 8 8 8 8 0 8 8 8 8 8 8 8 8 8 8 0 8 8 8 8 8 8 8 8 8 12 8 
8 0 8 8 8 0 8 8 0 0 0 8 8 0 8 0 8 0 8 8 0 8 8 8 8 8 8 8 8 0 8 0 8 8 8 8 0 8 8 0 8 0 8 0 8 8 8 8 0 8 8 8 0 8 0 8 8 8 8 8 0 8 0 8 0 8 8 8 8 0 8 8 8 8 0 8 0 0 8 0 8 0 8 8 8 8 8 8 8 8 8 8 8 8 12 8 8 8 8 8 0 8 8 8 8 8 8 8 8 8 8 0 8 8 8 8 0 8 0 8 0 8 8 8 8 8 0 8 8 8 0 8 8 8 8 8 8 8 8 8 8 8 8 8 8 8 8 0 8 0 8 8 8 8 8 8 12 8 12 8 
8 0 8 0 8 8 8 8 8 8 0 0 8 8 8 8 0 8 8 0 8 0 0 8 8 12 8 8 0 8 0 8 0 8 8 8 8 8 0 8 0 0 0 8 0 8 0 8 8 8 8 8 0 8 0 8 8 8 8 0 8 0 8 0 8 8 0 8 8 8 0 8 8 8 8 8 8 0 8 8 8 8 0 8 12 8 8 0 8 8 0 8 12 8 12 8 8 0 8 0 8 0 8 8 0 8 0 8 8 8 8 8 0 0 8 8 8 8 0 0 8 8 8 8 8 8 8 8 8 0 8 8 8 8 8 8 8 8 8 8 8 8 8 8 8 8 8 8 0 8 0 8 8 8 8 8 8 12 8 8 
8 0 8 8 0 8 8 8 8 8 8 8 8 8 8 0 8 8 8 8 0 8 8 0 8 8 0 8 8 0 8 0 8 8 8 8 8 8 0 8 0 8 0 8 0 8 8 0 8 8 8 8 8 8 8 8 8 8 8 8 8 8 0 8 0 8 8 8 0 8 8 0 8 0 8 8 8 8 0 8 0 0 8 8 8 0 8 8 0 8 8 8 8 8 8 8 8 8 8 8 8 8 0 8 0 8 0 8 8 8 8 8 8 0 8 8 8 8 8 8 8 8 8 8 0 8 8 8 8 8 8 8 8 8 8 8 8 0 8 8 0 8 8 8 0 8 12 8 0 8 8 0 8 8 8 8 8 8 10 8 
8 8 0 8 0 8 8 0 8 0 8 8 0 8 0 8 0 8 8 8 8 8 8 0 0 0 8 0 8 8 8 8 0 0 8 0 0 8 8 0 8 8 8 0 8 8 8 8 8 0 0 0 8 12 8 8 8 8 8 8 8 8 8 8 0 8 8 0 8 8 8 8 0 8 0 8 0 8 8 8 8 8 8 8 8 8 0 8 8 8 8 8 8 8 0 8 8 8 8 8 8 8 8 8 8 0 8 8 0 8 8 0 8 8 8 8 0 8 0 8 8 0 8 0 8 8 8 0 8 8 8 8 0 8 8 8 8 8 8 8 8 8 0 8 8 8 8 8 8 8 8 8 8 8 8 8 8 8 8 6 
8 8 8 8 8 8 8 8 8 8 8 0 8 0 8 8 8 8 8 0 8 8 0 8 8 0 8 0 8 0 8 0 8 0 8 8 0 8 0 8 8 0 8 8 8 8 8 8 8 8 8 8 8 8 8 8 8 0 8 8 8 8 8 8 0 8 0 8 0 8 8 8 8 8 0 8 8 0 8 8 8 0 8 8 8 0 8 8 8 8 8 8 0 8 8 8 0 8 0 8 8 8 8 0 8 8 8 8 8 8 8 8 8 8 0 8 8 8 8 8 0 8 8 8 8 8 0 8 8 8 8 8 8 8 8 8 8 8 8 0 8 8 8 8 8 8 8 8 8 8 8 8 8 8 8 8 8 6 8 8 
8 8 8 8 0 8 8 8 8 8 0 8 0 8 0 8 8 8 8 8 0 8 8 8 8 8 0 8 0 8 8 0 8 8 8 8 8 0 8 0 8 8 8 0 8 0 8 0 8 8 8 0 8 0 8 8 0 8 8 8 8 8 0 8 0 0 8 0 8 0 8 8 8 8 8 0 8 8 8 8 8 8 8 0 8 0 8 0 0 0 0 0 8 8 12 8 8 8 8 0 8 0 0 8 8 8 8 8 8 8 8 8 8 8 8 8 8 8 8 8 0 8 8 8 8 8 8 0 8 8 8 0 8 0 8 8 8 8 8 8 0 8 8 8 8 0 8 8 8 8 8 8 8 8 8 8 8 8 8 8 
8 8 8 0 8 0 8 8 8 0 8 8 8 8 8 8 8 0 8 8 8 8 8 8 8 8 8 0 8 8 8 8 8 8 8 0 8 8 0 8 0 8 0 8 0 8 0 8 8 12 8 8 0 8 0 8 8 8 8 8 0 8 8 8 8 8 8 8 0 8 8 0 8 0 0 8 8 8 8 8 8 0 8 8 0 8 8 8 8 8 0 8 8 8 8 12 8 0 8 8 0 8 0 8 8 8 8 0 8 8 0 8 8 8 8 8 8 8 8 8 8 8 8 8 0 8 8 8 8 8 8 8 8 8 8 8 8 8 8 8 8 8 8 8 8 8 8 8 8 8 8 8 8 8 8 8 8 8 8 8 
8 0 8 0 8 8 8 8 8 0 8 8 8 0 8 0 0 8 0 0 8 8 0 8 0 8 0 8 8 8 8 0 8 0 8 8 0 8 8 8 8 8 8 8 8 8 8 8 8 0 8 0 8 8 8 8 0 8 0 8 0 8 8 8 0 8 8 8 0 8 8 0 8 0 8 0 0 8 8 0 8 0 8 8 8 8 0 8 8 8 8 8 8 8 8 0 0 8 0 0 8 8 8 8 8 8 8 8 8 0 8 8 0 8 8 8 8 0 8 8 8 8 8 8 8 0 8 8 8 8 8 8 8 0 8 8 8 0 8 8 8 8 0 8 8 8 8 8 8 8 8 8 0 8 0 8 8 8 8 8 
8 0 8 0 8 8 8 8 0 8 8 8 8 8 8 8 8 0 8 8 8 8 8 0 8 8 8 8 8 8 8 0 8 8 8 0 8 8 0 8 0 8 0 8 0 8 0 8 0 8 0 8 0 8 8 0 8 8 0 8 0 8 8 8 8 8 8 12 8 8 8 8 8 8 8 8 8 8 8 0 8 0 8 0 8 8 8 8 8 8 12 8 12 8 8 8 0 8 0 8 0 8 0 8 8 0 8 8 0 8 8 8 8 0 8 0 8 0 0 8 8 8 8 8 8 8 8 8 8 8 8 8 8 8 8 8 8 8 8 8 8 8 8 0 8 8 8 8 8 8 8 8 8 0 12 8 8 8 8 8 
0 8 0 8 0 8 8 0 8 0 8 8 8 8 8 8 8 8 8 8 8 0 8 8 8 8 8 0 8 0 8 8 0 8 8 8 0 8 0 8 8 8 0 8 0 8 0 8 8 8 8 8 8 0 8 0 8 8 8 0 8 0 8 8 8 8 8 8 0 8 8 8 8 8 8 8 8 8 8 0 8 8 0 8 8 0 8 8 8 8 8 8 8 0 8 8 8 8 8 8 0 8 8 8 0 8 8 0 8 8 8 8 8 8 8 8 0 8 8 8 8 8 8 8 8 8 8 8 8 8 8 8 8 8 8 8 8 8 8 8 8 0 8 8 8 8 8 8 8 8 8 8 8 8 8 12 8 12 8 12 
8 8 8 8 8 0 8 8 8 8 8 8 0 0 8 8 8 8 0 8 0 0 8 8 8 8 8 8 0 8 0 8 0 8 0 0 8 8 8 8 8 8 8 8 8 0 8 0 8 8 8 0 0 8 8 8 0 8 8 8 8 8 8 8 0 8 8 0 8 8 8 8 0 8 0 0 0 0 8 8 0 8 8 0 8 8 8 0 8 8 0 8 8 8 8 8 0 8 0 8 8 8 8 8 8 8 8 8 8 8 8 8 8 8 8 0 8 8 8 8 8 8 8 8 8 8 8 8 8 8 8 8 8 8 8 8 8 8 8 8 8 8 0 8 0 8 8 8 8 8 8 8 8 12 8 12 12 0 12 0 
8 8 0 8 8 8 8 8 8 8 8 8 8 8 8 0 8 0 8 0 8 0 8 8 8 8 0 8 8 0 8 8 8 8 8 0 8 0 0 8 8 8 0 8 8 8 0 8 0 8 8 8 8 0 8 0 8 8 0 8 0 8 8 8 8 0 8 0 8 8 8 8 8 8 8 0 8 0 8 8 8 8 8 8 0 8 8 8 8 8 8 0 8 8 8 8 8 8 8 8 8 8 8 8 8 8 8 8 8 8 8 8 8 8 8 8 8 8 8 8 8 0 8 8 8 8 8 8 8 8 8 8 8 8 8 8 8 0 8 0 8 0 8 8 8 8 8 8 0 8 8 12 12 8 12 8 8 8 8 12 
0 8 8 0 8 0 8 8 8 8 8 8 0 8 0 8 0 8 8 0 8 8 0 8 8 0 8 0 8 8 0 8 8 8 8 8 8 8 8 8 8 8 0 0 8 8 8 8 8 8 0 8 8 8 0 8 8 8 8 8 8 0 8 0 8 8 8 8 8 0 8 8 0 8 0 8 8 8 8 8 0 8 0 8 8 8 8 8 8 0 8 8 0 8 8 0 8 0 0 0 0 0 0 0 0 8 0 8 8 8 0 0 0 0 8 8 8 8 8 8 0 8 8 8 8 8 8 8 12 8 8 8 8 8 8 8 8 8 8 8 8 8 8 8 8 8 8 8 8 8 8 8 10 8 8 8 8 12 8 8 
8 8 8 8 8 8 0 8 8 8 8 8 8 8 8 8 0 8 0 8 0 8 8 8 8 8 0 8 0 8 8 8 0 8 0 8 8 8 0 8 8 8 8 0 8 8 8 8 8 8 8 0 8 0 8 8 8 8 8 0 8 8 0 8 8 8 8 8 0 8 0 0 8 8 8 8 0 8 8 0 8 0 8 0 8 0 8 8 0 8 8 0 8 8 0 8 0 8 8 8 8 8 8 0 8 0 8 8 8 8 0 8 0 8 0 0 0 8 8 8 8 0 8 8 8 8 8 8 8 8 8 8 8 8 8 8 8 8 8 8 8 8 8 8 8 8 12 8 8 8 8 12 8 8 10 8 10 6 8 6 
0 8 8 0 8 8 8 8 8 8 8 0 8 8 8 8 8 0 8 8 0 8 0 8 8 0 8 8 8 8 0 8 0 0 8 8 8 8 0 8 0 8 8 8 8 8 8 0 8 0 8 0 8 0 8 8 8 0 8 8 0 8 8 8 8 0 0 8 8 8 8 8 8 0 8 8 0 8 0 8 8 8 0 8 0 8 0 8 8 8 8 8 8 8 8 8 8 8 8 8 8 0 8 8 0 8 8 8 8 8 0 8 8 8 8 8 8 8 8 8 8 8 8 8 8 0 8 8 8 8 8 8 8 8 8 8 8 8 8 0 8 8 8 8 8 8 8 8 8 12 6 8 8 8 10 8 8 8 6 10 
8 8 8 8 8 8 8 8 8 8 8 0 8 0 8 8 0 8 8 8 8 0 8 8 8 8 0 8 8 8 0 8 0 8 0 8 8 8 8 0 8 0 8 8 0 8 0 8 0 8 0 8 8 8 8 8 0 8 8 0 8 8 8 8 8 0 8 0 8 8 8 0 8 8 8 8 8 0 8 8 8 0 8 8 8 0 8 8 8 8 8 8 0 8 8 8 0 8 0 8 0 8 0 8 12 8 8 8 8 8 8 12 8 8 0 8 8 8 8 8 8 8 8 8 8 0 8 0 8 8 8 8 8 8 8 8 8 8 8 8 8 8 0 8 8 8 8 12 8 8 12 8 10 8 8 10 6 10 10 19 
8 8 8 8 8 0 8 8 8 8 8 8 0 8 8 0 8 8 8 8 8 8 8 8 8 0 8 0 8 8 8 8 8 8 8 8 8 8 8 8 8 8 0 8 0 8 0 8 8 8 8 8 8 8 8 0 8 8 8 8 8 8 0 0 8 8 8 8 0 8 0 8 0 8 0 8 8 8 0 8 0 8 0 8 8 8 8 8 8 8 8 8 8 0 8 8 8 0 8 0 8 0 8 8 8 8 8 8 8 8 8 8 8 0 8 8 0 8 8 8 8 8 8 8 8 0 8 8 0 8 0 8 8 8 0 8 8 8 8 8 8 8 8 8 8 8 8 8 12 12 6 8 10 10 6 10 11 19 30 37 
8 8 8 0 8 8 8 8 0 8 8 8 8 8 8 8 8 8 8 8 0 8 0 8 8 8 8 0 8 0 8 8 8 0 8 8 8 8 8 8 0 8 8 0 8 0 8 0 8 8 8 8 8 8 8 8 0 8 8 8 0 8 8 0 8 8 8 8 8 0 0 8 0 8 0 8 8 8 8 0 8 8 0 8 8 8 8 0 8 8 8 8 0 8 8 8 8 8 8 8 8 8 8 0 8 8 8 8 12 8 8 8 0 8 8 8 8 8 8 0 8 0 8 8 0 8 8 8 8 8 8 8 8 8 8 8 8 8 8 8 8 8 8 8 8 8 12 12 8 8 8 10 10 10 10 19 37 37 61 68 
8 8 8 8 8 8 8 8 8 8 0 8 0 8 8 8 8 8 8 8 8 0 8 8 8 8 0 8 8 0 8 0 8 8 0 8 0 8 8 0 8 8 8 8 0 8 8 8 8 8 8 0 8 0 8 8 8 8 0 8 8 8 8 8 8 0 0 8 8 8 8 8 8 8 8 0 8 8 8 8 8 8 8 0 8 0 8 8 0 8 8 8 8 8 8 8 8 8 0 8 8 8 0 8 8 0 8 8 12 8 0 8 0 8 0 8 8 8 8 8 0 8 8 8 8 0 8 8 8 8 8 8 0 8 8 8 8 8 8 8 8 8 8 8 8 8 8 12 8 8 8 8 11 18 26 36 54 68 75 86 
0 8 8 8 8 12 8 8 8 0 8 8 8 8 8 8 8 8 0 8 8 8 0 8 0 8 8 0 8 0 8 8 8 8 0 8 0 0 8 0 8 8 8 8 8 0 8 0 8 8 12 8 8 0 8 0 8 8 8 8 0 8 8 8 8 8 8 8 8 8 8 0 8 8 8 8 8 8 12 8 0 8 0 8 0 8 8 8 8 8 8 8 8 8 8 8 8 0 8 8 8 0 8 8 0 8 8 8 8 12 8 0 0 8 8 8 8 8 8 0 0 8 0 8 8 8 8 8 8 8 8 8 8 0 8 8 8 0 8 8 8 8 8 10 10 12 8 12 8 8 10 19 33 37 56 68 79 79 87 91 
8 8 8 8 8 8 8 8 8 8 8 0 8 8 8 8 8 8 8 8 8 8 8 8 8 8 8 8 8 0 8 8 8 8 0 0 8 0 8 8 8 8 0 8 0 8 8 8 8 8 8 8 0 8 0 8 8 0 8 8 8 8 8 8 8 8 8 8 8 8 8 8 0 8 0 8 8 8 0 8 8 0 8 8 8 8 8 0 8 0 8 0 8 0 8 8 8 8 8 8 0 8 8 0 8 0 8 8 8 0 8 8 0 8 8 8 8 8 8 8 8 8 8 8 8 8 8 8 8 8 8 0 8 8 8 12 8 8 12 8 12 8 8 8 8 6 10 10 10 19 26 37 52 68 75 79 87 95 98 98 
8 0 8 8 8 8 0 8 0 8 8 8 8 0 8 0 8 8 8 8 8 0 8 8 8 8 8 8 8 8 0 8 0 8 8 0 8 0 8 8 8 8 8 0 8 0 8 8 8 0 8 0 8 8 0 8 8 8 0 8 0 8 8 8 8 8 8 0 0 0 8 0 8 8 0 8 0 0 8 0 8 8 0 8 0 8 0 8 0 8 0 8 0 8 8 8 8 0 8 0 8 8 8 8 0 8 8 8 0 8 0 8 12 12 8 8 0 8 8 8 0 8 8 8 8 0 8 8 8 8 8 8 8 8 12 8 12 12 12 12 8 8 10 10 10 10 12 10 28 22 37 54 68 77 87 90 93 98 101 103 
8 8 0 8 0 8 8 0 8 8 0 8 8 8 0 8 8 8 8 8 8 0 8 0 8 0 8 8 8 8 8 0 8 0 8 0 0 8 8 8 8 8 0 8 0 8 8 0 8 8 0 8 0 8 8 8 0 8 8 0 8 0 0 8 0 8 0 8 0 8 8 8 8 8 8 0 8 8 0 8 0 8 0 8 0 0 8 0 8 8 8 8 8 0 8 8 8 8 0 8 0 8 8 8 0 8 0 8 0 0 8 8 0 12 8 0 0 8 8 0 8 8 8 8 8 8 0 8 8 8 8 12 0 12 8 12 12 0 8 8 10 8 6 10 11 11 19 30 47 60 71 79 85 89 95 96 101 104 104 108 
0 8 8 8 8 8 8 8 0 8 8 8 8 0 8 8 8 8 8 8 8 8 8 8 8 8 0 8 0 8 8 0 8 8 8 8 0 8 8 8 8 8 8 0 8 0 8 8 8 8 8 8 0 0 8 8 8 0 8 0 8 8 8 0 8 8 8 0 8 8 8 8 0 8 8 8 8 8 8 8 8 8 8 8 8 8 8 8 8 0 8 8 0 8 8 8 8 8 0 8 0 8 8 8 8 8 8 8 8 8 8 8 8 8 8 8 8 8 12 8 0 8 8 8 8 8 8 8 8 8 12 8 12 0 12 8 12 8 12 6 8 6 8 11 19 36 47 52 69 79 85 93 90 93 101 104 104 112 112 108 
8 8 8 8 8 8 8 8 8 0 8 0 8 8 0 8 8 8 8 8 8 8 12 8 8 0 8 0 8 8 8 8 0 8 8 8 8 0 8 8 0 8 8 8 0 8 0 8 8 8 8 8 0 8 0 8 8 0 8 8 8 8 8 8 0 8 8 8 8 8 8 8 8 0 8 0 8 8 8 8 8 0 8 8 8 0 8 8 8 8 8 8 8 8 8 8 8 8 8 0 8 0 8 0 8 8 0 0 8 8 8 8 0 0 8 0 8 8 8 8 0 8 0 8 8 8 8 8 8 8 12 8 0 12 0 8 8 10 10 10 8 11 26 35 47 52 78 78 82 90 96 96 100 99 104 112 112 120 108 124 
8 8 8 8 8 8 8 8 8 8 0 8 8 8 8 8 8 0 8 8 8 8 0 8 0 8 0 8 0 8 8 8 8 0 8 0 8 8 0 8 8 0 8 8 8 0 8 0 8 8 0 8 0 0 8 8 8 8 0 8 8 8 0 8 0 8 0 8 8 8 8 0 8 0 8 0 8 8 8 0 8 8 8 8 8 8 0 0 8 8 8 0 8 8 8 0 8 8 8 8 8 8 8 8 0 8 0 8 8 8 8 0 8 0 8 0 8 8 8 12 8 0 8 8 8 8 8 8 12 8 8 12 8 12 8 12 6 10 6 8 19 29 36 56 69 82 89 89 89 96 99 104 104 107 112 118 120 120 120 112 
8 8 8 8 8 8 8 8 8 8 8 8 8 8 8 8 8 8 8 8 0 8 0 8 8 8 8 8 8 8 8 8 8 8 0 8 8 8 0 8 0 8 8 0 8 8 8 0 8 8 8 0 8 8 8 8 0 8 8 8 8 8 8 0 8 0 8 0 8 0 8 0 8 8 8 0 8 0 8 0 8 0 8 8 8 8 8 8 0 8 0 8 0 8 0 8 0 8 8 8 8 8 0 0 8 8 8 8 0 8 0 12 8 12 8 0 0 8 8 8 0 8 8 8 8 8 8 10 8 12 12 8 8 12 8 10 10 11 19 35 37 56 65 79 82 87 89 96 99 107 104 110 107 112 120 120 119 119 112 123 
0 8 8 8 8 8 8 8 8 0 8 0 8 8 8 0 8 8 8 8 8 8 8 8 8 8 8 8 8 0 8 0 8 0 8 0 8 8 8 0 8 8 0 8 8 0 8 8 8 8 8 8 8 8 8 0 8 0 8 8 8 8 8 8 8 8 8 8 8 8 8 8 0 8 8 8 8 8 0 8 0 8 8 8 8 8 8 0 8 0 8 0 8 8 8 8 8 0 8 8 8 0 8 0 8 8 8 8 8 8 8 8 8 8 8 8 8 8 8 8 8 8 8 8 8 10 8 8 8 8 8 12 8 6 10 11 18 29 36 56 63 77 79 91 93 96 104 102 108 112 116 108 120 120 120 119 108 123 110 98 
8 8 8 8 8 0 8 8 8 8 8 8 8 8 8 0 8 8 8 8 8 12 8 8 8 8 0 8 0 8 0 8 0 8 8 8 8 8 8 8 0 8 0 8 8 8 8 8 8 8 8 8 8 8 0 8 0 8 0 8 8 8 0 0 8 8 8 8 0 8 8 0 8 8 0 8 8 0 8 0 8 8 0 8 8 0 8 8 8 8 0 8 8 8 8 8 0 8 8 0 8 8 8 8 0 8 8 0 8 8 8 8 8 8 8 8 8 8 8 8 8 10 8 8 8 8 6 8 6 10 8 6 10 11 19 29 37 56 63 72 82 87 95 98 98 104 108 112 116 119 119 119 120 123 112 119 86 85 91 68 
8 8 8 8 0 8 8 8 8 0 8 8 8 0 8 8 0 8 8 8 8 0 8 8 8 8 8 0 8 0 8 8 8 0 8 8 0 8 8 8 8 8 8 0 8 8 0 8 8 8 0 8 0 8 8 0 8 8 8 0 8 8 8 8 8 0 8 0 8 0 8 8 8 8 8 8 8 8 8 8 8 8 8 0 8 0 8 0 8 0 0 8 8 12 8 8 8 0 8 8 0 8 0 8 8 8 8 8 8 8 8 0 8 8 0 8 8 8 0 8 8 8 8 8 8 8 6 10 10 10 10 10 18 22 36 57 63 72 84 91 95 98 98 103 108 108 119 120 119 120 108 119 112 119 110 98 85 91 57 60 
0 8 8 8 8 8 8 8 8 8 0 8 8 8 0 8 8 8 0 8 8 8 8 8 8 8 8 12 8 8 8 8 8 8 0 8 8 8 8 8 0 8 0 8 0 8 8 0 8 8 8 8 8 8 8 8 8 0 8 8 8 8 8 8 8 8 8 8 8 8 8 8 8 8 8 0 8 8 8 8 8 8 0 8 8 0 8 8 8 8 0 8 0 8 8 8 0 8 8 8 8 8 8 8 0 8 8 8 8 8 8 8 8 12 8 8 8 8 8 8 8 8 8 8 10 8 8 8 10 10 11 29 37 37 63 68 87 87 91 98 98 101 104 112 108 119 108 120 119 112 123 108 110 91 79 79 70 70 68 79 
8 8 8 8 0 8 8 8 8 8 8 8 8 0 8 8 8 8 8 8 8 8 8 8 8 8 8 8 8 8 8 8 8 8 8 8 8 0 8 8 8 8 8 0 8 0 8 8 0 8 8 8 8 0 8 8 0 8 8 8 0 8 8 8 0 8 0 8 0 8 0 8 12 8 0 8 8 8 8 0 8 8 8 8 8 8 8 8 8 8 8 0 8 8 0 8 8 8 8 8 8 0 8 8 8 0 8 0 8 8 8 8 8 8 0 8 8 8 8 8 8 8 8 10 10 10 8 10 11 19 33 47 63 78 82 87 91 98 104 104 108 108 112 119 119 119 119 119 123 108 93 95 82 71 63 57 64 72 95 103 
0 8 0 8 8 0 8 8 8 8 8 8 8 8 0 8 8 8 8 8 8 0 8 8 0 0 8 0 8 0 8 12 8 8 8 8 8 12 8 0 8 8 8 8 0 8 8 8 8 8 8 8 8 8 0 8 8 8 8 0 8 0 8 0 8 0 8 0 8 0 8 8 8 8 8 0 8 8 12 0 8 8 8 8 8 8 8 8 8 8 8 8 0 8 0 8 8 8 8 0 8 8 0 8 0 8 0 8 8 8 8 12 8 8 8 0 8 8 8 10 8 8 10 10 8 10 10 26 33 36 52 68 79 87 95 98 98 101 108 108 108 116 112 112 107 108 119 103 93 95 87 79 68 64 72 79 95 103 108 124 
8 8 8 0 8 8 8 8 8 8 0 8 8 8 8 8 8 8 8 8 8 8 8 8 8 8 8 8 0 8 8 8 8 8 8 0 12 8 8 8 8 8 0 8 8 0 8 8 8 8 8 8 8 8 8 8 8 0 8 0 8 0 8 8 8 8 0 8 8 8 8 8 8 8 8 8 8 8 8 0 0 8 0 8 8 8 8 8 8 8 0 8 8 0 8 0 8 8 0 8 8 0 8 8 0 8 8 8 8 8 8 12 8 0 8 8 8 8 10 8 10 10 8 10 10 19 26 37 59 64 77 85 95 98 103 104 104 108 112 108 120 120 116 116 112 112 99 95 79 72 64 64 72 82 91 108 120 126 126 123 
8 8 0 8 8 8 12 8 8 8 8 0 8 8 0 8 8 8 8 12 0 8 0 12 8 8 8 8 12 8 8 12 8 8 0 8 8 0 8 0 8 8 8 0 8 8 8 0 8 8 8 8 8 8 8 8 0 8 0 8 8 8 0 8 0 8 8 8 8 0 8 0 8 8 8 0 8 8 8 8 8 8 8 8 8 8 0 8 0 8 8 8 0 8 8 8 8 0 8 8 8 8 8 8 8 8 0 8 0 8 8 8 8 8 8 8 8 12 8 8 10 10 10 10 26 33 38 66 71 79 87 93 93 101 104 108 108 119 120 120 120 118 119 116 108 103 87 71 69 64 65 69 82 103 108 123 126 123 129 126 
8 8 8 0 0 8 8 8 8 8 8 8 8 0 8 8 8 8 8 0 8 0 8 0 8 0 12 8 8 8 8 8 8 8 8 8 8 8 8 8 8 8 8 8 0 8 0 12 8 0 8 8 0 8 8 8 8 8 8 8 8 8 0 0 8 8 8 0 8 8 0 8 0 8 8 8 8 8 0 8 8 8 8 0 8 0 8 0 8 8 8 0 8 0 8 8 0 8 8 0 8 8 8 8 8 8 8 8 8 12 0 8 8 8 8 8 12 8 8 8 8 10 18 29 37 52 68 78 79 87 101 101 104 104 112 119 119 120 120 108 119 108 104 103 93 79 72 65 71 77 82 90 112 123 134 126 133 126 129 129 
8 8 8 12 8 8 8 8 0 8 8 8 0 8 8 8 8 8 0 8 8 8 8 8 8 0 8 8 8 8 8 12 8 12 8 8 6 8 0 8 8 8 8 8 8 8 8 8 0 8 8 0 8 0 8 8 8 8 0 8 8 8 8 0 8 0 8 8 8 8 8 8 8 0 8 8 8 8 8 0 8 8 0 8 0 8 8 8 8 0 8 8 0 8 0 8 8 0 8 8 8 0 8 8 0 8 8 12 8 8 8 0 8 8 8 12 8 12 12 10 19 26 37 59 71 79 82 90 96 98 104 108 112 112 119 112 112 123 119 112 110 101 87 71 64 65 63 82 96 108 120 120 126 126 126 126 126 126 126 123 
8 8 8 8 0 8 8 0 12 8 8 12 8 0 8 8 8 0 8 8 0 8 8 8 8 0 8 0 8 8 8 8 8 8 8 8 8 8 8 8 0 8 8 8 8 8 8 0 8 8 8 8 8 8 0 8 0 8 8 8 0 8 0 8 0 8 8 8 8 0 8 0 8 8 0 8 8 0 8 8 8 8 8 8 8 8 8 8 8 8 8 8 8 0 8 0 8 8 8 8 0 8 0 8 8 0 8 0 0 0 8 8 8 8 12 0 12 12 10 28 34 52 61 72 79 90 96 100 104 102 104 112 108 119 119 123 119 110 105 99 95 82 71 64 64 82 90 98 120 120 123 126 126 123 126 129 126 129 126 118 
8 8 8 8 8 8 8 8 8 0 8 0 8 8 8 8 8 8 8 8 8 0 8 8 8 0 8 8 8 8 8 8 8 8 8 8 8 8 0 8 8 8 8 8 8 8 0 8 8 8 8 8 0 8 8 8 8 0 8 0 8 0 8 8 8 8 8 8 8 8 8 8 8 8 8 8 0 8 8 0 8 8 8 8 8 8 12 8 8 8 8 8 8 0 8 0 8 8 8 8 0 8 0 0 8 8 0 8 0 8 8 8 8 8 8 8 8 19 34 51 63 78 85 90 95 96 102 107 107 112 112 108 119 119 112 112 99 99 87 79 71 64 71 82 95 108 120 118 123 129 126 129 126 126 126 126 126 123 123 118 
8 8 8 8 8 8 8 8 8 8 8 8 8 8 0 8 8 8 0 8 8 8 8 8 12 8 8 8 8 0 8 8 8 8 8 8 8 8 8 8 8 8 8 8 0 8 8 8 8 8 8 0 8 8 8 8 8 8 8 8 8 8 8 8 8 0 8 8 0 8 8 0 8 8 0 8 8 8 8 8 8 8 8 8 8 8 12 8 8 8 8 8 8 8 8 8 8 8 8 8 8 0 8 0 8 8 8 8 8 8 8 8 8 8 8 10 8 33 52 69 79 89 93 96 104 104 107 110 112 112 119 120 119 108 110 97 87 85 77 71 69 79 93 103 108 123 129 129 126 126 126 123 126 123 123 126 121 118 118 118 
8 8 8 12 8 8 8 8 8 8 8 8 8 8 8 8 8 8 12 8 8 8 12 8 12 8 8 12 12 8 8 8 8 0 8 8 8 8 8 8 8 8 8 8 8 8 8 8 8 8 8 8 8 0 8 8 8 8 8 8 8 8 0 8 0 8 0 8 0 8 0 8 8 8 8 8 8 8 8 8 8 8 8 8 8 8 8 0 8 0 8 8 8 8 8 8 8 0 8 8 8 8 8 8 0 8 8 8 8 8 8 0 8 8 8 10 8 45 69 82 92 93 99 104 110 110 112 112 112 112 108 119 108 99 84 71 69 69 71 85 93 104 120 123 126 126 123 129 126 126 126 123 126 118 126 118 118 118 116 115 
8 8 8 8 12 8 12 8 8 8 8 8 8 8 12 8 12 8 12 8 8 12 8 12 8 8 8 8 8 8 8 8 8 8 8 8 8 8 8 8 8 8 8 8 8 8 8 8 8 8 8 8 8 8 8 0 8 8 8 0 8 0 8 8 8 0 8 8 8 0 8 8 8 8 8 0 8 8 8 8 8 8 8 8 8 0 8 0 0 8 0 8 8 8 8 8 0 8 8 0 8 8 8 8 8 8 0 0 8 0 8 8 6 8 8 6 8 35 72 92 96 102 105 110 113 112 118 116 116 108 111 101 90 77 72 69 75 72 90 101 119 120 126 133 134 123 129 126 123 126 123 124 121 118 118 118 113 110 110 112 
8 12 8 8 8 8 8 8 8 8 12 8 8 8 12 8 12 8 12 12 8 8 12 8 12 8 8 12 12 8 8 12 8 12 12 8 12 0 12 8 8 8 0 8 8 8 8 8 8 8 8 8 8 8 0 8 8 8 8 8 8 8 8 0 8 8 0 8 0 8 0 8 8 8 0 8 8 0 8 8 8 8 0 8 8 8 8 8 8 8 8 8 8 8 8 8 8 8 8 8 0 8 0 8 12 8 8 8 8 8 8 8 8 0 8 10 8 37 69 96 99 110 110 113 118 118 112 108 108 103 93 77 77 71 77 85 98 112 119 124 126 123 126 120 126 126 120 126 120 120 126 118 118 118 110 113 115 116 115 112 
10 10 10 10 12 8 8 10 8 10 6 12 12 8 8 12 8 8 8 12 8 8 12 8 12 8 12 8 12 12 8 12 8 12 8 12 8 12 8 12 8 12 8 8 8 8 8 8 8 8 8 8 8 8 8 8 8 8 8 8 8 8 8 8 8 8 8 8 8 8 8 8 8 0 8 8 8 8 0 8 8 0 8 8 8 8 8 8 8 8 8 0 8 0 8 0 8 8 8 8 0 8 0 8 0 8 0 8 8 8 0 8 8 8 8 6 8 22 69 96 110 107 113 116 118 112 108 103 95 85 69 65 69 77 93 108 119 124 126 126 126 126 126 126 123 120 126 118 121 121 118 118 118 110 110 110 110 115 116 110 
10 19 10 19 11 10 10 10 10 10 10 12 10 10 19 8 10 10 12 10 12 8 6 12 6 12 8 10 8 8 12 8 12 8 12 8 12 8 12 8 12 8 8 12 8 0 8 8 0 8 8 8 8 8 0 8 0 8 8 8 8 12 8 8 8 8 0 8 0 8 8 8 8 8 0 8 8 8 8 8 8 8 0 0 8 8 8 8 8 0 8 0 8 0 8 0 0 8 0 8 8 8 8 0 8 8 8 8 8 8 8 0 8 8 8 8 6 8 61 100 107 112 110 112 108 103 93 78 69 69 79 85 95 112 119 123 123 126 126 123 126 123 126 126 123 123 121 121 118 118 115 118 110 110 110 118 112 110 112 110 
19 19 28 19 19 19 19 12 19 19 28 19 19 12 19 16 19 10 19 19 19 10 10 10 10 19 12 12 12 12 8 8 12 8 8 12 8 12 8 8 8 12 8 8 8 12 8 8 8 12 8 8 8 8 8 8 8 8 8 8 8 8 8 0 8 0 8 8 0 8 0 8 8 8 8 8 8 8 8 0 8 0 8 0 8 8 8 8 8 8 0 8 8 8 8 8 0 8 0 8 8 0 8 0 8 8 8 8 8 8 8 8 8 12 8 8 6 6 52 96 108 112 112 108 96 79 68 61 63 77 90 105 119 120 126 124 126 123 126 126 123 126 123 120 120 118 121 118 118 118 110 110 115 113 115 112 110 110 110 110 
30 30 28 30 28 30 29 30 30 26 22 28 26 26 26 28 28 28 28 19 28 19 28 19 19 12 18 12 18 10 10 19 12 12 12 8 12 12 8 10 12 8 8 12 8 8 12 0 8 8 8 8 8 8 8 8 8 8 8 12 8 12 8 8 8 8 8 8 8 8 8 8 8 8 8 8 8 8 8 8 8 8 8 8 8 0 8 0 8 8 0 8 8 8 8 0 8 0 8 8 0 8 8 0 8 0 8 8 0 8 12 8 8 12 8 8 8 10 48 85 101 101 101 93 77 61 61 71 79 93 104 120 124 126 120 123 120 123 126 123 126 120 120 121 118 118 118 118 115 110 115 113 110 110 110 110 110 110 104 102 
38 34 37 37 37 38 37 38 37 38 37 38 37 37 38 37 34 37 38 37 34 37 30 37 30 34 30 26 28 28 19 19 19 19 19 12 19 19 10 19 10 10 10 8 8 12 8 12 12 8 8 8 8 8 12 8 12 8 12 0 8 8 8 8 12 8 8 8 8 8 8 8 8 8 8 8 8 8 8 0 8 8 0 8 0 8 0 8 8 0 8 0 8 8 8 8 8 8 8 8 8 8 8 8 8 8 8 8 8 8 8 8 8 12 8 0 8 8 33 71 84 90 77 69 65 75 79 93 101 116 120 126 126 124 126 123 120 126 123 123 120 126 118 118 115 118 110 115 110 110 110 110 112 110 110 104 104 104 102 102 
54 51 54 51 54 51 54 54 59 54 54 54 54 51 54 38 54 51 38 54 38 38 54 38 38 37 38 37 37 38 37 34 37 30 30 33 26 28 28 19 28 19 19 10 10 10 10 10 12 12 8 12 8 8 8 8 8 0 8 8 0 8 8 8 8 8 0 8 0 0 8 8 8 8 0 8 8 0 8 8 8 0 8 0 8 8 8 8 8 8 8 0 8 0 8 8 8 0 8 8 8 0 8 8 0 8 8 8 8 8 8 8 8 8 8 0 8 8 18 37 68 69 63 68 77 91 108 120 120 126 134 124 123 123 126 123 123 123 126 118 121 118 118 115 118 115 115 110 110 110 110 108 110 108 104 104 104 102 102 102 
54 56 61 56 70 54 61 61 61 61 61 61 54 61 59 61 54 54 61 54 59 56 54 59 54 59 54 59 54 51 51 51 38 51 37 38 37 38 34 30 28 28 19 19 19 18 10 10 10 10 12 8 8 8 12 8 12 12 8 8 8 8 12 8 8 8 8 8 8 0 8 8 0 8 0 8 8 8 8 8 8 8 8 0 8 8 8 8 8 0 8 0 8 8 8 8 0 8 8 8 8 8 8 0 8 8 8 8 0 0 8 0 0 0 8 8 8 8 10 29 52 68 79 90 104 108 124 123 126 126 126 126 120 123 126 123 118 121 118 121 118 118 115 116 115 110 115 110 110 108 108 104 104 104 102 100 102 100 100 96 
60 60 64 61 61 68 70 61 64 64 64 66 70 61 70 70 70 59 70 59 70 51 70 54 61 61 61 54 59 70 51 56 59 54 51 54 51 37 51 37 37 37 37 34 33 26 26 19 19 19 10 12 12 12 8 12 10 8 8 12 0 8 8 12 8 8 8 8 8 8 0 8 8 0 8 8 0 8 8 0 8 8 8 8 8 0 8 8 0 8 0 8 8 8 8 8 8 0 8 8 8 8 8 8 8 8 8 0 8 0 0 0 0 8 0 8 8 8 8 18 52 85 103 119 124 126 123 123 129 126 123 123 121 123 126 121 113 118 113 118 118 115 115 110 110 110 110 108 107 104 102 104 104 101 101 96 96 96 96 96 
68 68 71 68 78 71 68 71 68 71 68 68 68 66 66 66 70 66 70 70 70 66 70 66 61 70 61 66 70 59 68 66 61 61 60 60 61 60 59 61 59 54 51 37 37 37 37 34 34 33 26 26 12 19 18 10 12 10 12 8 12 8 8 8 8 8 12 8 8 0 8 0 8 8 8 8 8 8 8 0 8 0 8 8 8 8 0 8 8 8 8 0 8 8 8 0 8 8 8 8 8 8 0 8 0 8 0 8 0 8 8 0 8 8 8 8 8 8 8 18 63 99 108 123 126 123 123 126 126 123 123 118 118 121 121 118 116 113 113 110 110 110 110 115 108 107 108 102 102 102 101 100 98 100 98 100 96 96 92 92 
71 78 71 79 79 78 79 78 78 71 79 76 78 71 76 72 66 68 66 66 66 66 68 70 66 68 68 70 70 66 68 71 68 68 68 61 68 61 63 56 61 56 56 59 60 54 51 51 37 37 37 34 34 29 26 19 19 11 12 10 10 10 12 8 8 8 8 12 8 12 8 12 8 8 8 8 8 8 8 8 8 8 8 8 8 8 8 8 8 8 8 8 8 8 8 8 8 8 0 0 8 0 8 8 8 0 8 0 8 8 8 8 8 8 0 8 0 8 8 18 63 112 119 124 123 123 126 123 126 121 118 123 118 113 116 116 110 110 110 110 110 110 108 108 102 107 102 104 100 100 96 100 96 101 96 96 93 93 85 85 
79 79 79 79 79 79 79 79 79 79 79 79 71 79 79 79 79 76 71 76 78 71 71 68 76 71 66 76 68 71 76 71 71 71 71 71 71 71 64 68 64 64 63 64 56 60 56 54 54 54 51 37 37 37 37 37 29 28 26 19 19 19 12 12 8 12 8 8 12 12 8 8 8 8 8 8 8 8 8 8 8 8 0 8 8 8 8 8 8 8 8 8 8 8 8 8 0 8 8 0 0 8 8 8 8 8 0 8 8 12 8 8 8 0 8 8 8 0 6 10 56 103 108 126 123 118 118 126 118 118 121 118 116 112 110 110 110 110 110 110 110 108 104 102 104 102 100 102 96 96 100 96 100 93 89 85 85 77 71 63 
87 82 86 82 76 87 82 76 82 76 84 79 79 84 79 86 79 79 79 79 79 79 78 76 79 76 76 79 76 79 79 79 79 79 79 71 79 71 79 71 71 71 71 71 64 64 68 61 60 60 56 61 56 54 54 37 37 37 30 30 22 28 12 19 10 10 12 12 8 12 8 6 8 12 6 8 8 8 8 8 8 0 8 8 8 8 8 8 8 8 8 8 8 8 8 8 8 8 8 0 8 8 8 0 8 8 8 8 8 8 8 8 8 8 8 8 8 8 0 6 47 93 112 120 118 118 118 118 118 118 116 115 112 110 110 112 110 110 104 104 104 104 104 102 100 96 96 96 100 96 96 93 85 85 77 71 68 61 59 52 
87 87 82 87 87 87 87 91 87 87 91 87 87 87 82 84 82 86 87 79 76 79 76 79 76 87 76 76 87 76 87 87 84 82 79 79 86 79 79 79 75 79 75 71 71 71 68 68 64 61 61 61 61 56 61 54 54 47 38 37 37 37 30 28 19 19 19 10 10 12 8 12 6 8 12 8 12 6 8 8 8 0 0 8 8 8 8 0 0 0 8 0 8 8 0 8 8 8 8 0 0 0 0 0 8 0 8 0 0 0 8 8 8 8 8 8 12 8 8 8 35 79 108 118 118 118 118 110 116 110 110 113 110 110 110 110 110 104 102 104 102 104 102 101 96 100 93 92 92 89 85 77 77 68 61 59 52 52 45 36 
87 87 87 87 91 91 87 93 90 87 87 87 91 87 87 87 87 90 87 87 87 87 87 87 82 86 82 87 87 87 87 87 82 84 87 82 82 87 79 79 79 79 79 79 76 71 71 71 68 64 64 70 61 70 61 70 54 54 56 54 47 38 37 34 30 28 28 19 12 16 10 10 10 8 6 8 8 12 8 8 8 8 0 8 8 0 8 8 8 8 8 8 8 8 8 0 8 8 8 8 8 8 8 0 8 8 12 8 8 0 8 8 8 8 0 8 8 12 0 8 22 69 104 112 110 116 115 110 118 110 110 110 110 110 110 107 110 102 104 102 104 100 96 96 96 93 85 85 77 75 71 61 56 48 47 45 45 36 36 36 
91 91 95 91 95 93 90 89 91 87 91 93 87 95 87 87 90 89 91 87 87 91 87 87 87 91 87 87 87 95 90 89 91 90 87 87 87 87 87 82 86 82 87 79 79 79 79 76 71 79 78 71 68 70 61 70 59 70 54 56 56 54 54 51 38 38 37 30 30 28 19 12 19 10 10 10 12 8 12 8 0 8 8 0 8 0 0 8 8 12 8 8 8 8 12 8 0 8 8 8 8 12 8 8 0 8 8 8 8 8 0 12 8 8 0 12 8 8 8 8 18 52 93 110 110 110 112 115 112 110 110 110 105 110 102 102 104 99 96 96 96 96 96 90 85 77 72 68 63 56 52 48 45 45 35 36 35 33 29 35 
95 93 95 95 93 93 95 95 95 95 93 95 93 93 93 90 93 93 95 90 89 91 95 91 95 91 95 91 95 93 93 95 93 93 93 93 90 90 87 87 90 87 87 90 82 79 79 79 79 79 79 75 76 71 68 70 70 70 70 70 61 56 70 51 57 51 38 38 37 30 30 26 19 19 10 10 12 8 12 8 8 12 8 12 8 8 0 8 12 0 8 8 8 8 8 8 8 8 8 8 8 8 8 8 8 0 8 0 8 0 8 8 8 8 0 0 12 8 8 8 8 36 77 110 110 110 110 112 110 110 110 105 102 102 102 102 100 96 96 96 93 90 79 77 72 64 59 52 48 45 36 36 36 36 36 33 29 33 33 33 
96 95 98 101 98 95 98 95 96 93 98 93 98 93 95 93 96 90 93 95 95 93 90 93 93 93 90 93 90 95 96 96 93 96 93 90 93 93 90 89 87 90 90 87 87 87 82 87 82 79 79 79 75 71 79 76 71 68 70 61 70 56 70 14 64 56 57 54 38 38 37 30 30 19 19 10 12 12 8 12 8 8 12 8 12 8 0 8 8 12 0 12 0 8 8 8 8 8 8 0 8 0 8 8 8 8 8 8 8 8 0 8 8 8 0 8 8 0 0 8 10 29 69 101 112 108 112 115 108 102 102 102 102 100 96 96 96 92 93 89 85 79 72 71 63 52 37 45 36 36 36 36 36 29 33 29 33 33 36 34 
93 101 96 99 96 93 100 98 97 98 93 93 95 96 98 96 93 98 93 96 96 96 96 96 96 93 98 93 96 100 96 96 96 96 96 96 96 92 90 92 89 89 87 89 89 87 85 82 82 79 82 79 82 79 79 75 79 71 76 71 64 64 64 72 70 70 51 70 38 54 38 38 37 34 28 19 19 10 10 10 12 8 8 8 12 8 8 12 8 12 8 8 12 0 8 0 8 8 8 0 8 8 8 8 12 12 8 8 8 8 8 8 8 8 0 0 12 8 0 8 6 19 59 102 108 104 108 112 100 102 100 100 100 96 100 92 92 89 79 79 72 71 63 57 37 47 45 36 36 36 36 36 33 33 29 33 29 33 29 33 
101 96 101 96 101 96 101 101 101 100 98 100 96 101 96 101 96 93 96 96 96 101 100 96 101 96 100 100 99 100 102 102 102 102 96 96 96 96 96 96 93 89 92 90 89 89 90 85 90 85 87 82 82 79 82 79 79 79 75 75 75 71 71 70 56 70 70 51 70 54 54 54 38 51 34 38 30 28 19 19 8 10 8 10 12 8 0 8 8 12 0 12 0 12 8 12 8 8 8 8 8 8 0 8 8 8 8 0 8 0 8 8 8 8 8 0 8 8 0 0 8 8 48 101 101 101 104 101 96 100 96 92 92 92 92 85 77 77 69 56 56 47 45 36 48 35 29 33 30 33 34 29 37 33 34 33 33 29 33 26 
100 104 104 104 100 101 102 96 104 96 100 96 96 104 100 96 96 102 96 100 100 99 100 102 102 104 100 104 102 102 104 102 102 102 102 96 96 102 96 96 96 96 89 96 93 89 92 90 92 89 85 87 85 90 87 87 82 79 82 79 79 71 71 70 70 70 70 54 70 54 54 54 54 38 38 37 38 34 28 28 19 12 10 19 8 12 8 12 8 12 8 12 8 12 8 8 8 8 8 8 0 8 8 8 8 8 8 0 8 0 8 8 8 8 8 8 8 8 0 0 10 6 45 93 100 96 101 101 96 97 93 92 89 85 77 71 63 56 52 48 45 36 36 37 29 34 33 30 33 34 29 34 34 29 33 30 29 34 30 33 
104 104 100 104 104 102 101 102 101 102 96 100 104 102 104 104 102 98 102 104 102 104 102 104 102 104 105 102 102 102 102 102 102 102 102 102 96 102 96 96 96 96 96 96 96 96 96 92 90 92 93 89 93 89 90 87 87 87 85 82 79 75 71 66 68 70 70 54 70 59 61 61 54 60 59 54 38 51 38 30 28 28 19 10 10 12 12 8 12 8 12 8 12 8 8 8 8 8 8 8 8 8 8 8 8 0 8 0 8 0 8 0 8 8 8 0 0 0 8 0 8 6 33 77 93 93 95 93 95 93 89 85 77 71 63 52 48 45 36 36 36 36 29 33 29 36 30 34 34 29 34 29 33 30 26 33 28 33 28 26 
107 104 102 104 102 104 108 104 102 104 108 107 104 104 102 104 102 104 102 102 104 102 102 110 110 110 108 110 102 110 105 110 102 105 102 102 102 102 102 102 102 99 102 96 96 96 96 96 96 96 96 93 96 93 92 93 89 90 85 79 79 79 79 79 71 66 68 68 68 70 61 64 61 56 61 54 56 47 51 38 37 30 30 19 19 10 10 10 8 8 12 8 0 12 8 0 0 8 0 8 8 8 8 8 0 8 0 8 0 8 0 8 8 8 8 8 0 12 0 8 8 8 19 75 85 93 93 85 89 79 75 64 60 59 48 45 36 36 29 36 29 37 33 29 29 34 34 29 34 26 34 26 26 26 34 26 29 26 26 26 
104 107 104 107 110 104 110 104 110 102 110 108 105 104 105 104 105 108 105 110 110 104 110 107 110 110 110 110 105 110 110 105 110 102 105 102 102 105 102 96 102 102 102 102 102 102 96 100 96 93 96 96 93 96 96 93 90 89 87 89 85 79 79 78 78 75 78 76 71 68 68 70 61 61 70 59 70 38 56 54 54 51 38 38 28 28 19 10 10 10 8 12 8 8 12 8 12 0 8 8 8 8 8 8 0 8 8 8 8 0 8 8 8 8 0 8 8 12 0 8 8 8 17 52 83 82 79 77 71 66 56 52 37 45 36 29 36 33 33 34 33 34 29 33 30 33 28 33 28 29 26 26 26 29 26 26 26 26 26 26 
110 108 110 107 108 110 108 105 107 107 102 102 105 108 107 107 107 110 110 110 110 110 110 110 110 115 110 110 110 110 110 110 105 110 102 105 105 102 105 105 105 102 105 102 96 102 100 102 100 100 100 96 100 96 96 93 93 93 90 85 85 85 79 79 79 78 79 78 78 71 71 68 70 61 64 70 54 64 56 54 70 51 47 38 37 30 28 19 19 19 10 12 12 8 8 12 8 12 8 8 0 8 0 0 8 0 8 8 8 8 8 8 8 8 8 0 12 8 12 0 0 8 8 35 63 68 69 60 56 47 51 36 36 33 29 33 29 34 29 29 33 34 26 26 33 26 29 26 33 26 26 26 26 26 26 26 26 29 29 26 
110 107 110 110 105 110 110 110 105 107 110 102 110 107 110 110 110 110 113 110 118 113 118 118 113 118 113 110 113 113 113 110 110 105 110 110 105 110 105 102 110 105 105 105 105 102 102 102 102 102 100 102 96 100 100 96 92 93 93 93 85 85 85 84 85 85 79 79 79 79 76 68 71 68 68 70 68 70 70 54 70 51 57 51 51 38 30 30 28 19 19 8 10 8 8 12 8 8 8 8 8 8 8 8 0 8 0 8 8 8 8 8 8 8 8 8 0 12 0 0 8 6 10 19 48 52 52 37 37 42 36 34 33 29 33 29 34 33 26 34 33 29 26 26 33 26 26 26 26 26 26 26 26 26 19 26 26 26 26 29 
110 110 110 110 110 105 110 110 110 110 110 105 110 110 110 113 110 113 118 118 118 118 120 118 118 113 115 118 115 113 115 113 110 110 105 112 110 105 105 110 105 110 105 105 102 110 105 107 102 102 102 102 100 96 100 100 96 96 92 93 93 89 89 87 85 85 84 85 84 79 79 76 78 76 71 71 71 70 61 70 70 51 70 47 70 38 38 38 38 30 28 19 19 6 10 8 8 8 8 8 8 8 8 8 8 0 8 8 8 8 8 8 8 8 0 8 0 0 12 12 0 8 8 8 33 35 45 36 29 33 30 33 34 34 29 34 33 28 33 26 29 33 26 26 26 29 26 26 26 26 26 26 26 26 26 26 26 19 26 19 
113 110 110 113 110 110 110 110 110 110 110 110 110 113 113 113 113 118 113 113 120 118 118 120 113 118 118 116 115 115 113 112 112 110 110 105 110 110 110 105 110 105 110 105 110 105 105 110 105 102 102 102 102 102 102 100 100 96 96 96 92 93 93 89 89 87 89 82 85 87 85 82 79 79 79 75 71 71 76 61 70 56 70 51 56 56 56 54 37 38 37 28 28 19 19 6 10 6 8 8 12 8 12 12 0 8 8 8 0 8 8 8 8 8 8 8 0 12 0 0 8 8 8 8 17 29 29 33 33 34 34 34 33 28 33 26 26 26 26 26 26 26 26 26 26 26 19 26 19 26 18 19 18 18 26 18 26 19 26 18 
110 118 118 110 115 110 110 110 113 110 110 113 113 118 113 118 118 113 120 118 120 120 121 118 120 118 120 118 120 119 115 115 115 112 110 110 110 110 110 110 113 110 110 110 105 110 110 105 110 105 105 102 105 102 102 102 99 100 96 96 93 96 93 90 89 87 85 89 82 85 82 79 82 79 79 79 79 76 78 71 68 70 61 70 61 56 54 54 56 51 38 38 30 19 19 10 12 8 10 8 8 8 8 8 8 8 0 8 8 8 8 8 8 8 8 8 8 0 8 8 8 8 8 8 10 26 33 26 33 34 33 30 33 29 26 26 26 26 26 26 26 19 26 26 26 26 18 26 18 26 18 26 18 18 18 18 26 18 18 18 
113 118 113 118 110 113 110 118 113 118 118 118 118 118 118 120 121 121 118 120 121 126 126 126 120 120 126 119 118 120 115 119 112 115 115 112 115 112 113 112 110 112 113 112 115 113 105 113 105 110 105 105 105 107 102 102 102 99 100 96 93 96 92 93 92 89 85 85 85 90 85 79 84 79 82 79 79 79 79 75 71 68 64 68 70 61 61 56 54 56 47 38 37 30 30 19 10 19 12 8 12 8 12 8 12 0 12 8 8 8 8 8 8 8 8 8 8 8 0 8 8 8 0 8 16 26 33 26 26 26 33 26 26 26 26 26 26 26 17 26 19 26 26 19 26 19 26 18 18 18 18 18 18 18 26 18 18 18 18 26 
118 118 118 118 113 110 118 113 118 118 118 118 121 120 121 118 121 120 126 126 120 126 127 120 126 120 126 126 119 120 120 115 115 119 112 115 112 115 115 115 115 113 115 110 113 112 110 110 110 105 110 105 107 105 110 102 102 99 100 96 100 100 96 96 93 93 89 93 89 87 89 85 82 84 82 85 82 85 82 79 75 78 71 71 68 70 61 70 70 54 59 56 51 38 38 28 19 19 10 10 12 8 0 12 8 12 0 8 8 8 8 8 8 8 8 8 8 0 8 0 8 8 8 8 16 18 33 26 33 26 26 26 26 26 26 26 26 18 26 18 26 18 17 26 18 18 18 18 18 18 18 18 18 18 18 18 18 18 18 26 
118 118 118 118 118 118 113 118 118 118 121 120 118 120 121 120 126 120 126 120 127 126 128 126 123 120 127 120 126 119 126 119 119 115 115 119 115 115 116 115 116 115 113 115 113 115 113 113 113 113 110 113 110 110 105 104 102 102 100 100 96 100 96 96 96 93 92 89 93 93 89 87 89 87 85 87 79 82 79 79 79 75 79 76 71 68 68 70 70 70 70 51 70 38 38 38 30 28 19 19 8 8 12 8 12 12 8 12 0 8 8 8 8 8 8 0 8 8 8 8 0 0 0 8 10 26 26 26 26 26 26 26 26 17 26 18 19 26 18 18 18 18 18 18 18 18 18 18 18 16 11 16 18 18 18 11 16 18 18 19 
120 118 120 120 118 118 120 121 121 126 118 126 126 120 126 120 127 126 123 126 127 128 127 127 126 120 126 127 119 126 119 126 119 119 119 120 119 120 115 119 119 119 119 113 119 113 119 113 115 113 113 110 113 110 110 102 110 102 102 102 100 102 100 100 96 96 96 96 93 96 93 93 90 89 87 85 85 85 87 87 82 79 79 79 79 76 71 66 70 51 70 70 51 70 47 51 38 38 28 19 11 12 8 12 8 12 8 12 8 8 8 0 8 8 0 8 8 8 8 0 8 8 0 8 8 18 26 26 26 19 26 19 17 19 26 18 18 18 18 18 18 18 18 11 18 18 16 18 10 18 16 17 10 18 16 18 17 18 18 26 
126 120 118 126 120 120 126 120 126 120 126 126 123 126 127 128 120 128 128 128 128 127 128 127 127 126 127 123 123 123 127 119 123 120 123 119 126 119 120 119 120 116 119 119 119 113 115 116 113 112 112 110 113 110 110 104 107 110 102 102 102 102 100 96 100 96 96 96 96 96 96 92 93 93 93 90 90 89 87 85 87 82 84 82 79 79 76 68 68 66 70 70 70 51 56 54 47 38 37 28 26 12 19 10 12 6 12 8 8 8 12 8 8 8 8 8 0 8 8 8 0 8 0 8 8 16 18 17 26 26 19 26 26 18 18 18 18 18 18 18 17 10 16 17 10 10 10 10 10 10 10 10 10 10 10 16 10 18 18 18 
126 120 126 120 126 120 126 126 126 127 128 126 127 127 124 127 128 128 131 128 131 128 132 127 127 127 127 127 123 127 127 123 123 123 123 123 123 123 123 120 119 119 120 120 119 119 119 119 115 115 115 113 115 113 105 110 105 107 110 107 102 102 102 102 102 96 100 96 100 96 100 96 96 96 93 96 93 93 90 89 87 82 79 87 79 79 79 76 78 76 70 70 70 70 70 51 54 51 38 37 34 28 18 19 10 12 12 8 12 8 8 8 0 12 8 0 8 8 0 8 8 8 0 8 8 16 16 18 18 18 26 18 18 18 16 16 17 10 17 10 10 10 10 10 8 10 8 8 8 10 8 8 8 8 10 10 16 17 10 16 
119 120 119 126 123 126 127 127 127 128 127 128 128 128 132 131 135 135 131 135 133 127 133 128 127 127 127 127 127 123 127 119 127 119 123 123 123 123 123 123 123 120 123 119 120 119 120 120 116 116 115 116 115 113 110 110 110 102 110 102 102 100 102 102 102 102 102 96 96 100 96 102 96 96 96 93 96 93 92 85 87 85 87 82 87 82 84 75 75 79 66 76 70 70 51 70 54 54 59 38 37 34 34 19 19 10 8 8 8 12 8 12 8 0 8 8 8 8 8 8 8 0 8 8 8 10 16 16 17 18 18 18 16 16 10 10 8 8 8 8 8 8 8 8 8 8 8 8 8 8 8 8 8 8 8 10 8 10 16 16 
123 126 123 123 127 127 128 128 128 128 132 131 133 135 131 132 135 135 135 133 132 130 131 130 131 127 127 127 124 124 127 124 123 123 127 119 127 119 119 119 127 123 119 123 119 120 119 120 119 119 113 119 113 115 113 110 110 110 102 102 107 102 105 107 105 107 102 102 96 102 100 96 102 100 96 96 93 96 93 89 93 89 89 87 89 87 90 82 79 82 79 76 68 66 70 59 70 54 61 59 51 37 37 34 19 19 10 12 8 12 8 8 8 8 8 8 8 8 8 8 8 0 8 8 8 8 16 18 16 16 16 16 10 8 8 8 8 8 8 8 8 8 8 8 8 8 8 8 8 8 8 8 0 8 8 8 8 10 10 17 
127 119 127 123 128 128 130 128 133 128 135 128 135 135 133 135 135 135 133 135 130 133 127 133 130 131 129 131 127 133 124 127 124 124 124 127 124 127 124 119 127 127 127 123 123 127 119 120 119 120 119 115 112 112 115 113 110 110 110 107 105 107 102 105 102 105 102 102 102 102 102 102 102 102 100 102 96 96 96 96 96 93 90 92 90 87 87 87 87 87 87 79 79 71 70 70 59 61 61 64 54 54 54 37 34 26 12 10 10 8 8 12 8 8 8 8 8 8 8 8 8 8 8 8 8 8 10 17 10 10 10 8 8 8 8 8 8 8 0 8 8 8 12 0 8 8 8 8 0 8 0 8 8 0 8 0 8 8 8 10 
127 127 127 128 127 135 127 135 128 135 135 135 133 135 138 135 138 133 135 133 133 133 133 127 133 127 127 129 124 127 133 124 131 124 131 124 131 127 127 127 127 124 123 123 119 119 127 123 123 119 119 119 115 112 115 110 115 110 110 110 110 110 110 105 92 107 105 110 110 102 105 102 102 102 102 102 102 102 102 96 96 96 96 90 92 89 89 90 87 87 87 82 79 76 78 68 68 68 68 64 61 56 61 54 37 37 34 19 19 10 12 8 0 12 0 12 8 8 8 0 8 8 8 8 8 8 8 8 8 8 8 12 8 8 12 8 8 0 8 8 8 8 8 0 0 0 0 8 0 8 8 8 8 8 0 8 0 8 8 8 
127 127 130 133 128 133 135 135 133 135 135 135 135 138 138 138 135 137 133 133 130 133 133 133 129 133 129 133 124 133 129 133 129 131 129 133 129 127 129 127 129 127 124 127 124 127 127 119 127 119 119 119 115 115 112 115 110 110 110 110 115 110 110 110 110 110 105 110 110 105 102 102 102 102 102 102 102 96 102 96 90 96 93 96 90 92 87 93 93 90 87 87 79 79 75 75 71 71 71 70 63 60 60 56 54 38 37 34 19 10 10 10 8 8 8 8 8 8 8 0 8 0 8 0 0 8 8 8 8 8 8 8 8 8 8 8 8 0 8 0 0 8 0 8 8 0 8 0 8 0 8 8 8 8 0 0 8 0 8 8 
